<?xml version="1.0" encoding="UTF-8"?>
<svg width="60px" height="60px" viewBox="0 0 60 60" version="1.1" xmlns="http://www.w3.org/2000/svg" xmlns:xlink="http://www.w3.org/1999/xlink">
    <!-- Generator: Sketch 52.1 (67048) - http://www.bohemiancoding.com/sketch -->
    <title>Group 21</title>
    <desc>Created with Sketch.</desc>
    <g id="Page-1" stroke="none" stroke-width="1" fill="none" fill-rule="evenodd">
        <g id="官网-科研服务" transform="translate(-512.000000, -3018.000000)">
            <g id="Group-21" transform="translate(514.000000, 3020.000000)">
                <path d="M56,29 C56,43.91075 43.9236377,56 29.0287833,56 C24.3037633,56 19.8619411,54.7833125 16,52.6469375" id="Stroke-1" stroke="#575859" stroke-width="3"></path>
                <path d="M2.70132533,39 C1.09636084,36.5058239 1.56622977,37.1572239 0.825217837,34.1882115 C0.286300066,32.0265922 0,29.7604061 0,27.4273658 C0,12.2788888 12.0650216,0 26.9458886,0 C34.3880062,0 41.1244783,3.07015076 46,8.03278977" id="Stroke-3" stroke="#575859" stroke-width="3"></path>
                <path d="M15,45 C15,48.3137143 12.3137143,51 9,51 C5.68628571,51 3,48.3137143 3,45 C3,41.6862857 5.68628571,39 9,39 C12.3137143,39 15,41.6862857 15,45 Z" id="Stroke-5" stroke="#575859" stroke-width="3"></path>
                <path d="M56,18 C56,20.2096 54.2096,22 52,22 C49.7904,22 48,20.2096 48,18 C48,15.7904 49.7904,14 52,14 C54.2096,14 56,15.7904 56,18" id="Fill-7" fill="#575859"></path>
                <path d="M56,18 C56,20.2096 54.2096,22 52,22 C49.7904,22 48,20.2096 48,18 C48,15.7904 49.7904,14 52,14 C54.2096,14 56,15.7904 56,18 Z" id="Stroke-9" stroke="#575859" stroke-width="3"></path>
                <path d="M25,14.8769799 C31.9095665,12.1948375 39.5930997,15.8716817 42.1599475,23.0868224 C42.9747388,25.3746366 43.1771608,27.7441584 42.8522649,30" id="Stroke-11" stroke="#575859" stroke-width="3"></path>
                <path d="M39,37.9253538 C38.1322112,39.0979137 38.3500159,38.7680244 37.1135026,39.6192413 C36.2131288,40.2397067 35.2201451,40.759325 34.1465566,41.1558759 C27.180236,43.736875 19.4353065,40.2003934 16.847375,33.2573349 C15.5525517,29.7858056 15.7909364,26.1194195 17.2263895,23" id="Stroke-13" stroke="#575859" stroke-width="3"></path>
                <path d="M39.9551798,31.1884059 C41.5085817,30.6117582 43.2332247,31.4033382 43.8116004,32.9550446 C44.3882288,34.506751 43.5966753,36.2331991 42.0450208,36.8115941 C40.4916189,37.3882418 38.7652285,36.5966618 38.1886002,35.0449554 C37.6119718,33.4915016 38.4017779,31.7650535 39.9551798,31.1884059 Z" id="Stroke-15" stroke="#575859" stroke-width="3"></path>
                <path d="M20.303556,17.1259621 C21.3392514,16.7410422 22.4891181,17.2678605 22.8740379,18.303556 C23.2589578,19.3392514 22.7321395,20.4907491 21.696444,20.8740379 C20.6607486,21.2589578 19.5108819,20.7321395 19.1259621,19.696444 C18.7410422,18.6607486 19.2678605,17.5108819 20.303556,17.1259621" id="Fill-17" fill="#575859"></path>
                <path d="M20.303556,17.1259621 C21.3392514,16.7410422 22.4891181,17.2678605 22.8740379,18.303556 C23.2589578,19.3392514 22.7321395,20.4907491 21.696444,20.8740379 C20.6607486,21.2589578 19.5108819,20.7321395 19.1259621,19.696444 C18.7410422,18.6607486 19.2678605,17.5108819 20.303556,17.1259621 Z" id="Stroke-19" stroke="#575859" stroke-width="3"></path>
            </g>
        </g>
    </g>
</svg>