<?xml version="1.0" encoding="UTF-8"?>
<svg width="70px" height="74px" viewBox="0 0 70 74" version="1.1" xmlns="http://www.w3.org/2000/svg" xmlns:xlink="http://www.w3.org/1999/xlink">
    <!-- Generator: Sketch 52.1 (67048) - http://www.bohemiancoding.com/sketch -->
    <title>8</title>
    <desc>Created with Sketch.</desc>
    <g id="Page-1" stroke="none" stroke-width="1" fill="none" fill-rule="evenodd" opacity="0.85">
        <g id="医咖会4.0-首页" transform="translate(-774.000000, -2315.000000)">
            <g id="8" transform="translate(774.000000, 2315.000000)">
                <g id="XMLID_31_" transform="translate(4.631659, 3.354431)" fill="#3B3C3D" fill-rule="nonzero">
                    <path d="M18.3943017,60.9835532 C18.1296355,60.9835532 17.8649693,60.9164646 17.6003031,60.7822873 C15.1521406,59.440515 12.9024778,57.8303882 10.8513147,55.8848183 C-2.18349625,43.6746899 -3.04366144,22.9443071 8.99865121,9.72784952 C13.2994772,5.0316463 18.7913011,1.74430405 24.8786239,0.201265852 C25.7387891,-2.66453526e-15 26.6651209,0.536708939 26.8636205,1.40886096 C27.0621202,2.28101299 26.5327878,3.22025363 25.6726226,3.42151949 C20.1807987,4.83038045 15.2844737,7.78227962 11.4468137,12.0088625 C0.66166553,23.8835478 1.38949761,42.4670948 13.1009775,53.4025394 C14.953641,55.1468435 17.0048041,56.6227931 19.1883004,57.7632996 C19.982299,58.1658313 20.3131318,59.2392491 19.8499659,60.0443125 C19.5191331,60.6481101 18.9898007,60.9835532 18.3943017,60.9835532 Z" id="XMLID_12_"></path>
                </g>
                <g id="XMLID_32_" transform="translate(0.000000, 2.683545)" fill="#3B3C3D" fill-rule="nonzero">
                    <path d="M35.3991059,65.746845 L14.2258089,65.746845 L1.78649693,65.4784906 C0.860165189,65.4784906 0.132333106,64.6734271 0.198499659,63.7341865 C0.198499659,62.7949459 0.992498295,62.0569711 1.91883004,62.1240597 L14.358142,62.3924142 L35.531439,62.3924142 C44.7947564,62.3924142 52.999409,58.9708947 58.6897325,52.7316533 C69.5410472,40.7898794 68.8132151,22.1392437 57.0355687,11.1367105 C53.5287414,7.84936823 49.294082,5.50126662 44.7285898,4.29367151 L44.5962567,4.22658289 C44.5962567,4.22658289 42.1480943,3.42151949 34.6712738,3.42151949 C33.744942,3.42151949 33.0171099,2.68354469 33.0171099,1.74430405 C33.0171099,0.805063408 33.744942,0.0670886174 34.6712738,0.0670886174 C42.2142608,0.0670886174 45.0594226,0.872152026 45.6549216,1.07341788 C50.6835796,2.41519023 55.4475714,5.0316463 59.2852315,8.65443164 C72.386209,20.9316486 73.2463742,41.6620314 61.137895,55.0126662 C54.7197393,61.9227938 45.588755,65.746845 35.3991059,65.746845 Z" id="XMLID_11_"></path>
                </g>
                <g id="XMLID_35_" transform="translate(49.624915, 67.088617)" fill="#3B3C3D" fill-rule="nonzero">
                    <path d="M15.8799727,3.35443087 L1.98499659,3.35443087 C1.05866485,3.35443087 0.330832765,2.61645608 0.330832765,1.67721543 C0.330832765,0.737974791 1.05866485,0 1.98499659,0 L15.8799727,0 C16.8063045,0 17.5341365,0.737974791 17.5341365,1.67721543 C17.5341365,2.61645608 16.8063045,3.35443087 15.8799727,3.35443087 Z" id="XMLID_10_"></path>
                </g>
                <g id="XMLID_33_" transform="translate(62.196560, 64.405073)" fill="#3B3C3D" fill-rule="nonzero">
                    <path d="M1.72033038,8.78860888 C1.32333106,8.78860888 0.992498295,8.65443164 0.727832083,8.31898855 C0.264666212,7.78227962 0.330832765,6.91012759 0.860165189,6.44050727 L2.77899523,4.76329183 L1.05866485,2.81772193 C0.595498977,2.28101299 0.595498977,1.40886096 1.19099795,0.939240643 C1.72033038,0.469620322 2.58049557,0.469620322 3.04366144,1.07341788 L5.69032356,4.02531704 C5.95498977,4.29367151 6.02115632,4.6291146 6.02115632,5.0316463 C6.02115632,5.36708939 5.82265666,5.70253248 5.55799045,5.97088695 L2.58049557,8.58734302 C2.31582936,8.65443164 1.98499659,8.78860888 1.72033038,8.78860888 Z" id="XMLID_9_"></path>
                </g>
                <g id="XMLID_30_" transform="translate(32.421611, 0.000000)" fill="#3B3C3D" fill-rule="nonzero">
                    <path d="M5.02865803,8.78860888 C4.69782526,8.78860888 4.3669925,8.65443164 4.10232629,8.38607717 L0.926331742,5.30000077 C0.396999318,4.76329183 0.396999318,3.95822843 0.926331742,3.42151949 L3.83766007,0.402531704 C4.3669925,-0.134177235 5.16099113,-0.134177235 5.69032356,0.402531704 C6.21965598,0.939240643 6.21965598,1.74430405 5.69032356,2.28101299 L3.70532697,4.36076013 L5.88882322,6.50759589 C6.41815564,7.04430482 6.41815564,7.84936823 5.88882322,8.38607717 C5.69032356,8.65443164 5.35949079,8.78860888 5.02865803,8.78860888 Z" id="XMLID_8_"></path>
                </g>
                <polygon id="￥" fill="#454545" points="24.752 19.728 28.510327 19.9835998 37.9103079 36.0735326 47.3061613 19.9835998 51.248 19.728 41.456 36.96 48.608 36.96 48.608 39.36 39.5117327 38.7833964 39.5117327 43.4873964 48.608 44.064 48.608 46.464 39.5117327 45.8873964 39.5117327 53.4233964 36.2877327 53.4233964 36.2877327 45.8873964 27.44 46.464 27.44 44.064 36.2877327 43.4873964 36.2877327 38.7833964 27.44 39.36 27.44 36.96 34.544 36.96"></polygon>
            </g>
        </g>
    </g>
</svg>