<?xml version="1.0" encoding="UTF-8"?>
<svg width="61px" height="60px" viewBox="0 0 61 60" version="1.1" xmlns="http://www.w3.org/2000/svg" xmlns:xlink="http://www.w3.org/1999/xlink">
    <!-- Generator: Sketch 52.1 (67048) - http://www.bohemiancoding.com/sketch -->
    <title>Group 17</title>
    <desc>Created with Sketch.</desc>
    <g id="Page-1" stroke="none" stroke-width="1" fill="none" fill-rule="evenodd">
        <g id="官网-科研服务" transform="translate(-1043.000000, -2823.000000)">
            <g id="Group-17" transform="translate(1045.000000, 2825.000000)">
                <polygon id="Stroke-1" stroke="#575859" stroke-width="3" stroke-linecap="round" stroke-linejoin="round" points="50 43.243344 28.2992644 56 6.3001685 43.7575519 6 18.756656 27.7007356 6 49.6998315 18.2424481"></polygon>
                <polygon id="Stroke-3" stroke="#575859" stroke-width="3" stroke-linecap="round" stroke-linejoin="round" points="27.5 10 7 45 48 45"></polygon>
                <path d="M32,5.5 C32,8.53783333 29.5378333,11 26.5,11 C23.4621667,11 21,8.53783333 21,5.5 C21,2.46216667 23.4621667,0 26.5,0 C29.5378333,0 32,2.46216667 32,5.5" id="Fill-5" fill="#F3F6F9"></path>
                <path d="M33,5.5 C33,8.53783333 30.5378333,11 27.5,11 C24.4621667,11 22,8.53783333 22,5.5 C22,2.46216667 24.4621667,0 27.5,0 C30.5378333,0 33,2.46216667 33,5.5 Z" id="Stroke-7" stroke="#575859" stroke-width="3" stroke-linecap="round" stroke-linejoin="round"></path>
                <path d="M57,44.5 C57,47.5378333 54.5378333,50 51.5,50 C48.4621667,50 46,47.5378333 46,44.5 C46,41.4621667 48.4621667,39 51.5,39 C54.5378333,39 57,41.4621667 57,44.5" id="Fill-9" fill="#F3F6F9"></path>
                <path d="M57,44.5 C57,47.5378333 54.5378333,50 51.5,50 C48.4621667,50 46,47.5378333 46,44.5 C46,41.4621667 48.4621667,39 51.5,39 C54.5378333,39 57,41.4621667 57,44.5 Z" id="Stroke-11" stroke="#575859" stroke-width="3" stroke-linecap="round" stroke-linejoin="round"></path>
                <path d="M11,44.5 C11,47.5378333 8.53783333,50 5.5,50 C2.46216667,50 0,47.5378333 0,44.5 C0,41.4621667 2.46216667,39 5.5,39 C8.53783333,39 11,41.4621667 11,44.5" id="Fill-13" fill="#F3F6F9"></path>
                <path d="M11,44.5 C11,47.5378333 8.53783333,50 5.5,50 C2.46216667,50 0,47.5378333 0,44.5 C0,41.4621667 2.46216667,39 5.5,39 C8.53783333,39 11,41.4621667 11,44.5 Z" id="Stroke-15" stroke="#575859" stroke-width="3" stroke-linecap="round" stroke-linejoin="round"></path>
            </g>
        </g>
    </g>
</svg>