<?xml version="1.0" encoding="UTF-8"?>
<svg width="62px" height="62px" viewBox="0 0 62 62" version="1.1" xmlns="http://www.w3.org/2000/svg" xmlns:xlink="http://www.w3.org/1999/xlink">
    <!-- Generator: Sketch 50 (54983) - http://www.bohemiancoding.com/sketch -->
    <title>5</title>
    <desc>Created with Sketch.</desc>
    <defs></defs>
    <g id="Page-1" stroke="none" stroke-width="1" fill="none" fill-rule="evenodd" opacity="0.85">
        <g id="官网-科研服务" transform="translate(-496.000000, -2283.000000)" fill-rule="nonzero">
            <g id="5" transform="translate(496.000000, 2283.000000)">
                <g id="XMLID_117_" transform="translate(32.619757, 0.000000)" fill="#3B3C3D">
                    <path d="M1.56825755,29.4860904 C1.12914543,29.4860904 0.752763623,29.4860904 0.439112113,29.1724086 C0.125460604,28.8587268 0,28.6077814 0,28.1686268 L0,2.07029997 C0,1.19199089 0.690033321,0.501890901 1.56825755,0.501890901 C8.90770287,0.501890901 15.8080361,3.32502722 20.9519208,8.53214532 C26.0330753,13.6765271 28.8559389,20.5147906 28.8559389,27.854945 C28.8559389,28.7332541 28.1659056,29.2978814 27.2876813,29.2978814 L1.56825755,29.4860904 C1.56825755,29.4860904 1.56825755,29.4860904 1.56825755,29.4860904 Z M3.1365151,3.7014454 L3.1365151,26.6002178 L25.6566935,26.286536 C24.9039299,13.9902089 15.368924,4.45428175 3.1365151,3.7014454 Z" id="XMLID_8_"></path>
                </g>
                <g id="XMLID_29_" transform="translate(0.000000, 1.882091)" fill="#3B3C3D">
                    <path d="M29.9850843,59.5995445 C13.5497452,59.5995445 0.188190906,46.2366993 0.188190906,29.7997723 C0.188190906,13.3628452 13.5497452,0 29.9850843,0 C30.8633085,0 31.5533419,0.690099989 31.5533419,1.56840907 C31.5533419,2.44671814 30.8633085,3.13681813 29.9850843,3.13681813 C15.3061937,3.13681813 3.324706,15.1194634 3.324706,29.7997723 C3.324706,44.4800811 15.3061937,56.4627264 29.9850843,56.4627264 C44.663975,56.4627264 56.6454626,44.4800811 56.6454626,29.7997723 C56.6454626,28.9214632 57.335496,28.2313632 58.2137202,28.2313632 C59.0919444,28.2313632 59.7819777,28.9214632 59.7819777,29.7997723 C59.7819777,46.2366993 46.4204234,59.5995445 29.9850843,59.5995445 Z" id="XMLID_7_"></path>
                </g>
                <g id="XMLID_118_" transform="translate(3.763818, 5.646273)" fill="#3B3C3D">
                    <path d="M26.2212662,51.6947628 C12.1069483,51.6947628 0.564572717,40.2140085 0.564572717,26.0355905 C0.564572717,12.4845362 11.1659937,1.25472725 24.6530087,0.439154539 C25.5312329,0.376418176 26.2839965,1.06651817 26.2839965,1.88209088 C26.3467268,2.76039996 25.6566935,3.51323631 24.8411996,3.51323631 C12.9851725,4.2033363 3.70108781,14.1156816 3.70108781,25.9728541 C3.70108781,38.3946539 13.8006664,48.4952083 26.2212662,48.4952083 C37.9518327,48.4952083 47.8632204,39.3356994 48.6787143,27.6039996 C48.7414446,26.7256905 49.4942082,26.0983269 50.3724324,26.1610632 C51.2506567,26.2237996 51.8779597,26.9766359 51.8152294,27.854945 C50.8742749,41.2177903 39.6455508,51.6947628 26.2212662,51.6947628 Z" id="XMLID_6_"></path>
                </g>
                <g id="XMLID_119_" transform="translate(26.974030, 27.604000)">
                    <ellipse id="XMLID_1_" fill="#FFFFFF" cx="4.20293023" cy="3.76418176" rx="2.07009996" ry="2.07029997"></ellipse>
                    <path d="M4.20293023,7.40289079 C2.19556057,7.40289079 0.564572717,5.77174536 0.564572717,3.76418176 C0.564572717,1.75661815 2.19556057,0.125472725 4.20293023,0.125472725 C6.21029989,0.125472725 7.84128774,1.75661815 7.84128774,3.76418176 C7.84128774,5.77174536 6.21029989,7.40289079 4.20293023,7.40289079 Z M4.20293023,3.26229086 C3.95200902,3.26229086 3.70108781,3.51323631 3.70108781,3.76418176 C3.70108781,4.01512721 3.95200902,4.26607266 4.20293023,4.26607266 C4.51658174,4.26607266 4.70477264,4.01512721 4.70477264,3.76418176 C4.70477264,3.51323631 4.51658174,3.26229086 4.20293023,3.26229086 Z" id="XMLID_2_" fill="#3B3C3D"></path>
                </g>
            </g>
        </g>
    </g>
</svg>