<?xml version="1.0" encoding="UTF-8"?>
<svg width="65px" height="65px" viewBox="0 0 65 65" version="1.1" xmlns="http://www.w3.org/2000/svg" xmlns:xlink="http://www.w3.org/1999/xlink">
    <!-- Generator: Sketch 50 (54983) - http://www.bohemiancoding.com/sketch -->
    <title>6</title>
    <desc>Created with Sketch.</desc>
    <defs></defs>
    <g id="Page-1" stroke="none" stroke-width="1" fill="none" fill-rule="evenodd" opacity="0.85">
        <g id="官网-科研服务" transform="translate(-1021.000000, -2283.000000)" fill="#3B3C3D" fill-rule="nonzero">
            <g id="6" transform="translate(1021.000000, 2283.000000)">
                <g id="XMLID_16_">
                    <path d="M32.4263052,64.1203176 C14.8368809,64.1203176 0.53708166,49.8191368 0.53708166,32.228013 C0.53708166,14.6368893 14.8368809,0.335708469 32.4263052,0.335708469 C50.0157296,0.335708469 64.3155288,14.6368893 64.3155288,32.228013 C64.3155288,49.8191368 50.0157296,64.1203176 32.4263052,64.1203176 Z M32.4263052,3.62565147 C16.6495315,3.62565147 3.89384203,16.449715 3.89384203,32.1608713 C3.89384203,47.8720277 16.7166667,60.6960912 32.4263052,60.6960912 C48.1359438,60.6960912 60.9587684,47.8720277 60.9587684,32.1608713 C60.9587684,16.449715 48.1359438,3.62565147 32.4263052,3.62565147 Z" id="XMLID_18_"></path>
                </g>
                <g id="XMLID_5_" transform="translate(6.713521, 6.042752)">
                    <path d="M25.7127845,51.9005293 C11.5472557,51.9005293 -5.68434189e-14,40.352158 -5.68434189e-14,26.1852606 C-5.68434189e-14,12.0183632 11.5472557,0.469991857 25.7127845,0.469991857 C39.8783133,0.469991857 51.4255689,12.0183632 51.4255689,26.1852606 C51.4255689,40.352158 39.8783133,51.9005293 25.7127845,51.9005293 Z M25.7127845,3.75993485 C13.3599063,3.75993485 3.35676037,13.8311889 3.35676037,26.1181189 C3.35676037,38.4721906 13.4270415,48.4763029 25.7127845,48.4763029 C38.0656627,48.4763029 48.0688086,38.4050489 48.0688086,26.1181189 C48.0688086,13.8311889 37.9985274,3.75993485 25.7127845,3.75993485 Z" id="XMLID_9_"></path>
                </g>
                <g id="XMLID_41_" transform="translate(46.323293, 8.728420)">
                    <rect id="XMLID_7_" transform="translate(3.374887, 3.645760) rotate(-137.589868) translate(-3.374887, -3.645760) " x="1.69658873" y="1.02736233" width="3.35659631" height="5.23679615"></rect>
                </g>
                <g id="XMLID_42_" transform="translate(2.014056, 26.856678)">
                    <rect id="XMLID_6_" x="0" y="0" width="5.3708166" height="3.35708469"></rect>
                </g>
                <g id="XMLID_102_" transform="translate(38.938420, 57.070440)">
                    <ellipse id="Oval" cx="0.939892905" cy="1.40997557" rx="1" ry="1"></ellipse>
                </g>
                <g id="XMLID_104_" transform="translate(43.637885, 55.056189)">
                    <ellipse id="Oval" cx="0.939892905" cy="1.40997557" rx="1" ry="1"></ellipse>
                </g>
                <g id="XMLID_105_" transform="translate(47.665997, 52.370521)">
                    <ellipse id="Oval" cx="1.14129853" cy="1.54425896" rx="1" ry="1"></ellipse>
                </g>
                <g id="XMLID_106_" transform="translate(51.022758, 49.013436)">
                    <ellipse id="Oval" cx="1.54410977" cy="1.40997557" rx="1" ry="1"></ellipse>
                </g>
                <g id="XMLID_107_" transform="translate(54.379518, 45.656352)">
                    <ellipse id="Oval" cx="0.939892905" cy="1.27569218" rx="1" ry="1"></ellipse>
                </g>
                <g id="XMLID_111_" transform="translate(56.393574, 40.956433)">
                    <ellipse id="Oval" cx="1.27556894" cy="1.54425896" rx="1" ry="1"></ellipse>
                </g>
                <g id="XMLID_115_" transform="translate(57.736278, 36.927932)">
                    <ellipse id="Oval" cx="1.27556894" cy="1.14140879" rx="1" ry="1"></ellipse>
                </g>
                <g id="XMLID_116_" transform="translate(58.407631, 32.228013)">
                    <ellipse id="Oval" cx="1.00702811" cy="0.939983713" rx="1" ry="1"></ellipse>
                </g>
                <g id="XMLID_103_" transform="translate(31.553548, 57.070440)">
                    <rect id="XMLID_4_" x="0" y="0" width="3.35676037" height="4.02850163"></rect>
                </g>
                <g id="XMLID_108_" transform="translate(56.393574, 26.185261)">
                    <rect id="XMLID_3_" transform="translate(2.841772, 2.063808) rotate(-91.813329) translate(-2.841772, -2.063808) " x="1.16339076" y="-0.554720545" width="3.35676297" height="5.23705617"></rect>
                </g>
                <g id="XMLID_109_" transform="translate(11.412985, 6.714169)">
                    <rect id="XMLID_2_" transform="translate(3.397793, 3.445900) rotate(-129.717539) translate(-3.397793, -3.445900) " x="0.443859585" y="1.76736607" width="5.90786766" height="3.3570673"></rect>
                </g>
                <g id="XMLID_11_" transform="translate(13.427041, 13.428339)">
                    <path d="M20.2076975,3.02137622 C20.8790495,3.02137622 21.4161312,3.55850977 21.4161312,4.22992671 L21.4161312,5.70704397 C21.4161312,6.37846091 21.9532129,7.11701954 22.5574297,7.25130293 L24.5714859,8.05700326 C24.7728916,8.19128664 25.0414324,8.25842834 25.3099732,8.25842834 C25.7799197,8.25842834 26.1827309,8.12414495 26.518407,7.78843648 L27.5254351,6.78131107 C27.7939759,6.5127443 28.0625167,6.44560261 28.3981928,6.44560261 C28.7338688,6.44560261 29.0024096,6.57988599 29.2709505,6.78131107 L31.0164659,8.52699511 C31.4864123,8.99698697 31.4864123,9.8026873 31.0164659,10.2726792 L30.0094378,11.2798046 C29.5394913,11.7497964 29.4052209,12.6226384 29.7408969,13.2269137 L30.5465194,15.2411645 C30.747925,15.8454397 31.4192771,16.3825733 32.0906292,16.3825733 L33.5676037,16.3825733 C34.2389558,16.3825733 34.7760375,16.9197068 34.7760375,17.5911238 L34.7760375,20.0082248 C34.7760375,20.6796417 34.2389558,21.2167752 33.5676037,21.2167752 L32.0906292,21.2167752 C31.4192771,21.2167752 30.747925,21.7539088 30.5465194,22.358184 L29.7408969,24.3724349 C29.4052209,24.9767101 29.5394913,25.8495521 30.0094378,26.319544 L31.0164659,27.3266694 C31.4864123,27.7966612 31.4864123,28.6023616 31.0164659,29.0723534 L29.2709505,30.8180375 C29.0024096,31.0866042 28.7338688,31.1537459 28.3981928,31.1537459 C28.0625167,31.1537459 27.7939759,31.0194625 27.5254351,30.8180375 L26.518407,29.8109121 C26.2498661,29.5423453 25.7799197,29.3409202 25.3099732,29.3409202 C25.0414324,29.3409202 24.7728916,29.4080619 24.5714859,29.5423453 L22.5574297,30.3480456 C21.9532129,30.5494707 21.4161312,31.2208876 21.4161312,31.8923046 L21.4161312,33.3694218 C21.4161312,34.0408388 20.8790495,34.5779723 20.2076975,34.5779723 L17.79083,34.5779723 C17.1194779,34.5779723 16.5823963,34.0408388 16.5823963,33.3694218 L16.5823963,31.8923046 C16.5823963,31.2208876 16.0453146,30.5494707 15.4410977,30.3480456 L13.4270415,29.5423453 C13.2256359,29.4080619 12.957095,29.3409202 12.6885542,29.3409202 C12.2186078,29.3409202 11.8157965,29.4752036 11.4801205,29.8109121 L10.4730924,30.8180375 C10.2045515,31.0866042 9.93601071,31.1537459 9.60033467,31.1537459 C9.26465863,31.1537459 8.9961178,31.0194625 8.72757697,30.8180375 L6.98206158,29.0723534 C6.51211513,28.6023616 6.51211513,27.7966612 6.98206158,27.3266694 L7.98908969,26.319544 C8.45903614,25.8495521 8.59330656,24.9767101 8.25763052,24.3724349 L7.45200803,22.358184 C7.25060241,21.7539088 6.57925033,21.2167752 5.90789826,21.2167752 L4.43092369,21.2167752 C3.75957162,21.2167752 3.22248996,20.6796417 3.22248996,20.0082248 L3.22248996,17.5911238 C3.22248996,16.9197068 3.75957162,16.3825733 4.43092369,16.3825733 L5.90789826,16.3825733 C6.57925033,16.3825733 7.25060241,15.8454397 7.45200803,15.2411645 L8.25763052,13.2269137 C8.59330656,12.6226384 8.45903614,11.7497964 7.98908969,11.2798046 L6.98206158,10.2726792 C6.51211513,9.8026873 6.51211513,8.99698697 6.98206158,8.52699511 L8.72757697,6.78131107 C8.9961178,6.5127443 9.26465863,6.44560261 9.60033467,6.44560261 C9.93601071,6.44560261 10.2045515,6.57988599 10.4730924,6.78131107 L11.4801205,7.78843648 C11.7486613,8.05700326 12.2186078,8.25842834 12.6885542,8.25842834 C12.957095,8.25842834 13.2256359,8.19128664 13.4270415,8.05700326 L15.4410977,7.25130293 C16.0453146,7.04987785 16.5823963,6.37846091 16.5823963,5.70704397 L16.5823963,4.22992671 C16.5823963,3.55850977 17.1194779,3.02137622 17.79083,3.02137622 L20.2076975,3.02137622 Z M18.9992637,25.7152687 C22.8259705,25.7152687 25.9141901,22.6267508 25.9141901,18.7996743 C25.9141901,14.9725977 22.8259705,11.8840798 18.9992637,11.8840798 C15.1725569,11.8840798 12.0843373,14.9725977 12.0843373,18.7996743 C12.0172021,22.6267508 15.1725569,25.7152687 18.9992637,25.7152687 Z M20.1405622,0.268566775 L17.79083,0.268566775 C15.4410977,0.268566775 13.4941767,2.2156759 13.4941767,4.56563518 L13.4941767,4.96848534 L13.0242303,5.16991042 L12.6885542,4.83420195 C11.8829317,4.02850163 10.8087684,3.55850977 9.66746988,3.55850977 C8.52617135,3.55850977 7.45200803,4.02850163 6.64638554,4.83420195 L4.96800535,6.5127443 C4.16238286,7.31844463 3.69243641,8.39271173 3.69243641,9.53412052 C3.69243641,10.6755293 4.16238286,11.7497964 4.96800535,12.5554967 L5.23654618,12.8240635 L5.03514056,13.2940554 L4.63232932,13.2940554 C2.28259705,13.2940554 0.335676037,15.2411645 0.335676037,17.5911238 L0.335676037,19.9410831 C0.335676037,22.2910423 2.28259705,24.2381515 4.63232932,24.2381515 L5.03514056,24.2381515 L5.23654618,24.7081433 L4.96800535,24.9767101 C3.28962517,26.6552524 3.28962517,29.3409202 4.96800535,31.0194625 L6.64638554,32.6980049 C7.45200803,33.5037052 8.52617135,33.9736971 9.66746988,33.9736971 C10.8087684,33.9736971 11.8829317,33.5037052 12.6885542,32.6980049 L12.957095,32.4294381 L13.4270415,32.6308632 L13.4270415,33.0337134 C13.4270415,35.3836726 15.3739625,37.3307818 17.7236948,37.3307818 L20.073427,37.3307818 C22.4231593,37.3307818 24.3700803,35.3836726 24.3700803,33.0337134 L24.3700803,32.6308632 L24.8400268,32.4294381 L25.1085676,32.6980049 C25.9141901,33.5037052 26.9883534,33.9736971 28.1296519,33.9736971 C29.2709505,33.9736971 30.3451138,33.5037052 31.1507363,32.6980049 L32.8291165,31.0194625 C33.634739,30.2137622 34.1046854,29.1394951 34.1046854,27.9980863 C34.1046854,26.8566775 33.634739,25.7824104 32.8291165,24.9767101 L32.5605756,24.7081433 L32.7619813,24.2381515 L33.1647925,24.2381515 C35.5145248,24.2381515 37.4614458,22.2910423 37.4614458,19.9410831 L37.4614458,17.5911238 C37.4614458,15.2411645 35.58166,13.2940554 33.1647925,13.2940554 L32.7619813,13.2940554 L32.5605756,12.8240635 L32.8291165,12.5554967 C33.634739,11.7497964 34.1046854,10.6755293 34.1046854,9.53412052 C34.1046854,8.39271173 33.634739,7.31844463 32.8291165,6.5127443 L31.1507363,4.83420195 C30.3451138,4.02850163 29.2709505,3.55850977 28.1296519,3.55850977 C26.9883534,3.55850977 25.9141901,4.02850163 25.1085676,4.83420195 L24.7728916,5.16991042 L24.3029451,4.96848534 L24.3029451,4.56563518 C24.4372155,2.2156759 22.4902945,0.268566775 20.1405622,0.268566775 Z M18.9992637,22.8953176 C16.7166667,22.8953176 14.9040161,21.0153502 14.9040161,18.7996743 C14.9040161,16.5168567 16.7838019,14.7040309 18.9992637,14.7040309 C21.2818608,14.7040309 23.0945114,16.5839984 23.0945114,18.7996743 C23.0945114,21.0824919 21.2818608,22.8953176 18.9992637,22.8953176 Z" id="Shape"></path>
                </g>
            </g>
        </g>
    </g>
</svg>