<?xml version="1.0" encoding="UTF-8"?>
<svg width="11px" height="8px" viewBox="0 0 11 8" version="1.1" xmlns="http://www.w3.org/2000/svg" xmlns:xlink="http://www.w3.org/1999/xlink">
    <!-- Generator: Sketch 52.1 (67048) - http://www.bohemiancoding.com/sketch -->
    <title>勾 copy 4</title>
    <desc>Created with Sketch.</desc>
    <g id="Page-1" stroke="none" stroke-width="1" fill="none" fill-rule="evenodd">
        <g id="官网-呼吸疾病临床研究大数据平台-" transform="translate(-424.000000, -531.000000)" fill="#62D3DF" fill-rule="nonzero">
            <g id="勾-copy-4" transform="translate(424.000000, 531.000000)">
                <path d="M3.82948701,7.82950156 C3.60215556,8.05683281 3.23356626,8.05683281 3.00622521,7.82950156 L0.170509388,4.9937883 C-0.0568412622,4.76643785 -0.0568316633,4.39784888 0.170509388,4.17049844 C0.397840841,3.94316719 0.766430143,3.94316719 0.993771195,4.17049844 L3.82948701,7.0062309 C4.05683766,7.23356215 4.05683766,7.60214152 3.82948701,7.82950156 Z" id="Shape"></path>
                <path d="M10.797738,0.20226888 C11.0674321,0.471939845 11.0674093,0.909158871 10.797738,1.17882984 L4.1788128,7.79774678 C3.90915289,8.06741774 3.47193332,8.06741774 3.20226202,7.79774678 C2.93257933,7.52806442 2.93257933,7.09085679 3.20226202,6.82117443 L9.8211872,0.202257494 C10.0908357,-0.0674134715 10.5280781,-0.0674248577 10.797738,0.202257494 L10.797738,0.20226888 Z" id="Shape"></path>
            </g>
        </g>
    </g>
</svg>