<?xml version="1.0" encoding="UTF-8"?>
<svg width="136px" height="90px" viewBox="0 0 136 90" version="1.1" xmlns="http://www.w3.org/2000/svg" xmlns:xlink="http://www.w3.org/1999/xlink">
    <!-- Generator: Sketch 52.1 (67048) - http://www.bohemiancoding.com/sketch -->
    <title>3</title>
    <desc>Created with Sketch.</desc>
    <g id="Page-1" stroke="none" stroke-width="1" fill="none" fill-rule="evenodd">
        <g id="官网-呼吸疾病临床研究大数据平台-" transform="translate(-553.000000, -1218.000000)">
            <g id="3" transform="translate(538.000000, 1205.000000)">
                <polygon id="Shape" points="0 0 171 0 171 114 0 114"></polygon>
                <g id="Group" transform="translate(16.000000, 14.000000)" stroke="#000220" stroke-width="2">
                    <path d="M96.4350735,79.993913 L81.09313,79.993913 C81.09313,75.7228309 84.527541,72.2604348 88.7641017,72.2604348 C93.0006624,72.2604348 96.4350735,75.7228309 96.4350735,79.993913 Z" id="Shape" fill="#81B3FF" fill-rule="nonzero"></path>
                    <path d="M96.4350735,79.993913 C96.4350735,84.2649952 93.0006624,87.7273913 88.7641017,87.7273913 C84.527541,87.7273913 81.09313,84.2649952 81.09313,79.993913 L96.4350735,79.993913 Z" id="Shape" stroke-linecap="round"></path>
                    <path d="M105.80328,0 L127.959741,0 C131.273449,2.334446e-15 133.959741,2.6862915 133.959741,6 L133.959741,39.9130435 C133.959741,43.226752 131.273449,45.9130435 127.959741,45.9130435 L105.80328,45.9130435 C102.489572,45.9130435 99.80328,43.226752 99.80328,39.9130435 L99.80328,6 C99.80328,2.6862915 102.489572,6.08718376e-16 105.80328,0 Z" id="Rectangle-path" fill="#FFFFFF" fill-rule="nonzero"></path>
                    <path d="M107.23231,17.2365217 L126.53071,17.2365217 M107.23231,23.9321739 L126.53071,23.9321739 M107.23231,30.6278261 L126.53071,30.6278261 M107.23231,37.3234783 L126.53071,37.3234783" id="Shape" stroke-linecap="round"></path>
                    <path d="M105.496023,0 L128.266997,0 C131.411012,1.9408412e-16 133.959741,2.56949622 133.959741,5.73913043 L133.959741,9.56521739 L99.80328,9.56521739 L99.80328,5.73913043 C99.80328,2.56949622 102.352008,5.8225236e-16 105.496023,0 Z" id="Shape" fill="#3485FB" fill-rule="nonzero"></path>
                    <path d="M24.9322681,10.5217391 L43.7032417,10.5217391 C44.8078112,10.5217391 45.7032417,11.4171696 45.7032417,12.5217391 L45.7032417,21.9130435 C45.7032417,23.017613 44.8078112,23.9130435 43.7032417,23.9130435 L24.9322681,23.9130435 C23.8276986,23.9130435 22.9322681,23.017613 22.9322681,21.9130435 L22.9322681,12.5217391 C22.9322681,11.4171696 23.8276986,10.5217391 24.9322681,10.5217391 Z" id="Rectangle-path" fill="#FFFFFF" fill-rule="nonzero"></path>
                    <path d="M64.9712301,23.7313043 L83.7422038,23.7313043 C84.8467733,23.7313043 85.7422038,24.6267348 85.7422038,25.7313043 L85.7422038,35.1226087 C85.7422038,36.2271782 84.8467733,37.1226087 83.7422038,37.1226087 L64.9712301,37.1226087 C63.8666606,37.1226087 62.9712301,36.2271782 62.9712301,35.1226087 L62.9712301,25.7313043 C62.9712301,24.6267348 63.8666606,23.7313043 64.9712301,23.7313043 Z" id="Rectangle-path" fill="#FFFFFF" fill-rule="nonzero"></path>
                    <path d="M64.9712301,46.3530435 L83.7422038,46.3530435 C84.8467733,46.3530435 85.7422038,47.248474 85.7422038,48.3530435 L85.7422038,57.7443478 C85.7422038,58.8489173 84.8467733,59.7443478 83.7422038,59.7443478 L64.9712301,59.7443478 C63.8666606,59.7443478 62.9712301,58.8489173 62.9712301,57.7443478 L62.9712301,48.3530435 C62.9712301,47.248474 63.8666606,46.3530435 64.9712301,46.3530435 Z" id="Rectangle-path" fill="#FFFFFF" fill-rule="nonzero"></path>
                    <path d="M24.9322681,36.6443478 L43.7032417,36.6443478 C44.8078112,36.6443478 45.7032417,37.5397783 45.7032417,38.6443478 L45.7032417,48.0356522 C45.7032417,49.1402217 44.8078112,50.0356522 43.7032417,50.0356522 L24.9322681,50.0356522 C23.8276986,50.0356522 22.9322681,49.1402217 22.9322681,48.0356522 L22.9322681,38.6443478 C22.9322681,37.5397783 23.8276986,36.6443478 24.9322681,36.6443478 Z" id="Rectangle-path" fill="#FFFFFF" fill-rule="nonzero"></path>
                    <polyline id="Shape" stroke-linejoin="round" points="46.6520323 17.513913 53.8154011 17.513913 53.8154011 43.34 46.6520323 43.34"></polyline>
                    <path d="M53.8154011,30.4269565 L62.9712301,30.4269565 M74.3567169,37.1226087 L74.3567169,46.3530435" id="Shape" fill="#FFFFFF" fill-rule="nonzero"></path>
                    <path d="M23.8810586,73.2121739 L1.89758114,73.2121739 C0.849576014,73.2121739 1.28343612e-16,72.3556752 0,71.2991304 L0,49.06 C0.0278648456,48.3125505 0.485270314,47.6500299 1.17085246,47.3641 C1.8564346,47.0781702 2.64442901,47.2212826 3.18793631,47.7304348 L25.2188533,69.9408696 C25.7649801,70.4869495 25.9300905,71.3113817 25.636907,72.0283022 C25.3437235,72.7452227 24.6502506,73.2127932 23.8810586,73.2121739 Z" id="Shape" fill="#3485FB" fill-rule="nonzero"></path>
                </g>
            </g>
        </g>
    </g>
</svg>