<?xml version="1.0" encoding="UTF-8"?>
<svg width="365px" height="256px" viewBox="0 0 365 256" version="1.1" xmlns="http://www.w3.org/2000/svg" xmlns:xlink="http://www.w3.org/1999/xlink">
    <!-- Generator: Sketch 52.1 (67048) - http://www.bohemiancoding.com/sketch -->
    <title>Group 90</title>
    <desc>Created with Sketch.</desc>
    <defs>
        <polygon id="path-1" points="0.216080701 0.0660298106 63.565684 0.0660298106 63.565684 28.6227378 0.216080701 28.6227378"></polygon>
        <polygon id="path-3" points="0.333995393 0.43353269 55.4723137 0.43353269 55.4723137 81.4481431 0.333995393 81.4481431"></polygon>
        <polygon id="path-5" points="0.336863222 0.0285200704 147.8546 0.0285200704 147.8546 210.369191 0.336863222 210.369191"></polygon>
        <polygon id="path-7" points="0.304450123 0.211505455 30.7811394 18.0185022 30.7811394 71.4394924 0.304450123 53.6324956"></polygon>
        <linearGradient x1="50.0010613%" y1="-0.00106923686%" x2="50.0010613%" y2="85.2631162%" id="linearGradient-9">
            <stop stop-color="#FFFFFF" offset="0%"></stop>
            <stop stop-color="#8EBCFF" offset="100%"></stop>
        </linearGradient>
        <polygon id="path-10" points="31.9813416 0.211505455 31.9813416 53.6324956 0.524428536 71.4394924 0.524428536 18.0185022"></polygon>
        <linearGradient x1="50.0029253%" y1="-0.00106923686%" x2="50.0029253%" y2="85.2631162%" id="linearGradient-12">
            <stop stop-color="#FFFFFF" offset="0%"></stop>
            <stop stop-color="#8EBCFF" offset="100%"></stop>
        </linearGradient>
        <polygon id="path-13" points="31.6541245 0.393047636 31.6541245 53.8140378 0.195451686 70.6322465 0.195451686 18.2000444"></polygon>
        <linearGradient x1="49.9992823%" y1="-0.000939248701%" x2="49.9992823%" y2="85.2626516%" id="linearGradient-15">
            <stop stop-color="#FFFFFF" offset="0%"></stop>
            <stop stop-color="#8EBCFF" offset="100%"></stop>
        </linearGradient>
        <polygon id="path-16" points="0.524428536 0.393047636 30.9993579 18.2000444 30.9993579 70.6322465 0.524428536 53.8140378"></polygon>
        <linearGradient x1="50.0012173%" y1="-0.000939248701%" x2="50.0012173%" y2="85.2626516%" id="linearGradient-18">
            <stop stop-color="#FFFFFF" offset="0%"></stop>
            <stop stop-color="#8EBCFF" offset="100%"></stop>
        </linearGradient>
    </defs>
    <g id="Page-1" stroke="none" stroke-width="1" fill="none" fill-rule="evenodd">
        <g id="官网-呼吸疾病临床研究大数据平台-" transform="translate(-1040.000000, -3718.000000)">
            <g id="Group-90" transform="translate(1040.000000, 3718.000000)">
                <g id="Group-42" transform="translate(77.000000, 0.000000)">
                    <path d="M218.133801,141.805803 C237.933901,141.805803 253.98409,91.0739797 253.98409,74.3655679 C253.98409,57.6536397 237.933901,54.6839978 218.133801,54.6839978 C198.3337,54.6839978 182.283511,57.6536397 182.283511,74.3655679 C182.283511,91.0739797 198.3337,141.805803 218.133801,141.805803" id="Fill-1" fill="#ECF2FF"></path>
                    <g id="Group-5" transform="translate(223.780132, 82.935729)">
                        <mask id="mask-2" fill="white">
                            <use xlink:href="#path-1"></use>
                        </mask>
                        <g id="Clip-4"></g>
                        <path d="M0.559060527,5.09581781 C13.2799038,31.7856726 34.5370329,35.7680522 62.0305251,17.0376817 C63.635368,15.9440658 64.0488966,13.7568339 62.9543656,12.1533328 C61.8598346,10.5480734 59.6707726,10.1348905 58.0641701,11.2285065 C33.940496,27.6626351 17.656268,24.6121148 6.91332322,2.07167088 C6.07922726,0.318720601 3.97815009,-0.42676678 2.22197336,0.408390074 C0.467556329,1.24530515 -0.276795131,3.34286752 0.559060527,5.09581781" id="Fill-3" fill="#497FE5" mask="url(#mask-2)"></path>
                    </g>
                    <path d="M218.145942,140.537067 C203.438402,130.740238 193.631616,110.534717 188.729102,79.9187456 L190.567985,76.2440554" id="Stroke-6" stroke="#C9DAFD" stroke-linecap="round" stroke-linejoin="round"></path>
                    <path d="M196.819833,61.9655106 C211.752614,75.5284579 226.344015,75.5284579 238.795624,61.7052933 C248.542581,50.8851769 254.703277,49.1251937 258.977579,54.2504195 C260.277995,55.809965 262.595515,56.020952 264.156365,54.7216238 C265.715456,53.4222955 265.926619,51.1067133 264.626204,49.5471677 C256.644222,39.9771493 245.646121,43.1173391 233.330008,56.7892963 C223.720308,67.4582053 213.797381,67.4582053 201.768099,56.529079 C200.263558,55.1629382 197.939,55.2737064 196.571716,56.7752305 C195.206192,58.2767546 195.317053,60.601128 196.819833,61.9655106" id="Fill-8" fill="#497FE5"></path>
                    <path d="M218.133801,80.9478347 C234.785805,80.9478347 248.286194,75.0683304 248.286194,67.8156525 C248.286194,60.5629745 234.785805,54.6834703 218.133801,54.6834703 C201.481796,54.6834703 187.981407,60.5629745 187.981407,67.8156525 C187.981407,75.0683304 201.481796,80.9478347 218.133801,80.9478347" id="Fill-10" fill="#C9DAFD"></path>
                    <path d="M217.214535,69.3795936 C234.983947,69.3795936 250.307381,58.6614542 250.307381,44.5815888 C250.307381,30.4999651 235.902508,12.4342037 218.133097,12.4342037 C200.365445,12.4342037 185.960572,30.4999651 185.960572,44.5815888 C185.960572,58.6614542 199.445124,69.3795936 217.214535,69.3795936" id="Fill-12" fill="#ECF2FF"></path>
                    <path d="M249.317024,50.6657504 C249.962832,48.7299448 250.305973,46.6939203 250.305973,44.5805339 C250.305973,39.1564099 248.169702,33.1415223 244.525371,27.7947602 C240.022309,31.9283471 235.517487,33.9942614 231.016184,33.9942614 C232.175824,45.5844803 238.27669,51.1422294 249.317024,50.6657504" id="Fill-14" fill="#497FE5"></path>
                    <path d="M223.914754,209.974821 L151.058056,249.534883 C144.117814,253.302759 135.727583,253.228914 128.85597,249.33972 L85.8613144,225.000612" id="Stroke-16" stroke="#8EBCFF" stroke-linecap="round"></path>
                    <polygon id="Fill-18" fill="#ECF2FF" points="114.016276 134.450093 114.016276 228.901937 66.3285115 255.81157 66.3285115 206.050287 87.1914687 182.242163 87.1914687 147.995458"></polygon>
                    <g id="Group-22" transform="translate(10.856902, 174.363427)">
                        <mask id="mask-4" fill="white">
                            <use xlink:href="#path-3"></use>
                        </mask>
                        <g id="Clip-21"></g>
                        <polygon id="Fill-20" fill="#8EBCFF" mask="url(#mask-4)" points="55.4723137 31.7018053 0.333995393 0.43353269 0.333995393 51.4906272 55.4723137 81.4490222"></polygon>
                    </g>
                    <path d="M58.4707644,207.23621 C60.4539419,208.361474 61.6786904,210.462553 61.6786904,212.741213 L61.6786904,242.840266 C61.6786904,243.31147 61.5607908,243.772125 61.3373094,244.185308 C60.5947176,245.54969 58.884293,246.054301 57.5187688,245.310572 L19.1485949,224.465057 C17.1091071,223.357375 15.8403662,221.22289 15.8403662,218.903791 L15.8403662,187.892219 C15.8403662,187.405191 15.9670643,186.926954 16.206383,186.503222 C16.9736105,185.151147 18.6928336,184.678184 20.0460399,185.44477 L58.4707644,207.23621 Z" id="Stroke-23" stroke="#5E97EA" stroke-width="0.8"></path>
                    <polygon id="Fill-25" fill="#C9DAFD" points="66.3292153 206.065232 11.1908971 174.79696 32.0538543 151.118944 87.1921726 182.241284"></polygon>
                    <polygon id="Fill-27" fill="#ECF2FF" points="87.1919966 147.995633 32.0536783 116.727361 32.0536783 151.118241 87.1919966 182.242339"></polygon>
                    <polygon id="Fill-29" fill="#5E97EA" points="77.7800859 148.503936 41.4652371 127.909847 41.4652371 150.56106 77.7800859 171.058446"></polygon>
                    <polygon id="Fill-31" fill="#8EBCFF" points="87.1919966 147.995633 32.0536783 116.727361 58.878486 104.959561 113.823238 134.450268"></polygon>
                    <path d="M33.1286767,174.599159 L28.326466,171.900284 L24.1419086,176.573646 L28.9423596,179.272521 L33.1286767,174.599159 Z M39.1820313,178.001325 L34.3815803,175.302449 L30.1952633,179.97757 L34.997474,182.676445 L39.1820313,178.001325 Z M45.2371457,181.40349 L40.434935,178.704615 L36.2486179,183.379735 L41.0508286,186.07861 L45.2371457,181.40349 Z M51.2905004,184.807414 L46.4900493,182.108538 L42.3037323,186.783658 L47.1041833,189.480775 L51.2905004,184.807414 Z M57.3456147,188.209579 L52.543404,185.510704 L48.3570869,190.184065 L53.1592976,192.882941 L57.3456147,188.209579 Z M63.574939,191.710205 L58.7727283,189.011329 L54.5864112,193.68645 L59.3886219,196.385325 L63.574939,191.710205 Z M38.2898654,168.58603 L33.4894144,165.887155 L29.3030973,170.562275 L34.1035483,173.259392 L38.2898654,168.58603 Z M43.8962573,162.326749 L39.0958062,159.626116 L34.9094892,164.302994 L39.7099402,167.000111 L43.8962573,162.326749 Z M44.3449798,171.989954 L39.542769,169.28932 L35.356452,173.96444 L40.1586627,176.663316 L44.3449798,171.989954 Z M49.9513716,165.728915 L45.1491609,163.030039 L40.9628438,167.705159 L45.7650545,170.402276 L49.9513716,165.728915 Z M56.0047263,169.132838 L51.2025155,166.432205 L47.0179582,171.107325 L51.8184092,173.8062 L56.0047263,169.132838 Z M45.5961237,172.693244 L41.4115663,177.366606 L52.265372,183.469404 L56.4516891,178.794284 L45.5961237,172.693244 Z M62.0580809,172.535003 L57.2576299,169.836128 L53.0713128,174.50949 L57.8735235,177.208365 L62.0580809,172.535003 Z M62.5068034,182.19645 L57.7045927,179.497574 L53.5182756,184.172694 L58.3204864,186.87157 L62.5068034,182.19645 Z M68.1131953,175.937169 L63.3109846,173.240052 L59.1246675,177.913414 L63.9268782,180.612289 L68.1131953,175.937169 Z M68.7361277,185.697075 L63.933917,182.999958 L59.7475999,187.675078 L64.5498106,190.373954 L68.7361277,185.697075 Z M74.3425195,179.439553 L69.5403088,176.740677 L65.3539918,181.414039 L70.1562025,184.112915 L74.3425195,179.439553 Z" id="Fill-33" fill="#5E97EA"></path>
                    <g id="Group-37" transform="translate(0.298725, 0.000000)">
                        <mask id="mask-6" fill="white">
                            <use xlink:href="#path-5"></use>
                        </mask>
                        <g id="Clip-36"></g>
                        <path d="M11.1473281,0.762403167 L140.893242,74.6957626 C145.160506,77.0992561 147.8546,81.600312 147.8546,86.321146 L147.8546,202.696298 C147.8546,204.371886 147.075055,205.815389 145.852066,206.713842 C145.630344,206.877356 143.787943,208.095806 140.33014,210.369191 C140.627528,208.370089 140.523706,207.227243 140.022193,206.944169 L10.2709994,132.857844 C6.00725569,130.452592 3.31668032,125.956811 3.31668032,121.239494 C0.0999558088,45.9188947 -0.512418442,7.23442923 1.47955757,5.18433893 C4.24931926,2.3360145 7.28831447,-0.0657207872 8.7242265,0.0309815854 C9.56536125,0.0890030089 10.3959378,0.338670953 11.1473281,0.762403167" id="Fill-35" fill="#5E97EA" mask="url(#mask-6)"></path>
                    </g>
                    <path d="M7.84677057,4.27885308 L135.982563,78.2122125 C140.207593,80.615706 142.873533,85.1167619 142.873533,89.8375959 L142.873533,206.212747 C142.873533,209.166565 140.478587,211.394236 137.522297,211.193799 C136.689961,211.135777 135.866423,210.884351 135.120312,210.460619 L6.97924038,136.374294 C2.75948908,133.969042 0.097068848,129.473261 0.097068848,124.755943 L0.097068848,8.5284828 C0.097068848,5.5764231 2.49377497,3.34523563 5.44830475,3.5474315 C6.28064102,3.60545292 7.10241911,3.85512086 7.84677057,4.27885308" id="Fill-38" fill="#ECF2FF"></path>
                    <path d="M7.42585126,12.9558691 L7.42585126,126.076546 C7.42585126,127.010164 8.05406277,128.072132 9.05181047,128.640038 L135.545806,201.783955 L135.545806,88.5173448 C135.545806,87.5819691 134.915835,86.5200012 133.918088,85.9520945 L7.42585126,12.9558691 Z" id="Fill-40" fill="#C9DAFD"></path>
                </g>
                <g id="Group-89" transform="translate(0.000000, 106.000000)">
                    <path d="M336.992146,101.827362 C336.95167,102.611695 336.520512,103.359014 335.784904,103.767925 L299.909065,123.693501 C297.41187,125.080624 294.376168,125.064762 291.894811,123.649438 L256.14568,103.270887 C255.777876,103.061144 255.473426,102.754461 255.264006,102.384327 C255.029949,101.970128 254.934918,101.515392 254.964836,101.074755 L254.964836,98.7587707 L256.13688,98.7587707 L256.13688,99.1835441 L256.147439,99.1782565 L291.896571,78.842007 C294.427203,77.4037699 297.526259,77.4161077 300.042812,78.8790205 L335.823621,99.6700067 L335.823621,98.9262125 L336.993906,98.9262125 L336.993906,101.827362 L336.992146,101.827362 Z" id="Fill-43" fill="#8EBCFF"></path>
                    <path d="M261.512097,108.836301 C261.512097,109.213485 261.205887,109.518406 260.829284,109.518406 C260.452681,109.518406 260.149991,109.213485 260.149991,108.836301 L260.149991,106.721246 C260.149991,106.48154 260.274938,106.259459 260.479078,106.136081 L262.19315,105.108517 C262.513439,104.912874 262.934037,105.018627 263.125859,105.342935 C263.31944,105.663719 263.21561,106.083205 262.891802,106.277085 L261.512097,107.109006 L261.512097,108.836301 Z" id="Fill-45" fill="#5382C7"></path>
                    <path d="M271.966175,114.846757 C271.966175,115.223942 271.659965,115.530624 271.285122,115.530624 C270.908519,115.530624 270.604069,115.223942 270.604069,114.846757 L270.604069,112.733465 C270.604069,112.493759 270.729017,112.271678 270.934916,112.1483 L272.647228,111.118973 C272.967517,110.925093 273.388116,111.030846 273.581697,111.353392 C273.773518,111.675938 273.669688,112.095423 273.34764,112.289303 L271.966175,113.119462 L271.966175,114.846757 Z" id="Fill-47" fill="#5382C7"></path>
                    <path d="M282.184964,120.683426 C282.184964,121.060611 281.880514,121.365531 281.503911,121.365531 C281.127308,121.365531 280.822858,121.060611 280.822858,120.683426 L280.822858,118.568372 C280.822858,118.328665 280.947806,118.106585 281.153706,117.983206 L282.866017,116.955642 C283.188066,116.76 283.606905,116.865753 283.800486,117.190061 C283.992307,117.510844 283.888477,117.93033 283.566429,118.12421 L282.184964,118.956132 L282.184964,120.683426 Z" id="Fill-49" fill="#5382C7"></path>
                    <path d="M304.46297,79.2842297 C304.149721,79.49221 303.727362,79.4076079 303.517943,79.0956373 C303.310283,78.7819042 303.394755,78.3588933 303.706244,78.1473879 L304.853652,77.3824431 C305.305927,77.0810479 305.913068,77.4071188 305.913068,77.9499828 L305.913068,79.9980606 C305.913068,80.3734828 305.606858,80.6801657 305.232015,80.6801657 C304.855412,80.6801657 304.550961,80.3734828 304.550961,79.9980606 L304.550961,79.2260657 L304.46297,79.2842297 Z" id="Fill-51" fill="#5382C7"></path>
                    <path d="M314.875868,85.4274056 C314.562619,85.6371485 314.14026,85.5507838 313.932601,85.2388132 C313.723181,84.9250801 313.809413,84.5020692 314.120902,84.2923263 L315.26831,83.5273816 C315.718826,83.2242238 316.325966,83.5502947 316.325966,84.0949212 L316.325966,86.1412365 C316.325966,86.5184212 316.021516,86.8233416 315.644913,86.8233416 C315.27007,86.8233416 314.96386,86.5184212 314.96386,86.1412365 L314.96386,85.3692416 L314.875868,85.4274056 Z" id="Fill-53" fill="#5382C7"></path>
                    <path d="M325.089378,91.3157175 C324.774369,91.5254604 324.35201,91.4408582 324.144351,91.1288876 C323.934931,90.813392 324.021163,90.3903811 324.332652,90.1806382 L325.48006,89.4156935 C325.932335,89.1125356 326.537716,89.4386065 326.537716,89.9832331 L326.537716,92.0295484 C326.537716,92.4067331 326.233266,92.7116535 325.858422,92.7116535 C325.481819,92.7116535 325.175609,92.4067331 325.175609,92.0295484 L325.175609,91.259316 L325.089378,91.3157175 Z" id="Fill-55" fill="#5382C7"></path>
                    <path d="M256.144976,100.588117 L291.894108,120.96843 C294.377224,122.381991 297.411166,122.397854 299.908361,121.012493 L335.78596,101.085154 C336.917529,100.455926 337.327569,99.0247388 336.70107,97.8878969 C336.495171,97.5142373 336.19248,97.2022668 335.824676,96.9889988 L300.042108,76.19625 C297.527315,74.7350999 294.426499,74.7192369 291.895867,76.1592366 L256.146736,96.495486 C255.020446,97.13529 254.626245,98.570002 255.263302,99.7015562 C255.472722,100.071691 255.777172,100.378374 256.144976,100.588117" id="Fill-57" fill="#F8FAFF"></path>
                    <path d="M265.552485,99.1112797 L292.669663,114.570566 C294.552679,115.642194 296.856293,115.656294 298.749867,114.602292 L325.965596,99.4867019 C326.822632,99.0090521 327.134121,97.9233241 326.660728,97.0614394 C326.504103,96.7794321 326.273566,96.543251 325.995513,96.3793343 L298.851937,80.6080776 C296.942524,79.4976739 294.591395,79.4870987 292.671423,80.5781143 L265.554244,96.0056747 C264.700728,96.4921372 264.399798,97.5813903 264.88375,98.4379874 C265.042135,98.7182321 265.272672,98.9508881 265.552485,99.1112797" id="Fill-59" fill="#8EBCFF"></path>
                    <path d="M275.021939,98.6292236 L293.640912,109.243272 C294.932625,109.980016 296.51471,109.988829 297.815222,109.266185 L316.501069,98.8865552 C317.090611,98.5604843 317.30531,97.8149276 316.979742,97.2227123 C316.872392,97.0288323 316.714008,96.8666781 316.522187,96.7556377 L297.885616,85.9247959 C296.574544,85.1633763 294.960783,85.1545636 293.642672,85.9054079 L275.021939,96.4983061 C274.435917,96.8296647 274.230017,97.5787465 274.560864,98.1674367 C274.671734,98.3613167 274.830118,98.5199457 275.021939,98.6292236" id="Fill-61" fill="#ECF2FF"></path>
                    <g id="Group-65" transform="translate(295.650987, 26.438182)">
                        <mask id="mask-8" fill="white">
                            <use xlink:href="#path-7"></use>
                        </mask>
                        <g id="Clip-64"></g>
                        <polygon id="Fill-63" fill="url(#linearGradient-9)" mask="url(#mask-8)" points="0.304450123 0.211505455 30.7811394 18.0185022 30.7811394 71.4394924 0.304450123 53.6324956"></polygon>
                    </g>
                    <g id="Group-68" transform="translate(263.974095, 26.438182)">
                        <mask id="mask-11" fill="white">
                            <use xlink:href="#path-10"></use>
                        </mask>
                        <g id="Clip-67"></g>
                        <polygon id="Fill-66" fill="url(#linearGradient-12)" mask="url(#mask-11)" points="31.9813416 0.211505455 0.524428536 18.0185022 0.524428536 71.4394924 31.9813416 53.6324956"></polygon>
                    </g>
                    <g id="Group-71" transform="translate(294.778002, 44.063636)">
                        <mask id="mask-14" fill="white">
                            <use xlink:href="#path-13"></use>
                        </mask>
                        <g id="Clip-70"></g>
                        <polygon id="Fill-69" fill="url(#linearGradient-15)" mask="url(#mask-14)" points="31.6541245 0.393047636 0.195451686 18.2000444 0.195451686 70.6322465 31.6541245 53.8140378"></polygon>
                    </g>
                    <g id="Group-74" transform="translate(263.974095, 44.063636)">
                        <mask id="mask-17" fill="white">
                            <use xlink:href="#path-16"></use>
                        </mask>
                        <g id="Clip-73"></g>
                        <polygon id="Fill-72" fill="url(#linearGradient-18)" mask="url(#mask-17)" points="0.524428536 0.393047636 30.9993579 18.2000444 30.9993579 70.6322465 0.524428536 53.8140378"></polygon>
                    </g>
                    <path d="M35.8529616,130.470488 C55.6545384,130.470488 71.7059233,79.6157645 71.7059233,62.8645325 C71.7059233,46.1133005 55.6545384,43.1345987 35.8529616,43.1345987 C16.0531447,43.1345987 0,46.1133005 0,62.8645325 C0,79.6157645 16.0531447,130.470488 35.8529616,130.470488" id="Fill-75" fill="#ECF2FF"></path>
                    <path d="M35.8649285,129.200222 C21.1562919,119.379319 11.3505341,99.1241463 6.44765527,68.4311798 L8.28491498,64.7492223" id="Stroke-77" stroke="#C9DAFD" stroke-linecap="round" stroke-linejoin="round"></path>
                    <path d="M49.9393233,76.6284262 C64.8732178,90.2247018 79.463946,90.2247018 91.9182438,76.3675695 C101.665927,65.5191022 107.825323,63.7565567 112.099943,68.8943767 C113.400456,70.4577545 115.719908,70.6674975 117.279115,69.3667389 C118.840082,68.0642178 119.049501,65.7411829 117.750749,64.1795676 C109.768172,54.5842702 98.7674916,57.7321764 86.4522202,71.4394924 C76.8418033,82.1328556 66.9181371,82.1328556 54.8861978,71.1768731 C53.3833053,69.8091378 51.0568136,69.9201782 49.6911876,71.425392 C48.3255617,72.9288433 48.4364308,75.2606909 49.9393233,76.6284262" id="Fill-79" fill="#497FE5"></path>
                    <path d="M14.5382853,50.4347094 C29.4721798,64.0327476 44.062908,64.0327476 56.5172058,50.1738527 C66.2648892,39.3253854 72.4242848,37.56284 76.6989053,42.70066 C77.9994177,44.2640378 80.3188701,44.4755432 81.878077,43.1730221 C83.4390439,41.8722636 83.6484633,39.5474661 82.3497108,37.9876134 C74.3671341,28.392316 63.3664537,31.5402221 51.0511822,45.2457756 C41.4407653,55.9409014 31.5170991,55.9409014 19.4851599,44.9849189 C17.9822673,43.6171836 15.6575355,43.7264614 14.2901497,45.2334378 C12.9245237,46.7368891 13.0353928,49.0669741 14.5382853,50.4347094" id="Fill-81" fill="#497FE5"></path>
                    <path d="M35.8529616,69.4647364 C52.5062074,69.4647364 66.0076025,63.5707844 66.0076025,56.3002844 C66.0076025,49.0297844 52.5062074,43.1358324 35.8529616,43.1358324 C19.1997159,43.1358324 5.69832081,49.0297844 5.69832081,56.3002844 C5.69832081,63.5707844 19.1997159,69.4647364 35.8529616,69.4647364" id="Fill-83" fill="#C9DAFD"></path>
                    <path d="M34.9334519,57.8670111 C52.704188,57.8670111 68.0287641,47.122534 68.0287641,33.00807 C68.0287641,18.893606 53.6228178,0.781688909 35.8520817,0.781688909 C18.0831054,0.781688909 3.67715915,18.893606 3.67715915,33.00807 C3.67715915,47.122534 17.1627158,57.8670111 34.9334519,57.8670111" id="Fill-85" fill="#ECF2FF"></path>
                    <path d="M68.0291161,33.0071887 C68.0291161,27.569736 65.8909259,21.540068 62.2463236,16.1801673 C57.7429255,20.3239116 53.2395274,22.3949025 48.7361294,22.3949025 C49.8958556,34.0136022 55.9971768,39.5850084 67.0383333,39.1073585 C67.6841899,37.166796 68.0291161,35.1240058 68.0291161,33.0071887" id="Fill-87" fill="#497FE5"></path>
                </g>
            </g>
        </g>
    </g>
</svg>