<?xml version="1.0" encoding="UTF-8"?>
<svg width="137px" height="99px" viewBox="0 0 137 99" version="1.1" xmlns="http://www.w3.org/2000/svg" xmlns:xlink="http://www.w3.org/1999/xlink">
    <!-- Generator: Sketch 52.1 (67048) - http://www.bohemiancoding.com/sketch -->
    <title>2</title>
    <desc>Created with Sketch.</desc>
    <g id="Page-1" stroke="none" stroke-width="1" fill="none" fill-rule="evenodd">
        <g id="官网-呼吸疾病临床研究大数据平台-" transform="translate(-1221.000000, -1215.000000)">
            <g id="2" transform="translate(1212.000000, 1210.000000)">
                <polygon id="Shape" points="0 0 164 0 164 109 0 109"></polygon>
                <g id="Group" transform="translate(10.000000, 6.000000)" stroke="#000220" stroke-width="2">
                    <ellipse id="Oval" stroke-linecap="round" stroke-linejoin="round" cx="92.4293919" cy="25.4285047" rx="4.66114865" ry="4.63242991"></ellipse>
                    <ellipse id="Oval" stroke-linecap="round" stroke-linejoin="round" cx="111.65777" cy="31.9737383" rx="4.66114865" ry="4.63242991"></ellipse>
                    <path d="M111.338514,1.71336449 C90.9608108,-5.28514019 88.8628378,11.4224299 88.8628378,11.4224299 C91.1706081,8.27672897 96.6983108,11.1414019 99.489527,13.8247664 C101.339995,15.5212332 103.51009,16.8368347 105.874662,17.6957009 C108.259634,18.4473342 110.770888,18.721562 113.263176,18.5025234 C117.130743,18.085514 123.296959,19.1824299 123.141892,23.0352336 C123.141892,23.0714953 131.752703,8.59401869 111.338514,1.71336449 Z M90.7418919,61.5270093 C68.1567568,53.8395327 82.2587838,29.9974766 82.2587838,29.9974766 C80.7445946,34.3307477 87.9780405,38.8181308 91.0337838,37.0231776 C94.089527,35.2282243 99.1337838,37.1500935 99.1337838,37.1500935 C99.1337838,37.1500935 104.296622,38.7093458 105.610135,41.9819626 C106.923649,45.2545794 115.397635,46.1248598 116.884459,41.7734579 C116.884459,41.7734579 113.327027,69.2054206 90.7418919,61.5270093 Z" id="Shape" fill="#3485FB" fill-rule="nonzero" stroke-linecap="round" stroke-linejoin="round"></path>
                    <path d="M96.8351351,26.9333645 C97.4722386,25.0840308 99.0536707,23.7129725 100.983721,23.3366541 C102.913772,22.9603356 104.89922,23.6359286 106.192167,25.1089438 C107.485114,26.581959 107.889131,28.6286103 107.252027,30.4779439" id="Shape" stroke-linecap="round" stroke-linejoin="round"></path>
                    <path d="M88.014527,23.9327103 L84.7307432,22.8176636 M119.356419,34.5936449 L116.063514,33.4785981" id="Shape" fill="#000220" fill-rule="nonzero" stroke-linecap="round" stroke-linejoin="round"></path>
                    <path d="M116.884459,41.7734579 L119.620946,33.8140187 C119.620946,33.8140187 121.244595,32.9074766 121.819257,33.5783178 C122.393919,34.2491589 122.685811,37.2498131 121.490878,38.3557944 C120.295946,39.4617757 116.884459,41.7734579 116.884459,41.7734579 Z M82.2587838,29.9974766 L84.9952703,22.028972 C84.9952703,22.028972 84.2746622,20.3246729 83.3989865,20.5059813 C82.5233108,20.6872897 80.4527027,22.8720561 80.7172297,24.4766355 C81.136491,26.3417194 81.6510081,28.184384 82.2587838,29.9974766 Z" id="Shape" stroke-linecap="round" stroke-linejoin="round"></path>
                    <path d="M26.7516892,27.2053271 L100.513176,27.2053271 C103.826884,27.2053271 106.513176,29.8916186 106.513176,33.2053271 L106.513176,84.1284112 C106.513176,87.4421197 103.826884,90.1284112 100.513176,90.1284112 L26.7516892,90.1284112 C23.4379807,90.1284112 20.7516892,87.4421197 20.7516892,84.1284112 L20.7516892,33.2053271 C20.7516892,29.8916186 23.4379807,27.2053271 26.7516892,27.2053271 Z" id="Rectangle-path" fill="#FFFFFF" fill-rule="nonzero"></path>
                    <ellipse id="Oval" stroke-linecap="round" cx="127.091554" cy="86.9192523" rx="7.37939189" ry="7.33392523"></ellipse>
                    <path d="M127.091554,79.5943925 L127.091554,94.2531776" id="Shape" stroke-linecap="round"></path>
                    <path d="M6,36.0078505 L26.8378378,36.0078505 C30.1515463,36.0078505 32.8378378,38.694142 32.8378378,42.0078505 L32.8378378,73.5218692 C32.8378378,76.8355777 30.1515463,79.5218692 26.8378378,79.5218692 L6,79.5218692 C2.6862915,79.5218692 1.29399067e-15,76.8355777 8.8817842e-16,73.5218692 L8.8817842e-16,42.0078505 C4.82366169e-16,38.694142 2.6862915,36.0078505 6,36.0078505 Z" id="Rectangle-path" fill="#FFFFFF" fill-rule="nonzero"></path>
                    <path d="M5.47297297,36.0078505 L27.3648649,36.0078505 C30.3875044,36.0078505 32.8378378,38.4430867 32.8378378,41.4471028 L32.8378378,45.073271 L0,45.073271 L0,41.4471028 C-3.7016658e-16,38.4430867 2.45033346,36.0078505 5.47297297,36.0078505 Z" id="Shape" fill="#3485FB" fill-rule="nonzero"></path>
                    <path d="M6.67702703,52.3437383 L25.2212838,52.3437383 M6.67702703,58.6895327 L25.2212838,58.6895327 M6.67702703,65.0353271 L14.2753378,65.0353271" id="Shape" stroke-linecap="round"></path>
                    <path d="M37.3986486,27.1962617 L42.4702703,27.1962617 C42.4702703,27.1962617 48.8554054,38.0747664 55.0216216,35.998785 C55.0216216,35.998785 61.8628378,33.5329907 51.9476351,22.8811215 C51.9932432,22.8901869 46.5202703,16.943271 37.3986486,27.1962617 Z M78.6831081,82.9485981 C78.6831081,82.9485981 69.789527,87.1005607 70.2364865,88.614486 C70.6834459,90.1284112 75.3537162,97 77.5337838,96.3200935 C79.7138514,95.6401869 87.2483108,94.2803738 88.7533784,92.6939252 C90.2584459,91.1074766 88.6074324,87.9708411 90.3679054,86.9192523 C90.9972973,86.5747664 111.520946,74.1098131 112.195946,71.6168224 C112.870946,69.1238318 110.280405,61.5360748 106.504054,60.8561682 L106.504054,65.9418692 L85.6337838,81.8154206 C85.6337838,81.8154206 81.8756757,78.1257944 78.1084459,79.5218692 C74.3412162,80.9179439 78.6831081,82.9485981 78.6831081,82.9485981 Z" id="Shape" fill="#FFFFFF" fill-rule="nonzero" stroke-linecap="round" stroke-linejoin="round"></path>
                </g>
                <path d="M74.5952381,55.4038462 L58.4047619,75.5961538" id="Line-4" stroke="#000220" stroke-width="2" stroke-linecap="square"></path>
                <path d="M74,81 L60,75" id="Line-4-Copy-3" stroke="#000220" stroke-width="2" stroke-linecap="square"></path>
                <path d="M90,73 L74,80" id="Line-4-Copy-4" stroke="#000220" stroke-width="2" stroke-linecap="square"></path>
                <path d="M75,55 L75,80" id="Line-4-Copy" stroke="#000220" stroke-width="2" stroke-linecap="square"></path>
                <path d="M76,56 L89,74" id="Line-4-Copy-2" stroke="#000220" stroke-width="2" stroke-linecap="square"></path>
                <circle id="Oval-5" stroke="#000220" stroke-width="2" fill="#FBFBFB" cx="74.5" cy="54.5" r="3.5"></circle>
                <circle id="Oval-5-Copy" stroke="#000220" stroke-width="2" fill="#FFFFFF" cx="59.5" cy="73.5" r="3.5"></circle>
                <circle id="Oval-5-Copy-2" stroke="#000220" stroke-width="2" fill="#FFFFFF" cx="74.5" cy="80.5" r="3.5"></circle>
                <circle id="Oval-5-Copy-3" stroke="#000220" stroke-width="2" fill="#FFFFFF" cx="88.5" cy="73.5" r="3.5"></circle>
            </g>
        </g>
    </g>
</svg>