<?xml version="1.0" encoding="UTF-8"?>
<svg width="153px" height="79px" viewBox="0 0 153 79" version="1.1" xmlns="http://www.w3.org/2000/svg" xmlns:xlink="http://www.w3.org/1999/xlink">
    <!-- Generator: Sketch 52.1 (67048) - http://www.bohemiancoding.com/sketch -->
    <title>1</title>
    <desc>Created with Sketch.</desc>
    <defs>
        <path d="M6.318187,0.00520400501 L91.6743166,0.00520400501 C94.9880251,0.00520400501 97.6743166,2.69149551 97.6743166,6.00520401 L97.6743166,60.2976746 C97.6743166,63.6113831 94.9880251,66.2976746 91.6743166,66.2976746 L6.318187,66.2976746 C3.0044785,66.2976746 0.318186996,63.6113831 0.318186996,60.2976746 L0.318186996,6.00520401 C0.318186996,2.69149551 3.0044785,0.00520400501 6.318187,0.00520400501 Z" id="path-1"></path>
    </defs>
    <g id="Page-1" stroke="none" stroke-width="1" fill="none" fill-rule="evenodd">
        <g id="官网-呼吸疾病临床研究大数据平台-" transform="translate(-880.000000, -1222.000000)">
            <g id="1" transform="translate(879.000000, 1203.000000)">
                <polygon id="Shape" points="0 0 163 0 163 109 0 109"></polygon>
                <g id="Group" transform="translate(2.000000, 20.000000)">
                    <path d="M42.6824151,9.88317647 L128.038545,9.88317647 C131.352253,9.88317647 134.038545,12.569468 134.038545,15.8831765 L134.038545,70.1756471 C134.038545,73.4893556 131.352253,76.1756471 128.038545,76.1756471 L42.6824151,76.1756471 C39.3687066,76.1756471 36.6824151,73.4893556 36.6824151,70.1756471 L36.6824151,15.8831765 C36.6824151,12.569468 39.3687066,9.88317647 42.6824151,9.88317647 Z" id="Rectangle-path" fill="#3485FB" fill-rule="nonzero"></path>
                    <path d="M31.8731483,0.0815294118 L117.229278,0.0815294118 C120.542986,0.0815294118 123.229278,2.76782091 123.229278,6.08152941 L123.229278,60.374 C123.229278,63.6877085 120.542986,66.374 117.229278,66.374 L31.8731483,66.374 C28.5594398,66.374 25.8731483,63.6877085 25.8731483,60.374 L25.8731483,6.08152941 C25.8731483,2.76782091 28.5594398,0.0815294118 31.8731483,0.0815294118 Z" id="Rectangle-path" stroke="#000220" stroke-width="2" fill="#FFFFFF" fill-rule="nonzero"></path>
                    <path d="M41.773407,38.9529412 L67.0465455,46.1818824" id="Shape" stroke="#000220" stroke-width="2" stroke-linecap="round" stroke-linejoin="round"></path>
                    <ellipse id="Oval" stroke="#000220" stroke-width="2" fill="#FFFFFF" fill-rule="nonzero" stroke-linecap="round" stroke-linejoin="round" cx="41.773407" cy="38.9529412" rx="4.145522" ry="4.13082353"></ellipse>
                    <path d="M61.5828202,19.1231765 L69.7193163,43.4008235" id="Shape" stroke="#000220" stroke-width="2" stroke-linecap="round" stroke-linejoin="round"></path>
                    <path d="M75.0194025,48.4556471 C75.4705153,47.0218931 75.1047516,45.4571276 74.0642809,44.369563 C73.0238101,43.2819985 71.472748,42.8431785 70.0139803,43.2236691 C68.5552126,43.6041597 67.4188338,44.7439453 67.0465455,46.2" id="Shape" stroke="#000220" stroke-width="2" fill="#FFFFFF" fill-rule="nonzero" stroke-linecap="round" stroke-linejoin="round"></path>
                    <ellipse id="Oval" stroke="#000220" stroke-width="2" fill="#FFFFFF" fill-rule="nonzero" stroke-linecap="round" stroke-linejoin="round" cx="61.5828202" cy="19.1231765" rx="4.145522" ry="4.13082353"></ellipse>
                    <g transform="translate(36.364228, 9.877972)" id="Clipped">
                        <g>
                            <mask id="mask-2" fill="white">
                                <use xlink:href="#path-1"></use>
                            </mask>
                            <g id="a"></g>
                            <g id="Group" stroke-linecap="round" stroke-linejoin="round" mask="url(#mask-2)" fill="#FFFFFF" fill-rule="nonzero" stroke="#000220" stroke-width="2">
                                <g transform="translate(37.273334, 16.392616)" id="Shape">
                                    <path d="M9.60924727,15.0376471 C9.60924727,15.0376471 14.7729677,15.862 15.7729839,13.2258824 C16.5811763,11.2107867 17.5195199,9.2499754 18.5821205,7.35576471 C18.5821205,7.35576471 24.3276686,8.84141176 25.2549564,9.83788235 L32.4459825,5.15447059 L20.4276051,0.679411765 C20.4276051,0.679411765 16.3639026,-1.92952941 13.6365855,4.20329412 C13.6365855,4.20329412 11.7638278,8.68741176 9.60924727,15.0376471 Z"></path>
                                    <path d="M0.0636373991,22.5292941 C0.0636373991,22.5292941 2.7909545,17.4925882 4.05461143,17.094 C5.31826835,16.6954118 39.21882,1.58529412 39.21882,1.58529412 L42.4006899,9.04070588 L6.24555617,23.7431765 C6.24555617,23.7431765 4.26370574,24.0874118 0.0636373991,22.5292941 Z"></path>
                                    <path d="M27.1368052,29.1331765 C23.1549222,26.5242353 11.000179,21.1795294 11.000179,21.1795294 C14.4729628,15.9797647 20.1821466,19.0235294 21.8185368,19.5761176 C21.8185368,19.5761176 26.5640686,21.9857647 27.7549971,17.6647059 L28.9368345,14.5212941 L37.473337,11.0427059 C37.0405768,13.8224057 37.3801392,16.6671229 38.4551712,19.2681176 C40.2733826,23.1815294 68.2011097,43.7269412 68.2011097,43.7269412 C68.2011097,43.7269412 54.2554283,54.4797647 53.5463258,54.6518824 C52.8372234,54.824 30.2095825,31.1442353 27.1368052,29.1331765 Z"></path>
                                </g>
                            </g>
                        </g>
                    </g>
                    <path d="M123.229278,9.88317647 L129.283922,9.88317647 C131.909828,9.88317647 134.038545,12.004346 134.038545,14.6209412 L134.038545,71.4378824 C134.038545,74.0544775 131.909828,76.1756471 129.283922,76.1756471 L41.4370379,76.1756471 C40.1760335,76.1756471 38.9666766,75.6764911 38.0750118,74.7879879 C37.1833471,73.8994847 36.6824151,72.6944157 36.6824151,71.4378824 L36.6824151,66.3649412" id="Shape" stroke="#000220" stroke-width="2"></path>
                    <path d="M143.856886,0 C147.815686,0.138754807 150.953015,3.37685628 150.953015,7.32405882 C150.953015,11.2712614 147.815686,14.5093628 143.856886,14.6481176 M143.856886,0 L143.856886,14.6481176" id="Shape" stroke="#000220" stroke-width="2" stroke-linecap="round"></path>
                    <rect id="Rectangle-path" stroke="#000220" stroke-width="2" fill="#3485FB" fill-rule="nonzero" x="0" y="38.1195294" width="13.6365855" height="13.5882353" rx="2"></rect>
                </g>
            </g>
        </g>
    </g>
</svg>