<?xml version="1.0" encoding="UTF-8"?>
<svg width="400px" height="291px" viewBox="0 0 400 291" version="1.1" xmlns="http://www.w3.org/2000/svg" xmlns:xlink="http://www.w3.org/1999/xlink">
    <!-- Generator: Sketch 52.1 (67048) - http://www.bohemiancoding.com/sketch -->
    <title>Group 180</title>
    <desc>Created with Sketch.</desc>
    <defs>
        <polygon id="path-1" points="0.0591785225 0.166536145 30.4941706 17.8772169 30.4941706 71.009259 0.0591785225 53.2985783"></polygon>
        <linearGradient x1="50.0022949%" y1="0.00053152529%" x2="50.0022949%" y2="85.2647169%" id="linearGradient-3">
            <stop stop-color="#FFFFFF" offset="0%"></stop>
            <stop stop-color="#8EBCFF" offset="100%"></stop>
        </linearGradient>
        <polygon id="path-4" points="31.4156888 0.166536145 31.4156888 53.2985783 0 71.009259 0 17.8772169"></polygon>
        <linearGradient x1="50.0013231%" y1="0.00053152529%" x2="50.0013231%" y2="85.2647169%" id="linearGradient-6">
            <stop stop-color="#FFFFFF" offset="0%"></stop>
            <stop stop-color="#8EBCFF" offset="100%"></stop>
        </linearGradient>
        <polygon id="path-7" points="31.972823 0.347096386 31.972823 53.4791386 0.557134174 70.2063795 0.557134174 18.0577771"></polygon>
        <linearGradient x1="50.0005197%" y1="0.000684299014%" x2="50.0005197%" y2="85.2642654%" id="linearGradient-9">
            <stop stop-color="#FFFFFF" offset="0%"></stop>
            <stop stop-color="#8EBCFF" offset="100%"></stop>
        </linearGradient>
        <polygon id="path-10" points="0 0.347096386 30.4349921 18.0577771 30.4349921 70.2063795 0 53.4791386"></polygon>
        <linearGradient x1="49.9996073%" y1="0.000684299014%" x2="49.9996073%" y2="85.2642654%" id="linearGradient-12">
            <stop stop-color="#FFFFFF" offset="0%"></stop>
            <stop stop-color="#8EBCFF" offset="100%"></stop>
        </linearGradient>
        <polygon id="path-13" points="0.0591785225 0.166536145 30.4941706 17.8772169 30.4941706 71.009259 0.0591785225 53.2985783"></polygon>
        <polygon id="path-15" points="31.4156888 0.166536145 31.4156888 53.2985783 0 71.009259 0 17.8772169"></polygon>
        <polygon id="path-17" points="31.972823 0.347096386 31.972823 53.4791386 0.555376653 70.2063795 0.555376653 18.0577771"></polygon>
        <linearGradient x1="50.0033167%" y1="0.000684299014%" x2="50.0033167%" y2="85.2642654%" id="linearGradient-19">
            <stop stop-color="#FFFFFF" offset="0%"></stop>
            <stop stop-color="#8EBCFF" offset="100%"></stop>
        </linearGradient>
        <polygon id="path-20" points="0 0.347096386 30.4332345 18.0577771 30.4332345 70.2063795 0 53.4791386"></polygon>
        <linearGradient x1="50.0024948%" y1="0.000684299014%" x2="50.0024948%" y2="85.2642654%" id="linearGradient-22">
            <stop stop-color="#FFFFFF" offset="0%"></stop>
            <stop stop-color="#8EBCFF" offset="100%"></stop>
        </linearGradient>
        <polygon id="path-23" points="0.443804259 0.0125011995 108.897762 0.0125011995 108.897762 61.4286764 0.443804259 61.4286764"></polygon>
        <polygon id="path-25" points="0.443804259 0.0826216814 108.897762 0.0826216814 108.897762 61.4987969 0.443804259 61.4987969"></polygon>
        <polygon id="path-27" points="0.443804259 0.222823956 108.897762 0.222823956 108.897762 61.6385608 0.443804259 61.6385608"></polygon>
        <polygon id="path-29" points="0.0591785225 0.166536145 30.4941706 17.8772169 30.4941706 71.009259 0.0591785225 53.3003313"></polygon>
        <polygon id="path-31" points="31.4156888 0.166536145 31.4156888 53.3003313 0 71.009259 0 17.8772169"></polygon>
        <polygon id="path-33" points="31.972823 0.347096386 31.972823 53.4791386 0.555376653 70.2063795 0.555376653 18.0577771"></polygon>
        <polygon id="path-35" points="0 0.347096386 30.4332345 18.0577771 30.4332345 70.2063795 0 53.4791386"></polygon>
    </defs>
    <g id="Page-1" stroke="none" stroke-width="1" fill="none" fill-rule="evenodd">
        <g id="官网-呼吸疾病临床研究大数据平台-" transform="translate(-515.000000, -2472.000000)">
            <g id="Group-180" transform="translate(515.000000, 2472.000000)">
                <path d="M352,187 L147,74" id="Stroke-1" stroke="#8EBCFF"></path>
                <g id="Group-179">
                    <path d="M201.041683,76.6325711 L153.780184,103.290625 C150.50065,105.140053 146.486472,105.162842 143.185848,103.348475 L95.7556269,77.2811855 C94.258219,76.4590229 93.7169025,74.586806 94.5446949,73.0984988 C94.8171107,72.6111614 95.2178255,72.2044627 95.7029013,71.9239807 L143.008338,44.7259988 C146.335325,42.8134627 150.433864,42.7941795 153.776669,44.6769145 L201.039926,71.2771193 C202.528546,72.115059 203.052287,73.994288 202.208677,75.4720771 C201.932746,75.9576614 201.528516,76.3573482 201.041683,76.6325711" id="Fill-2" fill="#E8F1FF"></path>
                    <path d="M201.041683,74.9498548 L153.780184,101.607909 C150.50065,103.457337 146.486472,103.478373 143.185848,101.665758 L95.7556269,75.5984693 C94.258219,74.7763066 93.7169025,72.9040898 94.5446949,71.4157825 C94.8171107,70.9266922 95.2178255,70.5217464 95.7029013,70.2412645 L143.008338,43.0432825 C146.335325,41.1307464 150.433864,41.1114633 153.776669,42.9941982 L201.039926,69.594403 C202.528546,70.4323428 203.052287,72.3115717 202.208677,73.7893608 C201.932746,74.2731922 201.528516,74.6746319 201.041683,74.9498548" id="Fill-4" fill="#8EBCFF"></path>
                    <path d="M95.7550997,74.3729386 L143.18532,100.440228 C146.487702,102.252842 150.500123,102.231806 153.781415,100.380625 L201.041156,73.7243241 C201.529747,73.4491012 201.932219,73.0476614 202.20815,72.5638301 C202.515716,72.0239024 202.6405,71.4278783 202.603592,70.8511373 L202.603592,69.7519988 L201.055216,69.7519988 L201.055216,70.3077036 C201.051701,70.3059506 185.29201,61.4357096 153.7779,43.6969807 C150.433337,41.8142458 146.334798,41.8335289 143.007811,43.7460651 L95.7058891,70.944047 L95.7058891,69.9711253 L94.1557555,69.9711253 L94.1557555,71.8345771 C94.2137537,72.8618422 94.7831905,73.8382699 95.7550997,74.3729386" id="Fill-6" fill="#C9DAFD"></path>
                    <path d="M201.041683,72.1448602 L153.780184,98.8029145 C150.50065,100.652342 146.486472,100.675131 143.185848,98.8607639 L95.7556269,72.7934747 C94.258219,71.971312 93.7169025,70.0990952 94.5446949,68.610788 C94.8171107,68.1234506 95.2178255,67.7167518 95.7029013,67.4362699 L143.008338,40.238288 C146.335325,38.3257518 150.433864,38.3064687 153.776669,40.1892036 L201.039926,66.7894084 C202.528546,67.6273482 203.052287,69.5065771 202.208677,70.9843663 C201.932746,71.4699506 201.528516,71.8696373 201.041683,72.1448602" id="Fill-8" fill="#ECF2FF"></path>
                    <path d="M194.713553,71.1810542 C195.073845,70.9777048 195.370866,70.6831988 195.574738,70.3255843 C196.196901,69.2369639 195.810246,67.8555904 194.711795,67.2367771 L153.084909,43.8515964 C150.274633,42.2721325 146.829892,42.2879096 144.033676,43.8919157 L102.369882,67.803 C102.00959,68.0098554 101.714326,68.3096205 101.513969,68.668988 C100.904109,69.7646205 101.303066,71.144241 102.408547,71.7490301 L144.183065,94.6644036 C146.958191,96.1877711 150.330874,96.168488 153.086667,94.6170723 L194.713553,71.1810542 Z" id="Stroke-10" stroke="#8EBCFF" stroke-width="0.5"></path>
                    <path d="M237.813945,137.147599 L162.90664,179.838701 C159.535714,181.760002 158.363448,186.042611 160.291448,189.404888 C160.897793,190.467213 161.771281,191.348978 162.827551,191.969545 L187.058494,206.202249 C190.403057,208.167376 191.519083,212.465761 189.548901,215.803496 C188.937284,216.837773 188.069069,217.702008 187.026859,218.305045 L149.278822,240.214189" id="Stroke-12" stroke="#8EBCFF" stroke-linecap="round"></path>
                    <path d="M117.459782,71.9949777 L144.541424,87.3706464 C146.421971,88.4364777 148.722566,88.4505018 150.613659,87.4039536 L177.793722,72.3683693 C178.649635,71.895056 178.960716,70.8152006 178.486185,69.9562247 C178.331523,69.6757428 178.101288,69.4408392 177.821842,69.279562 L150.715595,53.5918572 C148.808685,52.4892127 146.460637,52.4786946 144.543181,53.563809 L117.459782,68.9061705 C116.607384,69.3900018 116.308605,70.4733633 116.791924,71.3270801 C116.948343,71.605809 117.180336,71.8372066 117.459782,71.9949777" id="Fill-14" fill="#8EBCFF"></path>
                    <path d="M126.915948,71.5165807 L145.510521,82.0732193 C146.802299,82.8059783 148.380553,82.8147434 149.679361,82.0960084 L168.342477,71.7725205 C168.931246,71.4482133 169.143906,70.7066892 168.818765,70.1176771 C168.711556,69.9230928 168.553379,69.7635687 168.363567,69.6531289 L149.749661,58.8808699 C148.440308,58.1235687 146.828661,58.1148036 145.512278,58.8615867 L126.915948,69.3971892 C126.330693,69.7267554 126.125063,70.4717855 126.457235,71.0572916 C126.566201,71.2501229 126.724378,71.407894 126.915948,71.5165807" id="Fill-16" fill="#ECF2FF"></path>
                    <g id="Group-20" transform="translate(147.916968, 0.000000)">
                        <mask id="mask-2" fill="white">
                            <use xlink:href="#path-1"></use>
                        </mask>
                        <g id="Clip-19"></g>
                        <polygon id="Fill-18" fill="url(#linearGradient-3)" mask="url(#mask-2)" points="0.0591785225 0.166536145 30.4941706 17.8772169 30.4941706 71.009259 0.0591785225 53.2985783"></polygon>
                    </g>
                    <g id="Group-23" transform="translate(116.560458, 0.000000)">
                        <mask id="mask-5" fill="white">
                            <use xlink:href="#path-4"></use>
                        </mask>
                        <g id="Clip-22"></g>
                        <polygon id="Fill-21" fill="url(#linearGradient-6)" mask="url(#mask-5)" points="31.4156888 0.166536145 0 17.8772169 0 71.009259 31.4156888 53.2985783"></polygon>
                    </g>
                    <g id="Group-26" transform="translate(146.438316, 17.530120)">
                        <mask id="mask-8" fill="white">
                            <use xlink:href="#path-7"></use>
                        </mask>
                        <g id="Clip-25"></g>
                        <polygon id="Fill-24" fill="url(#linearGradient-9)" mask="url(#mask-8)" points="31.972823 0.347096386 0.557134174 18.0577771 0.557134174 70.2063795 31.972823 53.4791386"></polygon>
                    </g>
                    <g id="Group-29" transform="translate(116.560458, 17.530120)">
                        <mask id="mask-11" fill="white">
                            <use xlink:href="#path-10"></use>
                        </mask>
                        <g id="Clip-28"></g>
                        <polygon id="Fill-27" fill="url(#linearGradient-12)" mask="url(#mask-11)" points="0 0.347096386 30.4349921 18.0577771 30.4349921 70.2063795 0 53.4791386"></polygon>
                    </g>
                    <polygon id="Fill-30" fill="#5382C7" points="131.342265 29.2533886 142.168594 29.174503 147.511458 38.4058645 136.686886 38.486503"></polygon>
                    <polygon id="Fill-32" fill="#8EBCFF" points="147.429558 19.9892458 142.16754 29.1732759 147.512161 38.4063904 152.791755 29.2521614"></polygon>
                    <polygon id="Fill-34" fill="#C9DAFD" points="147.429558 19.9892458 142.16754 29.1732759 131.342968 29.2539145 136.805343 20.0102819"></polygon>
                    <polygon id="Fill-36" fill="#5382C7" points="149.358613 51.1763819 158.694565 45.7087373 167.951428 51.037894 158.615476 56.5072916"></polygon>
                    <polygon id="Fill-38" fill="#8EBCFF" points="158.647463 35.1296602 158.694916 45.709088 167.950022 51.0382446 167.934205 40.4781"></polygon>
                    <polygon id="Fill-40" fill="#C9DAFD" points="158.647463 35.1296602 158.694916 45.709088 149.358965 51.1767325 149.457386 40.4465458"></polygon>
                    <polygon id="Fill-42" fill="#5382C7" points="138.625608 66.2489548 138.546519 55.4504006 147.801625 50.121244 147.880714 60.9180452"></polygon>
                    <polygon id="Fill-44" fill="#8EBCFF" points="129.336757 50.2022331 138.546168 55.4507512 147.801274 50.1215946 138.623499 44.8555464"></polygon>
                    <polygon id="Fill-46" fill="#C9DAFD" points="129.336757 50.2022331 138.546168 55.4507512 138.625256 66.2493054 129.359605 60.799191"></polygon>
                    <path d="M301.220383,134.481969 L253.958884,161.140023 C250.67935,162.989451 246.665172,163.01224 243.364548,161.197872 L195.934327,135.130583 C194.436919,134.30842 193.895603,132.436204 194.723395,130.947896 C194.995811,130.460559 195.396525,130.05386 195.881601,129.773378 L243.18528,102.575396 C246.514025,100.66286 250.610807,100.643577 253.955369,102.526312 L301.218626,129.126517 C302.707246,129.964457 303.230987,131.843686 302.387377,133.321475 C302.111446,133.807059 301.707216,134.206746 301.220383,134.481969" id="Fill-48" fill="#E8F1FF"></path>
                    <path d="M301.220383,132.799252 L253.958884,159.457307 C250.67935,161.306734 246.665172,161.329523 243.364548,159.515156 L195.934327,133.447867 C194.436919,132.625704 193.895603,130.753487 194.723395,129.26518 C194.995811,128.77609 195.396525,128.371144 195.881601,128.090662 L243.18528,100.89268 C246.514025,98.980144 250.610807,98.9608608 253.955369,100.843596 L301.218626,127.443801 C302.707246,128.28174 303.230987,130.160969 302.387377,131.638758 C302.111446,132.12259 301.707216,132.52403 301.220383,132.799252" id="Fill-50" fill="#8EBCFF"></path>
                    <path d="M195.9338,132.222336 L243.36402,158.289625 C246.664645,160.103993 250.678823,160.081204 253.960115,158.230023 L301.219856,131.573722 C301.708447,131.298499 302.110919,130.897059 302.38685,130.413228 C302.694416,129.8733 302.8192,129.277276 302.782292,128.700535 L302.782292,127.601396 L301.233916,127.601396 L301.233916,128.157101 C301.230401,128.155348 285.47071,119.285107 253.9566,101.546378 C250.61028,99.6636434 246.513498,99.6829265 243.186511,101.595463 L195.884589,128.793445 L195.884589,127.820523 L194.334456,127.820523 L194.334456,129.683975 C194.392454,130.71124 194.961891,131.687667 195.9338,132.222336" id="Fill-52" fill="#C9DAFD"></path>
                    <path d="M301.220383,129.994258 L253.958884,156.650559 C250.67935,158.50174 246.665172,158.522776 243.364548,156.708408 L195.934327,130.642872 C194.436919,129.82071 193.895603,127.948493 194.723395,126.460186 C194.995811,125.972848 195.396525,125.566149 195.881601,125.285667 L243.18528,98.0876855 C246.514025,96.1751494 250.610807,96.1558663 253.955369,98.0386012 L301.218626,124.638806 C302.707246,125.476746 303.230987,127.355975 302.387377,128.833764 C302.111446,129.319348 301.707216,129.719035 301.220383,129.994258" id="Fill-54" fill="#ECF2FF"></path>
                    <path d="M294.892253,129.030452 C295.250787,128.827102 295.549566,128.532596 295.753438,128.174982 C296.375601,127.086361 295.988946,125.704988 294.890495,125.086175 L253.261852,101.700994 C250.453333,100.12153 247.008592,100.137307 244.212376,101.741313 L202.548582,125.652398 C202.190047,125.859253 201.893026,126.159018 201.692669,126.518386 C201.081052,127.614018 201.481766,128.993639 202.58549,129.598428 L244.361765,152.513801 C247.135133,154.037169 250.509574,154.017886 253.265367,152.464717 L294.892253,129.030452 Z" id="Stroke-56" stroke="#8EBCFF" stroke-width="0.5"></path>
                    <path d="M217.638482,129.844375 L244.720124,145.220044 C246.600671,146.285875 248.899509,146.299899 250.792359,145.253351 L277.970664,130.217767 C278.828335,129.744454 279.139416,128.664598 278.666643,127.805622 C278.510223,127.52514 278.279988,127.290237 278.0023,127.12896 L250.894295,111.441255 C248.987385,110.33861 246.639337,110.328092 244.721881,111.413207 L217.640239,126.755568 C216.787841,127.239399 216.487305,128.322761 216.968866,129.176478 C217.128801,129.455207 217.359036,129.686604 217.638482,129.844375" id="Fill-58" fill="#8EBCFF"></path>
                    <path d="M227.093769,129.365978 L245.690099,139.922617 C246.98012,140.655376 248.560131,140.664141 249.858939,139.945406 L268.520298,129.621918 C269.109067,129.297611 269.321727,128.556087 268.998344,127.967075 C268.889377,127.77249 268.7312,127.612966 268.541388,127.502527 L249.927483,116.730267 C248.619887,115.972966 247.006483,115.964201 245.690099,116.710984 L227.095527,127.246587 C226.510272,127.576153 226.304642,128.321183 226.635056,128.906689 C226.744022,129.09952 226.903957,129.257292 227.093769,129.365978" id="Fill-60" fill="#ECF2FF"></path>
                    <g id="Group-64" transform="translate(248.095668, 57.849398)">
                        <mask id="mask-14" fill="white">
                            <use xlink:href="#path-13"></use>
                        </mask>
                        <g id="Clip-63"></g>
                        <polygon id="Fill-62" fill="url(#linearGradient-3)" mask="url(#mask-14)" points="0.0591785225 0.166536145 30.4941706 17.8772169 30.4941706 71.009259 0.0591785225 53.2985783"></polygon>
                    </g>
                    <g id="Group-67" transform="translate(216.739158, 57.849398)">
                        <mask id="mask-16" fill="white">
                            <use xlink:href="#path-15"></use>
                        </mask>
                        <g id="Clip-66"></g>
                        <polygon id="Fill-65" fill="url(#linearGradient-6)" mask="url(#mask-16)" points="31.4156888 0.166536145 0 17.8772169 0 71.009259 31.4156888 53.2985783"></polygon>
                    </g>
                    <g id="Group-70" transform="translate(246.617016, 75.379518)">
                        <mask id="mask-18" fill="white">
                            <use xlink:href="#path-17"></use>
                        </mask>
                        <g id="Clip-69"></g>
                        <polygon id="Fill-68" fill="url(#linearGradient-19)" mask="url(#mask-18)" points="31.972823 0.347096386 0.555376653 18.0577771 0.555376653 70.2063795 31.972823 53.4791386"></polygon>
                    </g>
                    <g id="Group-73" transform="translate(216.739158, 75.379518)">
                        <mask id="mask-21" fill="white">
                            <use xlink:href="#path-20"></use>
                        </mask>
                        <g id="Clip-72"></g>
                        <polygon id="Fill-71" fill="url(#linearGradient-22)" mask="url(#mask-21)" points="0 0.347096386 30.4332345 18.0577771 30.4332345 70.2063795 0 53.4791386"></polygon>
                    </g>
                    <polygon id="Fill-74" fill="#5382C7" points="231.520262 85.3497741 242.346591 85.2708886 247.691213 94.50225 236.864883 94.5828886"></polygon>
                    <polygon id="Fill-76" fill="#8EBCFF" points="247.609137 76.0856313 242.347119 85.2696614 247.69174 94.5027759 252.969576 85.348547"></polygon>
                    <polygon id="Fill-78" fill="#C9DAFD" points="247.609137 76.0856313 242.347119 85.2696614 231.520789 85.3503 236.984922 76.1066675"></polygon>
                    <polygon id="Fill-80" fill="#5382C7" points="249.538192 107.272767 258.874144 101.805123 268.129249 107.13428 258.793298 112.603677"></polygon>
                    <polygon id="Fill-82" fill="#8EBCFF" points="258.825285 91.2260458 258.872738 101.805473 268.129601 107.13463 268.112026 96.5744855"></polygon>
                    <polygon id="Fill-84" fill="#C9DAFD" points="258.825285 91.2260458 258.872738 101.805473 249.538543 107.273118 249.635207 96.5429313"></polygon>
                    <polygon id="Fill-86" fill="#5382C7" points="238.804308 122.34534 238.723462 111.546786 247.980325 106.21763 248.061171 117.014431"></polygon>
                    <polygon id="Fill-88" fill="#8EBCFF" points="229.515457 106.298619 238.72311 111.547137 247.979974 106.21798 238.802199 100.951932"></polygon>
                    <polygon id="Fill-90" fill="#C9DAFD" points="229.515457 106.298619 238.72311 111.547137 238.803956 122.345691 229.538305 116.895577"></polygon>
                    <g id="Group-94" transform="translate(290.555042, 160.716719)">
                        <mask id="mask-24" fill="white">
                            <use xlink:href="#path-23"></use>
                        </mask>
                        <g id="Clip-93"></g>
                        <path d="M107.328999,33.3669578 L60.0675,60.025012 C56.7879657,61.8761927 52.7737877,61.8972289 49.4731631,60.0828614 L2.04294247,34.0173252 C0.545534535,33.1934096 0.00421805053,31.3211927 0.830252945,29.8328855 C1.10442623,29.3455481 1.50338351,28.9406024 1.99021684,28.6583674 L49.293896,1.46038548 C52.6226408,-0.452150662 56.7194224,-0.471433794 60.063985,1.41130115 L107.327241,28.013259 C108.815861,28.8511987 109.339603,30.7286746 108.495993,32.2082168 C108.220062,32.6920481 107.815832,33.0934879 107.328999,33.3669578" id="Fill-92" fill="#E8F1FF" mask="url(#mask-24)"></path>
                    </g>
                    <g id="Group-97" transform="translate(290.555042, 158.963707)">
                        <mask id="mask-26" fill="white">
                            <use xlink:href="#path-25"></use>
                        </mask>
                        <g id="Clip-96"></g>
                        <path d="M107.328999,33.4370783 L60.0675,60.0951325 C56.7879657,61.9463132 52.7737877,61.9673493 49.4731631,60.1529819 L2.04294247,34.0874457 C0.545534535,33.2635301 0.00421805053,31.3913132 0.830252945,29.903006 C1.10442623,29.4156686 1.50338351,29.0107228 1.99021684,28.7284879 L49.293896,1.53050596 C52.6226408,-0.38203018 56.7194224,-0.401313312 60.063985,1.48142163 L107.327241,28.0833795 C108.815861,28.9213192 109.339603,30.7987951 108.495993,32.2783373 C108.220062,32.7621686 107.815832,33.1636084 107.328999,33.4370783" id="Fill-95" fill="#8EBCFF" mask="url(#mask-26)"></path>
                    </g>
                    <path d="M292.597458,191.823869 L340.027678,217.891158 C343.328303,219.705526 347.342481,219.68449 350.623773,217.833309 L397.883514,191.175255 C398.372105,190.901785 398.774577,190.500345 399.050508,190.016514 C399.358074,189.474833 399.482858,188.880562 399.44595,188.303821 L399.44595,187.20293 L397.897574,187.20293 L397.897574,187.760387 C397.894059,187.758634 382.134368,178.88664 350.620258,161.149664 C347.273938,159.26693 343.177156,159.28446 339.850169,161.198749 L292.548247,188.396731 L292.548247,187.422056 L290.999871,187.422056 L290.999871,189.287261 C291.056112,190.314526 291.625548,191.289201 292.597458,191.823869" id="Fill-98" fill="#C9DAFD"></path>
                    <g id="Group-102" transform="translate(290.555042, 156.018072)">
                        <mask id="mask-28" fill="white">
                            <use xlink:href="#path-27"></use>
                        </mask>
                        <g id="Clip-101"></g>
                        <path d="M107.328999,33.5785952 L60.0675,60.2348964 C56.7879657,62.0860771 52.7737877,62.1071133 49.4731631,60.2927458 L2.04294247,34.2272096 C0.545534535,33.405047 0.00421805053,31.5328301 0.830252945,30.0445229 C1.10442623,29.5554325 1.50338351,29.1504867 1.99021684,28.8700048 L49.293896,1.67202289 C52.6226408,-0.242266265 56.7194224,-0.261549398 60.063985,1.62293855 L107.327241,28.2231434 C108.815861,29.0610831 109.339603,30.938559 108.495993,32.4181012 C108.220062,32.9019325 107.815832,33.3033723 107.328999,33.5785952" id="Fill-100" fill="#ECF2FF" mask="url(#mask-28)"></path>
                    </g>
                    <path d="M391.555911,188.632861 C391.914445,188.431265 392.213224,188.135006 392.417096,187.779145 C393.039258,186.690524 392.652604,185.307398 391.554153,184.688584 L349.92551,161.301651 C347.116991,159.72394 343.67225,159.739717 340.876034,161.345476 L299.21224,185.254807 C298.853705,185.461663 298.556684,185.759675 298.356327,186.120795 C297.744709,187.216428 298.145424,188.596048 299.249147,189.200837 L341.025423,212.116211 C343.798791,213.639578 347.173232,213.620295 349.929025,212.067127 L391.555911,188.632861 Z" id="Stroke-103" stroke="#8EBCFF" stroke-width="0.5"></path>
                    <path d="M314.30214,189.447661 L341.383781,204.82333 C343.264329,205.889161 345.563167,205.901433 347.456017,204.854884 L374.634322,189.821053 C375.491993,189.345987 375.803074,188.266131 375.330301,187.408908 C375.173881,187.126673 374.943646,186.893523 374.665958,186.730493 L347.557953,171.044541 C345.651043,169.940143 343.302994,169.929625 341.385539,171.01474 L314.303897,186.358854 C313.451499,186.842686 313.150963,187.924294 313.632524,188.778011 C313.792458,189.05674 314.022694,189.288137 314.30214,189.447661" id="Fill-105" fill="#8EBCFF"></path>
                    <path d="M323.757427,188.968388 L342.353757,199.525027 C343.643778,200.257786 345.223789,200.266551 346.522597,199.547816 L365.183956,189.224328 C365.772725,188.90002 365.985385,188.158496 365.662002,187.569484 C365.553035,187.376653 365.394858,187.215376 365.205046,187.104936 L346.591141,176.332677 C345.283545,175.575376 343.670141,175.566611 342.353757,176.313394 L323.759185,186.847243 C323.17393,187.178563 322.9683,187.923593 323.298714,188.509099 C323.40768,188.70193 323.567615,188.859701 323.757427,188.968388" id="Fill-107" fill="#ECF2FF"></path>
                    <g id="Group-111" transform="translate(344.759326, 117.451807)">
                        <mask id="mask-30" fill="white">
                            <use xlink:href="#path-29"></use>
                        </mask>
                        <g id="Clip-110"></g>
                        <polygon id="Fill-109" fill="url(#linearGradient-3)" mask="url(#mask-30)" points="0.0591785225 0.166536145 30.4941706 17.8772169 30.4941706 71.009259 0.0591785225 53.3003313"></polygon>
                    </g>
                    <g id="Group-114" transform="translate(313.402816, 117.451807)">
                        <mask id="mask-32" fill="white">
                            <use xlink:href="#path-31"></use>
                        </mask>
                        <g id="Clip-113"></g>
                        <polygon id="Fill-112" fill="url(#linearGradient-6)" mask="url(#mask-32)" points="31.4156888 0.166536145 0 17.8772169 0 71.009259 31.4156888 53.3003313"></polygon>
                    </g>
                    <g id="Group-117" transform="translate(343.280674, 134.981928)">
                        <mask id="mask-34" fill="white">
                            <use xlink:href="#path-33"></use>
                        </mask>
                        <g id="Clip-116"></g>
                        <polygon id="Fill-115" fill="url(#linearGradient-19)" mask="url(#mask-34)" points="31.972823 0.347096386 0.555376653 18.0577771 0.555376653 70.2063795 31.972823 53.4791386"></polygon>
                    </g>
                    <g id="Group-120" transform="translate(313.402816, 134.981928)">
                        <mask id="mask-36" fill="white">
                            <use xlink:href="#path-35"></use>
                        </mask>
                        <g id="Clip-119"></g>
                        <polygon id="Fill-118" fill="url(#linearGradient-22)" mask="url(#mask-36)" points="0 0.347096386 30.4332345 18.0577771 30.4332345 70.2063795 0 53.4791386"></polygon>
                    </g>
                    <polygon id="Fill-121" fill="#ECF2FF" points="74.9360325 158.834987 126.958656 188.287343 126.958656 289.259084 74.9360325 259.810234"></polygon>
                    <polygon id="Fill-123" fill="#C9DAFD" points="74.9360325 257.003662 126.958656 286.456017 126.958656 289.259084 74.9360325 259.810234"></polygon>
                    <polygon id="Fill-125" fill="#8EBCFF" points="78.1842829 166.977027 123.711108 192.751563 123.711108 225.021009 78.1842829 199.248226"></polygon>
                    <path d="M114.01258,198.541411 L118.098816,200.794032 L118.098816,218.536267 L114.01258,216.283646 L114.01258,198.541411 Z M108.977282,192.505791 L113.061761,194.758411 L113.061761,215.759496 L108.977282,213.506875 L108.977282,192.505791 Z M103.940227,194.924948 L108.026463,197.179321 L108.026463,212.982725 L103.940227,210.731857 L103.940227,194.924948 Z M98.9049289,190.212851 L102.991165,192.465472 L102.991165,210.205954 L98.9049289,207.955086 L98.9049289,190.212851 Z M83.7972779,186.727863 L87.8835144,188.978731 L87.8835144,201.877393 L83.7972779,199.624773 L83.7972779,186.727863 Z M93.8696311,192.279652 L97.95411,194.532273 L97.95411,207.430936 L93.8696311,205.178315 L93.8696311,192.279652 Z M88.8325758,196.262496 L92.9188122,198.515116 L92.9188122,204.654164 L88.8325758,202.401544 L88.8325758,196.262496 Z" id="Fill-127" fill="#ECF2FF"></path>
                    <polygon id="Fill-129" fill="#ECF2FF" points="78.1842829 203.406721 123.711108 229.179504 112.002503 244.300986 66.4756777 218.528203"></polygon>
                    <path d="M109.683103,233.800269 L113.574254,235.95472 L110.495077,240.084817 L106.605683,237.930365 L109.683103,233.800269 Z M102.763742,229.969937 L106.656651,232.124389 L103.577474,236.254486 L99.6863228,234.101787 L102.763742,229.969937 Z M95.8461393,226.141359 L99.7372909,228.295811 L96.6598715,232.425907 L92.7669624,230.271455 L95.8461393,226.141359 Z M88.9267789,222.312781 L92.819688,224.467233 L89.7405111,228.597329 L85.8493595,226.442877 L88.9267789,222.312781 Z M82.009176,218.484202 L85.9003276,220.636901 L82.8229083,224.768751 L78.9299991,222.614299 L82.009176,218.484202 Z M74.8420052,214.517136 L78.7331568,216.671588 L75.6557374,220.799931 L71.7628283,218.64548 L74.8420052,214.517136 Z M114.532103,227.294841 L118.423255,229.449293 L115.344078,233.579389 L111.452926,231.42669 L114.532103,227.294841 Z M107.612743,223.46451 L111.505652,225.618961 L108.426475,229.749058 L104.535323,227.596359 L107.612743,223.46451 Z M100.69514,219.635931 L104.586291,221.78863 L101.508872,225.92048 L97.615963,223.766028 L100.69514,219.635931 Z M93.7757795,215.8056 L97.6686886,217.961805 L94.5895117,222.090148 L90.6983601,219.937449 L93.7757795,215.8056 Z M86.8581766,211.978775 L90.7493282,214.131473 L87.6719088,218.263323 L83.7789997,216.107118 L86.8581766,211.978775 Z M79.6910057,208.009955 L83.5821574,210.16616 L80.5029805,214.294504 L76.6118289,212.141805 L79.6910057,208.009955 Z" id="Fill-131" fill="#5E97EA"></path>
                    <polygon id="Fill-133" fill="#8EBCFF" points="66.4753262 223.787239 112.002152 249.560022 112.002152 244.300986 66.4753262 218.528203"></polygon>
                    <polygon id="Fill-135" fill="#C9DAFD" points="123.682285 242.548149 112.0018 249.560198 112.0018 244.301161 123.682285 229.193704"></polygon>
                    <polygon id="Fill-137" fill="#C9DAFD" points="177.575965 158.834987 126.959359 188.287343 126.959359 289.259084 177.575965 260.004819"></polygon>
                    <path d="M167.861619,171.222472 L148.474404,182.503104 C145.882061,184.010695 144.287989,186.778701 144.287989,189.771092 L144.287989,249.555815 C144.287989,251.103725 145.548132,252.360634 147.100023,252.360634 C147.595644,252.360634 148.082477,252.230911 148.511312,251.981984 L167.884467,240.785496 C170.487355,239.279658 172.090215,236.506393 172.090215,233.503484 L172.090215,173.645134 C172.090215,172.095472 170.831829,170.840315 169.278181,170.840315 C168.780802,170.840315 168.292212,170.971791 167.861619,171.222472 Z" id="Stroke-139" stroke="#8EBCFF"></path>
                    <path d="M155.366699,194.97894 L135.979484,206.259573 C133.38714,207.767163 131.793069,210.535169 131.793069,213.527561 L131.793069,273.314037 C131.793069,274.861946 133.053211,276.117103 134.605103,276.117103 C135.100723,276.117103 135.587557,275.98738 136.016392,275.738452 L155.389547,264.541964 C157.992435,263.036127 159.595294,260.262862 159.595294,257.261705 L159.595294,197.401603 C159.595294,195.85194 158.336909,194.596784 156.783261,194.596784 C156.285882,194.596784 155.797291,194.72826 155.366699,194.97894 Z" id="Stroke-141" stroke="#8EBCFF"></path>
                    <polygon id="Fill-143" fill="#8EBCFF" points="177.575965 257.003662 126.959359 286.456017 126.959359 289.259084 177.575965 260.004819"></polygon>
                    <polygon id="Fill-145" fill="#8EBCFF" points="177.575965 158.834987 126.959359 188.287343 74.9367355 158.834987 126.25635 131.642264"></polygon>
                    <path d="M35.8457765,290.999123 C55.6214034,290.999123 71.6517529,240.419467 71.6517529,223.75884 C71.6517529,207.098214 55.6214034,204.135623 35.8457765,204.135623 C16.0719072,204.135623 0.0398001416,207.098214 0.0398001416,223.75884 C0.0398001416,240.419467 16.0719072,290.999123 35.8457765,290.999123" id="Fill-147" fill="#ECF2FF"></path>
                    <path d="M35.8577277,289.735728 C21.1683667,279.967945 11.3754594,259.82233 6.47900577,229.295378 L8.31385775,225.633336" id="Stroke-149" stroke="#C9DAFD" stroke-linecap="round" stroke-linejoin="round"></path>
                    <path d="M49.9136781,237.448462 C64.8280017,250.971197 79.3996088,250.971197 91.8375852,237.189016 C101.572494,226.399227 107.723818,224.646215 111.992837,229.756245 C113.291645,231.311167 115.608057,231.519775 117.165221,230.226052 C118.724142,228.930577 118.933287,226.620107 117.636237,225.066938 C109.664121,215.52354 98.6778572,218.65442 86.3787249,232.287595 C76.7809024,242.923119 66.8702412,242.923119 54.8540697,232.026396 C53.3531468,230.666058 51.0297039,230.776498 49.6658676,232.27357 C48.3020313,233.76889 48.4127551,236.088125 49.9136781,237.448462" id="Fill-151" fill="#497FE5"></path>
                    <path d="M14.5590331,211.396249 C29.4733567,224.920737 44.0449638,224.920737 56.4829402,211.136803 C66.2178494,200.347014 72.369173,198.594002 76.6381917,203.704032 C77.9369997,205.258954 80.2534125,205.469315 81.8105761,204.173839 C83.3694973,202.880116 83.5786423,200.567893 82.2815918,199.016478 C74.3094763,189.47308 63.3232122,192.60396 51.0240799,206.235381 C41.4262574,216.872658 31.5155962,216.872658 19.4994247,205.975936 C17.9985018,204.615598 15.6768165,204.724285 14.3112226,206.22311 C12.9473863,207.71843 13.0581101,210.035911 14.5590331,211.396249" id="Fill-153" fill="#497FE5"></path>
                    <path d="M35.8457765,230.323345 C52.4771983,230.323345 65.9608998,224.461272 65.9608998,217.230098 C65.9608998,209.998923 52.4771983,204.136851 35.8457765,204.136851 C19.2143548,204.136851 5.73065331,209.998923 5.73065331,217.230098 C5.73065331,224.461272 19.2143548,230.323345 35.8457765,230.323345" id="Fill-155" fill="#C9DAFD"></path>
                    <path d="M34.9274718,218.78835 C52.6749194,218.78835 67.9794127,208.101989 67.9794127,194.063868 C67.9794127,180.025748 53.5923454,162.011796 35.8448978,162.011796 C18.0992077,162.011796 3.71214038,180.025748 3.71214038,194.063868 C3.71214038,208.101989 17.1800242,218.78835 34.9274718,218.78835" id="Fill-157" fill="#ECF2FF"></path>
                    <path d="M67.9797642,194.062992 C67.9797642,188.654949 65.8443761,182.657895 62.20455,177.326986 C57.7070537,181.448317 53.2095573,183.508106 48.7120609,183.508106 C49.8702673,195.063961 55.9635928,200.605233 66.9902799,200.130166 C67.6352901,198.2001 67.9797642,196.168359 67.9797642,194.062992" id="Fill-159" fill="#497FE5"></path>
                    <polygon id="Fill-161" fill="#5382C7" points="328.18392 148.459084 339.010249 148.378446 344.354871 157.61156 333.528541 157.692199"></polygon>
                    <polygon id="Fill-163" fill="#8EBCFF" points="344.272795 139.194065 339.010777 148.378095 344.355398 157.61121 349.633234 148.456981"></polygon>
                    <polygon id="Fill-165" fill="#C9DAFD" points="344.272795 139.194065 339.010777 148.378095 328.184447 148.458734 333.64858 139.215101"></polygon>
                    <polygon id="Fill-167" fill="#5382C7" points="346.20185 170.380325 355.537801 164.91268 364.792907 170.24359 355.456956 175.711234"></polygon>
                    <polygon id="Fill-169" fill="#8EBCFF" points="355.488942 154.33448 355.536395 164.912154 364.793259 170.243064 364.775684 159.682919"></polygon>
                    <polygon id="Fill-171" fill="#C9DAFD" points="355.488942 154.33448 355.536395 164.912154 346.202201 170.379799 346.298865 159.651365"></polygon>
                    <polygon id="Fill-173" fill="#5382C7" points="335.467966 185.453774 335.38712 174.65522 344.643983 169.326063 344.724829 180.122864"></polygon>
                    <polygon id="Fill-175" fill="#8EBCFF" points="326.179115 169.407929 335.386768 174.654694 344.643631 169.325537 335.465857 164.059489"></polygon>
                    <polygon id="Fill-177" fill="#C9DAFD" points="326.179115 169.407929 335.386768 174.654694 335.467614 185.453248 326.201963 180.004887"></polygon>
                </g>
            </g>
        </g>
    </g>
</svg>