<?xml version="1.0" encoding="UTF-8"?>
<svg width="326px" height="304px" viewBox="0 0 326 304" version="1.1" xmlns="http://www.w3.org/2000/svg" xmlns:xlink="http://www.w3.org/1999/xlink">
    <!-- Generator: Sketch 52.1 (67048) - http://www.bohemiancoding.com/sketch -->
    <title>Group 61</title>
    <desc>Created with Sketch.</desc>
    <defs>
        <polygon id="path-1" points="0.000168292683 0.74333846 68.5727049 0.74333846 68.5727049 82.740256 0.000168292683 82.740256"></polygon>
        <polygon id="path-3" points="0.223255751 0.74333846 68.9016419 0.74333846 68.9016419 82.740256 0.223255751 82.740256"></polygon>
    </defs>
    <g id="Page-1" stroke="none" stroke-width="1" fill="none" fill-rule="evenodd">
        <g id="官网-呼吸疾病临床研究大数据平台-" transform="translate(-540.000000, -4189.000000)">
            <g id="Group-61" transform="translate(540.000000, 4189.000000)">
                <g id="Group-7" transform="translate(45.000000, 0.000000)">
                    <path d="M112.03733,0.831060069 L6.77797397,60.4220934 C2.69201507,62.7250716 0.112384932,67.0378909 0.112384932,71.5596124 L0.112384932,174.646103 C0.112384932,176.253302 0.860494521,177.636436 2.02983699,178.497316 C2.24213836,178.653992 4.00626164,179.819801 7.31883699,181.998112 C7.03408356,180.080929 7.13349452,178.987562 7.6137,178.716326 L112.876426,118.980409 C116.959015,116.675746 119.535275,112.366296 119.535275,107.844574 C122.61533,41.2923811 123.201686,7.03242255 121.294344,5.06975282 C118.642262,2.34054684 115.732385,0.0375686997 114.357481,0.130226928 C113.552084,0.184137169 112.756796,0.425048562 112.03733,0.831060069" id="Fill-1" fill="#5E97EA"></path>
                    <path d="M115.483689,4.20045017 L11.7660452,63.7914835 C7.72052466,66.0944617 5.16785342,70.407281 5.16785342,74.9290025 L5.16785342,178.015493 C5.16785342,180.84578 7.46104521,182.981974 10.2917301,182.788234 C11.0903877,182.734324 11.8772507,182.493412 12.5916616,182.085716 L116.31436,122.349799 C120.354826,120.045136 122.904127,115.735686 122.904127,111.213965 L122.904127,8.27235811 C122.904127,5.44207043 120.610936,3.3058771 117.780251,3.49961703 C116.983278,3.55352727 116.196415,3.79443867 115.483689,4.20045017" id="Fill-3" fill="#ECF2FF"></path>
                    <path d="M115.886893,12.5154311 L115.886893,112.480181 C115.886893,113.376439 115.285373,114.393995 114.330016,114.938151 L12.1860986,173.774441 L12.1860986,73.6664921 C12.1860986,72.7702343 12.7893041,71.7526785 13.7429753,71.208522 L115.886893,12.5154311 Z" id="Fill-5" fill="#C9DAFD"></path>
                </g>
                <g id="Group-14" transform="translate(163.000000, 0.000000)">
                    <path d="M11.6740346,0.831060069 L117.106584,60.4220934 C121.201019,62.7250716 123.784935,67.0378909 123.784935,71.5596124 L123.784935,174.646103 C123.784935,176.253302 123.033895,177.636436 121.862609,178.497316 C121.649955,178.653992 119.884589,179.819801 116.564822,181.998112 C116.850049,180.080929 116.75216,178.987562 116.271157,178.716326 L10.8318569,118.980409 C6.74417266,116.675746 4.16363212,112.366296 4.16363212,107.844574 C1.07846004,41.2923811 0.48944196,7.03242255 2.40164107,5.06975282 C5.05644177,2.34054684 7.97284075,0.0375686997 9.34834143,0.130226928 C10.1567645,0.184137169 10.9516858,0.425048562 11.6740346,0.831060069" id="Fill-8" fill="#5E97EA"></path>
                    <path d="M8.22110597,4.20045017 L112.112757,63.7914835 C116.163311,66.0944617 118.721911,70.407281 118.721911,74.9290025 L118.721911,178.015493 C118.721911,180.84578 116.421534,182.981974 113.587834,182.788234 C112.787849,182.734324 111.997991,182.493412 111.284081,182.085716 L7.38905464,122.349799 C3.34187595,120.045136 0.788339102,115.735686 0.788339102,111.213965 L0.788339102,8.27235811 C0.788339102,5.44207043 3.08534085,3.3058771 5.92072876,3.49961703 C6.71902547,3.55352727 7.5071958,3.79443867 8.22110597,4.20045017" id="Fill-10" fill="#ECF2FF"></path>
                    <path d="M7.81740074,12.5154311 L7.81740074,112.480181 C7.81740074,113.376439 8.41992067,114.393995 9.37686409,114.938151 L111.690486,173.774441 L111.690486,73.6664921 C111.690486,72.7702343 111.086279,71.7526785 110.131023,71.208522 L7.81740074,12.5154311 Z" id="Fill-12" fill="#C9DAFD"></path>
                </g>
                <path d="M50.3277849,71.704036 L155.349462,131.337472 C159.426195,133.642089 162,137.957977 162,142.482916 L162,245.642759 C162,247.251102 161.25358,248.635221 160.086878,249.496713 C159.875056,249.653501 158.114916,250.820139 154.80982,253 C155.093931,251.081453 154.994744,249.987308 154.515623,249.715879 L49.4905837,189.937456 C45.4172133,187.631153 42.8467703,183.318637 42.8467703,178.793698 C39.7736703,112.194148 39.1886382,77.9098112 41.0916738,75.9457449 C43.7377675,73.2145969 46.6410736,70.90998 48.0128732,71.0027042 C48.8164518,71.0566528 49.6099437,71.2977356 50.3277849,71.704036" id="Fill-15" fill="#5E97EA"></path>
                <path d="M47.5631118,75.7078146 L153.274944,134.862492 C157.398248,137.148606 160,141.429845 160,145.918456 L160,248.250094 C160,251.059657 157.662717,253.180208 154.777606,252.987887 C153.963593,252.934371 153.161601,252.695224 152.433454,252.290513 L46.7164692,192.992013 C42.598317,190.704226 40,186.426332 40,181.937721 L40,79.749906 C40,76.9403431 42.3390005,74.8197921 45.222394,75.0121133 C46.03469,75.0656288 46.8366821,75.3047761 47.5631118,75.7078146" id="Fill-17" fill="#ECF2FF"></path>
                <path d="M46,83 L46,182.804189 C46,183.699008 46.5974556,184.714929 47.5463556,185.258211 L149,244 L149,144.052842 C149,143.158023 148.400871,142.142102 147.453644,141.598819 L46,83 Z" id="Fill-19" fill="#C9DAFD"></path>
                <path d="M60,158.781184 L137,202.921882 L137,208 L60,163.859302 L60,158.781184 Z M60,148.624947 L100.103433,171.616974 L100.103433,176.695093 L60,153.703065 L60,148.624947 Z M60,138.46871 L137,182.609408 L137,187.687526 L60,143.546829 L60,138.46871 Z M60,128.312474 L82.0641804,140.928212 L82.0641804,146.006331 L60,133.390592 L60,128.312474 Z M60,118.156237 L115.388435,149.901248 L115.388435,154.979366 L60,123.234355 L60,118.156237 Z M60,108 L137,152.140698 L137,157.218816 L60,113.078118 L60,108 Z" id="Fill-21" fill="#8EBCFF"></path>
                <path d="M279.586882,71.704036 L173.706705,131.337472 C169.594886,133.642089 167,137.957977 167,142.482916 L167,245.642759 C167,247.251102 167.754229,248.635221 168.930487,249.496713 C169.144044,249.653501 170.916906,250.820139 174.250767,253 C173.964329,251.081453 174.062633,249.987308 174.545679,249.715879 L280.432636,189.937456 C284.537675,187.631153 287.129171,183.318637 287.129171,178.793698 C290.227442,112.194148 290.818961,77.9098112 288.898643,75.9457449 C286.232571,73.2145969 283.30379,70.90998 281.92245,71.0027042 C281.110594,71.0566528 280.312298,71.2977356 279.586882,71.704036" id="Fill-23" fill="#5E97EA"></path>
                <path d="M283.436996,75.7078146 L177.72496,134.862492 C173.603432,137.148606 171,141.429845 171,145.918456 L171,248.250094 C171,251.059657 173.340684,253.180208 176.224037,252.987887 C177.038038,252.934371 177.841736,252.695224 178.568155,252.290513 L284.283627,192.992013 C288.40172,190.704226 291,186.426332 291,181.937721 L291,79.749906 C291,76.9403431 288.66275,74.8197921 285.777681,75.0121133 C284.965396,75.0656288 284.163416,75.3047761 283.436996,75.7078146" id="Fill-25" fill="#ECF2FF"></path>
                <path d="M281,83 L281,182.804189 C281,183.699008 280.402544,184.714929 279.453644,185.258211 L178,244 L178,144.052842 C178,143.158023 178.599129,142.142102 179.546356,141.598819 L281,83 Z" id="Fill-27" fill="#C9DAFD"></path>
                <path d="M193,199.917838 L270,155.821616 L270,160.903778 L193,205 L193,199.917838 Z M193,189.753515 L233.103433,166.788921 L233.103433,171.871083 L193,194.835677 L193,189.753515 Z M193,179.589192 L270,135.49297 L270,140.575131 L193,184.671354 L193,179.589192 Z M193,169.424869 L215.062504,156.756734 L215.062504,161.838895 L193,174.50703 L193,169.424869 Z M193,159.260545 L248.386759,127.532611 L248.386759,132.614772 L193,164.342707 L193,159.260545 Z M193,149.096222 L270,105 L270,110.082162 L193,154.178384 L193,149.096222 Z" id="Fill-29" fill="#8EBCFF"></path>
                <g id="Group-33" transform="translate(0.000000, 221.000000)">
                    <mask id="mask-2" fill="white">
                        <use xlink:href="#path-1"></use>
                    </mask>
                    <g id="Clip-32"></g>
                    <path d="M34.2864366,82.740587 C53.2227293,82.740587 68.5727049,34.99284 68.5727049,19.267227 C68.5727049,3.53995911 53.2227293,0.74333846 34.2864366,0.74333846 C15.3501439,0.74333846 0.000168292683,3.53995911 0.000168292683,19.267227 C0.000168292683,34.99284 15.3501439,82.740587 34.2864366,82.740587" id="Fill-31" fill="#ECF2FF" mask="url(#mask-2)"></path>
                </g>
                <path d="M34,303 C20,293.704698 10.6649916,274.533556 6,245.483236 L7.74874372,242" id="Stroke-34" stroke="#C9DAFD" stroke-linecap="round" stroke-linejoin="round"></path>
                <path d="M53.4641892,255.723649 C72.1693592,261.584585 85.1805312,256.088736 90.7920822,239.689198 C95.1841043,226.854139 99.9780555,223.045183 105.824924,225.775179 C107.604406,226.604772 109.754899,225.910457 110.630899,224.221934 C111.505181,222.53504 110.773464,220.49284 108.993982,219.663247 C98.0749033,214.56508 89.5141533,221.368069 83.9644375,237.585063 C79.6342508,250.240838 70.7866538,253.978081 55.7160237,249.25478 C53.8334832,248.666405 51.8032251,249.636165 51.181437,251.420849 C50.5613667,253.207163 51.5816487,255.133644 53.4641892,255.723649" id="Fill-36" fill="#497FE5"></path>
                <path d="M35.5052726,214.971118 C54.1745475,220.440721 66.9861265,214.81209 72.2556662,198.560702 C76.3795796,185.841666 81.0677822,182.008928 86.9203638,184.604781 C88.7001759,185.393496 90.8226531,184.673854 91.6597103,182.995224 C92.4984724,181.3182 91.7330168,179.318301 89.9532046,178.52798 C79.0237259,173.684851 70.6531533,180.527878 65.4415769,196.599355 C61.3756267,209.140087 52.6640939,212.968006 37.6209305,208.560197 C35.7422399,208.010827 33.745918,208.998729 33.1611713,210.768921 C32.5781294,212.539112 33.6265819,214.420142 35.5052726,214.971118" id="Fill-38" fill="#497FE5"></path>
                <path d="M35.5,247 C51.7917129,247 65,241.179676 65,234 C65,226.820324 51.7917129,221 35.5,221 C19.2082871,221 6,226.820324 6,234 C6,241.179676 19.2082871,247 35.5,247" id="Fill-40" fill="#C9DAFD"></path>
                <path d="M33.6283808,235 C50.4735691,235 65,224.836236 65,211.484624 C65,198.133012 51.3443542,181 34.4991659,181 C17.6556458,181 4,198.133012 4,211.484624 C4,224.836236 16.7831925,235 33.6283808,235" id="Fill-42" fill="#ECF2FF"></path>
                <path d="M65,210.12722 C65,204.916445 62.8944728,199.136455 59.3055454,194 C54.8709413,197.970999 50.4363371,199.957342 46,199.957342 C47.1437432,211.089988 53.1501277,216.429132 64.0243524,215.973084 C64.6603429,214.111731 65,212.15579 65,210.12722" id="Fill-44" fill="#497FE5"></path>
                <g id="Group-48" transform="translate(257.000000, 221.000000)">
                    <mask id="mask-4" fill="white">
                        <use xlink:href="#path-3"></use>
                    </mask>
                    <g id="Clip-47"></g>
                    <path d="M34.5625331,82.740587 C15.5969635,82.740587 0.223255751,34.99284 0.223255751,19.267227 C0.223255751,3.53995911 15.5969635,0.74333846 34.5625331,0.74333846 C53.5281027,0.74333846 68.9018105,3.53995911 68.9018105,19.267227 C68.9018105,34.99284 53.5281027,82.740587 34.5625331,82.740587" id="Fill-46" fill="#ECF2FF" mask="url(#mask-4)"></path>
                </g>
                <path d="M292,303 C305.999163,293.704698 315.333612,274.533556 320,245.483236 L318.249686,242" id="Stroke-49" stroke="#C9DAFD" stroke-linecap="round" stroke-linejoin="round"></path>
                <path d="M273.535143,255.723649 C254.829889,261.584585 241.818659,256.088736 236.2088,239.689198 C231.816759,226.854139 227.022786,223.045183 221.174173,225.775179 C219.394684,226.604772 217.245898,225.910457 216.369895,224.221934 C215.493891,222.53504 216.227329,220.49284 218.005101,219.663247 C228.925947,214.56508 237.486735,221.368069 243.034758,237.585063 C247.366682,250.240838 256.212601,253.978081 271.283298,249.25478 C273.167565,248.666405 275.197832,249.636165 275.817905,251.420849 C276.439696,253.207163 275.417692,255.133644 273.535143,255.723649" id="Fill-51" fill="#497FE5"></path>
                <path d="M292.493909,214.971118 C273.824341,220.440721 261.012561,214.81209 255.742939,198.560702 C251.618961,185.841666 246.932389,182.008928 241.079716,184.604781 C239.298171,185.393496 237.177365,184.673854 236.340295,182.995224 C235.50152,181.3182 236.266987,179.318301 238.046827,178.52798 C248.976478,173.684851 257.347182,180.527878 262.557135,196.599355 C266.623149,209.140087 275.336523,212.968006 290.379923,208.560197 C292.256938,208.010827 294.253291,208.998729 294.838047,210.768921 C295.422803,212.539112 294.374334,214.420142 292.493909,214.971118" id="Fill-53" fill="#497FE5"></path>
                <path d="M293.5,247 C277.208287,247 264,241.179676 264,234 C264,226.820324 277.208287,221 293.5,221 C309.791713,221 323,226.820324 323,234 C323,241.179676 309.791713,247 293.5,247" id="Fill-55" fill="#C9DAFD"></path>
                <path d="M291.371619,235 C274.526431,235 260,224.836236 260,211.484624 C260,198.133012 273.655646,181 290.500834,181 C307.344354,181 321,198.133012 321,211.484624 C321,224.836236 308.216808,235 291.371619,235" id="Fill-57" fill="#ECF2FF"></path>
                <path d="M260,210.12722 C260,204.916445 262.105719,199.136455 265.693241,194 C270.129983,197.970999 274.564991,199.957342 279,199.957342 C277.857886,211.089988 271.84922,216.429132 260.974003,215.973084 C260.337955,214.111731 260,212.15579 260,210.12722" id="Fill-59" fill="#497FE5"></path>
            </g>
        </g>
    </g>
</svg>