<?xml version="1.0" encoding="UTF-8"?>
<svg width="94px" height="72px" viewBox="0 0 99 74" version="1.1" xmlns="http://www.w3.org/2000/svg" xmlns:xlink="http://www.w3.org/1999/xlink">
    <!-- Generator: Sketch 52.1 (67048) - http://www.bohemiancoding.com/sketch -->
    <title>Group 52</title>
    <desc>Created with Sketch.</desc>
    <defs>
        <polygon id="path-1" points="0.444210448 0.15215597 16.2212537 0.15215597 16.2212537 0.69693209 0.444210448 0.69693209"></polygon>
        <polygon id="path-3" points="0.444210448 0.283011194 16.2212537 0.283011194 16.2212537 0.827787313 0.444210448 0.827787313"></polygon>
    </defs>
    <g id="Page-1" stroke="none" stroke-width="1" fill="none" fill-rule="evenodd">
        <g id="官网-科研大数据" transform="translate(-58.000000, -1566.000000)">
            <g id="Group-52" transform="translate(58.000000, 1566.000000)">
                <path d="M16.3432836,39.7692164 C16.3432836,58.1219314 31.4660106,73 50.1191186,73 C68.7727953,73 83.8955224,58.1219314 83.8955224,39.7692164 C83.8955224,21.4148223 68.7727953,6.53731343 50.1191186,6.53731343" id="Stroke-1" stroke="#000000" stroke-width="2"></path>
                <path d="M21.7910448,43.9180507 C23.4669575,54.0060011 30.7975927,62.2299518 40.4949533,65.3731343 L49.0298507,40.3134328 L21.7910448,43.9180507 Z" id="Fill-3" fill="#E4E5E7"></path>
                <path d="M49.0298507,11.9901199 L49.0298507,40.3995055 L74.1962712,52.2985075 C76.2118923,48.4932486 77.358209,44.1716898 77.358209,39.5872162 C77.358209,24.342636 64.7675737,11.9850746 49.2366104,11.9850746 C49.1680713,11.9850746 49.098961,11.9901199 49.0298507,11.9901199 Z" id="Fill-5" fill="#E4E5E7"></path>
                <path d="M39.2238806,66.1306475 C42.0020252,67.0489248 44.9679672,67.5522388 48.0554922,67.5522388 C58.9077801,67.5522388 68.3176248,61.4053101 73,52.4129188 L47.8482872,40.3134328 L39.2238806,66.1306475 Z" id="Fill-7" fill="#5B9AE4"></path>
                <path d="M3.26865672,37.0447761 L3.26865672,30.5074627" id="Stroke-9" stroke="#4A90E2" stroke-width="2"></path>
                <path d="M6.53731343,35.9552239 L6.53731343,27.238806" id="Stroke-11" stroke="#4A90E2" stroke-width="2"></path>
                <path d="M10.8955224,37.0447761 L10.8955224,20.7014925" id="Stroke-13" stroke="#4A90E2" stroke-width="2"></path>
                <path d="M15.2537313,37.0447761 L15.2537313,8.71641791" id="Stroke-15" stroke="#4A90E2" stroke-width="2"></path>
                <path d="M19.6119403,37.0447761 L19.6119403,0" id="Stroke-17" stroke="#4A90E2" stroke-width="2"></path>
                <path d="M23.9701493,37.0447761 L23.9701493,8.71641791" id="Stroke-22" stroke="#4A90E2" stroke-width="2"></path>
                <path d="M28.3283582,37.0447761 L28.3283582,0" id="Stroke-24" stroke="#4A90E2" stroke-width="2"></path>
                <path d="M32.6865672,37.0447761 L32.6865672,4.35820896" id="Stroke-26" stroke="#4A90E2" stroke-width="2"></path>
                <path d="M37.0447761,37.0447761 L37.0447761,25.0597015" id="Stroke-28" stroke="#4A90E2" stroke-width="2"></path>
                <path d="M40.3134328,35.9552239 L40.3134328,11.9850746" id="Stroke-30" stroke="#4A90E2" stroke-width="2"></path>
                <path d="M44.6716418,37.0447761 L44.6716418,25.0597015" id="Stroke-32" stroke="#4A90E2" stroke-width="2"></path>
                <path d="M16.3432836,61.0149254 L0,61.0149254" id="Stroke-34" stroke="#000000" stroke-width="2"></path>
                <path d="M16.3432836,65.3731343 L0,65.3731343" id="Stroke-36" stroke="#000000" stroke-width="2"></path>
                <path d="M16.3432836,68.641791 L0,68.641791" id="Stroke-38" stroke="#000000" stroke-width="2"></path>
                <g id="Group-42" transform="translate(81.716418, 59.925373)">
                    <mask id="mask-2" fill="white">
                        <use xlink:href="#path-1"></use>
                    </mask>
                    <g id="Clip-41"></g>
                    <path d="M16.2214716,0.15215597 L0.444210448,0.15215597" id="Stroke-40" stroke="#000000" stroke-width="2" mask="url(#mask-2)"></path>
                </g>
                <g id="Group-45" transform="translate(81.716418, 65.373134)">
                    <mask id="mask-4" fill="white">
                        <use xlink:href="#path-3"></use>
                    </mask>
                    <g id="Clip-44"></g>
                    <path d="M16.2214716,0.283011194 L0.444210448,0.283011194" id="Stroke-43" stroke="#000000" stroke-width="2" mask="url(#mask-4)"></path>
                </g>
                <path d="M93.7014925,68.641791 L81.7164179,68.641791" id="Stroke-46" stroke="#000000" stroke-width="2"></path>
                <path d="M90.4328358,27.7833142 C90.4328358,29.8897716 92.1401991,31.5970149 94.2468046,31.5970149 C96.3528741,31.5970149 98.0597015,29.8897716 98.0597015,27.7833142 C98.0597015,25.6773926 96.3528741,23.9701493 94.2468046,23.9701493 C92.1401991,23.9701493 90.4328358,25.6773926 90.4328358,27.7833142" id="Fill-48" fill="#4A90E2"></path>
                <path d="M90.4328358,48.4850746 C90.4328358,49.3874223 91.1642064,50.119403 92.0669345,50.119403 C92.970122,50.119403 93.7014925,49.3874223 93.7014925,48.4850746 C93.7014925,47.582727 92.970122,46.8507463 92.0669345,46.8507463 C91.1642064,46.8507463 90.4328358,47.582727 90.4328358,48.4850746" id="Fill-50" fill="#4A90E2"></path>
            </g>
        </g>
    </g>
</svg>