<?xml version="1.0" encoding="UTF-8"?>
<svg width="108px" height="120px" viewBox="0 0 108 120" version="1.1" xmlns="http://www.w3.org/2000/svg" xmlns:xlink="http://www.w3.org/1999/xlink">
    <!-- Generator: Sketch 50 (54983) - http://www.bohemiancoding.com/sketch -->
    <title>Group 60</title>
    <desc>Created with Sketch.</desc>
    <defs></defs>
    <g id="Page-1" stroke="none" stroke-width="1" fill="none" fill-rule="evenodd">
        <g id="官网-科研大数据" transform="translate(-591.000000, -1118.000000)" fill="#4A90E2">
            <g id="Group-60" transform="translate(588.000000, 1114.000000)">
                <path d="M57.5317265,5.46269048 C53.0774955,5.46269048 50.2890014,7.53762816 50.2611793,7.55877116 L50.1864635,7.60892954 L12.7457482,29.2865738 C3.98806406,33.8732545 5.55260935,42.5650503 5.56988598,42.6523214 L5.58267518,42.7908755 L5.56988598,85.346329 C5.50212567,85.7032858 4.0181299,94.1427152 12.7185992,98.6990309 L50.1678406,120.439879 C50.1949896,120.459898 53.0368842,122.536635 57.4760823,122.53731 C59.7931709,122.53731 62.1513196,121.978145 64.4843387,120.873985 L101.494709,99.5492493 C101.517595,99.529006 109.532159,93.7592173 109.532159,86.9154093 L109.468886,64.0022493 L109.540685,41.0823415 C109.540685,34.2403329 101.538461,28.470994 101.457912,28.4138629 L64.4767101,7.09879852 C62.1968671,6.02253004 59.8414109,5.46269048 57.5317265,5.46269048 M57.4760823,124 C52.7633748,123.999325 49.7233599,121.921014 49.3313822,121.638282 L12.0154177,99.9797567 C2.82334951,95.1665761 3.97527486,86.0926318 4.12358469,85.1492943 L4.12358469,42.8509306 C3.97527486,41.9066934 2.82469574,32.8327492 12.0432398,28.0053982 L49.4211309,6.36194261 C49.8173717,6.07493768 52.8360713,4 57.5317265,4 C60.0588273,4 62.622725,4.60639913 65.1522939,5.80345261 L102.243662,27.1826208 C102.656058,27.4718749 111,33.4803096 111,41.0845907 L110.927752,64.0022493 L110.991249,86.91316 C110.991249,94.5194654 102.635415,100.529025 102.279337,100.780267 L65.1592494,122.169556 C62.578075,123.393826 60.0103629,124 57.4760823,124" id="Fill-46"></path>
                <path d="M9,76.0732037 C9,77.6896252 7.65662002,79 6,79 C4.34314932,79 3,77.6896252 3,76.0732037 L3,51.9267963 C3,50.3108249 4.34314932,49 6,49 C7.65662002,49 9,50.3108249 9,51.9267963 L9,76.0732037 Z" id="Fill-48"></path>
                <path d="M22.4327263,26.6047199 C21.0200902,27.4169843 19.2132511,26.9372562 18.3971421,25.5337409 C17.580806,24.1293226 18.0631142,22.3329946 19.4757503,21.5214074 L40.5674226,9.39478245 C41.9793775,8.58319527 43.7862165,9.06292344 44.6030068,10.467116 C45.4193429,11.8706313 44.9363535,13.666282 43.5243986,14.4783207 L22.4327263,26.6047199 Z" id="Fill-50"></path>
                <path d="M75.4325778,118.605141 C74.0199634,119.416734 72.2136062,118.937228 71.3968285,117.533477 C70.580732,116.129275 71.063714,114.333611 72.4756472,113.521341 L93.5667688,101.395308 C94.978702,100.583038 96.7857404,101.062544 97.6027452,102.466972 C98.4195229,103.870271 97.9363138,105.666838 96.5246077,106.478205 L75.4325778,118.605141 Z" id="Fill-52"></path>
                <path d="M58.3754364,13.7326535 C54.4664202,13.7326535 52.0010976,15.5753267 51.976954,15.594026 L19.9778358,34.3210734 C12.3207602,38.3535966 13.7921742,45.8101259 13.8581218,46.1255364 L13.8666168,46.2021361 L13.8581218,82.8742383 C13.7921742,83.1898741 12.3207602,90.6464034 19.9635285,94.6703654 L51.9463275,113.380291 C52.0075805,113.423096 54.4856456,115.266671 58.3790132,115.267346 C60.399916,115.267346 62.4583754,114.775081 64.4955975,113.806545 L96.2548453,95.3991889 C96.2966493,95.3678732 103.273012,90.3136453 103.273012,84.270155 L103.214218,64.5015771 L103.273012,44.728268 C103.273012,38.6856788 96.295308,33.6321268 96.2251129,33.5821117 L64.4672065,15.1790359 C62.4556928,14.224018 60.3970098,13.7326535 58.3754364,13.7326535 M58.3790132,116 C54.229903,115.999324 51.6525812,114.071265 51.544606,113.989709 L19.6127767,95.3120005 C11.7855787,91.1907118 13.0220403,83.4081832 13.1398518,82.763394 L13.1398518,46.2363807 C13.0220403,45.5918168 11.78692,37.8086123 19.627084,33.6801143 L51.5752325,14.9852838 C51.6460983,14.927834 54.2249849,13 58.3754364,13 C60.5049851,13 62.6685135,13.5150203 64.8038746,14.5308674 L96.6163275,32.9652589 C96.9456185,33.1977615 104,38.3040321 104,44.729845 L103.941206,64.5015771 L104,84.2688032 C104,90.6939403 96.9465127,95.8020132 96.6460599,96.0160418 L64.8313714,114.45539 C62.6705255,115.48498 60.5078912,116 58.3790132,116" id="Fill-54"></path>
                <path d="M22.1144056,59.6956154 C20.1481883,59.6956154 18.5485726,61.1263364 18.5485726,62.9998944 C18.5485726,64.8736636 20.1481883,66.3043846 22.1144056,66.3043846 L92.8855944,66.3043846 C94.8518117,66.3043846 96.4514274,64.8730301 96.4514274,62.9998944 C96.4514274,61.1263364 94.8518117,59.6956154 92.8855944,59.6956154 L22.1144056,59.6956154 Z M92.8855944,67 L22.1144056,67 C19.8458638,67 18,65.1617084 18,62.9998944 C18,60.8382916 19.8458638,59 22.1144056,59 L92.8855944,59 C95.1541362,59 97,60.8382916 97,62.9998944 C97,65.1617084 95.1541362,67 92.8855944,67 Z" id="Fill-56"></path>
                <path d="M68,61.3279414 C68,59.9944057 66.657172,59 65.2673541,59 L22.490241,59 C21.100649,59 20,59.9944057 20,61.3279414 L20,61.3288087 C20,61.3741272 20.044279,61.4179279 20.0472159,61.4625959 C20.044279,61.5068303 20.059867,61.5512815 20.059867,61.5966 L20.0698072,61.5911791 C20.0698072,62.9247149 21.100649,64 22.490241,64 L65.2673541,64 C66.657172,64 68,62.9247149 68,61.5911791 L68,61.5935643 C68,61.5482458 67.9957076,61.5055293 67.9929967,61.4612949 C67.9957076,61.4166269 68,61.3741272 68,61.3288087 L68,61.3279414 Z" id="Fill-58"></path>
            </g>
        </g>
    </g>
</svg>