<?xml version="1.0" encoding="UTF-8"?>
<svg width="108px" height="121px" viewBox="0 0 108 121" version="1.1" xmlns="http://www.w3.org/2000/svg" xmlns:xlink="http://www.w3.org/1999/xlink">
    <!-- Generator: Sketch 50 (54983) - http://www.bohemiancoding.com/sketch -->
    <title>Group 127</title>
    <desc>Created with Sketch.</desc>
    <defs></defs>
    <g id="Page-1" stroke="none" stroke-width="1" fill="none" fill-rule="evenodd">
        <g id="官网-科研大数据" transform="translate(-590.000000, -873.000000)" fill="#4A90E2">
            <g id="Group-127" transform="translate(587.000000, 869.000000)">
                <path d="M57.5318388,5.47487957 C53.0775984,5.47487957 50.2890985,7.5671084 50.2612763,7.58842758 L50.1865603,7.63900395 L12.7457666,29.4972953 C3.98806404,34.1224251 5.5526126,42.8864257 5.56988928,42.9744241 L5.5826785,43.1141328 L5.56988928,86.0242151 C5.50212882,86.3841465 4.01812993,94.8939045 12.7186175,99.4881895 L50.1679374,121.410212 C50.1950865,121.430397 53.036987,123.52444 57.4761944,123.52512 C59.7932879,123.52512 62.1514416,122.961296 64.4846899,121.847935 L101.495137,100.345493 C101.518023,100.325081 109.53238,94.5072107 109.53238,87.606371 L109.468883,64.502268 L109.540906,41.391361 C109.540906,34.4923357 101.538666,28.6749189 101.458116,28.6173118 L64.4768369,7.12462184 C62.1969892,6.03938445 59.841528,5.47487957 57.5318388,5.47487957 M57.4761944,125 C52.7634771,124.99932 49.7234558,122.903689 49.3314772,122.618601 L12.0154345,100.779588 C2.82334704,95.9262975 3.97527481,86.7767371 4.12358495,85.8255384 L4.12358495,43.1746884 C3.97527481,42.2225825 2.82469327,33.0730221 12.0432567,28.2054432 L49.4212262,6.38162546 C49.8174678,6.09222882 52.8361737,4 57.5318388,4 C60.0589448,4 62.6230723,4.61145246 65.1521977,5.81848138 L102.243868,27.3758093 C102.656489,27.6674739 111,33.7259789 111,41.393629 L110.927976,64.502268 L110.991474,87.604103 C110.991474,95.2737943 102.635847,101.333433 102.279543,101.586769 L65.1593776,123.154303 C62.5781978,124.388774 60.0104804,125 57.4761944,125" id="Fill-47"></path>
                <path d="M9,77.0732037 C9,78.6896252 7.65662002,80 6,80 C4.34314932,80 3,78.6896252 3,77.0732037 L3,52.9267963 C3,51.3108249 4.34314932,50 6,50 C7.65662002,50 9,51.3108249 9,52.9267963 L9,77.0732037 Z" id="Fill-49"></path>
                <path d="M22.2685512,27.6047199 C20.908235,28.4169843 19.1683159,27.9372562 18.3824331,26.5337409 C17.5963317,25.1293226 18.0607766,23.3329946 19.4210929,22.5214074 L39.7315921,10.3947824 C41.0912524,9.58319527 42.8311715,10.0629234 43.6177102,11.467116 C44.4038117,12.8706313 43.9387108,14.666282 42.5790505,15.4783207 L22.2685512,27.6047199 Z" id="Fill-51"></path>
                <path d="M75.268312,118.605141 C73.908011,119.416734 72.1687676,118.937228 71.3822377,117.533477 C70.5961451,116.129275 71.0614594,114.333611 72.4208857,113.521341 L92.731156,101.395308 C94.0908009,100.583038 95.8307004,101.062544 96.6174489,102.466972 C97.4039788,103.870271 96.9386645,105.666838 95.5794569,106.478205 L75.268312,118.605141 Z" id="Fill-53"></path>
                <path d="M58.8740675,13.7326535 C54.9220951,13.7326535 52.4296811,15.5753267 52.4052722,15.594026 L20.0545153,34.3210734 C12.3132961,38.3535966 13.8008794,45.8101259 13.8675517,46.1255364 L13.87614,46.2021361 L13.8675517,82.8742383 C13.8008794,83.1898741 12.3132961,90.6464034 20.0400508,94.6703654 L52.3743091,113.380291 C52.4362353,113.423096 54.9415318,115.266671 58.8776837,115.267346 C60.9207942,115.267346 63.0021001,114.775081 65.0617092,113.806545 L97.1697337,95.3991889 C97.2122231,95.3678732 104.265249,90.3136453 104.265249,84.270155 L104.205583,64.5015771 L104.265249,44.728268 C104.265249,38.6856788 97.2106411,33.6321268 97.1396746,33.5821117 L65.0327802,15.1790359 C62.999162,14.224018 60.9178561,13.7326535 58.8740675,13.7326535 M58.8776837,116 C54.6829788,115.999324 52.0773349,114.071265 51.9681731,113.989709 L19.6854446,95.3120005 C11.7722334,91.1907118 13.0222825,83.4081832 13.1413887,82.763394 L13.1413887,46.2363807 C13.0222825,45.5918168 11.7735894,37.8086123 19.6999091,33.6801143 L51.9991362,14.9852838 C52.0707807,14.927834 54.6780067,13 58.8740675,13 C61.0270179,13 63.2143214,13.5150203 65.3731479,14.5308674 L97.5351883,32.9652589 C97.8680978,33.1977615 105,38.3040321 105,44.729845 L104.94056,64.5015771 L105,84.2688032 C105,90.6939403 97.8687758,95.8020132 97.5652473,96.0160418 L65.4009469,114.45539 C63.2165815,115.48498 61.029956,116 58.8776837,116" id="Fill-55"></path>
                <path d="M28.0924848,65.5438681 C31.7540881,63.8971881 35.7523339,62.7818132 39.9661923,62.2349757 C45.1870644,61.5574819 50.7622853,61.7482126 56.5340677,62.8064826 C62.22606,63.8508189 67.5652725,64.0778684 72.4024349,63.4823774 C76.2312389,63.0109185 79.7655367,62.0172914 82.8899016,60.5435254 C87.6829106,58.2826241 90.098354,55.5082345 90.5098557,55 L94,58.5569565 C92.6390858,60.1357957 89.6628704,62.8057973 85.3010866,64.9241646 C81.6964121,66.6743187 77.6445994,67.8522808 73.2657817,68.4180772 C67.8698644,69.1152151 61.9472429,68.8858814 55.6664625,67.7335024 C50.4592622,66.7782498 45.4504166,66.5909454 40.7802306,67.1757007 C37.064612,67.6407638 33.5410725,68.6017269 30.3236938,70.0167889 C26.0777849,71.8843509 23.4310398,74.1153293 22.4793861,75 L19,71.4549213 C20.2199368,70.2881519 23.2102723,67.7371571 28.0924848,65.5438681" id="Fill-57"></path>
                <path d="M22,73.6791733 C26.6478745,70.1217091 37.4270837,62.733871 57.2274944,66.3799544 C70.9462825,68.9050159 85.0044702,64.8503906 91,62 C89.7458942,62.8995913 88.2777994,63.8078801 86.5966197,64.640243 C82.9631022,66.4420114 78.8826259,67.6497722 74.4677214,68.2308513 C69.0276136,68.9485028 63.0594255,68.7110878 56.7274338,67.5247179 C51.4780405,66.5419138 46.4281742,66.3479857 41.720645,66.9495154 C37.9730152,67.4285766 34.421523,68.4153768 31.179151,69.8725409 C26.8975658,71.793722 24.2300488,74.0895957 23.2706013,75 L22,73.6791733 Z" id="Fill-59"></path>
                <path d="M26.5610275,71.5609529 C25.9750218,72.146349 25.0249339,72.146349 24.4385737,71.5609529 C23.8538088,70.9744934 23.8538088,70.0257724 24.4385737,69.4393129 C25.0249339,68.8535624 25.9750218,68.8535624 26.5610275,69.4393129 C27.1463242,70.0250635 27.1463242,70.9744934 26.5610275,71.5609529" id="Fill-61"></path>
                <path d="M33.5610307,68.5605897 C32.9746751,69.1464701 32.0250591,69.1464701 31.4392351,68.5605897 C30.8535883,67.9750639 30.8535883,67.0254236 31.4392351,66.4395432 C32.0250591,65.8534856 32.9746751,65.8534856 33.5610307,66.4395432 C34.1463231,67.0254236 34.1463231,67.9750639 33.5610307,68.5605897" id="Fill-63"></path>
                <path d="M42.5600579,66.5604698 C41.9747093,67.1465101 41.0256009,67.1465101 40.4390114,66.5604698 C39.8536629,65.9751385 39.8536629,65.0249945 40.4390114,64.4391314 C41.0256009,63.8536229 41.9747093,63.8536229 42.5600579,64.4391314 C43.1466474,65.0249945 43.1466474,65.9746067 42.5600579,66.5604698" id="Fill-65"></path>
                <path d="M52.4520332,98.4963607 C51.7807401,99.1678798 50.6933897,99.1678798 50.0227742,98.4963607 L24.5034699,72.977734 C23.8321767,72.3066667 23.8321767,71.2193164 24.5034699,70.5480232 L24.5472891,70.5033005 C25.2192599,69.8322332 26.3066103,69.8322332 26.9772258,70.5033005 L52.4965301,96.022153 C53.1678233,96.6934462 53.1678233,97.7814742 52.4965301,98.4527673 L52.4520332,98.4963607 Z" id="Fill-67"></path>
                <path d="M52.4520332,98.4963607 C51.7807401,99.1678798 50.6933897,99.1678798 50.0227742,98.4963607 L24.5034699,72.977734 C23.8321767,72.3066667 23.8321767,71.2193164 24.5034699,70.5480232 L24.5472891,70.5033005 C25.2192599,69.8322332 26.3066103,69.8322332 26.9772258,70.5033005 L52.4965301,96.022153 C53.1678233,96.6934462 53.1678233,97.7814742 52.4965301,98.4527673 L52.4520332,98.4963607 Z" id="Fill-69"></path>
                <path d="M26,70.1213093 L53.8782277,98 C54.1246786,97.379354 53.9971414,96.6452445 53.4947083,96.1430545 L27.8554168,70.5050432 C27.3538915,70.0030802 26.620439,69.8755471 26,70.1213093" id="Fill-71"></path>
                <path d="M24.1767498,71 C23.8611464,71.6426976 23.9673265,72.4403655 24.5022934,72.9753067 L50.0264058,98.4975165 C50.5595654,99.0326836 51.3586271,99.1388586 52,98.8232704 L24.1767498,71 Z" id="Fill-73"></path>
                <path d="M57.4518379,91.4958925 C56.7814726,92.1680358 55.6921572,92.1680358 55.0195309,91.4958925 L32.5029436,68.9801069 C31.8323521,68.3084157 31.8323521,67.2198283 32.5029436,66.547911 L32.5481621,66.5035988 C33.2194318,65.8321337 34.308295,65.8321337 34.9788864,66.5035988 L57.4970564,89.0200627 C58.1676479,89.6913017 58.1676479,90.7810195 57.4970564,91.4522585 L57.4518379,91.4958925 Z" id="Fill-75"></path>
                <path d="M57.4518379,91.4958925 C56.7814726,92.1680358 55.6921572,92.1680358 55.0195309,91.4958925 L32.5029436,68.9801069 C31.8323521,68.3084157 31.8323521,67.2198283 32.5029436,66.547911 L32.5481621,66.5035988 C33.2194318,65.8321337 34.308295,65.8321337 34.9788864,66.5035988 L57.4970564,89.0200627 C58.1676479,89.6913017 58.1676479,90.7810195 57.4970564,91.4522585 L57.4518379,91.4958925 Z" id="Fill-77"></path>
                <path d="M33,66.1215106 L57.8777075,91 C58.125214,90.3786344 57.9968015,89.6424956 57.4945154,89.1404485 L34.8582313,66.5053755 C34.3559452,66.0031011 33.6213802,65.8753734 33,66.1215106" id="Fill-79"></path>
                <path d="M32.1772532,67 C31.8606683,67.641984 31.9676288,68.441807 32.5024312,68.9759268 L55.0231532,91.4964725 C55.558634,92.0321752 56.358011,92.1398133 57,91.8223263 L32.1772532,67 Z" id="Fill-81"></path>
                <path d="M59.4294691,83.4759463 C58.7300289,84.1746846 57.5956744,84.1746846 56.8969402,83.4759463 L40.5245801,67.1027838 C39.82514,66.4031042 39.82514,65.2703904 40.5245801,64.5709461 L40.5692954,64.5245832 C41.2694416,63.8251389 42.4030901,63.8251389 43.1025302,64.5245832 L59.4741843,80.8977457 C60.1752719,81.59719 60.1752719,82.7301391 59.4741843,83.4295834 L59.4294691,83.4759463 Z" id="Fill-83"></path>
                <path d="M59.4294691,83.4759463 C58.7300289,84.1746846 57.5956744,84.1746846 56.8969402,83.4759463 L40.5245801,67.1027838 C39.82514,66.4031042 39.82514,65.2703904 40.5245801,64.5709461 L40.5692954,64.5245832 C41.2694416,63.8251389 42.4030901,63.8251389 43.1025302,64.5245832 L59.4741843,80.8977457 C60.1752719,81.59719 60.1752719,82.7301391 59.4741843,83.4295834 L59.4294691,83.4759463 Z" id="Fill-85"></path>
                <path d="M41,64.1202234 L58.8789483,82 C59.1240412,81.3840303 58.996881,80.655084 58.498143,80.1577171 L42.8416847,64.5003377 C42.3442971,64.0029708 41.6144201,63.8767161 41,64.1202234" id="Fill-87"></path>
                <path d="M40.1754407,65 C39.8618665,65.6354271 39.9682538,66.4252967 40.4977316,66.953888 L56.0463634,82.5034122 C56.5749472,83.032227 57.3648055,83.1379453 58,82.8241431 L40.1754407,65 Z" id="Fill-89"></path>
                <path d="M52,88.3523231 L55.0230904,91.4795704 C55.6949133,92.1734765 56.7829278,92.1734765 57.4524925,91.4795704 L57.4976571,91.434275 C58.1674476,90.7410693 58.1674476,89.6156899 57.4976571,88.9224842 L53.7031559,85 C53.209733,86.0898903 52.6444984,87.2180714 52,88.3523231" id="Fill-91"></path>
                <path d="M82.4395497,59.4393291 C81.8534834,60.0256327 81.8534834,60.9751646 82.4395497,61.5604052 C83.0254388,62.1465316 83.9750931,62.1465316 84.5604503,61.5604052 C85.1465166,60.9751646 85.1465166,60.0251011 84.5604503,59.4393291 C83.9750931,58.853557 83.0254388,58.853557 82.4395497,59.4393291" id="Fill-93"></path>
                <path d="M59.5034457,36.5481056 C58.8321848,37.218697 58.8321848,38.3084646 59.5034457,38.9804125 L82.0197394,61.497226 C82.6923569,62.1675913 83.7800754,62.1675913 84.4520146,61.497226 L84.4965543,61.4526857 C85.1678152,60.7807378 85.1678152,59.6923268 84.4965543,59.0206049 L61.9793563,36.5031131 C61.3074171,35.8322956 60.2192463,35.8322956 59.5479854,36.5031131 L59.5034457,36.5481056 Z" id="Fill-95"></path>
                <path d="M59.5034457,36.5481056 C58.8321848,37.218697 58.8321848,38.3084646 59.5034457,38.9804125 L82.0197394,61.497226 C82.6923569,62.1675913 83.7800754,62.1675913 84.4520146,61.497226 L84.4965543,61.4526857 C85.1678152,60.7807378 85.1678152,59.6923268 84.4965543,59.0206049 L61.9793563,36.5031131 C61.3074171,35.8322956 60.2192463,35.8322956 59.5479854,36.5031131 L59.5034457,36.5481056 Z" id="Fill-97"></path>
                <path d="M85.8788243,61 L61,36.1217845 C61.6206865,35.8749569 62.3566012,36.0035982 62.8588777,36.5052081 L85.4940486,59.1408386 C85.9972342,59.6438122 86.1242807,60.3792947 85.8788243,61" id="Fill-99"></path>
                <path d="M84,62.8233646 C83.3573442,63.1390529 82.5582079,63.0323159 82.0231891,62.497274 L59.5031023,39.9759915 C58.9680835,39.4404973 58.8604465,38.6417789 59.1770257,38 L84,62.8233646 Z" id="Fill-101"></path>
                <path d="M65,39.6476769 L61.9769096,36.5204296 C61.3050867,35.8265235 60.217298,35.8265235 59.5475075,36.5204296 L59.5023429,36.5666589 C58.8325524,37.2589307 58.8325524,38.3836096 59.5023429,39.0768153 L63.2970699,43 C63.7904929,41.9096428 64.3555016,40.7819286 65,39.6476769" id="Fill-103"></path>
                <path d="M47,94.4410818 L50.1885531,97.5380631 C50.8218272,98.153979 51.8486314,98.153979 52.4825453,97.5380631 L52.5245645,97.4980794 C53.1584785,96.8823707 53.1584785,95.8844338 52.5245645,95.2687251 L49.1591895,92 C48.5015997,92.8346871 47.7821543,93.654458 47,94.4410818" id="Fill-105"></path>
                <path d="M55,82.0537124 L56.235913,83.4664497 C56.8582714,84.1778501 57.8688441,84.1778501 58.4918314,83.4664497 L58.531659,83.4192466 C59.1561137,82.707367 59.1561137,81.5536476 58.531659,80.8415283 L56.045579,78 C55.8359601,78.9974941 55.5018276,80.401845 55,82.0537124" id="Fill-107"></path>
                <path d="M72.4398057,63.4398641 C73.0249727,62.8533786 73.975559,62.8533786 74.560726,63.4398641 C75.1464247,64.0252862 75.1464247,64.9745809 74.560726,65.5605347 C73.975559,66.1464884 73.0249727,66.1464884 72.4398057,65.5605347 C71.8533981,64.9745809 71.8533981,64.0252862 72.4398057,63.4398641" id="Fill-109"></path>
                <path d="M74.4580851,66.4753921 C73.7942603,67.1748693 72.7179207,67.1748693 72.0534251,66.4753921 L56.4983717,50.1024003 C55.8338761,49.4019817 55.8338761,48.2692146 56.4983717,47.569502 L56.542418,47.5240784 C57.2062427,46.8253072 58.2832532,46.8253072 58.9477487,47.5240784 L74.5021314,63.8973055 C75.1659562,64.5967827 75.1659562,65.7304912 74.5021314,66.4292624 L74.4580851,66.4753921 Z" id="Fill-111"></path>
                <path d="M74.4580851,66.4753921 C73.7942603,67.1748693 72.7179207,67.1748693 72.0534251,66.4753921 L56.4983717,50.1024003 C55.8338761,49.4019817 55.8338761,48.2692146 56.4983717,47.569502 L56.542418,47.5240784 C57.2062427,46.8253072 58.2832532,46.8253072 58.9477487,47.5240784 L74.5021314,63.8973055 C75.1659562,64.5967827 75.1659562,65.7304912 74.5021314,66.4292624 L74.4580851,66.4753921 Z" id="Fill-113"></path>
                <path d="M74,65.9084518 L56.0919933,48 C55.9123339,48.5520662 55.9738734,49.3457883 56.4734032,49.8437525 L72.1560679,65.5270324 C72.6542452,66.0258983 73.4488492,66.0874394 74,65.9084518" id="Fill-115"></path>
                <path d="M75.7941131,65 C76.1767654,64.2958017 76.0009461,63.5779925 75.4739346,63.0496207 L59.9496302,47.5273592 C59.4226187,46.9989873 58.7028308,46.8231609 58,47.2058288 L75.7941131,65 Z" id="Fill-117"></path>
                <path d="M60,48.9809328 L58.7635525,47.5807447 C58.1415539,46.8739989 57.131383,46.7775489 56.5081262,47.4842947 L56.4674426,47.5303817 C55.8441858,48.235702 55.8441858,49.4764863 56.4674426,50.1818067 L58.955227,53 C59.2182028,51.9499777 59.5365419,50.5747336 60,48.9809328" id="Fill-119"></path>
                <path d="M56.9839645,93.9083031 C58.5481292,90.245087 59.6079766,86.2474658 60.1274841,82.035126 C60.7711179,76.8135191 60.5905706,71.2382316 59.5830212,65.4663802 C58.592181,59.7734233 58.3771301,54.4336987 58.9422084,49.5978232 C59.3901046,45.7689735 60.3334209,42.2353059 61.7343986,39.1095588 C63.8829549,34.3171649 66.5171662,31.9007961 67,31.490186 L63.6223331,28 C62.1215336,29.3609305 59.5845402,32.3371814 57.5724793,36.6990174 C55.9104459,40.3037349 54.7907054,44.355372 54.2534035,48.7344661 C53.5911074,54.1311203 53.8087624,60.0531402 54.9031134,66.3330992 C55.8119261,71.5412582 55.9890013,76.5501638 55.4343392,81.2195091 C54.9918681,84.9367409 54.0782813,88.4594261 52.7339417,91.676395 C50.9610192,95.923027 48.8400224,98.5713726 48,99.5221413 L51.3681187,103 C52.476141,101.780945 54.9009434,98.7896774 56.9839645,93.9083031" id="Fill-121"></path>
                <path d="M49.3213446,101 C52.8796427,96.3521255 60.2670428,85.5729163 56.6198872,65.7725056 C54.0947344,52.0543953 58.1502116,37.9955298 61,32 C60.1020216,33.2541058 59.1929948,34.7222006 58.3591913,36.4024764 C56.5587682,40.0375757 55.3523742,44.1173741 54.7703338,48.5313748 C54.0528914,53.9721605 54.2896098,59.9412524 55.4755524,66.2725662 C56.4586272,71.5219595 56.6527974,76.5709219 56.0519511,81.279355 C55.5719323,85.0269848 54.5843912,88.5777991 53.1281147,91.8217529 C51.2052186,96.1015303 48.9099671,98.771533 48,99.7300766 L49.3213446,101 Z" id="Fill-123"></path>
                <path d="M61,41 C59.907133,43.0551439 59.2153204,45.2942915 59.0018679,47.631096 C58.9533672,48.1493951 59.8650334,48.1065478 59.9118108,47.5967312 C59.9416006,47.2713534 59.9837002,46.9490205 60.0322009,46.6286452 C59.8898993,44.9800061 60.4482733,42.735421 61,41" id="Fill-125"></path>
            </g>
        </g>
    </g>
</svg>