<?xml version="1.0" encoding="UTF-8"?>
<svg width="73px" height="80px" viewBox="0 0 74 82" version="1.1" xmlns="http://www.w3.org/2000/svg" xmlns:xlink="http://www.w3.org/1999/xlink">
    <!-- Generator: Sketch 50 (54983) - http://www.bohemiancoding.com/sketch -->
    <title>Group 53</title>
    <desc>Created with Sketch.</desc>
    <defs></defs>
    <g id="Page-1" stroke="none" stroke-width="1" fill="none" fill-rule="evenodd">
        <g id="官网-科研大数据" transform="translate(-209.000000, -1567.000000)">
            <g id="Group-53" transform="translate(211.000000, 1568.000000)">
                <path d="M60,40.4998004 C60,55.1353176 48.3597876,67 34.0001959,67 C19.6402124,67 8,55.1353176 8,40.4998004 C8,25.8646824 19.6402124,14 34.0001959,14 C48.3597876,14 60,25.8646824 60,40.4998004" id="Fill-1" fill="#E4E5E7"></path>
                <path d="M54,39.999804 C54,50.4928767 45.4937895,59 34.999608,59 C24.5062105,59 16,50.4928767 16,39.999804 C16,29.5067313 24.5062105,21 34.999608,21 C45.4937895,21 54,29.5067313 54,39.999804" id="Fill-3" fill="#FFFFFF"></path>
                <path d="M58,40.5 C58,53.4785213 47.4788304,64 34.4998009,64 C21.5211696,64 11,53.4785213 11,40.5 C11,27.5214787 21.5211696,17 34.4998009,17 C47.4788304,17 58,27.5214787 58,40.5 Z" id="Stroke-5" stroke="#4A90E2" stroke-width="2" stroke-dasharray="1.993,3.986"></path>
                <path d="M66.417249,36 C64.1508867,21.690062 53.5007377,10.4019679 40,8 L68,8" id="Stroke-7" stroke="#000000" stroke-width="2"></path>
                <path d="M30,8.03887557 C16.2010445,10.3517239 5.31635709,21.2209993 3,35 L3,7" id="Stroke-9" stroke="#000000" stroke-width="2"></path>
                <path d="M40,72.9611244 C53.7989555,70.6482761 64.6836429,59.7790007 67,46 L67,74" id="Stroke-11" stroke="#000000" stroke-width="2"></path>
                <path d="M3,46 C5.31635709,60.3095256 16.2014429,71.5980321 30,74" id="Stroke-13" stroke="#000000" stroke-width="2"></path>
                <path d="M29,73 L1,73" id="Stroke-15" stroke="#000000" stroke-width="2"></path>
                <polyline id="Stroke-17" stroke="#000000" stroke-width="2" points="65 72 66.5002821 75 68 72"></polyline>
                <polyline id="Stroke-19" stroke="#000000" stroke-width="2" points="4 71 1 72.5001408 4 74"></polyline>
                <polyline id="Stroke-21" stroke="#000000" stroke-width="2" points="3 10 1.49985898 7 0 10"></polyline>
                <polyline id="Stroke-23" stroke="#000000" stroke-width="2" points="66 10 69 8.49985919 66 7"></polyline>
                <polygon id="Stroke-25" stroke="#000000" stroke-width="2" points="29 28.8572556 31.9996893 26 37.9994821 26 41 28.8572556 41 37.4286278 34.9993785 42 29 37.4286278"></polygon>
                <polyline id="Stroke-27" stroke="#000000" stroke-width="2" points="38.5493293 38 38.5493293 42.4201214 46 45.3148912 46 48.2100607 34.5001985 54 23 48.2100607 23 45.3148912 30.4506707 42.4201214 30.4506707 38"></polyline>
                <path d="M8,9.49979285 C8,8.67117801 8.67168508,8 9.50041436,8 C10.329558,8 11,8.67117801 11,9.49979285 C11,10.3284077 10.329558,11 9.50041436,11 C8.67168508,11 8,10.3284077 8,9.49979285" id="Fill-29" fill="#4A90E2"></path>
                <path d="M18,3 C18,1.34318464 19.3433702,0 21,0 C22.6578729,0 24,1.34318464 24,3 C24,4.65722966 22.6578729,6 21,6 C19.3433702,6 18,4.65722966 18,3" id="Fill-31" fill="#4A90E2"></path>
                <path d="M60,70.5 C60,71.3285004 59.3283149,72 58.4995856,72 C57.6716851,72 57,71.3285004 57,70.5 C57,69.6714996 57.6716851,69 58.4995856,69 C59.3283149,69 60,69.6714996 60,70.5" id="Fill-33" fill="#4A90E2"></path>
                <path d="M52,77 C52,78.6568154 50.6574586,80 49,80 C47.3433702,80 46,78.6568154 46,77 C46,75.3427703 47.3433702,74 49,74 C50.6574586,74 52,75.3427703 52,77" id="Fill-35" fill="#4A90E2"></path>
                <path d="M62.5004144,12 C63.3283149,12 64,12.6712707 64,13.5 C64,14.3287293 63.3283149,15 62.5004144,15 C61.6716851,15 61,14.3287293 61,13.5 C61,12.6712707 61.6716851,12 62.5004144,12" id="Fill-37" fill="#C4C4C4"></path>
                <path d="M67.4992601,19 C68.3282036,19 69,19.6715004 69,20.499852 C69,21.3284996 68.3282036,22 67.4992601,22 C66.6712045,22 66,21.3284996 66,20.499852 C66,19.6715004 66.6712045,19 67.4992601,19" id="Fill-39" fill="#E4E5E7"></path>
                <path d="M8.50041436,70 C7.67168508,70 7,69.3283149 7,68.5 C7,67.6712707 7.67168508,67 8.50041436,67 C9.32831492,67 10,67.6712707 10,68.5 C10,69.3283149 9.32831492,70 8.50041436,70" id="Fill-41" fill="#C4C4C4"></path>
                <path d="M1.50044401,60 C0.671336951,60 0,59.3284996 0,58.500148 C0,57.6717964 0.671336951,57 1.50044401,57 C2.32866305,57 3,57.6717964 3,58.500148 C3,59.3284996 2.32866305,60 1.50044401,60" id="Fill-43" fill="#E4E5E7"></path>
                <path d="M12,78 L30,78" id="Stroke-45" stroke="#C4C4C4" stroke-width="2"></path>
                <path d="M18,80 L30,80" id="Stroke-47" stroke="#C4C4C4" stroke-width="2"></path>
                <path d="M58,0 L40,0" id="Stroke-49" stroke="#C4C4C4" stroke-width="2"></path>
                <path d="M52,3 L40,3" id="Stroke-51" stroke="#C4C4C4" stroke-width="2"></path>
            </g>
        </g>
    </g>
</svg>