<?xml version="1.0" encoding="UTF-8"?>
<svg width="110px" height="119px" viewBox="0 0 110 119" version="1.1" xmlns="http://www.w3.org/2000/svg" xmlns:xlink="http://www.w3.org/1999/xlink">
    <!-- Generator: Sketch 50 (54983) - http://www.bohemiancoding.com/sketch -->
    <title>Group 404</title>
    <desc>Created with Sketch.</desc>
    <defs></defs>
    <g id="Page-1" stroke="none" stroke-width="1" fill="none" fill-rule="evenodd">
        <g id="官网-科研大数据" transform="translate(-1181.000000, -1122.000000)">
            <g id="Group-404" transform="translate(1179.000000, 1116.000000)">
                <path d="M57.6408869,7.4505014 C53.1962908,7.4505014 50.413408,9.50814793 50.3865375,9.52933778 L50.3104046,9.57885513 L12.8254569,31.0758524 C4.11047471,35.6122659 5.48489816,43.9860509 5.54737195,44.340256 L5.55879189,44.4676182 L5.54737195,86.659967 C5.48489816,87.0141722 4.11114647,95.3877341 12.79993,99.9098724 L50.2322564,121.467986 C50.2584551,121.487837 53.1096336,123.548829 57.5499752,123.549499 C59.8664318,123.549499 62.2220745,122.994994 64.5506228,121.900036 L101.50152,100.753006 C101.524808,100.732931 109.529739,95.0103316 109.529739,88.2244475 L109.470624,65.5015614 L109.543846,42.773545 C109.543846,35.9883301 101.559068,30.267069 101.47868,30.2104141 L64.572567,9.07319825 C62.2959682,8.00589867 59.9468192,7.4505014 57.6408869,7.4505014 M57.5499752,125 C57.5493035,125 57.5499752,125 57.5499752,125 C52.8360028,124.999331 49.7877744,122.937 49.3988246,122.657963 L12.0988352,101.180818 C2.9154115,96.4028397 3.96985269,87.3880058 4.10263749,86.4772881 L4.10263749,44.5229349 C3.96985269,43.6119942 2.91585934,34.5973834 12.1250339,29.8053532 L49.5488513,8.34225975 C49.9456382,8.05541602 52.9573677,6 57.6408869,6 C60.1629024,6 62.7218648,6.6013458 65.2458956,7.78842383 L102.262178,28.9894323 C102.674639,29.276276 111,35.2346404 111,42.7755525 L110.926778,65.5028997 L110.985669,88.2224401 C110.985669,95.7660288 102.639036,101.724616 102.284346,101.973764 L65.2239515,123.18481 C62.6479711,124.398877 60.0831868,125 57.5499752,125" id="Fill-46" fill="#4A90E2"></path>
                <path d="M8,77.0732037 C8,78.6896252 6.65662002,80 5,80 C3.34314932,80 2,78.6896252 2,77.0732037 L2,52.9270214 C2,51.3105999 3.34314932,50 5,50 C6.65662002,50 8,51.3105999 8,52.9270214 L8,77.0732037 Z" id="Fill-48" fill="#4A90E2"></path>
                <path d="M112,77.0732037 C112,78.6896252 110.65662,80 109,80 C107.343149,80 106,78.6896252 106,77.0732037 L106,52.9270214 C106,51.3105999 107.343149,50 109,50 C110.65662,50 112,51.3105999 112,52.9270214 L112,77.0732037 Z" id="Fill-50" fill="#4A90E2"></path>
                <path d="M74.2683241,119.605141 C72.9080193,120.416734 71.1687709,119.937228 70.3822388,118.533477 C69.596144,117.129275 70.0614596,115.333611 71.4208897,114.521341 L91.7312176,102.395308 C93.0908663,101.583038 94.8307707,102.062544 95.6173028,103.466972 C96.4040536,104.870271 95.938738,106.666838 94.5793079,107.478205 L74.2683241,119.605141 Z" id="Fill-52" fill="#4A90E2"></path>
                <path d="M56.484197,14.7255404 C52.5843846,14.7255404 50.1255356,16.5505466 50.1014489,16.5688413 L18.0581309,35.1140727 C10.4161845,39.1096762 11.7750749,46.4971587 11.8366298,46.8090607 L11.8437666,83.1204378 C11.7750749,83.5028413 10.4168536,90.8903238 18.0451955,94.8774492 L50.0115699,113.405725 C50.0717866,113.448115 52.5587367,115.27379 56.4516354,115.274683 C58.4729096,115.274683 60.5278605,114.787196 62.560509,113.827841 L94.2603687,95.5991968 C94.3020744,95.5675158 101.269148,90.5630274 101.269148,84.5782117 L101.214506,65.0015617 L101.274946,45.4204496 C101.274946,39.4298332 94.3147868,34.432038 94.244757,34.3822854 L62.5616241,16.1578802 C60.5548466,15.2121343 58.5010107,14.7255404 56.484197,14.7255404 M56.4523045,116 L56.4516354,116 C52.3044884,115.999331 49.7196304,114.09066 49.6114633,114.009449 L17.6954925,95.5130779 C9.59032354,91.2771894 11.1093458,83.1315931 11.1258496,83.0494901 L11.1184898,46.8797853 C11.1093458,46.8684069 9.58898539,38.7230337 17.708874,34.4793365 L49.7013424,15.9660092 C49.7713722,15.9093403 52.3444098,14 56.484197,14 C58.6094008,14 60.7664971,14.5102432 62.8966074,15.5160046 L94.6350505,33.7716446 C94.9635661,34.0018898 102,39.058585 102,45.4217883 L101.939783,65.0015617 L101.994424,84.5768731 C101.994424,90.9398533 94.9501846,95.9981102 94.6504392,96.2100608 L62.8961614,114.470386 C60.7404032,115.48998 58.5810767,116 56.4523045,116" id="Fill-54" fill="#4A90E2"></path>
                <path d="M83.1677091,64 C83.1264767,63.4332534 83.069956,62.8603784 83,62.2976286 L84.8211721,62 C84.8952977,62.6021849 84.9557563,63.2147615 85,63.8222755 L83.1677091,64 Z" id="Fill-56" fill="#4A90E2"></path>
                <path d="M83.0431401,66.9962231 C83.0438796,66.3753632 83.0290887,65.74724 83,65.1289948 L84.9538765,65 C84.9851839,65.6624056 85.0007143,66.3349797 84.9999748,67 L83.0431401,66.9962231 Z" id="Fill-58" fill="#4A90E2"></path>
                <path d="M83,68.8069237 C83.0445247,68.2082747 83.0750903,67.5994934 83.0902527,67 L85,67.0658598 C84.9838748,67.7086969 84.9511432,68.3591331 84.9030084,69 L83,68.8069237 Z" id="Fill-60" fill="#4A90E2"></path>
                <path d="M83,71.6480186 C83.0829074,71.1028231 83.1537763,70.5475265 83.2091993,70 L85,70.2349132 C84.9402612,70.8223258 84.8650767,71.4159544 84.7758092,72 L83,71.6480186 Z" id="Fill-62" fill="#4A90E2"></path>
                <path d="M82,72.5116532 C82.1175325,72.0131627 82.224026,71.50477 82.3162338,71 L84,71.3820795 C83.9017316,71.9218693 83.7876623,72.4664896 83.6612554,73 L82,72.5116532 Z" id="Fill-64" fill="#4A90E2"></path>
                <path d="M82,75.3921457 C82.1501301,74.9338645 82.2890161,74.4662493 82.4145757,74 L84,74.5101878 C83.8659032,75.0089926 83.7172306,75.510074 83.556481,76 L82,75.3921457 Z" id="Fill-66" fill="#4A90E2"></path>
                <path d="M81,76.2838087 C81.1795778,75.8623794 81.3494597,75.4311897 81.5054035,75 L83,75.6240104 C82.8325422,76.0853487 82.6503383,76.5482052 82.4586405,77 L81,76.2838087 Z" id="Fill-68" fill="#4A90E2"></path>
                <path d="M80,79.1856562 C80.2069919,78.797665 80.4064784,78.3992495 80.5919415,78 L82,78.7301157 C81.8005135,79.1564683 81.5866087,79.5842802 81.364606,80 L80,79.1856562 Z" id="Fill-70" fill="#4A90E2"></path>
                <path d="M79,80.0935194 C79.2341606,79.7372359 79.4617032,79.3692245 79.6762044,79 L81,79.8290365 C80.7701217,80.223941 80.526618,80.61743 80.2757178,81 L79,80.0935194 Z" id="Fill-72" fill="#4A90E2"></path>
                <path d="M78,83.0066251 C78.2613988,82.6801147 78.5164219,82.3409473 78.7583076,82 L80,82.9225749 C79.74034,83.287254 79.4681221,83.64956 79.1875966,84 L78,83.0066251 Z" id="Fill-74" fill="#4A90E2"></path>
                <path d="M76,83.9227773 C76.2877573,83.6247931 76.5695236,83.3135651 76.8395014,83 L78,84.011783 C77.7108899,84.3477456 77.409025,84.679813 77.1002029,85 L76,83.9227773 Z" id="Fill-76" fill="#4A90E2"></path>
                <path d="M74,85.840986 C74.3146417,85.5703238 74.6244159,85.2872885 74.921729,85 L76,86.1000483 C75.6816589,86.4070565 75.3496885,86.7101982 75.0132399,87 L74,85.840986 Z" id="Fill-78" fill="#4A90E2"></path>
                <path d="M58,40.2957892 C43.2759842,40.2957892 31.2966836,52.2746916 31.2966836,66.9992163 C31.2966836,81.7239649 43.2759842,93.7028673 58,93.7028673 C72.7246876,93.7028673 84.704212,81.7239649 84.704212,66.9992163 C84.704212,52.2746916 72.7246876,40.2957892 58,40.2957892 M58,94 C43.1125283,94 31,81.8876454 31,66.9992163 C31,52.1119068 43.1125283,40 58,40 C72.8881434,40 85,52.1119068 85,66.9992163 C85,81.8876454 72.8881434,94 58,94" id="Fill-80" fill="#4A90E2"></path>
                <path d="M91,66 L90.6995076,66 C90.6995076,60.2353854 89.1053737,54.6875089 86.0911232,49.7326706 C83.1628576,44.9207731 78.9823507,40.9906764 74,38.2140788 L74.14945,38 C79.1772955,40.8014183 83.3955629,44.7075808 86.3497605,49.5631361 C89.3922177,54.5636269 91,60.2353854 91,66" id="Fill-82" fill="#4A90E2"></path>
                <path d="M26.9647047,74 C26.3247498,71.4660223 26,68.8457872 26,66.2116182 C26,58.2854457 28.9650181,50.6501156 34.3503201,44.7142778 C39.6874437,38.8313004 47.0067002,35.0262422 54.9602301,34 L55,34.2908423 C47.1187377,35.3071317 39.8649312,39.077687 34.5755315,44.9082464 C29.239317,50.7905603 26.3008879,58.3564422 26.3008879,66.2116182 C26.3008879,68.8227852 26.6226834,71.4197972 27.2569568,73.9305517 L26.9647047,74 Z" id="Fill-84" fill="#4A90E2"></path>
                <path d="M92,67 L90.6592103,67 C90.6592103,58.1470812 86.7744333,49.2206491 80,43.0879529 L80.8967122,42 C87.9528599,48.3890855 92,58.1470812 92,67" id="Fill-86" fill="#4A90E2"></path>
                <path d="M26.3457314,66 L25,66 C25,58.6812318 27.4179768,51.6282937 31.9931018,45.7318628 C36.4249293,40.020455 42.6931805,35.9071789 49.6426602,34 L50,35.3338773 C43.3298827,37.1636256 37.3134193,41.0479862 33.0583406,46.5313788 C28.666745,52.190791 26.3457314,59.4129961 26.3457314,66" id="Fill-88" fill="#4A90E2"></path>
                <path d="M87,66 L86.5661491,66 C86.5661491,59.4597757 84.4406298,53.3951391 80.4187623,48.2720677 C76.5145419,43.2980644 71.0380494,39.8415612 65,38.3915553 L65.0992784,38 C71.2317953,39.473249 76.7929149,42.9234944 80.7577083,47.9741549 C84.7837306,53.1021431 87,59.4597757 87,66" id="Fill-90" fill="#4A90E2"></path>
                <path d="M46.7986421,92 C41.8365746,89.6877957 37.6419249,86.1157449 34.6690157,81.6703118 C31.6145496,77.1042457 30,71.8154786 30,66.3762494 C30,60.4744478 31.8778815,54.8110606 35.429522,50 L35.8034395,50.2506972 C32.3059399,54.9878427 30.4573175,60.5643741 30.4573175,66.3762494 C30.4573175,71.7325709 32.0469853,76.9399655 35.0551437,81.4369419 C37.9826668,85.8141626 42.1130385,89.3324769 47,91.6093686 L46.7986421,92 Z" id="Fill-92" fill="#4A90E2"></path>
                <path d="M70.3979231,95 L70,94.0399269 C75.3508152,91.7556772 79.8803189,87.9430469 83.1000198,83.0149417 C86.2893838,78.134739 87.9747445,72.4460419 87.9747445,66.5632611 C87.9747445,62.3366007 87.121103,58.2525232 85.4379567,54.424825 L86.3737515,54 C88.1169073,57.9626347 89,62.1888453 89,66.5632611 C89,72.65182 87.2555155,78.5397734 83.9549899,83.5913454 C80.6227987,88.690595 75.9351887,92.6354631 70.3979231,95" id="Fill-94" fill="#4A90E2"></path>
                <path d="M74.1006065,85 L74,84.8906367 C79.6223981,80.2515715 82.8471244,73.5431506 82.8471244,66.4849424 C82.8471244,65.3251213 82.7603947,64.1593828 82.5901732,63.019944 L82.740736,63 C82.9132703,64.1453562 83,65.318108 83,66.4849424 C83,73.5854494 79.7570026,80.3337584 74.1006065,85" id="Fill-96" fill="#4A90E2"></path>
                <path d="M34,66.4992132 C34,52.9687401 44.9706861,42 58.5001124,42 C72.0308874,42 83,52.9687401 83,66.4992132 C83,80.0303607 72.0308874,91 58.5001124,91 C44.9706861,91 34,80.0303607 34,66.4992132" id="Fill-98" fill="#4A90E2"></path>
                <polygon id="Fill-100" fill-opacity="0.221240942" fill="#FFFFFF" points="58.8607466 68 58.8607466 65.1719803 58 46 60 46"></polygon>
                <polygon id="Fill-102" fill-opacity="0.221240942" fill="#FFFFFF" points="58 66 59.8761931 64.1126117 71.7954098 51 73 52.2115435"></polygon>
                <polygon id="Fill-104" fill-opacity="0.221240942" fill="#FFFFFF" points="58 66.7082485 60.7308306 66.7082485 79 66 79 68"></polygon>
                <polygon id="Fill-106" fill-opacity="0.221240942" fill="#FFFFFF" points="58 66 59.8879608 67.8760846 73 79.7952626 71.7876362 81"></polygon>
                <polygon id="Fill-108" fill-opacity="0.221240942" fill="#FFFFFF" points="59.0174456 66 59.0174456 68.7066497 60 87 58 87"></polygon>
                <polygon id="Fill-110" fill-opacity="0.221240942" fill="#FFFFFF" points="58 66 56.1244848 67.8879608 44.2047897 81 43 79.7885094"></polygon>
                <polygon id="Fill-112" fill-opacity="0.221240942" fill="#FFFFFF" points="59 66.8640591 56.1866106 66.8640591 38 68 38 66"></polygon>
                <polygon id="Fill-114" fill-opacity="0.221240942" fill="#FFFFFF" points="58 66 56.1126117 64.1244034 43 52.2041911 44.2115435 51"></polygon>
                <polygon id="Fill-116" fill-opacity="0.221240942" fill="#FFFFFF" points="58 67 58.280482 64.2674607 59.416221 46 61 46.1992781"></polygon>
                <polygon id="Fill-118" fill-opacity="0.221240942" fill="#FFFFFF" points="58 67 60.1451175 65.2548699 73.9039055 53 75 54.408021"></polygon>
                <polygon id="Fill-120" fill-opacity="0.221240942" fill="#FFFFFF" points="58 66 60.7331263 66.2809582 79 67.4161592 78.8007283 69"></polygon>
                <polygon id="Fill-122" fill-opacity="0.221240942" fill="#FFFFFF" points="58 66 59.7448153 68.1450326 72 81.904173 70.5920482 83"></polygon>
                <polygon id="Fill-124" fill-opacity="0.221240942" fill="#FFFFFF" points="58 66 57.7187817 68.733801 56.5841624 87 55 86.8007283"></polygon>
                <polygon id="Fill-126" fill-opacity="0.221240942" fill="#FFFFFF" points="59 66 56.8549108 67.7448153 43.0960801 80 42 78.5920482"></polygon>
                <polygon id="Fill-128" fill-opacity="0.221240942" fill="#FFFFFF" points="59 66 56.2668737 65.7201273 38 64.583779 38.1999464 63"></polygon>
                <polygon id="Fill-130" fill-opacity="0.221240942" fill="#FFFFFF" points="59 67 57.2549556 64.8547977 45 51.0961379 46.4086393 50"></polygon>
                <polygon id="Fill-132" fill-opacity="0.221240942" fill="#FFFFFF" points="58 67 58.6559739 64.2792829 62.1734458 46 64 46.4022744"></polygon>
                <polygon id="Fill-134" fill-opacity="0.221240942" fill="#FFFFFF" points="58 66 60.2878476 64.523147 75.0812859 54 76 55.5167125"></polygon>
                <polygon id="Fill-136" fill-opacity="0.221240942" fill="#FFFFFF" points="58 66 60.7206284 66.6566119 79 70.1736639 78.5970539 72"></polygon>
                <polygon id="Fill-138" fill-opacity="0.221240942" fill="#FFFFFF" points="58 66 59.476853 68.2884255 70 83.0806576 68.4832875 84"></polygon>
                <polygon id="Fill-140" fill-opacity="0.221240942" fill="#FFFFFF" points="59 66 58.3441305 68.7213133 54.8272185 87 53 86.5977388"></polygon>
                <polygon id="Fill-142" fill-opacity="0.221240942" fill="#FFFFFF" points="58 66 55.7112697 67.4775363 40.9187141 78 40 76.4839708"></polygon>
                <polygon id="Fill-144" fill-opacity="0.221240942" fill="#FFFFFF" points="59 67 56.2792829 66.3447425 38 62.8265542 38.4022744 61"></polygon>
                <polygon id="Fill-146" fill-opacity="0.221240942" fill="#FFFFFF" points="58 66 56.5224637 63.7112136 46 48.9189574 47.5160292 48"></polygon>
                <polygon id="Fill-148" fill-opacity="0.221240942" fill="#FFFFFF" points="58 66 58.9270416 63.4211586 64.3156697 46 66 46.585104"></polygon>
                <polygon id="Fill-150" fill-opacity="0.221240942" fill="#FFFFFF" points="58 67 60.4309319 65.7911659 76.254241 57 77 58.6255389"></polygon>
                <polygon id="Fill-152" fill-opacity="0.221240942" fill="#FFFFFF" points="58 66 60.5786178 66.9276451 78 72.3158134 77.4146723 74"></polygon>
                <polygon id="Fill-154" fill-opacity="0.221240942" fill="#FFFFFF" points="58 66 59.2088341 68.4315929 68 84.254241 66.3744611 85"></polygon>
                <polygon id="Fill-156" fill-opacity="0.221240942" fill="#FFFFFF" points="58 66 57.0730639 68.5794259 51.6841387 86 50 85.4149156"></polygon>
                <polygon id="Fill-158" fill-opacity="0.221240942" fill="#FFFFFF" points="58 66 55.568215 67.2088341 39.7457503 76 39 74.3758371"></polygon>
                <polygon id="Fill-160" fill-opacity="0.221240942" fill="#FFFFFF" points="58 66 55.4204876 65.0729584 38 59.6834201 38.585104 58"></polygon>
                <polygon id="Fill-162" fill-opacity="0.221240942" fill="#FFFFFF" points="59 66 57.7904779 63.5689835 49 47.7449036 50.6246216 47"></polygon>
                <polygon id="Fill-164" fill-opacity="0.221240942" fill="#FFFFFF" points="58 66 59.1967722 63.5615732 66.422782 47 68 47.7607892"></polygon>
                <polygon id="Fill-166" fill-opacity="0.221240942" fill="#FFFFFF" points="58 66 60.5737922 65.176604 77.4294813 59 78 60.5295174"></polygon>
                <polygon id="Fill-168" fill-opacity="0.221240942" fill="#FFFFFF" points="58 66 60.4375401 67.196692 77 74.4222173 76.2389892 76"></polygon>
                <polygon id="Fill-170" fill-opacity="0.221240942" fill="#FFFFFF" points="58 66 58.8225716 68.5743456 65 85.429952 63.4698643 86"></polygon>
                <polygon id="Fill-172" fill-opacity="0.221240942" fill="#FFFFFF" points="58 66 56.803308 68.4381198 49.5775592 85 48 84.2383508"></polygon>
                <polygon id="Fill-174" fill-opacity="0.221240942" fill="#FFFFFF" points="58 66 55.4254317 66.8231899 38.5704933 73 38 71.4704826"></polygon>
                <polygon id="Fill-176" fill-opacity="0.221240942" fill="#FFFFFF" points="58 67 55.5615732 65.8039785 39 58.5775592 39.7607892 57"></polygon>
                <polygon id="Fill-178" fill-opacity="0.221240942" fill="#FFFFFF" points="57 66 56.1766767 63.4260138 50 46.5707351 51.5291762 46"></polygon>
                <polygon id="Fill-180" fill-opacity="0.221240942" fill="#FFFFFF" points="58 66 59.4645854 63.7040306 68.5204562 48 70 48.9366309"></polygon>
                <polygon id="Fill-182" fill-opacity="0.221240942" fill="#FFFFFF" points="58 67 60.7174328 66.3316309 78.6102342 61 79 62.9244809"></polygon>
                <polygon id="Fill-184" fill-opacity="0.221240942" fill="#FFFFFF" points="58 66 60.2958321 67.4645309 76 76.5200647 75.0637793 78"></polygon>
                <polygon id="Fill-186" fill-opacity="0.221240942" fill="#FFFFFF" points="58 66 58.6676155 68.7182337 64 86.611811 62.0755191 87"></polygon>
                <polygon id="Fill-188" fill-opacity="0.221240942" fill="#FFFFFF" points="58 66 56.5351914 68.2965517 47.478874 84 46 83.0625139"></polygon>
                <polygon id="Fill-190" fill-opacity="0.221240942" fill="#FFFFFF" points="59 66 56.2818842 66.6682851 38.3888552 72 38 70.0750073"></polygon>
                <polygon id="Fill-192" fill-opacity="0.221240942" fill="#FFFFFF" points="58 66 55.7033631 64.5351914 40 55.4795438 40.9366309 54"></polygon>
                <polygon id="Fill-194" fill-opacity="0.221240942" fill="#FFFFFF" points="59 67 58.3317149 64.2817958 53 46.3890955 54.9249927 46"></polygon>
                <polygon id="Fill-196" fill-opacity="0.221240942" fill="#FFFFFF" points="58 67 59.7333076 64.845332 70.6233243 50 72 51.1167404"></polygon>
                <polygon id="Fill-198" fill-opacity="0.221240942" fill="#FFFFFF" points="58 66 60.7319904 65.7121706 78.8130897 63 79 64.7334172"></polygon>
                <polygon id="Fill-200" fill-opacity="0.221240942" fill="#FFFFFF" points="58 66 60.1544415 67.7331121 75 78.6219007 73.8832596 80"></polygon>
                <polygon id="Fill-202" fill-opacity="0.221240942" fill="#FFFFFF" points="58 66 58.2869411 68.7319027 61 86.8130957 59.2659165 87"></polygon>
                <polygon id="Fill-204" fill-opacity="0.221240942" fill="#FFFFFF" points="58 66 56.2666624 68.155121 45.3778737 83 44 81.8832596"></polygon>
                <polygon id="Fill-206" fill-opacity="0.221240942" fill="#FFFFFF" points="59 66 56.2671987 66.2876073 38.1869043 69 38 67.2665828"></polygon>
                <polygon id="Fill-208" fill-opacity="0.221240942" fill="#FFFFFF" points="59 67 56.8446526 65.2665786 42 54.3772636 43.1167404 53"></polygon>
                <polygon id="Fill-210" fill-opacity="0.221240942" fill="#FFFFFF" points="58 67 57.7122345 64.2678726 55 46.1869043 56.7336985 46"></polygon>
                <path d="M46,65.5001089 C46,59.1488733 51.1488733,54 57.5001089,54 C63.8517803,54 69,59.1488733 69,65.5001089 C69,71.8511267 63.8517803,77 57.5001089,77 C51.1488733,77 46,71.8511267 46,65.5001089" id="Fill-212" fill-opacity="0.221240942" fill="#FFFFFF"></path>
                <path d="M46.8503725,57 L46,56.3526238 C48.9413755,52.9515869 53.3016059,51 57.9641014,51 C60.0584628,51 62.0890127,51.3884257 64,52.1532964 L63.5705596,53.0982975 C61.7959275,52.3889161 59.9106887,52.0290759 57.9641014,52.0290759 C53.6336497,52.0290759 49.5826254,53.840468 46.8503725,57" id="Fill-214" fill-opacity="0.221240942" fill="#FFFFFF"></path>
                <path d="M57.7276779,81 C53.6854289,81 49.876062,79.4284204 47,76.5751208 L47.7628058,75.7979219 C50.4344021,78.4483866 53.9738121,79.9081728 57.7276779,79.9081728 C65.5502113,79.9081728 71.9144004,73.5113996 71.9144004,65.6494848 C71.9144004,63.1525409 71.2630406,60.6959854 70.0306963,58.5455789 L70.9719933,58 C72.2986893,60.3170926 73,62.9613094 73,65.6494848 C73,74.1136562 66.1487342,81 57.7276779,81" id="Fill-216" fill-opacity="0.221240942" fill="#FFFFFF"></path>
                <path d="M56.1114779,53 L56,52.2272378 C56.6613223,52.0764299 57.3865887,52 58,52 L58,52.7843037 C57.3865887,52.7843037 56.7403565,52.8566299 56.1114779,53" id="Fill-218" fill="#4A90E2"></path>
                <path d="M58,80 L58,79.341534 C65.0536918,79.341534 71.336608,73.0081904 71.336608,66 L72,66 C72,73.7091172 65.7591694,80 58,80" id="Fill-220" fill-opacity="0.221240942" fill="#FFFFFF"></path>
                <path d="M58.9451268,84 C49.5162966,84 42,76.392395 42,67.0417658 C42,57.6911365 49.6360809,50 58.9997769,50 C68.3639191,50 76,57.459253 76,66.8749255 L75.4546134,66.8749255 C75.4546134,57.459253 68.0812995,50.5446255 59.018068,50.5446255 C49.9548365,50.5446255 42.5453866,57.9493046 42.5453866,67.0001114 C42.5453866,76.0500272 50.2414712,83.4553745 58.9451268,83.4553745 L58.9451268,84 Z" id="Fill-222" fill-opacity="0.221240942" fill="#FFFFFF"></path>
                <path d="M74,66 L73.7311756,66 C73.7311756,62.3725509 72.2285722,58.2662911 69.5645066,55.3269373 C66.6056793,52.0616084 62.2882224,50.2719806 58,50.2719806 L58,50 C62.2882224,50 66.7538295,51.8206412 69.7627729,55.1419726 C72.4714594,58.1330898 74,61.647195 74,66" id="Fill-224" fill-opacity="0.221240942" fill="#FFFFFF"></path>
                <path d="M58,82 C53.6776338,82 49.7161848,80.3316298 46.6839482,77.3025352 C43.6517115,74.2734406 42,70.2465996 42,65.9625755 C42,63.9017907 42.394594,61.8961167 43.1545364,60 L43.4111,60.1011469 C42.6633433,61.9649497 42.286917,63.9369819 42.286917,65.9625755 C42.286917,70.1735614 43.8938739,74.1331187 46.8747092,77.1115292 C49.8562092,80.0899396 53.6776338,81.7293159 58,81.7293159 L58,82 Z" id="Fill-226" fill-opacity="0.221240942" fill="#FFFFFF"></path>
                <path d="M67.0003515,63 C64.2388864,63 62,60.7616592 62,58 C62,55.2383408 64.2388864,53 67.0003515,53 C69.7618166,53 72,55.2383408 72,58 C72,60.7616592 69.7618166,63 67.0003515,63 Z" id="Fill-228" fill-opacity="0.221240942" fill="#FFFFFF"></path>
                <path d="M54,72.0001114 C54,73.1048499 53.1046272,74 52.0001114,74 C50.8953728,74 50,73.1048499 50,72.0001114 C50,70.8953728 50.8953728,70 52.0001114,70 C53.1046272,70 54,70.8953728 54,72.0001114" id="Fill-230" fill-opacity="0.221240942" fill="#FFFFFF"></path>
                <path d="M37.1758729,67.8125375 L34.0509936,68 C33.5782566,60.898817 36.4098168,53.9741208 41.8203631,49 L44,51.1307939 C39.2483221,55.4997227 36.7605496,61.5803988 37.1758729,67.8125375" id="Fill-232" fill="#4A90E2"></path>
                <path d="M34.125595,67.9215725 L37.1438128,67.7398128 C36.7444878,61.5514648 39.2019075,55.517132 43.8908221,51.1719404 L41.7852488,49.1039875 C36.4612217,54.0361841 33.6705342,60.8910569 34.125595,67.9215725 Z M37.2261549,67.8092834 L34.0535743,68 L34.0505925,67.9630801 C33.5815405,60.8853769 36.3912653,53.9833165 41.7597892,49.02556 L41.7873131,49 L44,51.1732512 L43.9722468,51.1990296 C39.272552,55.539415 36.8130681,61.5805202 37.2238613,67.7723635 L37.2261549,67.8092834 Z" id="Fill-234" fill="#4A90E2"></path>
                <path d="M44.5166813,87 C40.8754657,84.6530995 37.9299678,81.3156069 36,77.3457843 L38.5220813,76 C40.2161664,79.4830775 42.8014567,82.4140722 46,84.4741878 L44.5166813,87 Z" id="Fill-236" fill="#4A90E2"></path>
                <path d="M36.0941128,77.3990361 C37.9985489,81.3013017 40.8940713,84.5852016 44.4716003,86.8991842 L45.9031924,84.4583128 C42.7541459,82.4209216 40.2054312,79.530942 38.5302653,76.098643 L36.0941128,77.3990361 Z M44.4952322,87 L44.4649668,86.9806625 C40.8517828,84.6521224 37.9305556,81.3384558 36.0163765,77.3990361 L36,77.3666621 L38.5605307,76 L38.5771144,76.032374 C40.2516584,79.4783613 42.8082504,82.3768147 45.9703566,84.4155095 L46,84.434847 L44.4952322,87 Z" id="Fill-238" fill="#4A90E2"></path>
                <path d="M63.6835963,90 L63,87.1296614 C65.9947416,86.3854267 68.7911162,84.9856452 71.1899021,83 L73,85.2971446 C70.2666838,87.5606491 67.1607883,89.1349665 63.6835963,90" id="Fill-240" fill="#4A90E2"></path>
                <path d="M63.0229689,87.1617174 L63.686091,89.9361235 C67.1450447,89.0732492 70.1914079,87.5296028 72.8906848,85.3101646 L71.1361123,83.0894271 C68.7618035,85.040584 66.0010634,86.418368 63.0229689,87.1617174 M63.6780094,90 L63.7003403,89.9945867 L63.0216929,87.1569537 L63,87.162367 C66.0227563,86.4129547 68.7549979,85.0048565 71.137601,83.0398416 L71.161208,83 L73,85.3272705 L72.9698001,85.3404788 C70.2460655,87.5865504 67.1180349,89.1473026 63.6780094,90" id="Fill-242" fill="#4A90E2"></path>
                <path d="M76.7215792,80 L76,79.4684639 C77.3181234,77.7966554 78.3785718,75.9557414 79.1527149,74 L80,74.3131262 C79.195437,76.3484466 78.0922664,78.261371 76.7215792,80" id="Fill-244" fill="#4A90E2"></path>
                <path d="M76.1031794,79.4196568 L76.7486503,79.899376 C78.064678,78.208552 79.1265747,76.3500922 79.9044555,74.3750532 L79.1466434,74.0925401 C78.3964662,75.997589 77.3720892,77.789037 76.1031794,79.4196568 Z M76.7619567,80 L76,79.4330591 L76.022032,79.4047653 C77.3049027,77.7620196 78.337787,75.9550418 79.0912363,74.0331868 L79.1043246,74 L80,74.3337824 L79.9862573,74.3676074 C79.2000873,76.3732804 78.1229209,78.2579067 76.7848612,79.9708552 L76.7619567,80 Z" id="Fill-246" fill="#4A90E2"></path>
                <path d="M71.573898,86 L71,85.2809256 C72.9674034,84.0759083 74.7229288,82.6358131 76.2174343,81 L77,81.5482266 C75.445981,83.2497837 73.6205704,84.7474048 71.573898,86" id="Fill-248" fill="#4A90E2"></path>
                <path d="M71.1138612,86.1051761 L71.6298704,86.8804528 C73.6093592,85.4227394 75.3771147,83.6844716 76.885412,81.7114333 L76.181653,81.1210734 C74.7276214,83.0223833 73.0223685,84.699097 71.1138612,86.1051761 Z M71.6100052,87 L71,86.0840646 L71.0339161,86.0591377 C72.960835,84.6449192 74.6801389,82.9526898 76.143134,81.0338293 L76.1692979,81 L77,81.6976981 L76.9748052,81.7317818 C75.447854,83.7355971 73.6539347,85.5003179 71.6439213,86.9758362 L71.6100052,87 Z" id="Fill-250" fill="#4A90E2"></path>
                <path d="M77.6303188,60 C76.8246908,57.4538973 75.6033133,55.1071768 74,53.0275665 L77.5819812,50 C79.5340974,52.532557 81.020084,55.3864068 82,58.4847909 L77.6303188,60 Z" id="Fill-252" fill="#4A90E2"></path>
                <path d="M74.1066577,53.0576453 C75.6733608,55.101561 76.8694507,57.4022005 77.661317,59.8993793 L81.9047699,58.4248636 C80.9428339,55.3926086 79.4890625,52.5954486 77.5844607,50.1119052 L74.1066577,53.0576453 Z M77.6135899,60 L77.6014901,59.9619146 C76.8076072,57.4471036 75.604347,55.1314181 74.0241996,53.0769231 L74,53.0456554 L77.5958883,50 L77.6194157,50.0312676 C79.5497857,52.5402012 81.0196902,55.368864 81.9879002,58.4384992 L82,58.4756442 L77.6135899,60 Z" id="Fill-254" fill="#4A90E2"></path>
                <path d="M45.1040846,45.5732876 L46.6617881,47.9035067 C48.6596782,46.7401686 50.8095719,45.8909026 53.0537436,45.3807178 C55.2236965,44.8872057 57.4656394,44.7129759 59.7176119,44.8646975 L59.9199863,42.1314157 C57.3459533,41.9580196 54.796214,42.1539239 52.3383011,42.7124595 C49.8068379,43.2889184 47.3723273,44.2517672 45.1040846,45.5732876 Z M46.6383858,48 L45,45.5509878 L45.0325404,45.5324394 C47.3170532,44.1969556 49.7693942,43.2247285 52.3204707,42.6443099 C54.7975513,42.0811892 57.3686869,41.8852849 59.9632249,42.0640997 L60,42.0666006 L59.787596,44.9393079 L59.7501523,44.9374322 C57.4932765,44.7819592 55.2462073,44.9538965 53.071574,45.4488675 C50.8238362,45.9605112 48.6694849,46.8129033 46.6702575,47.9814516 L46.6383858,48 Z" id="Fill-256" fill="#4A90E2"></path>
                <path d="M59.7914331,44.9073125 C55.1471182,44.5858928 50.5936309,45.6520088 46.6073111,48 L45,45.5769897 C49.5647006,42.8875033 54.7082305,41.6983982 60,42.0648294 L59.7914331,44.9073125 Z" id="Fill-258" fill="#4A90E2"></path>
                <path d="M35.0872833,61.7109908 L36.352556,61.9144568 C36.9238039,58.5432667 38.3252474,55.3197536 40.3517375,52.6049053 C43.4294218,48.4817664 47.8420269,45.5592953 52.9852668,44.3234038 L52.6816727,43.1012954 C47.2359551,44.4093845 42.5724384,47.5000979 39.3161694,51.8628015 C37.1720366,54.7362658 35.6904532,58.1457424 35.0872833,61.7109908 Z M36.4148374,62 L35,61.7720306 L35.0064737,61.7352755 C35.6076345,58.1450861 37.0628767,54.7034487 39.2217427,51.8113881 C42.4958702,47.4243998 47.2564923,44.2879613 52.6336781,43.0054695 L52.6562244,43 L53,44.3837872 L52.9774537,44.3894755 C47.9284173,45.5932063 43.4564328,48.5312108 40.3814272,52.6506304 C38.3549371,55.3656975 36.9854156,58.5861477 36.4206414,61.9597444 L36.4148374,62 Z" id="Fill-260" fill="#4A90E2"></path>
                <path d="M36.3446166,62 L35,61.7834783 C35.5976571,58.2060292 37.0497177,54.7683069 39.2359788,51.830301 C42.5134678,47.4250524 47.2150372,44.3066117 52.6774442,43 L53,44.3011106 C47.841346,45.5351083 43.4238317,48.4702537 40.3348173,52.6206932 C38.2743552,55.3894866 36.9075783,58.6293907 36.3446166,62" id="Fill-262" fill="#4A90E2"></path>
                <path d="M35.6585708,73 C35.4079869,72.4371669 35.2062121,71.9133616 35,71.2605475 L36.3815974,71 C36.5868753,71.654079 36.7634283,72.1038034 37,72.6339326 L35.6585708,73 Z" id="Fill-264" fill="#4A90E2"></path>
                <path d="M36.8419488,76 C36.5351873,75.4777699 36.2534763,74.9371912 36,74.3798518 L37.2079397,74 C37.4620529,74.5578687 37.7114956,75.0319337 38,75.5238179 L36.8419488,76 Z" id="Fill-266" fill="#4A90E2"></path>
                <path d="M38.99793,79 C38.6436668,78.5182278 38.3099064,78.0163963 38,77.4941566 L39.0618038,77 C39.3717102,77.5217164 39.6664367,77.9619745 40,78.416187 L38.99793,79 Z" id="Fill-268" fill="#4A90E2"></path>
                <path d="M40.1345149,81 C39.738806,80.5584165 39.3597015,80.0945875 39,79.6072867 L39.9324627,79 C40.2921642,79.4860746 40.626306,79.8926257 41,80.3086355 L40.1345149,81 Z" id="Fill-270" fill="#4A90E2"></path>
                <path d="M42.2597519,83 C41.8252741,82.5997501 41.4046378,82.1746854 41,81.7244488 L41.8150279,81 C42.2203847,81.4502365 42.5908682,81.8221012 43,82.1996787 L42.2597519,83 Z" id="Fill-272" fill="#4A90E2"></path>
                <path d="M43.3772423,85 C42.907668,84.6435442 42.4479423,84.2593415 42,83.8470218 L42.7048892,83 C43.152128,83.4112098 43.5569821,83.7476878 44,84.0837958 L43.3772423,85 Z" id="Fill-274" fill="#4A90E2"></path>
                <path d="M46.491478,87 C45.9869767,86.6906293 45.4889433,86.3510618 45,85.9811027 L45.5966262,85 C46.0862687,85.3691798 46.5241675,85.666277 47,85.9569453 L46.491478,87 Z" id="Fill-276" fill="#4A90E2"></path>
                <path d="M48.6064186,88 C48.0666549,87.7440887 47.5307706,87.4551161 47,87.132873 L47.4888027,86 C48.0195733,86.3216154 48.491095,86.5741787 49,86.8146056 L48.6064186,88 Z" id="Fill-278" fill="#4A90E2"></path>
                <path d="M51.7256461,89 C51.1494668,88.8082664 50.5738297,88.5786452 50,88.3125144 L50.3777336,87 C50.9508404,87.2661309 51.4570757,87.4652124 52,87.6466131 L51.7256461,89 Z" id="Fill-280" fill="#4A90E2"></path>
                <path d="M54.8517543,90 C54.2377011,89.8859729 53.6193209,89.7305753 53,89.5338074 L53.2584893,88 C53.8779983,88.1970265 54.4205625,88.3317388 55,88.4382676 L54.8517543,90 Z" id="Fill-282" fill="#4A90E2"></path>
                <path d="M57.9912298,90 C57.3348615,89.9885473 56.6709189,89.9300784 56,89.8239904 L56.127367,88 C56.7974885,88.106088 57.3811042,88.1549126 58,88.1654611 L57.9912298,90 Z" id="Fill-284" fill="#4A90E2"></path>
                <path d="M60,89.8089972 C59.3507034,89.9172022 58.6914999,89.9817666 58.0213989,90 L58,88.1802421 C58.6693085,88.1632043 59.2488607,88.1043192 59.8603131,88 L60,89.8089972 Z" id="Fill-286" fill="#4A90E2"></path>
                <path d="M35.128827,71.3286903 C35.2989136,71.8828734 35.4885329,72.3969339 35.7178756,72.930968 L36.9122133,72.6082348 C36.6898936,72.0908454 36.5246351,71.6447657 36.3547679,71.0905826 L35.128827,71.3286903 Z M35.6695929,73 L35.6417206,72.9749452 C35.4027214,72.4207622 35.1852299,71.8772668 35.0118512,71.3074901 L35,71.2698204 L36.3881269,71 L36.3999781,71.0371441 C36.5678701,71.5890495 36.7533194,72.0731494 36.9846373,72.6082348 L37,72.6360929 L35.6695929,73 Z" id="Fill-288" fill="#4A90E2"></path>
                <path d="M36.0887628,74.4187389 C36.3216131,74.931851 36.5824298,75.4385131 36.86412,75.9229398 L37.9086027,75.4901129 C37.6311683,75.0136638 37.4048029,74.5750658 37.1776269,74.0738352 L36.0887628,74.4187389 Z M36.8327085,76 L36.8179147,75.9742001 C36.5236599,75.470763 36.2529132,74.9457693 36.0121593,74.4122889 L36,74.3853009 L37.2181579,74 L37.2297092,74.0268183 C37.4639781,74.5458712 37.6968285,74.9975388 37.9852062,75.4906221 L38,75.5165917 L36.8327085,76 Z" id="Fill-290" fill="#4A90E2"></path>
                <path d="M38.0861533,77.5252034 C38.3704402,78.0046129 38.6799887,78.4744611 39.006881,78.9218318 L39.9119615,78.3912606 C39.5916675,77.9522771 39.3228391,77.5443261 39.0451503,77.0756521 L38.0861533,77.5252034 Z M38.987652,79 L38.9703082,78.9760127 C38.6309737,78.5127065 38.3095485,78.0242389 38.014893,77.5262098 L38,77.5007129 L39.071543,77 L39.086436,77.0244905 C39.3737393,77.5102743 39.6502969,77.9294641 39.9826562,78.3838799 L40,78.4076994 L38.987652,79 Z" id="Fill-292" fill="#4A90E2"></path>
                <path d="M39.0845171,79.6301715 C39.4147235,80.0766902 39.7670866,80.5097545 40.1324935,80.9194416 L40.9154829,80.2929701 C40.5563298,79.890851 40.2504244,79.5147999 39.9282587,79.0792129 L39.0845171,79.6301715 Z M40.1257036,81 L40.1064058,80.9781366 C39.7256321,80.5529768 39.359153,80.1029263 39.0175109,79.6387487 L39,79.6163808 L39.9436255,79 L39.9606004,79.0230407 C40.2936657,79.4754457 40.6085053,79.861924 40.9807022,80.278002 L41,80.2998655 L40.1257036,81 Z" id="Fill-294" fill="#4A90E2"></path>
                <path d="M41.0820548,81.7379056 C41.4537149,82.1500985 41.8457163,82.5465365 42.246854,82.9179724 L42.9179452,82.1925679 C42.5238752,81.8293518 42.1839338,81.4846305 41.8205482,81.0821988 L41.0820548,81.7379056 Z M42.2506464,83 L42.2287537,82.9804778 C41.8117566,82.5953421 41.4045854,82.1833205 41.0191346,81.7548591 L41,81.7336245 L41.8248578,81 L41.8445096,81.0217484 C42.2206516,81.4389074 42.5704189,81.7933898 42.9786244,82.1696207 L43,82.1898279 L42.2506464,83 Z" id="Fill-296" fill="#4A90E2"></path>
                <path d="M42.0803783,83.8514746 C42.4920635,84.2271721 42.9206349,84.5849792 43.3559608,84.9162165 L43.9204661,84.0875919 C43.4932455,83.7627314 43.121074,83.4522186 42.7195204,83.0843149 L42.0803783,83.8514746 Z M43.3687943,85 L43.3458291,84.9819325 C42.8937859,84.6400673 42.4481594,84.2677354 42.0214455,83.8762731 L42,83.8571429 L42.7136103,83 L42.7355623,83.0201931 C43.1511314,83.4013816 43.5339412,83.7209282 43.9768659,84.0562395 L44,84.073067 L43.3687943,85 Z" id="Fill-298" fill="#4A90E2"></path>
                <path d="M45.0789584,85.9738952 C45.5286854,86.3113929 45.9938681,86.6281932 46.4615708,86.9146 L46.9232255,85.972217 C46.4644267,85.6914041 46.0605628,85.4167444 45.6204116,85.0870781 L45.0789584,85.9738952 Z M46.4845863,87 L46.4595548,86.9845236 C45.9735405,86.6886071 45.4902142,86.3598732 45.0235195,86.0087638 L45,85.9910498 L45.6054599,85 L45.6289794,85.0171546 C46.0839143,85.3600597 46.499034,85.641805 46.9754725,85.9317546 L47,85.947231 L46.4845863,87 Z" id="Fill-300" fill="#4A90E2"></path>
                <path d="M47.0770536,87.1132434 C47.5653428,87.4064968 48.0670401,87.6755622 48.5682281,87.9118441 L48.9261711,86.8427786 C48.434148,86.6104948 47.9986422,86.3776112 47.5217244,86.0907546 L47.0770536,87.1132434 Z M48.6006449,88 L48.5736592,87.9872064 C48.0529532,87.7429285 47.5319077,87.4636682 47.0252885,87.1576212 L47,87.1424288 L47.4962661,86 L47.5222335,86.0151924 C48.0157841,86.3134433 48.4641887,86.5527236 48.9735234,86.792004 L49,86.8047976 L48.6006449,88 Z" id="Fill-302" fill="#4A90E2"></path>
                <path d="M50.0752024,88.2762697 C50.6037079,88.5181699 51.1424841,88.7309545 51.6786491,88.9089317 L51.9286274,87.6902364 C51.4034294,87.5157618 50.9353294,87.3309982 50.4184872,87.0945709 L50.0752024,88.2762697 Z M51.7207764,89 L51.6920533,88.9901489 C51.1353469,88.8066988 50.575507,88.5855954 50.0271564,88.3331874 L50,88.3200525 L50.3836713,87 L50.41135,87.012697 C50.9462965,87.2578809 51.4278005,87.4483363 51.9717991,87.6278459 L52,87.6374781 L51.7207764,89 Z" id="Fill-304" fill="#4A90E2"></path>
                <path d="M53.0738523,89.4781004 C53.6447106,89.65625 54.2244602,89.7999508 54.7965886,89.90625 L54.9314099,88.5031988 C54.3703502,88.3991142 53.8673562,88.2741142 53.3088369,88.0999016 L53.0738523,89.4781004 Z M54.8490292,90 L54.8190891,89.9938484 C54.2244602,89.8853346 53.6229359,89.7359744 53.0301216,89.5492126 L53,89.5398622 L53.2632916,88 L53.2928688,88.0093504 C53.8713482,88.191437 54.3881328,88.320128 54.9700599,88.4264272 L55,88.4320866 L54.8490292,90 Z" id="Fill-306" fill="#4A90E2"></path>
                <path d="M56.071628,89.5038442 C56.6902859,89.5721169 57.3147203,89.6118913 57.9272167,89.6196822 L57.9351112,88.4407996 C57.3341677,88.4321886 56.7925291,88.3991799 56.187157,88.3321374 L56.071628,89.5038442 Z M57.9921055,90 L57.9589872,90 C57.3231925,90 56.6750746,89.7968221 56.0325407,89.724654 L56,89.6432599 L56.1297776,88.2944131 L56.1615481,88.0924654 C56.7888707,88.1634034 57.3457206,88 57.9682295,88 L58,88 L57.9921055,90 Z" id="Fill-308" fill="#4A90E2"></path>
                <path d="M58.0856842,89.545078 C58.704026,89.5302144 59.3235153,89.4792885 59.9282777,89.3949805 L59.8007077,88.002924 C59.2087597,88.0867446 58.6705556,88.1306043 58.0661758,88.1454678 L58.0856842,89.545078 Z M60,89.4678363 L59.9671034,89.6578947 C59.3397724,89.747807 58.6959931,90 58.0547002,90 L58.0225686,90 L58,88.4154483 L58.0328966,88.4154483 C58.65908,88.4154483 59.2122024,88.1800682 59.8263364,88.0921053 L59.8578942,88 L60,89.4678363 Z" id="Fill-310" fill="#4A90E2"></path>
                <path d="M70.1045479,84.9096622 L70.7783259,85.895267 C74.6419276,83.2370532 77.5935156,79.5257153 79.3114381,75.1458686 C81.0700676,70.6590605 81.3881602,65.7519832 80.2699423,61.1181032 L79.1107951,61.4004368 C80.1794083,65.8335413 79.8693236,70.4524913 78.2005608,74.7093324 C76.570948,78.8654515 73.7710657,82.3864872 70.1045479,84.9096622 Z M70.7591958,86 L70,84.8898298 L70.0309195,84.8686603 C73.6996617,82.3523933 76.4988766,78.8273465 78.1269324,74.6739014 C79.7952503,70.4199572 80.103333,65.8192798 79.0218181,61.3658971 L79.0104736,61.318433 L80.3173226,61 L80.3284447,61.0474641 C81.4764698,65.7711472 81.1479224,70.6525983 79.3786157,75.1654782 C77.6509057,79.5709511 74.680855,83.3105892 70.7896705,85.9794991 L70.7591958,86 Z" id="Fill-312" fill="#4A90E2"></path>
                <path d="M70.7212375,86 L70,84.9438768 C73.6971261,82.4108855 76.5292151,78.886363 78.1741742,74.6925961 C79.856987,70.4046327 80.1685526,65.7620863 79.0846805,61.3025505 L80.3257913,61 C81.4835791,65.763432 81.1422232,70.6253218 79.3633201,75.1597664 C77.6236146,79.5935103 74.630927,83.3201069 70.7212375,86" id="Fill-314" fill="#4A90E2"></path>
                <path d="M58.0861066,43.6400369 C59.3361207,43.6217964 60.5963049,43.7090741 61.8320809,43.900254 L61.9132154,43.3606557 C60.6480592,43.1641653 59.3575908,43.0748095 58.0775185,43.0939737 L58.0861066,43.6400369 Z M61.8958133,43.9898407 L61.8585231,44 C60.6019549,43.8021242 59.3203006,43.750635 58.0494943,43.750635 L58.0108481,43.750635 L58,43 L58.0379682,43 C59.3476468,43 60.6681733,43.0775802 61.9627098,43.2807666 L62,43.2911568 L61.8958133,43.9898407 Z" id="Fill-316" fill="#4A90E2"></path>
                <path d="M62.0884715,43.7318451 C63.3214164,43.9956966 64.5428216,44.3835395 65.7203304,44.8838085 L65.9020251,44.2842926 C64.6951013,43.7719204 63.444281,43.3757396 62.1825998,43.1048951 L62.0884715,43.7318451 Z M65.7671682,45 L65.7311913,44.9846692 C64.5335445,44.4731038 63.2910963,44.0793437 62.0375608,43.8130715 L62,43.8052717 L62.1208281,43 L62.1581627,43.0075309 C63.449259,43.281872 64.7297206,43.6874664 65.9640231,44.2143626 L66,44.2296934 L65.7671682,45 Z" id="Fill-318" fill="#4A90E2"></path>
                <path d="M66.1034725,45.5091434 C67.312764,45.8954764 68.4913186,46.3666987 69.6067574,46.9106833 L69.8913656,46.519538 C68.7491788,45.9620789 67.5422337,45.4791145 66.303848,45.0843118 L66.1034725,45.5091434 Z M69.6342093,47 L69.5999531,46.9828681 C68.4676208,46.4282964 67.2686532,45.9491819 66.0373064,45.5580366 L66,45.5462945 L66.2585641,45 L66.294932,45.012127 C67.5631159,45.414437 68.7982168,45.9081809 69.9664477,46.4802695 L70,46.4962464 L69.6342093,47 Z" id="Fill-320" fill="#4A90E2"></path>
                <path d="M70.0887551,46.5714175 C70.977637,47.2567943 71.8256573,48.0364422 72.6094393,48.8895151 L72.9093443,48.4813928 C72.1061768,47.6077054 71.2383909,46.8097591 70.3284131,46.1081686 L70.0887551,46.5714175 Z M72.6143807,49 L72.5902439,48.9742897 C71.7942984,48.1050031 70.9324042,47.3121526 70.0271777,46.6170476 L70,46.596433 L70.3078872,46 L70.3356351,46.0213095 C71.2680393,46.7361025 72.1561609,47.5539685 72.9758632,48.4498919 L73,48.4756022 L72.6143807,49 Z" id="Fill-322" fill="#4A90E2"></path>
                <path d="M74.1026763,50.4390584 C74.9686446,51.1972871 75.7724044,52.0263315 76.4915692,52.9048474 L76.8981847,52.6205865 C76.161369,51.7205266 75.3384516,50.871135 74.4520342,50.0951526 L74.1026763,50.4390584 Z M76.4777929,53 L76.4560522,52.9726711 C75.7261247,52.0775982 74.9085886,51.2339916 74.026261,50.464991 L74,50.4422501 L74.4492358,50 L74.4750664,50.0229404 C75.383655,50.8152803 76.2255148,51.685019 76.9780441,52.6072212 L77,52.6337522 L76.4777929,53 Z" id="Fill-324" fill="#4A90E2"></path>
                <path d="M61.9054101,44 C60.6206021,43.7796962 59.309955,43.679511 58.0103818,43.7033277 L58,43.0035848 C59.3348714,42.9789915 60.680586,43.0809888 62,43.3080234 L61.9054101,44 Z" id="Fill-326" fill="#4A90E2"></path>
                <path d="M65.7873031,45 C64.5595459,44.4574968 63.2852178,44.0397266 62,43.7577958 L62.1095922,43 C63.4293327,43.289335 64.7381835,43.7179268 66,44.2749537 L65.7873031,45 Z" id="Fill-328" fill="#4A90E2"></path>
                <path d="M69.6661444,47 C68.4996987,46.419686 67.2657587,45.9172705 66,45.5074477 L66.2347837,45 C67.5352537,45.4204911 68.8019766,45.9363929 70,46.53281 L69.6661444,47 Z" id="Fill-330" fill="#4A90E2"></path>
                <path d="M72.6459639,48 C71.8240596,47.3971966 70.9337774,46.8478975 70,46.3671606 L70.2819357,46 C71.2411834,46.4943532 72.156348,47.0585503 73,47.6768923 L72.6459639,48 Z" id="Fill-332" fill="#4A90E2"></path>
                <path d="M76.5194651,53 C75.7623328,52.0743717 74.915156,51.2016893 74,50.4062629 L74.4132244,50 C75.3524517,50.8170581 76.2228083,51.7132262 77,52.6644005 L76.5194651,53 Z" id="Fill-334" fill="#4A90E2"></path>
                <path d="M34.0855308,72.2601082 C35.6874513,78.8674409 39.8000569,84.5839707 45.6221648,88.1636082 C51.4507319,91.7466209 58.315469,92.8167545 64.9543514,91.1850032 C66.6647445,90.764915 68.3274721,90.1675212 69.8988777,89.4137475 L69.6719092,88.9329074 C68.127232,89.6731807 66.4976922,90.256849 64.8293963,90.6670369 C58.3295014,92.2645872 51.6064247,91.2192043 45.8967988,87.7084189 C40.1947459,84.2032587 36.1747986,78.6390587 34.5982701,72.1343292 L34.0855308,72.2601082 Z M64.9708339,91.2549804 C58.3132417,92.8910069 51.4324675,91.8123229 45.5869724,88.2185099 C39.7372452,84.6217719 35.6295398,78.9396682 34.0113596,72.221632 L34,72.1730304 L34.7042926,72 L34.7156522,72.0488265 C36.2915125,78.5888822 40.2669125,84.1267563 45.962506,87.6283164 C51.6558722,91.1278514 58.3457612,92.1817846 64.8258325,90.5891845 C66.501256,90.1767465 68.1301276,89.5917281 69.6810414,88.8444796 L69.7108881,88.8294042 L70,89.4474986 L69.9654759,89.4630241 C68.3789242,90.2275981 66.6986005,90.8306171 64.9708339,91.2549804 Z" id="Fill-336" fill="#4A90E2"></path>
                <path d="M82.3788751,60.8721525 L82.8899582,60.7463308 C81.8077693,56.2730199 79.5420195,52.1440868 76.3428041,48.8355834 C73.243182,45.6310685 69.339699,43.2879485 65.0667422,42.0495387 C60.8520298,40.8280102 56.3583225,40.7409028 52.0366806,41.7994709 L52.16095,42.3167129 C56.4823696,41.2590452 60.792007,41.3711368 64.9235767,42.5676811 C69.1285076,43.7853832 72.9524049,46.0769591 75.9784434,49.2058459 C79.0971839,52.4308433 81.2960193,56.3986165 82.3788751,60.8721525 Z M83,60.8271358 L82.2970663,61 L82.2835056,60.9471054 C81.223325,56.5332165 79.0307142,52.4922911 75.912863,49.2672937 C72.895939,46.1483106 69.1009416,43.8855454 64.9086822,42.6712196 C60.7780017,41.4749004 56.3829986,41.4190796 52.1700646,42.4576152 L52.1934068,42.4519882 L52.0226753,41.7393736 L52,41.7450007 C56.3292003,40.6778794 60.8575875,40.7566587 65.0965313,41.9844896 C69.3828265,43.2265007 73.2967579,45.5765983 76.4048276,48.7898914 C79.6224946,52.117527 81.9024719,56.257264 82.9873285,60.7735659 L83,60.8271358 Z" id="Fill-340" fill="#4A90E2"></path>
                <path d="M83,60.8561056 L82.4147706,61 C81.3604216,56.6170836 79.125585,52.4935381 75.9941841,49.2570409 C72.9541556,46.1139172 69.1158439,43.8021335 64.9387855,42.5932398 C60.7953789,41.3929166 56.2719966,41.3164586 52.142853,42.3325157 L52,41.740248 C56.3308316,40.674121 60.8568882,40.761405 65.101473,41.9903717 C69.3783725,43.2285856 73.3015938,45.6141209 76.4153888,48.8323493 C79.6223392,52.1468833 81.8966219,56.2690756 83,60.8561056" id="Fill-342" fill="#4A90E2"></path>
                <polygon id="Fill-344" fill="#4A90E2" points="64 91 64 91 63 86"></polygon>
                <polygon id="Fill-346" fill="#4A90E2" points="64.8838366 91 63 86.0218501 63.1161634 86 65 90.9781499"></polygon>
                <polygon id="Fill-348" fill="#4A90E2" points="64.8905622 91 63 86.021945 63.1094378 86 65 90.978055"></polygon>
                <polygon id="Fill-350" fill="#4A90E2" points="65.8974034 91 64 86.0237789 64.1025966 86 66 90.9757258"></polygon>
                <polygon id="Fill-352" fill="#4A90E2" points="65.9035312 90 64 85.0253933 64.0970699 85 66 89.9746067"></polygon>
                <polygon id="Fill-354" fill="#4A90E2" points="66.9082202 90 65 85.0270284 65.0914939 85 67 89.9729716"></polygon>
                <polygon id="Fill-356" fill="#4A90E2" points="66.913257 90 65 85.028941 65.0864703 85 67 89.9713107"></polygon>
                <polygon id="Fill-358" fill="#4A90E2" points="66.9170363 90 65 85.0296203 65.0821811 85 67 89.9693671"></polygon>
                <polygon id="Fill-360" fill="#4A90E2" points="67.9207004 89 66 85.0250688 66.0777986 85 68 88.9747274"></polygon>
                <polygon id="Fill-362" fill="#4A90E2" points="67.9252943 89 66 85.0268759 66.0756666 85 68 88.9733292"></polygon>
                <polygon id="Fill-364" fill="#4A90E2" points="67.9274743 89 66 85.0268553 66.0718328 85 68 88.9716986"></polygon>
                <polygon id="Fill-366" fill="#4A90E2" points="39 70.0650487 34.0178023 71 34 70.9341556 38.9821977 70"></polygon>
                <polygon id="Fill-368" fill="#4A90E2" points="39 70.0715215 34.0169994 71 34 70.9276116 38.9830006 70"></polygon>
                <polygon id="Fill-370" fill="#4A90E2" points="39 70.0793991 34.015241 71 34 70.9206009 38.9852429 70"></polygon>
                <polygon id="Fill-372" fill="#4A90E2" points="39 70.0882821 34.0127828 71 34 70.9114528 38.986976 70"></polygon>
                <polygon id="Fill-374" fill="#4A90E2" points="39 69.0994327 34.0122626 70 34 69.9005673 38.9886992 69"></polygon>
                <polygon id="Fill-376" fill="#4A90E2" points="39 69.1137684 34.0098373 70 34 69.8852067 38.9899227 69"></polygon>
                <polygon id="Fill-378" fill="#4A90E2" points="39 68.1342926 34.0083796 69 34 68.8665068 38.9916204 68"></polygon>
                <path d="M27,47.2218863 C26.5712126,47.2218863 26.2218677,47.5707567 26.2218677,48.000084 C26.2218677,48.4289074 26.5712126,48.7782817 27,48.7782817 C27.4287874,48.7782817 27.7774605,48.4289074 27.7774605,48.000084 C27.7774605,47.5707567 27.4287874,47.2218863 27,47.2218863 M27,49 C26.448606,49 26,48.5515243 26,48.000084 C26,47.4486437 26.448606,47 27,47 C27.551394,47 28,47.4486437 28,48.000084 C28,48.5515243 27.551394,49 27,49" id="Fill-380" fill="#4A90E2"></path>
                <path d="M28.9990883,44.2223382 C28.5992298,44.2223382 28.2670499,44.5230932 28.2264091,44.921413 C28.1827454,45.3479444 28.4946049,45.7303113 28.9206616,45.773972 C29.3559549,45.8176327 29.730287,45.5036115 29.7739507,45.0787594 C29.8171106,44.6520602 29.5052511,44.2698612 29.0791944,44.2265364 C29.0518206,44.2233458 29.0257903,44.2223382 28.9990883,44.2223382 M29.0012715,46 C28.9671802,46 28.932921,45.9984887 28.8988298,45.9947943 C28.3501788,45.9392109 27.9491447,45.4476923 28.0052357,44.898911 C28.060655,44.3524807 28.5443143,43.9482834 29.10153,44.0053782 C29.650181,44.0612974 30.0507113,44.552984 29.9947882,45.1010936 C29.9430635,45.6141067 29.5153274,46 29.0012715,46" id="Fill-382" fill="#4A90E2"></path>
                <path d="M30.9988958,41.2218304 C30.6320353,41.2218304 30.3121866,41.4831234 30.2386466,41.8434929 C30.1516747,42.2631402 30.4230003,42.6753988 30.8432529,42.7617128 C30.8954697,42.7724601 30.9486938,42.7776658 31.0010785,42.7776658 C31.3677711,42.7776658 31.6877877,42.5163728 31.7613277,42.1570109 C31.8481317,41.7368598 31.5761345,41.3247691 31.1567214,41.2382872 C31.1045046,41.227204 31.0516163,41.2218304 30.9988958,41.2218304 M31.0010785,43 C30.9332471,43 30.8650799,42.993115 30.7984237,42.9793451 C30.2582909,42.8683459 29.9097314,42.3383711 30.0205451,41.7988245 C30.11608,41.3358522 30.5270981,41 30.9988958,41 C31.0665593,41 31.1348944,41.006885 31.2015506,41.0201511 C31.7415155,41.1321579 32.0907466,41.6617968 31.9792613,42.2018472 C31.8838944,42.6641478 31.4728762,43 31.0010785,43" id="Fill-384" fill="#4A90E2"></path>
                <path d="M34.0001583,38.2222595 C33.6589909,38.2222595 33.3608053,38.4413295 33.2585559,38.7669968 C33.1960981,38.9647474 33.2147347,39.1759275 33.3112756,39.3592412 C33.4068092,39.5437301 33.5688301,39.6790331 33.7671168,39.7419842 C33.8433422,39.7653181 33.9217502,39.7777405 34.000662,39.7777405 C34.3418293,39.7777405 34.639847,39.5585026 34.7422643,39.2330032 C34.8702021,38.8240725 34.6420297,38.3869397 34.2330318,38.2580158 C34.157478,38.234514 34.0785663,38.2222595 34.0001583,38.2222595 M34.000662,40 C33.8987483,40 33.7980099,39.9838845 33.7004616,39.9535001 C33.4455935,39.8730905 33.2372329,39.6993453 33.1141642,39.462649 C32.9904239,39.2259527 32.9664146,38.9551788 33.0463337,38.7003525 C33.1781331,38.2815175 33.5614426,38 34.0001583,38 C34.1014003,38 34.2021387,38.0159476 34.2996871,38.046332 C34.8253735,38.2116837 35.1191938,38.7740473 34.9539828,39.2994796 C34.8226872,39.7184825 34.4388739,40 34.000662,40" id="Fill-386" fill="#4A90E2"></path>
                <path d="M37.0001946,36.2222595 C36.6892984,36.2222595 36.4081312,36.407252 36.2850156,36.6929663 C36.1158787,37.0867887 36.2987885,37.5447373 36.6929935,37.7142857 C36.7910829,37.756421 36.8940431,37.7777405 36.9996908,37.7777405 C37.3110909,37.7777405 37.5915862,37.592748 37.7148698,37.3070337 C37.8838388,36.9130435 37.700929,36.4552627 37.3073958,36.2857143 C37.2093064,36.243579 37.1056743,36.2222595 37.0001946,36.2222595 M36.9996908,38 C36.8636421,38 36.7307848,37.9723015 36.6049818,37.9184153 C36.0982427,37.7003525 35.8636009,37.1119691 36.0812786,36.6055061 C36.2391622,36.2377035 36.6002789,36 37.0001946,36 C37.1367471,36 37.2689326,36.0276985 37.3949036,36.0815847 C37.9014747,36.2994796 38.1361166,36.8885345 37.9191107,37.394326 C37.7607232,37.7621286 37.4001104,38 36.9996908,38" id="Fill-388" fill="#4A90E2"></path>
                <path d="M90.6237013,52 C90.4217532,51.5673794 90.2113636,51.1314437 90,50.7041273 L91.361039,50 C91.5782468,50.4389193 91.7928571,50.8861263 92,51.3303497 L90.6237013,52 Z" id="Fill-390" fill="#4A90E2"></path>
                <path d="M91.5785233,53 C91.3926986,52.5528222 91.197336,52.1012637 91,51.6584667 L92.4047032,51 C92.6082881,51.4549284 92.8079263,51.9192923 93,52.3772536 L91.5785233,53 Z" id="Fill-392" fill="#4A90E2"></path>
                <path d="M91.5340454,55 C91.3634846,54.5360878 91.1832443,54.0701183 91,53.6106635 L92.4519359,53 C92.6395194,53.4714555 92.8240988,53.9504543 93,54.4249957 L91.5340454,55 Z" id="Fill-394" fill="#4A90E2"></path>
                <path d="M92.4875149,56 C92.3312383,55.5209937 92.167148,55.036739 92,54.5622813 L93.4995753,54 C93.6708001,54.4881036 93.8393069,54.9846046 94,55.4779566 L92.4875149,56 Z" id="Fill-396" fill="#4A90E2"></path>
                <path d="M93.4392944,58 C93.2998962,57.5046528 93.150467,57.0021475 93,56.5089477 L94.5485991,56 C94.7046005,56.5042949 94.8561052,57.0204009 95,57.5297065 L93.4392944,58 Z" id="Fill-398" fill="#4A90E2"></path>
                <path d="M93.388202,60 C93.2659838,59.4861747 93.1359943,58.9672221 93,58.4566929 L94.5997881,58 C94.7386083,58.5255448 94.8731897,59.058048 95,59.5846914 L93.388202,60 Z" id="Fill-400" fill="#4A90E2"></path>
                <path d="M94.3374887,60 C94.2319783,59.7334462 94.1181572,59.4648232 94,59.1995862 L95.6534779,59 C95.7752484,59.2718209 95.8908762,59.5483446 96,59.8220467 L94.3374887,60 Z" id="Fill-402" fill="#4A90E2"></path>
            </g>
        </g>
    </g>
</svg>