<?xml version="1.0" encoding="UTF-8"?>
<svg width="143px" height="46px" viewBox="0 0 143 46" version="1.1" xmlns="http://www.w3.org/2000/svg" xmlns:xlink="http://www.w3.org/1999/xlink">
    <!-- Generator: Sketch 50 (54983) - http://www.bohemiancoding.com/sketch -->
    <title>logo+中文</title>
    <desc>Created with Sketch.</desc>
    <defs></defs>
    <g id="Symbols" stroke="none" stroke-width="1" fill="none" fill-rule="evenodd">
        <g id="底部信息" transform="translate(-553.000000, -153.000000)" fill="#FFFFFF" fill-rule="nonzero">
            <g id="Group-3">
                <g id="logo+中文" transform="translate(553.000000, 153.000000)">
                    <path d="M56,16.1846925 L56,14.2186413 L60.3049821,14.2186413 L60.3049821,16.1846925 L56,16.1846925 Z M56,23.5003585 L56,21.5288761 L60.3049821,21.5288761 L60.3049821,23.5003585 L56,23.5003585 Z M56,31.7067216 L56,29.7461014 L60.3049821,29.7461014 L60.3049821,31.7067216 L56,31.7067216 Z M61.4775667,23.0169923 L61.4775667,20.9749059 C62.7694284,20.714214 64.237453,20.3883491 65.8816405,19.9973113 L65.3311313,19.6008424 C64.679355,19.1794984 64.0559706,18.7168852 63.464905,18.2159168 C63.1786402,17.9552249 62.7987889,17.5641871 62.330856,17.0482344 L65.1384531,17.0482344 C65.7377802,17.5451241 66.3765894,17.9937252 67.0487201,18.3897114 C67.6371786,18.7098087 68.2501129,18.9840093 68.8819158,19.2098046 C69.9837736,18.7945623 71.0243075,18.2356251 71.9757776,17.5478938 C72.658409,17.0047858 72.9997247,16.6137479 72.9997247,16.3150385 C72.9997247,16.016329 72.8015414,15.9837426 72.3996697,15.9837426 L61.6206991,15.9837426 L61.6206991,14.0122602 L71.1334985,14.0122602 C72.1383472,13.9795845 73.1442865,14.0122416 74.1447839,14.1100197 C75.1191852,14.3489872 75.6036334,14.8975264 75.6036334,15.7393439 C75.6036334,17.1079763 74.4383888,18.5454024 72.1078998,20.0516221 C72.2950729,20.1023122 73.5685843,20.4100734 75.9284338,20.9749059 L75.9284338,23.000699 C74.3099367,22.6096612 72.0895495,22.0050009 69.2672722,21.186718 C67.461602,21.6972396 64.8650335,22.3018999 61.4775667,23.000699 L61.4775667,23.0169923 Z M61.4775667,30.5607636 L61.4775667,28.4969528 L67.7478668,28.4969528 L67.7478668,26.2539165 L61.7583265,26.2539165 L61.7583265,24.2172611 L67.7478668,24.2172611 L67.7478668,22.6531098 L69.7462152,22.6531098 L69.7462152,24.2172611 L75.7522709,24.2172611 L75.7522709,26.2539165 L69.7462152,26.2539165 L69.7462152,28.4969528 L76,28.4969528 L76,30.5607636 L69.7462152,30.5607636 L69.7462152,32 L67.7478668,32 L67.7478668,30.5607636 L61.4775667,30.5607636 Z" id="Shape"></path>
                    <path d="M79,19.8146012 L79,17.9699123 C79.4955076,17.9829269 79.9897762,17.9152829 80.4625289,17.7697554 C80.6785843,17.6399239 81.0165171,17.0124051 81.5372661,15.8926087 C81.7338922,15.3854672 82.0125824,14.9124212 82.3627085,14.4915107 C82.7570066,14.1442757 83.2789474,13.9685272 83.8086178,14.0046426 L87.4981794,14.0046426 C87.9735461,13.9826827 88.437582,14.1506521 88.7834321,14.4698721 C89.1582643,14.8934741 89.4527891,15.3789151 89.6531936,15.903428 C90.1185437,16.9853569 90.4675563,17.623695 90.7002313,17.7589361 C91.1756322,17.9181593 91.6772018,17.9897 92.1793799,17.9699123 L92.1793799,19.8146012 C90.8608879,19.8146012 89.9911264,19.6523118 89.5645555,19.360191 C89.2187545,19.0739771 88.9408722,18.7177155 88.7501928,18.3161296 C88.6781743,18.1917077 88.4288796,17.6940204 87.9967688,16.8230676 C87.8953291,16.6110806 87.7689035,16.4113764 87.6200568,16.2280066 C87.4007966,16.0626716 87.1260635,15.9835403 86.8500132,16.0062112 L84.2019494,16.0062112 C83.91949,15.9803982 83.6420444,16.0915979 83.4596052,16.3037417 C83.1726532,16.7729527 82.9154877,17.2589326 82.6895616,17.7589361 C82.4463761,18.3569033 82.0675614,18.8932715 81.5815851,19.3277331 C81.1605541,19.6306732 80.2963324,19.7929626 79,19.8146012 Z M84.5786614,27.6098994 L84.5786614,25.9112709 L88.6726344,25.9112709 C89.4260584,25.9112709 89.7806109,25.5921019 89.7806109,24.9483541 L89.7806109,22.7195804 C89.7806109,22.2381221 89.5146965,22.0000977 88.9773279,22.0000977 L82.7892795,22.0000977 C82.4739871,21.9618598 82.1555179,22.0410541 81.8973584,22.2218931 C81.6930219,22.4494538 81.5911787,22.7478005 81.6148244,23.0495688 L81.6148244,28.6377319 C81.6148244,29.6331065 82.0469352,30.1307939 82.905617,30.1307939 L91.9190054,30.1307939 L91.9190054,31.9322056 L82.4624264,31.9322056 C81.6613266,31.954733 80.8867018,31.6509916 80.3240319,31.0937107 C79.8236019,30.6084928 79.5509169,29.9428066 79.5706079,29.2544314 L79.5706079,22.3787728 C79.5434412,21.741333 79.7788751,21.1198261 80.224314,20.6530961 C80.6920089,20.2400566 81.3129142,20.0327383 81.9416775,20.0796738 L89.4537578,20.0796738 C90.1030841,20.0502725 90.7361886,20.2830835 91.2043606,20.7234215 C91.5535741,21.074353 91.7415658,21.5489066 91.7251095,22.0379652 L91.7251095,25.6245597 C91.7145718,26.0894426 91.5152871,26.5311838 91.1711213,26.8525491 C90.5936149,27.3858274 89.8148054,27.6602347 89.021647,27.6098994 L84.5786614,27.6098994 Z M93.3095159,31.9971213 L93.3095159,30.0171913 L95.7636837,30.0171913 C96.0935166,30.0337886 96.4152626,29.9140067 96.6500649,29.687203 C96.8514843,29.4870414 96.9613895,29.2158109 96.9547584,28.9352624 L96.9547584,14.0046426 L98.9989749,14.0046426 L98.9989749,29.2544314 C99.0197255,29.9928221 98.724653,30.7063007 98.1846122,31.2235421 C97.6080018,31.7527422 96.8367374,32.0317525 96.0462177,31.9971213 L93.3095159,31.9971213 Z M93.3095159,28.8703466 L93.3095159,14.8052701 L95.3149532,14.8052701 L95.3149532,28.8703466 L93.3095159,28.8703466 Z" id="Shape"></path>
                    <path d="M100,32 L100,29.9914399 C101.107818,29.946632 102.196327,29.6868365 103.204846,29.2265362 C104.897979,28.5444534 106.346593,27.3690849 107.362335,25.8532559 C108.023157,24.7583967 108.501146,23.5632989 108.777533,22.3148884 L100,22.3148884 L100,20.2843167 L108.981278,20.2843167 L108.981278,16.0250688 L100.379956,16.0250688 L100.379956,14 L119.653084,14 L119.653084,16.0250688 L111.040749,16.0250688 L111.040749,20.2843167 L119.977974,20.2843167 L119.977974,22.3148884 L111.238987,22.3148884 C111.395368,23.2549529 111.715963,24.1602104 112.186123,24.9892999 C113.025031,26.5683235 114.294768,27.8772766 115.848018,28.7642923 C117.076844,29.417447 118.422032,29.8231627 119.807269,29.9584225 L120,29.9584225 L120,32 C118.853424,31.9083356 117.720979,31.686799 116.624449,31.3396515 C115.402846,30.8702543 114.259244,30.2190618 113.232379,29.4081321 C112.358781,28.7592807 111.612131,27.9553072 111.029736,27.0363803 C110.677503,26.4707109 110.359389,25.8845254 110.077093,25.2809538 C109.642045,26.2097072 109.106549,27.0880682 108.480176,27.9003363 C107.70572,28.7939871 106.80401,29.5690105 105.803965,30.2005503 C104.689989,30.9464438 103.440158,31.4662335 102.125551,31.7303577 C101.618943,31.8239071 100.903084,31.9119535 100,32 Z" id="Shape"></path>
                    <path d="M123,32 L123,30.0251099 C123.248046,30.051776 123.493574,29.9571164 123.656009,29.7721951 C123.881227,29.4085681 123.98345,28.9849555 123.948181,28.5614329 L123.948181,18.3049321 C123.8858,17.5097138 124.174685,16.7263999 124.742007,16.1524661 C124.983211,15.9118258 125.277271,15.7278228 125.601985,15.6143495 C126.40968,15.4342427 127.238369,15.3600466 128.066152,15.3937218 L134.130099,15.3937218 L133.61742,14 L135.662624,14 L136.180816,15.3937218 L140.001103,15.3937218 L140.001103,14 L142.01323,14 L142.01323,15.3991029 L143,15.3991029 L143,17.3793717 L136.936053,17.3793717 L139.736494,24.7946173 C140.02321,24.5756826 140.270936,24.312049 140.46968,24.0143484 C140.700036,23.5026199 140.841622,22.9570639 140.888644,22.3999988 L142.988975,22.3999988 C142.904434,23.3064865 142.658168,24.1915632 142.261301,25.0152451 C141.830779,25.7433447 141.237139,26.3669722 140.524807,26.8394601 C140.814449,27.7483194 141.268103,28.5993574 141.864388,29.3524642 C142.174911,29.6528648 142.552189,29.8793555 142.966924,30.0143475 L142.966924,31.9892351 C142.132849,31.9102072 141.341968,31.5897842 140.6957,31.0690559 C140.236579,30.6874955 139.851862,30.2280983 139.560088,29.7130023 C139.234565,29.0851027 138.949197,28.4381242 138.705623,27.7757828 L134.648291,29.8421502 L134.648291,27.5605362 L137.994487,25.8385634 L134.874311,17.3901341 L127.310915,17.3901341 C126.935629,17.3561677 126.562626,17.4749399 126.280044,17.7183851 C126.031819,18.0225634 125.90982,18.4067206 125.938258,18.7946182 L125.938258,19.7524656 L131.070562,19.7524656 C131.602751,19.7202079 132.125088,19.9031405 132.514884,20.2582951 C132.880719,20.6067621 133.080599,21.0886886 133.066152,21.5874429 L133.066152,29.2233162 C133.108379,29.7811599 132.926479,30.3331397 132.558986,30.7623295 C132.165249,31.1354369 131.629467,31.3305863 131.081588,31.300446 L128.7828,31.300446 L128.7828,29.2878902 L130.298787,29.2878902 C130.495679,29.3102282 130.693675,29.256112 130.850055,29.1372176 C130.998802,28.9651674 131.072087,28.7428227 131.054024,28.5183836 L131.054024,22.5668149 C131.08208,22.3215792 131.008653,22.0755606 130.850055,21.883407 C130.669466,21.7621028 130.450841,21.7068448 130.232635,21.7273532 L125.92172,21.7273532 L125.92172,28.2654688 C125.92172,29.8044821 125.491731,30.8860963 124.637266,31.4941679 C124.158254,31.8240428 123.586219,32.0007717 123,32 Z" id="Shape"></path>
                    <path d="M31.335,13.26 C31.2284027,13.1669918 31.1165519,13.0801822 31,13 C31.2,13.18 31.31,13.3 31.31,13.3 L31.335,13.26 Z" id="Shape"></path>
                    <path d="M31.335,13.26 C31.2284027,13.1669918 31.1165519,13.0801822 31,13 C31.2,13.18 31.31,13.3 31.31,13.3 L31.335,13.26 Z" id="Shape"></path>
                    <path d="M15.6814346,19.3537823 C16.9601671,23.5213718 18.8866718,27.4334466 21.3814728,30.9286182 C21.8996581,27.683491 23.381668,15.6089825 18.4744533,11.0021099 C17.2204449,9.79960089 12.4997769,6.06029195 8.71702423,13.5389098 C4.54045076,21.8521458 19.9098266,30.2422546 21.3814728,31 L21.3814728,30.9176364 C21.3814728,30.9176364 15.5156153,23.6092367 15.6814346,19.3537823 Z" id="Shape"></path>
                    <path d="M23.8884298,31.5944056 C23.8045162,31.3139798 23.5564721,31.0895762 23.231405,31 L23.2727273,31.034965 L22,32 L22.0330579,32 C22.6912481,31.9974659 23.3484506,31.9565766 24,31.8776224 C23.9586777,31.7797203 23.9214876,31.6958042 23.8884298,31.5944056 Z" id="Shape"></path>
                    <path d="M24,0 C10.7492957,0.0151677266 0.0121007625,10.7807248 0,24.0633956 C3.90050907e-15,36.7746794 10.1225984,45.9972385 24,45.9972385 C24.4999999,46.0293085 24.9763352,45.7801179 25.2360307,45.35062 C25.4957262,44.9211221 25.4957262,44.3825246 25.2360307,43.9530268 C24.9763352,43.5235289 24.4999999,43.2743383 24,43.3064083 C11.6486734,43.3064083 2.68435499,35.2119068 2.68435499,24.0468874 C2.68435499,12.2461846 12.2276943,2.67982476 24,2.67982476 C35.7723057,2.67982476 45.315645,12.2461846 45.315645,24.0468874 C45.315645,32.1689025 40.0512351,36.4775325 34.8362306,37.1433616 C31.3723696,37.5835792 26.9094236,36.4059971 25.3888381,31.7341876 C24.5091992,31.8130827 23.6255118,31.8369741 22.7429094,31.805723 L22.7044831,31.805723 L22.6276304,31.8772583 C24.0713632,37.3799786 29.105215,40.5880645 35.1765782,39.8121809 C41.3522415,39.0252919 48,33.7591887 48,24.0468874 C47.9788274,10.7706636 37.2442842,0.0151489494 24,0 Z" id="Shape"></path>
                    <path d="M33.8549179,25.8780215 C29.3655444,22.1405323 22.6261774,31.4898673 22,32.370927 L22.0849054,32.370927 C22.7429223,32.370927 27.6409032,32.3204204 30.6603519,29.7109122 C30.5860596,29.8231491 28.6969143,32.6010127 22.0849054,32.370927 L22.0053066,32.370927 C23.8095466,33.0555722 30.941601,35.4798896 34.2741384,32.6851904 C35.1284991,31.9893215 37.9091513,29.2507408 33.8549179,25.8780215 Z" id="Shape"></path>
                    <path d="M30.5040282,9.93297365 C23.4496713,2.93073715 19.3364386,10.5800088 19,11.2325273 C19.07597,11.2928442 19.15194,11.3696111 19.2441893,11.4518613 L19.3364386,11.5505616 L19.4503936,11.6766786 C19.7211686,11.9621166 19.9697151,12.2682673 20.1938143,12.5923979 L20.2697842,12.6965815 C20.3566071,12.8226985 20.44343,12.9597822 20.5356792,13.1023493 L20.5736642,13.1626661 C20.6984721,13.36555 20.8178535,13.584884 20.9426614,13.8151847 L20.9426614,13.8645348 C21.8108899,15.5424395 22.6031485,18.0702634 22.6899713,21.7386238 C23.3628484,18.7172985 24.648912,14.3306194 26.7001019,12.6362646 C24.9409578,15.6528539 23.5972857,18.8978421 22.7062506,22.2814753 C22.7062506,22.3856589 22.7062506,22.4898426 22.7062506,22.5940262 C22.7062506,23.2739614 22.6628392,23.9977635 22.6085749,24.7544656 L22.6085749,24.9683162 C22.5651635,25.5166511 22.5108992,26.0320859 22.445782,26.6133209 C22.445782,26.8545883 22.3752385,27.1123057 22.3372535,27.3590564 C22.2775628,27.7867576 22.217872,28.2144588 22.141902,28.6640934 C22.0116678,29.3988621 21.8651542,30.1610476 21.6915085,30.9506499 C21.7226784,30.9697683 21.7553463,30.9862736 21.7891842,31 C21.7891842,31 36.6684509,16.0414243 30.5040282,9.93297365 Z" id="Shape"></path>
                </g>
            </g>
        </g>
    </g>
</svg>