<?xml version="1.0" encoding="UTF-8"?>
<svg width="94px" height="72px" viewBox="0 0 96 74" version="1.1" xmlns="http://www.w3.org/2000/svg" xmlns:xlink="http://www.w3.org/1999/xlink">
    <!-- Generator: Sketch 52.1 (67048) - http://www.bohemiancoding.com/sketch -->
    <title>Group 52 Copy</title>
    <desc>Created with Sketch.</desc>
    <defs>
        <polygon id="path-1" points="0.43488 0.13965 15.8805333 0.13965 15.8805333 0.63965 0.43488 0.63965"></polygon>
        <polygon id="path-3" points="0.43488 0.25975 15.8805333 0.25975 15.8805333 0.75975 0.43488 0.75975"></polygon>
    </defs>
    <g id="Page-1" stroke="none" stroke-width="1" fill="none" fill-rule="evenodd">
        <g id="官网-科研大数据" transform="translate(-896.000000, -1763.000000)">
            <g id="Group-52-Copy" transform="translate(895.500000, 1763.000000)">
                <path d="M16.5,40.0005558 C16.5,58.2255065 31.2752318,73 49.4997221,73 C67.7247682,73 82.5,58.2255065 82.5,40.0005558 C82.5,21.7739376 67.7247682,7 49.4997221,7" id="Stroke-1" stroke="#8C96A9" stroke-width="2"></path>
                <path d="M21.5,43.5960303 C23.1612197,53.6599475 30.4275864,61.8643057 40.0399291,65 L48.5,40 L21.5,43.5960303 Z" id="Fill-3" fill="#E4E5E7"></path>
                <path d="M47.5,12.005006 L47.5,40.1935116 L72.3747127,52 C74.3669704,48.2243266 75.5,43.9363676 75.5,39.3875377 C75.5,24.2614826 63.0553046,12 47.7043631,12 C47.6366184,12 47.5683092,12.005006 47.5,12.005006 Z" id="Fill-5" fill="#E4E5E7"></path>
                <path d="M39.5,64.590872 C42.2143074,65.5010986 45.1120969,66 48.1286757,66 C58.731596,66 67.925218,59.9069621 72.5,50.9934082 L47.926232,39 L39.5,64.590872 Z" id="Fill-7" fill="#F5F5F5"></path>
                <path d="M3.5,37 L3.5,30" id="Stroke-9" stroke="#8C96A9" stroke-width="2"></path>
                <path d="M6.5,36 L6.5,27" id="Stroke-11" stroke="#8C96A9" stroke-width="2"></path>
                <path d="M10.5,37 L10.5,21" id="Stroke-13" stroke="#8C96A9" stroke-width="2"></path>
                <path d="M14.5,37 L14.5,9" id="Stroke-15" stroke="#8C96A9" stroke-width="2"></path>
                <path d="M19.5,37 L19.5,0" id="Stroke-17" stroke="#8C96A9" stroke-width="2"></path>
                <path d="M23.5,37 L23.5,9" id="Stroke-22" stroke="#8C96A9" stroke-width="2"></path>
                <path d="M27.5,37 L27.5,0" id="Stroke-24" stroke="#8C96A9" stroke-width="2"></path>
                <path d="M32.5,37 L32.5,4" id="Stroke-26" stroke="#8C96A9" stroke-width="2"></path>
                <path d="M36.5,37 L36.5,25" id="Stroke-28" stroke="#8C96A9" stroke-width="2"></path>
                <path d="M39.5,36 L39.5,12" id="Stroke-30" stroke="#8C96A9" stroke-width="2"></path>
                <path d="M43.5,37 L43.5,25" id="Stroke-32" stroke="#8C96A9" stroke-width="2"></path>
                <path d="M16.5,61 L0.5,61" id="Stroke-34" stroke="#8C96A9" stroke-width="2"></path>
                <path d="M16.5,65 L0.5,65" id="Stroke-36" stroke="#8C96A9" stroke-width="2"></path>
                <path d="M16.5,69 L0.5,69" id="Stroke-38" stroke="#8C96A9" stroke-width="2"></path>
                <g id="Group-42" transform="translate(80.500000, 60.000000)">
                    <mask id="mask-2" fill="white">
                        <use xlink:href="#path-1"></use>
                    </mask>
                    <g id="Clip-41"></g>
                    <path d="M15.8807467,0.13965 L0.43488,0.13965" id="Stroke-40" stroke="#000000" stroke-width="2" mask="url(#mask-2)"></path>
                </g>
                <g id="Group-45" transform="translate(80.500000, 65.000000)">
                    <mask id="mask-4" fill="white">
                        <use xlink:href="#path-3"></use>
                    </mask>
                    <g id="Clip-44"></g>
                    <path d="M15.8807467,0.25975 L0.43488,0.25975" id="Stroke-43" stroke="#000000" stroke-width="2" mask="url(#mask-4)"></path>
                </g>
                <path d="M91.5,69 L79.5,69" id="Stroke-46" stroke="#8C96A9" stroke-width="2"></path>
                <path d="M88.5,27.999719 C88.5,30.2092321 90.067032,32 92.0004918,32 C93.9334598,32 95.5,30.2092321 95.5,27.999719 C95.5,25.7907679 93.9334598,24 92.0004918,24 C90.067032,24 88.5,25.7907679 88.5,27.999719" id="Fill-48" fill="#E4E5E7"></path>
                <path d="M89.9997892,50 C90.8287421,50 91.5,49.3281821 91.5,48.5 C91.5,47.6718179 90.8287421,47 89.9997892,47 C89.1712579,47 88.5,47.6718179 88.5,48.5 C88.5,49.3281821 89.1712579,50 89.9997892,50 Z" id="Fill-50" fill="#E4E5E7"></path>
            </g>
        </g>
    </g>
</svg>