<?xml version="1.0" encoding="UTF-8"?>
<svg width="70px" height="80px" viewBox="0 0 70 80" version="1.1" xmlns="http://www.w3.org/2000/svg" xmlns:xlink="http://www.w3.org/1999/xlink">
    <!-- Generator: Sketch 50 (54983) - http://www.bohemiancoding.com/sketch -->
    <title>Group 18 Copy</title>
    <desc>Created with Sketch.</desc>
    <defs>
        <polygon id="path-1" points="0.0644840909 0.214547727 16.8492795 0.214547727 16.8492795 17 0.0644840909 17"></polygon>
    </defs>
    <g id="Page-1" stroke="none" stroke-width="1" fill="none" fill-rule="evenodd">
        <g id="官网-科研大数据" transform="translate(-1342.000000, -1760.000000)">
            <g id="Group-18-Copy" transform="translate(1343.000000, 1760.000000)">
                <path d="M68,39.9998043 C68,58.7774101 52.7777138,74 34,74 C15.2222862,74 0,58.7774101 0,39.9998043 C0,21.2221986 15.2222862,6 34,6 C52.7777138,6 68,21.2221986 68,39.9998043 Z" id="Stroke-1" stroke="#8C96A9" stroke-width="2" stroke-dasharray="2,4"></path>
                <path d="M17,59.5 C17,54.8054737 13.1942226,51 8.49980435,51 C3.80577742,51 0,54.8054737 0,59.5 C0,64.1945263 3.80577742,68 8.49980435,68 C13.1942226,68 17,64.1945263 17,59.5" id="Fill-3" fill="#E4E5E7"></path>
                <path d="M68,59.5 C68,54.8054737 64.1944387,51 59.4998043,51 C54.80517,51 51,54.8054737 51,59.5 C51,64.1945263 54.80517,68 59.4998043,68 C64.1944387,68 68,64.1945263 68,59.5" id="Fill-5" fill="#E4E5E7"></path>
                <g id="Group-9" transform="translate(25.000000, 63.000000)">
                    <mask id="mask-2" fill="white">
                        <use xlink:href="#path-1"></use>
                    </mask>
                    <g id="Clip-8"></g>
                    <path d="M16.8492795,8.607525 C16.8492795,3.97232045 13.0918932,0.214547727 8.45668864,0.214547727 C3.82148409,0.214547727 0.0644840909,3.97232045 0.0644840909,8.607525 C0.0644840909,13.2423432 3.82148409,17.0001159 8.45668864,17.0001159 C13.0918932,17.0001159 16.8492795,13.2423432 16.8492795,8.607525" id="Fill-7" fill="#E4E5E7" mask="url(#mask-2)"></path>
                </g>
                <polygon id="Stroke-16" stroke="#8C96A9" stroke-width="2" stroke-linecap="round" stroke-linejoin="round" points="8 60.521653 33.5001957 6 59 61.2873253 19.6812473 35.5473411 33.5001957 72 47.0569695 35.3919873"></polygon>
                <path d="M56,34.4998044 C56,29.8057774 52.1942226,26 47.4998044,26 C42.8057774,26 39,29.8057774 39,34.4998044 C39,39.1942226 42.8057774,43 47.4998044,43 C52.1942226,43 56,39.1942226 56,34.4998044" id="Fill-10" fill="#E4E5E7"></path>
                <path d="M28,34.4998044 C28,29.8057774 24.1945263,26 19.5,26 C14.8054737,26 11,29.8057774 11,34.4998044 C11,39.1942226 14.8054737,43 19.5,43 C24.1945263,43 28,39.1942226 28,34.4998044" id="Fill-12" fill="#E4E5E7"></path>
                <path d="M42,8.5 C42,3.80547371 38.1944387,0 33.4998043,0 C28.80517,0 25,3.80547371 25,8.5 C25,13.1945263 28.80517,17 33.4998043,17 C38.1944387,17 42,13.1945263 42,8.5" id="Fill-14" fill="#E4E5E7"></path>
            </g>
        </g>
    </g>
</svg>