<?xml version="1.0" encoding="UTF-8"?>
<svg width="111px" height="123px" viewBox="0 0 111 123" version="1.1" xmlns="http://www.w3.org/2000/svg" xmlns:xlink="http://www.w3.org/1999/xlink">
    <!-- Generator: Sketch 50 (54983) - http://www.bohemiancoding.com/sketch -->
    <title>Group 75</title>
    <desc>Created with Sketch.</desc>
    <defs></defs>
    <g id="Page-1" stroke="none" stroke-width="1" fill="none" fill-rule="evenodd">
        <g id="官网-科研大数据" transform="translate(-893.000000, -865.000000)" fill="#4A90E2">
            <g id="Group-75" transform="translate(890.000000, 861.000000)">
                <path d="M59.5322726,5.49925775 C54.9945524,5.49925775 52.1541631,7.62606886 52.1260495,7.64774044 L52.0497085,7.69915278 L13.9091338,29.9187382 C4.98774696,34.6200858 6.58153746,43.5291766 6.59890848,43.6186295 L6.6121653,43.7606474 L6.59890848,87.3799873 C6.53011012,87.7458679 5.01814624,96.3962831 13.8812488,101.066507 L52.030966,123.350876 C52.058394,123.371395 54.9536391,125.500051 59.4758168,125.500742 C61.835989,125.500742 64.2382173,124.927598 66.6148462,123.795835 L104.317031,101.937981 C104.340345,101.917231 112.504721,96.0031977 112.504721,88.9882945 L112.440266,65.5023055 L112.513407,42.0094 C112.513407,34.9963412 104.361602,29.0827688 104.279546,29.0242095 L66.607075,7.17626849 C64.2846162,6.07309329 61.8851306,5.49925775 59.5322726,5.49925775 M59.4758168,127 C54.67456,126.999308 51.5777197,124.869039 51.1786435,124.579239 L13.1651516,102.379251 C3.80126102,97.4457405 4.97494727,88.1449476 5.12580081,87.1780267 L5.12580081,43.8222039 C4.97494727,42.8543607 3.80263242,33.5535679 13.1934938,28.6055332 L51.2702985,6.42099117 C51.6737174,6.12681112 54.7486154,4 59.5322726,4 C62.1066111,4 64.7184344,4.62155911 67.2952871,5.84853892 L105.079985,27.7621863 C105.500089,28.0586718 114,34.2173174 114,42.0117055 L113.926402,65.5023055 L113.991086,88.985989 C113.991086,96.7824521 105.479061,102.94225 105.116327,103.199773 L67.3023727,125.123795 C64.6729498,126.378671 62.0572408,127 59.4758168,127" id="Fill-47"></path>
                <path d="M9,77.9756438 C9,79.645946 7.65667166,81 5.99988467,81 C4.34332834,81 3,79.645946 3,77.9756438 L3,53.0243562 C3,51.3545191 4.34332834,50 5.99988467,50 C7.65667166,50 9,51.3545191 9,53.0243562 L9,77.9756438 Z" id="Fill-49"></path>
                <path d="M22.4326654,27.6047199 C21.0200303,28.4169843 19.2131925,27.9372562 18.3970841,26.5337409 C17.5807485,25.1293226 18.0632834,23.3329946 19.4759186,22.5214074 L40.5673491,10.3947824 C41.9793031,9.58319527 43.7861408,10.0629234 44.6031576,11.467116 C45.419266,12.8706313 44.936277,14.666282 43.5245501,15.4783207 L22.4326654,27.6047199 Z" id="Fill-51"></path>
                <path d="M77.4325778,120.605141 C76.0199634,121.416734 74.2136062,120.937228 73.3968285,119.533477 C72.580732,118.129275 73.063714,116.333611 74.4756472,115.521341 L95.5667688,103.395308 C96.978702,102.583038 98.7857404,103.062544 99.6027452,104.466972 C100.419523,105.870271 99.9363138,107.666838 98.5246077,108.478205 L77.4325778,120.605141 Z" id="Fill-53"></path>
                <path d="M59.8713761,14.7468798 C55.8334952,14.7468798 53.2866698,16.625333 53.2617304,16.6443954 L20.2077286,35.7350749 C12.2982297,39.8458994 13.8183813,47.4472158 13.8865029,47.7687507 L13.895047,47.8468378 L13.8865029,85.2310196 C13.8183813,85.5527842 12.2982297,93.1541006 20.1931806,97.2561978 L53.2300942,116.329422 C53.2933665,116.373059 55.8533544,118.252431 59.8750708,118.25312 C61.9625948,118.25312 64.0889134,117.751296 66.1932946,116.763954 L98.9992874,97.9991732 C99.0427005,97.9672494 106.249046,92.8148812 106.249046,86.6540415 L106.188083,66.5016077 L106.249046,46.3443508 C106.249046,40.1844298 99.041315,35.0327506 98.9688059,34.9817644 L66.1639676,16.2213473 C64.0861424,15.2477853 61.9595928,14.7468798 59.8713761,14.7468798 M59.8750708,119 C55.5889501,118.999311 52.9266643,117.033814 52.8151296,116.950674 L19.8308659,97.9102917 C11.7456363,93.708978 13.0228591,85.7753324 13.1443235,85.118023 L13.1443235,47.8817473 C13.0228591,47.2246676 11.7470218,39.290333 19.8454139,35.0816699 L52.8467657,16.023833 C52.9199676,15.9652677 55.5841007,14 59.8713761,14 C62.0708966,14 64.305748,14.5250207 66.5117343,15.5605929 L99.3729173,34.3529338 C99.7128327,34.589951 107,39.7953725 107,46.3459585 L106.939037,66.5016077 L107,86.6526635 C107,93.2025605 99.7137563,98.4098193 99.4033988,98.6280037 L66.5401376,117.425397 C64.3080572,118.474979 62.0738986,119 59.8750708,119" id="Fill-55"></path>
                <path d="M82.4307871,75.7362912 C88.6252909,61.989778 82.4834563,45.7649961 68.7376974,39.5685196 C54.9891786,33.3738831 38.7649742,39.5179192 32.5684004,53.2630524 C26.3750465,67.0104857 32.5166511,83.2352675 46.2637899,89.429674 C60.0102388,95.6273005 76.2342132,89.4837244 82.4307871,75.7362912 M29.6927503,51.9665327 C36.6036943,36.6355376 54.7000726,29.7817161 70.0330394,36.692808 C85.3660062,43.6029799 92.217381,61.7004358 85.3075871,77.0339609 C78.3952632,92.3649561 60.2991148,99.2176275 44.966148,92.3076856 C29.6354811,85.3977437 22.7818064,67.3000578 29.6927503,51.9665327" id="Fill-57"></path>
                <path d="M29.6678532,51.9978876 C34.4981491,41.1967597 45.2147756,34.1301341 56.9730424,34 L57.0084568,37.1579969 C46.4661606,37.2777663 36.8549204,43.6119559 32.5245388,53.2962341 C26.372029,67.063037 32.5153996,83.2162453 46.1707359,89.4205312 C59.8272147,95.624817 76.1121275,89.1019906 82.1424005,75.6120393 L85,76.9106161 C78.0823107,92.3841331 60.114871,99.2220452 44.884165,92.3012158 C29.652088,85.3806168 22.8024858,67.3530171 29.6678532,51.9978876" id="Fill-59"></path>
                <path d="M30,51.7162858 C36.8145958,36.796071 54.8779643,29.8484692 70,36.5720136 L68.6993635,39.4239015 C54.3729569,33.0541078 39.3454079,38.8663793 32.8907396,53 L30,51.7162858 Z" id="Fill-61"></path>
                <path d="M54.0924919,52.8580853 C47.6747365,55.2881715 44.4288244,62.4875664 46.8567602,68.9069138 C49.2892965,75.3285615 56.4896041,78.5720503 62.9085097,76.141734 C69.3267252,73.7091174 72.5710271,66.5122529 70.141021,60.0926755 C67.7094048,53.6733282 60.5104774,50.4277691 54.0924919,52.8580853 M63.2806935,77.1249022 C56.318464,79.7606394 48.5106549,76.2401889 45.8759247,69.28026 C43.2388943,62.318721 46.7580786,54.5118045 53.7205381,51.8749171 C60.6806974,49.2401001 68.4882765,52.7580202 71.1253069,59.7193293 C73.760037,66.6799482 70.2406227,74.488935 63.2806935,77.1249022" id="Fill-63"></path>
                <path d="M61.7343277,77.1603989 C55.007392,79.7864894 47.3525495,75.9763666 45,69.5678807 L45.9490209,69.1973407 C48.0406452,74.8929324 55.1716371,78.5999365 61.3749444,76.1803126 C67.5760292,73.7577097 70.5297734,66.5290861 68.1818912,60.1341202 C65.8315643,53.7396127 58.7070177,50.4469168 52.49282,52.8724987 L52.1334367,51.8928706 C59.0401752,49.1973468 66.5850024,52.8298762 69.1293564,59.764726 C71.6774886,66.69843 68.4594854,74.5347666 61.7343277,77.1603989" id="Fill-65"></path>
                <path d="M64.2999142,66.8392311 C65.8647802,63.3650921 64.3139049,59.2657992 60.8372022,57.6997667 C57.3656293,56.1351333 53.265172,57.6883409 51.7005392,61.1620136 C50.13544,64.6340541 51.6860821,68.734746 55.1581213,70.2993795 C58.6320259,71.8654119 62.7327164,70.3133702 64.2999142,66.8392311 M48.882801,59.890953 C51.1483707,54.8638395 57.0813838,52.6176228 62.1087287,54.8822606 C67.1346744,57.1478312 69.383222,63.0822455 67.1174192,68.109359 C64.8516163,73.1381048 58.9162714,75.382456 53.8912584,73.1168855 C48.8641467,70.851315 46.6169982,64.9182997 48.882801,59.890953" id="Fill-67"></path>
                <path d="M49,59.7232065 C51.1714528,54.9311789 57.1388112,52.6156274 62.1636606,54.8662526 C67.1873448,57.1203559 69.371383,63.0678405 67.1069379,68.0669367 C64.8424927,73.064178 59.0450377,75.4330618 53.8246479,73.0929311 L55.0953102,70.2925189 C58.305061,71.7327242 62.6987745,70.3203445 64.2628637,66.8664951 C65.8281183,63.4117182 64.3502626,59.2181723 60.8792476,57.6610996 C57.4063681,56.1049544 53.0835059,58.1916405 51.8163396,60.9862557 L49,59.7232065 Z" id="Fill-69"></path>
                <polygon id="Fill-71" points="57 63.2035773 74.5915391 39 75 39.3237399 57.5426023 63.341091 62.6337192 92.9021089 62.1313593 93"></polygon>
                <polygon id="Fill-73" points="30.1700807 54 58 63.5036533 57.8310623 64 30 54.4952014"></polygon>
            </g>
        </g>
    </g>
</svg>