<?xml version="1.0" encoding="UTF-8"?>
<svg width="69px" height="78px" viewBox="0 0 69 78" version="1.1" xmlns="http://www.w3.org/2000/svg" xmlns:xlink="http://www.w3.org/1999/xlink">
    <!-- Generator: Sketch 50 (54983) - http://www.bohemiancoding.com/sketch -->
    <title>Group 23 Copy</title>
    <desc>Created with Sketch.</desc>
    <defs>
        <polygon id="path-1" points="0 78 68 78 68 0 0 0"></polygon>
    </defs>
    <g id="Page-1" stroke="none" stroke-width="1" fill="none" fill-rule="evenodd">
        <g id="官网-科研大数据" transform="translate(-69.000000, -1441.000000)">
            <g id="Group-23-Copy" transform="translate(69.000000, 1441.000000)">
                <path d="M64,38.5 C64,54.2401471 51.0163775,67 35.0001954,67 C18.9836225,67 6,54.2401471 6,38.5 C6,22.7598529 18.9836225,10 35.0001954,10 C51.0163775,10 64,22.7598529 64,38.5 Z" id="Stroke-1" stroke="#C4C4C4" stroke-width="2" stroke-dasharray="2,4"></path>
                <path d="M44,39.5 C44,58.001571 39.0751994,73 33,73 C26.9248006,73 22,58.001571 22,39.5 C22,20.998429 26.9248006,6 33,6 C39.0751994,6 44,20.998429 44,39.5 Z" id="Stroke-3" stroke="#8C96A9" stroke-width="2" stroke-linecap="round" stroke-linejoin="round"></path>
                <path d="M34.5,28 C53.001571,28 68,32.9248856 68,38.9998101 C68,45.0751144 53.001571,50 34.5,50 C15.998429,50 1,45.0751144 1,38.9998101 C1,32.9248856 15.998429,28 34.5,28 Z" id="Stroke-5" stroke="#8C96A9" stroke-width="2" stroke-linecap="round" stroke-linejoin="round"></path>
                <path d="M41.9035474,45.9037975 C28.8087656,58.9983877 14.6546229,66.0757414 10.2894384,61.7106207 C5.92425385,57.3455 13.0013252,43.1911785 26.0961069,30.0962025 C39.1912746,17.0016123 53.3450314,9.92425863 57.7106018,14.2893793 C62.0757864,18.6545 54.9983291,32.8088215 41.9035474,45.9037975 Z" id="Stroke-7" stroke="#8C96A9" stroke-width="2" stroke-linecap="round" stroke-linejoin="round"></path>
                <path d="M41.9035474,30.0962025 C54.9983291,43.1911785 62.0757864,57.3455 57.7106018,61.7106207 C53.3450314,66.0757414 39.1912746,58.9983877 26.0961069,45.9037975 C13.0013252,32.8088215 5.92425385,18.6545 10.2894384,14.2893793 C14.6546229,9.92425863 28.8087656,17.0016123 41.9035474,30.0962025 Z" id="Stroke-9" stroke="#8C96A9" stroke-width="2" stroke-linecap="round" stroke-linejoin="round"></path>
                <mask id="mask-2" fill="white">
                    <use xlink:href="#path-1"></use>
                </mask>
                <g id="Clip-12"></g>
                <polygon id="Fill-11" fill="#D8D8D8" mask="url(#mask-2)" points="28 35 39 35 39 33 28 33"></polygon>
                <polygon id="Fill-13" fill="#D8D8D8" mask="url(#mask-2)" points="28 45 39 45 39 43 28 43"></polygon>
                <polygon id="Fill-14" fill="#D8D8D8" mask="url(#mask-2)" points="28 40 39 40 39 38 28 38"></polygon>
                <path d="M16.5001726,23 C15.6715387,23 15,22.3287293 15,21.5 C15,20.6712707 15.6715387,20 16.5001726,20 C17.3284613,20 18,20.6712707 18,21.5 C18,22.3287293 17.3284613,23 16.5001726,23 Z" id="Fill-15" fill="#8C96A9" mask="url(#mask-2)"></path>
                <path d="M52,55.4998274 C52,56.3284613 51.3284613,57 50.5001726,57 C49.6711935,57 49,56.3284613 49,55.4998274 C49,54.6711935 49.6711935,54 50.5001726,54 C51.3284613,54 52,54.6711935 52,55.4998274" id="Fill-16" fill="#8C96A9" mask="url(#mask-2)"></path>
                <path d="M52,21.5 C52,22.3287293 51.3284613,23 50.5001726,23 C49.6711935,23 49,22.3287293 49,21.5 C49,20.6712707 49.6711935,20 50.5001726,20 C51.3284613,20 52,20.6712707 52,21.5" id="Fill-17" fill="#C4C4C4" mask="url(#mask-2)"></path>
                <path d="M18,55.4998274 C18,56.3284613 17.3284613,57 16.5001726,57 C15.6715387,57 15,56.3284613 15,55.4998274 C15,54.6711935 15.6715387,54 16.5001726,54 C17.3284613,54 18,54.6711935 18,55.4998274" id="Fill-18" fill="#C4C4C4" mask="url(#mask-2)"></path>
                <path d="M35,76.5 C35,77.3287293 34.3287293,78 33.5,78 C32.6709254,78 32,77.3287293 32,76.5 C32,75.6712707 32.6709254,75 33.5,75 C34.3287293,75 35,75.6712707 35,76.5" id="Fill-19" fill="#C4C4C4" mask="url(#mask-2)"></path>
                <path d="M35,1.49982737 C35,2.32846127 34.3287293,3 33.5,3 C32.6709254,3 32,2.32846127 32,1.49982737 C32,0.671193463 32.6709254,0 33.5,0 C34.3287293,0 35,0.671193463 35,1.49982737" id="Fill-20" fill="#C4C4C4" mask="url(#mask-2)"></path>
                <path d="M12,6.5 C12,8.98554461 9.98563734,11 7.50020715,11 C5.01477696,11 3,8.98554461 3,6.5 C3,4.01486972 5.01477696,2 7.50020715,2 C9.98563734,2 12,4.01486972 12,6.5" id="Fill-21" fill="#E4E5E7" mask="url(#mask-2)"></path>
                <path d="M65,73 C65,74.656401 63.6567226,76 61.9997928,76 C60.3436917,76 59,74.656401 59,73 C59,71.343599 60.3436917,70 61.9997928,70 C63.6567226,70 65,71.343599 65,73 L62,73" id="Fill-22" fill="#E4E5E7" mask="url(#mask-2)"></path>
            </g>
        </g>
    </g>
</svg>