<?xml version="1.0" encoding="UTF-8"?>
<svg width="110px" height="122px" viewBox="0 0 110 122" version="1.1" xmlns="http://www.w3.org/2000/svg" xmlns:xlink="http://www.w3.org/1999/xlink">
    <!-- Generator: Sketch 50 (54983) - http://www.bohemiancoding.com/sketch -->
    <title>Group 61</title>
    <desc>Created with Sketch.</desc>
    <defs></defs>
    <g id="Page-1" stroke="none" stroke-width="1" fill="none" fill-rule="evenodd">
        <g id="官网-科研大数据" transform="translate(-893.000000, -1116.000000)" fill="#4A90E2">
            <g id="Group-61" transform="translate(890.000000, 1112.000000)">
                <path d="M58.5324339,5.48706866 C53.9949367,5.48706866 51.1543153,7.59658863 51.1259731,7.61808401 L51.0498605,7.66907837 L12.9092388,29.7080167 C3.98784093,34.3711421 5.5816334,43.2078012 5.599233,43.2965268 L5.61226128,43.4373901 L5.599233,86.7021012 C5.53020599,87.0650072 4.01846881,95.6450938 12.8815823,100.277348 L51.0308895,122.380544 C51.058546,122.400896 53.9535662,124.512245 58.4757494,124.512931 C60.8361531,124.512931 63.2383844,123.944447 65.6152449,122.821885 L103.317476,101.141737 C103.34079,101.121156 111.504948,95.2552042 111.504948,88.2973328 L111.440264,65.0022867 L111.513634,41.7003805 C111.513634,34.7443384 103.361818,28.8788439 103.279763,28.8207606 L65.607245,7.15044517 C63.2847834,6.05623887 60.8852949,5.48706866 58.5324339,5.48706866 M58.4757494,126 C53.6749439,125.999314 50.5780998,123.886364 50.1787945,123.59892 L12.1652557,101.579419 C2.80135353,96.686019 3.97481266,87.4608423 4.12589495,86.5017825 L4.12589495,43.4984461 C3.97481266,42.5384716 2.80272492,33.313295 12.1935979,28.4054882 L50.270221,6.40130832 C50.673869,6.10951997 53.7489994,4 58.5324339,4 C61.1067756,4 63.7188307,4.61650578 66.2952295,5.83351015 L104.080202,27.5689978 C104.500535,27.8630729 113,33.9716481 113,41.7026672 L112.92663,65.0022867 L112.991314,88.295046 C112.991314,96.0281232 104.479507,102.137842 104.116544,102.393271 L66.3025436,124.139049 C63.6731174,125.383723 61.0574053,126 58.4757494,126" id="Fill-47"></path>
                <path d="M9,77.0732037 C9,78.6896252 7.65662002,80 6,80 C4.34314932,80 3,78.6896252 3,77.0732037 L3,52.9267963 C3,51.3108249 4.34314932,50 6,50 C7.65662002,50 9,51.3108249 9,52.9267963 L9,77.0732037 Z" id="Fill-49"></path>
                <path d="M22.4327263,28.5827599 C21.0200902,29.4401501 19.2132511,28.9337704 18.3971421,27.4522821 C17.580806,25.9698405 18.0631142,24.0737165 19.4757503,23.2170412 L40.5674226,10.4167148 C41.9793775,9.56003945 43.7862165,10.0664192 44.6030068,11.5486224 C45.4193429,13.0301108 44.9363535,14.9255199 43.5243986,15.7826719 L22.4327263,28.5827599 Z" id="Fill-51"></path>
                <path d="M76.4324778,121.583205 C75.0198576,122.439886 73.2137202,121.933741 72.3969391,120.452004 C71.5806122,118.96979 72.0638233,117.074368 73.4755352,116.216971 L94.5669697,103.41727 C95.9789086,102.559873 97.7857273,103.066018 98.6027354,104.54847 C99.4195164,106.029731 98.9363054,107.926106 97.5248206,108.78255 L76.4324778,121.583205 Z" id="Fill-53"></path>
                <path d="M59.3726987,13.7397667 C55.37777,13.7397667 52.8582645,15.6003298 52.8335904,15.6192107 L20.1311948,34.5280742 C12.3058319,38.599748 13.8095846,46.1286709 13.8769816,46.4471436 L13.8856633,46.524487 L13.8769816,83.5526289 C13.8095846,83.8713291 12.3058319,91.400252 20.1165731,95.4632816 L52.8022908,114.354856 C52.86489,114.398078 55.397418,116.259551 59.3763541,116.260233 C61.4416724,116.260233 63.5456011,115.763188 65.6275973,114.78525 L98.0846221,96.1991811 C98.1275734,96.1675613 105.257262,91.0642632 105.257262,84.9620982 L105.196948,65.0015924 L105.257262,45.0363094 C105.257262,38.9350543 98.1259741,33.8324387 98.0542363,33.781938 L65.5983539,15.2001916 C63.5426311,14.2359017 61.4387024,13.7397667 59.3726987,13.7397667 M59.3763541,117 C55.1360547,116.999318 52.5020885,115.052539 52.3917402,114.970191 L19.7581125,96.1111461 C11.7588881,91.9498449 13.0225247,84.0917578 13.1429255,83.4407085 L13.1429255,46.559064 C13.0225247,45.9082422 11.7602589,38.0494726 19.7727342,33.8808921 L52.4230398,15.0045584 C52.4954631,14.9465508 55.1310285,13 59.3726987,13 C61.5490507,13 63.7601292,13.5200205 65.9424213,14.5457301 L98.454049,33.1590964 C98.7905771,33.3938563 106,38.5497023 106,45.0379018 L105.939914,65.0015924 L106,84.9607334 C106,91.4482504 98.7912625,96.6059162 98.4844348,96.8220227 L65.9705224,115.440394 C63.7624139,116.47998 61.5520207,117 59.3763541,117" id="Fill-55"></path>
                <polygon id="Fill-57" points="91 59.8771319 89.5116386 59.8771319 89.5116386 77.2279847 85.7906205 77.2279847 85.7906205 65.1579069 79.0931084 65.1579069 79.0931084 77.2279847 75.3720904 77.2279847 75.3720904 56.1051166 68.6745783 56.1051166 68.6745783 77.2279847 64.9535602 77.2279847 64.9535602 38 58.2558193 38 58.2558193 77.2279847 54.5348012 77.2279847 54.5348012 64.4036431 47.8372891 64.4036431 47.8372891 77.2279847 44.1162711 77.2279847 44.1162711 44.0350389 37.418759 44.0350389 37.418759 77.2279847 27 77.2279847 27 81 91 81"></polygon>
                <polygon id="Fill-59" points="90 77.3206736 87.7876304 77.3206736 87.7876304 74.377303 84.1000454 74.377303 84.1000454 77.3206736 80.4124603 77.3206736 80.4124603 69.9622471 77.462483 69.9622471 77.462483 77.3206736 74.5125057 77.3206736 74.5125057 67.754606 72.2999093 67.754606 72.2999093 77.3206736 67.8751701 77.3206736 67.8751701 74.377303 64.924966 74.377303 64.924966 77.3206736 61.9749887 77.3206736 61.9749887 42 56.8126418 42 56.8126418 77.3206736 54.6000454 77.3206736 54.6000454 72.9056177 51.650068 72.9056177 51.650068 77.3206736 48.7000907 77.3206736 48.7000907 72.9056177 45.0125057 72.9056177 45.0125057 77.3206736 42.0625284 77.3206736 42.0625284 55.9811235 38.3751701 55.9811235 38.3751701 77.3206736 31 77.3206736 31 81 90 81"></polygon>
            </g>
        </g>
    </g>
</svg>