<?xml version="1.0" encoding="UTF-8"?>
<svg width="103px" height="113px" viewBox="0 0 103 113" version="1.1" xmlns="http://www.w3.org/2000/svg" xmlns:xlink="http://www.w3.org/1999/xlink">
    <!-- Generator: Sketch 50 (54983) - http://www.bohemiancoding.com/sketch -->
    <title>Group 259</title>
    <desc>Created with Sketch.</desc>
    <defs></defs>
    <g id="Page-1" stroke="none" stroke-width="1" fill="none" fill-rule="evenodd">
        <g id="官网-科研大数据" transform="translate(-1184.000000, -870.000000)">
            <g id="Group-259" transform="translate(1182.000000, 866.000000)">
                <path d="M8,72.2683234 C8,73.7769835 6.65667166,75 4.99988467,75 C3.34332834,75 2,73.7769835 2,72.2683234 L2,49.7318866 C2,48.2234366 3.34332834,47 4.99988467,47 C6.65667166,47 8,48.2234366 8,49.7318866 L8,72.2683234 Z" id="Fill-47" fill="#4A90E2"></path>
                <path d="M54.5299039,5.37757609 C50.3252274,5.37757609 47.6933071,7.33126027 47.6672569,7.3513817 L47.5965188,7.39840228 L12.2552525,27.8116909 C3.98864627,32.130807 5.46546132,40.3155661 5.48155739,40.3977463 L5.49384124,40.528006 L5.48155739,80.6009829 C5.41780846,80.9373284 4.0168144,88.8842311 12.229414,93.1743301 L47.579152,113.647347 C47.6045669,113.666198 50.2873169,115.622636 54.4775917,115.622636 C56.6645402,115.622636 58.8904582,115.095243 61.0926557,114.05613 L96.0277079,93.9753745 C96.0493105,93.9565239 103.614467,88.5231045 103.614467,82.0787425 L103.554742,60.5020121 L103.622515,38.9193512 C103.622515,32.4768955 96.0690071,27.0434761 95.9929743,26.9890424 L61.0854548,6.91824161 C58.9334517,5.90475735 56.7100752,5.37757609 54.5299039,5.37757609 M54.4775917,117 C50.0287208,117 47.1591715,115.042292 46.7893853,114.775842 L11.5658744,94.38098 C2.88924186,89.8485767 3.976786,81.3039619 4.11656772,80.4154422 L4.11656772,40.5847696 C3.976786,39.6954027 2.89051261,31.1507879 11.5921365,26.6044055 L46.8743133,6.22500567 C47.2481235,5.95389598 50.0973409,4 54.5299039,4 C56.9153002,4 59.33543,4.57166019 61.723156,5.69845983 L96.7346645,25.8302603 C97.1239355,26.1028526 105,31.7607847 105,38.9214693 L104.931803,60.5020121 L104.99174,82.0766245 C104.99174,89.2398507 97.1044507,94.8973592 96.7683392,95.134792 L61.7297215,115.276124 C59.2932837,116.42834 56.8695534,117 54.4775917,117" id="Fill-49" fill="#4A90E2"></path>
                <path d="M21.1043198,26.6266797 C19.7963243,27.3938187 18.1233264,26.9407419 17.3676704,25.6151991 C16.6118042,24.2888034 17.0585958,22.5922707 18.3665913,21.8257713 L37.8956936,10.3728426 C39.2030584,9.60634327 40.8760563,10.0594201 41.6325533,11.3858157 C42.3882093,12.7111453 41.9409972,14.4070385 40.6338427,15.1741774 L21.1043198,26.6266797 Z" id="Fill-51" fill="#4A90E2"></path>
                <path d="M71.1042387,111.627127 C69.7962624,112.393626 68.1237094,111.940549 67.3674338,110.615007 C66.6117889,109.288612 67.0589944,107.59272 68.36634,106.825581 L87.8951563,95.3732971 C89.2025018,94.6061585 90.8756855,95.0592351 91.6321714,96.385417 C92.3884471,97.7109592 91.9410313,99.4074912 90.633896,100.17399 L71.1042387,111.627127 Z" id="Fill-53" fill="#4A90E2"></path>
                <path d="M53.8823228,12.6897685 C50.20119,12.6897685 47.8580171,14.4259654 47.8345663,14.4435756 L17.5943049,32.0798814 C10.3579548,35.876897 11.7487318,42.8989146 11.8110558,43.1959543 L11.8188728,43.2680925 L11.8110558,77.80447 C11.7487318,78.1017219 10.3579548,85.1239517 17.580995,88.9133292 L47.8062564,106.533722 C47.8641438,106.574035 50.2062604,108.310231 53.8857031,108.310231 C55.7955654,108.310231 57.7409208,107.84791 59.6662057,106.93515 L89.6801991,89.5999151 C89.7199175,89.5704233 96.3129566,84.8105749 96.3129566,79.1190827 L96.2571819,60.5016974 L96.3129566,41.8802808 C96.3129566,36.1894251 89.7186499,31.4304253 89.6523118,31.3831112 L59.6393746,14.0521197 C57.7383856,13.1527261 55.792819,12.6897685 53.8823228,12.6897685 M53.8857031,109 C49.9643586,109 47.5286503,107.184451 47.4266079,107.107009 L17.2495156,89.5178049 C9.85239062,85.6365573 11.0209137,78.3073158 11.1320406,77.6994453 L11.1320406,43.3003425 C11.0209137,42.6935329 9.85365823,35.3634427 17.2628254,31.4756178 L47.4555516,13.8696525 C47.5225235,13.8155489 49.9590769,12 53.8823228,12 C55.8954952,12 57.9393014,12.4850233 59.9575442,13.4410667 L90.0220307,30.8023986 C90.3330171,31.0219958 97,35.8302193 97,41.881766 L96.9442253,60.5016974 L97,79.1175975 C97,85.1695685 90.3338622,89.9784285 90.049918,90.1806277 L59.9835301,107.546203 C57.9414141,108.515825 55.8973966,109 53.8857031,109" id="Fill-55" fill="#4A90E2"></path>
                <path d="M45.564552,89 C45.3774896,88.3262507 45.2308617,87.6325804 45.1563773,86.9372326 C45.1104097,86.5105037 45.1084944,86.1055831 45.1887248,85.6834675 C45.2278823,85.4817412 45.2836392,85.2133319 45.1497801,85.0336235 C44.951013,84.7685693 44.3900388,84.759133 44.1010392,84.7520034 C43.7277658,84.741938 43.3561949,84.7580845 42.984624,84.7746504 C42.2323312,84.8092501 41.4811024,84.851189 40.7300865,84.891031 C38.7326268,84.9996529 36.7345286,85.1162432 34.7349408,85.1468586 C33.1929001,85.1699251 31.6274501,85.1915236 30.3258878,84.2359446 C29.4356924,83.5833744 29.0532681,82.5831304 29.1749969,81.5078156 C29.2486301,80.8573425 29.4535687,80.2368556 29.6763836,79.6228694 C29.8021559,79.2754051 30.0764714,78.749281 29.9751726,78.3684753 C29.8438671,77.8689823 29.2194748,77.6613845 28.9858064,77.1964912 C28.8053413,76.8356065 28.7323466,76.4627692 28.8696107,76.0737854 C29.0479477,75.5640174 29.5033669,75.1484024 30.0115635,74.9206739 C30.0115635,75.1798566 30.0115635,74.660233 30.0115635,74.9206739 C29.096469,74.5484657 27.2896895,74.1869519 28.4301526,73.0963294 C28.6763768,72.8606325 28.9932549,72.7314605 29.2607604,72.5276372 C29.412283,72.414402 29.3771689,72.1195712 29.3869583,71.9323137 C29.4182418,71.3510398 29.4825112,70.5267297 29.1177503,70.0255592 C28.964738,69.8156548 28.5952952,69.7451973 28.3682241,69.6319621 C28.084332,69.4899988 27.8032064,69.3415349 27.4971818,69.2536728 C26.6401852,69.0079105 25.6178331,69.2595442 24.8278725,68.8162495 C24.0142896,68.3580664 23.8019026,67.3586612 24.1839013,66.5509169 C25.3960823,63.9861402 26.81533,61.5138389 28.0747554,58.9696123 C28.372906,58.3677883 28.6695668,57.7644964 28.9426055,57.1498811 C29.024964,56.9628333 29.1060456,56.7764147 29.1749969,56.5805598 C29.1979807,56.5174416 29.2194748,56.4534847 29.2356485,56.38806 C29.2777854,56.2224011 29.2656551,56.5579127 29.2926823,56.5967063 C28.2977831,55.1829441 27.5720919,53.2527038 27.9045053,51.5235607 C28.1903127,50.0378733 28.8815282,48.5758814 29.5237969,47.2174787 C30.7021406,44.7233691 32.1460746,42.3420753 33.834956,40.1509747 C38.352969,34.2853926 44.6575444,29.796247 52.1138619,28.4852354 C60.4918712,27.0135975 69.9145778,28.8320705 76.2074485,34.726171 C81.3358082,39.5302782 84.0346985,46.3585689 84.7916732,53.1960862 C85.191761,56.8131113 85.1498369,60.4819309 83.4443562,63.7976246 C81.8669887,66.8646203 79.2817403,69.1857317 76.6477579,71.3650894 C75.5394295,72.2818749 74.3981152,73.1841915 73.4068337,74.2276327 C72.6539025,75.0192304 71.9375751,75.9395808 71.7492358,77.0354456 C71.567281,78.0908394 71.7564715,79.2760342 71.8769234,80.328702 C72.0292973,81.6623607 72.2721166,82.9846959 72.5904843,84.2883683 C72.8281961,85.261352 73.1037885,86.2228025 73.398534,87.1802688 C73.5581435,87.6963276 73.7662743,88.22371 73.8433125,88.7596898 L45.564552,89 Z" id="Fill-57" fill="#4A90E2"></path>
                <path d="M77.8623583,56.1742838 L73.1142949,61.5623148 L76.3799555,71.7140332 L80.8863484,61.543181 L77.8623583,56.1742838 Z M73.0079342,61.5664743 L73,61.5400614 L77.8805854,56 L80.9877771,61.5167681 L81,61.5379816 L76.364516,72 L73.0079342,61.5664743 Z" id="Fill-59" fill="#BDDCFA"></path>
                <path d="M60.1334955,51.9380618 L66.7931345,59.6114971 L63.7570051,48.1952559 L60.1334955,51.9380618 Z M60,51.9348477 L63.8089317,48 L67,60 L60,51.9348477 Z" id="Fill-61" fill="#BDDCFA"></path>
                <path d="M69.1409288,44.2559713 L73.5014202,52.7355739 L77.8221456,40.1946734 L69.1409288,44.2559713 Z M69,44.2096808 L78,40 L73.5202107,53 L69,44.2096808 Z" id="Fill-63" fill="#BDDCFA"></path>
                <path d="M68.3275965,44.3356179 L66.1478329,59.7071651 L72.8733491,52.9898235 L68.3275965,44.3356179 Z M68.2684634,44 L72.9832309,52.9761163 L73,53.0076843 L66,60 L68.2684634,44 Z" id="Fill-65" fill="#BDDCFA"></path>
                <path d="M62.1427557,42.1878784 L63.588338,48.8309321 L68.7855557,45.4212452 L62.1427557,42.1878784 Z M62,42 L69,45.4074206 L63.5234868,49 L62,42 Z" id="Fill-67" fill="#BDDCFA"></path>
                <path d="M80.3066751,51.3278141 L73.1842801,62.8930269 L80.8937903,62.6072081 L80.3066751,51.3278141 Z M80.3913043,51 L81,62.70269 L73.0933037,62.996866 L73,63 L80.3913043,51 Z" id="Fill-69" fill="#BDDCFA"></path>
                <polygon id="Fill-71" fill="#BDDCFA" points="82.4817375 66 85 58.3226443 84.7949729 51.2359182 82.2249726 43.067994 82.2087244 43.0441699 77.8834872 36.6502061 73.6198223 32.5193209 73.5845466 32.5046122 66.6221783 29.5274331 66.6031507 29.523497 59.7002167 28 52.9730202 28.1992935 45.3874466 30.5011122 45.3664949 30.5141636 38.7060017 34.4855311 34 39.1453104 34.2922544 39.4216695 38.9627666 34.7973156 45.5584806 30.8636522 53.0410063 28.5935299 59.6598099 28.3973439 66.4932613 29.9050963 73.3848643 32.8514076 77.5645088 36.9014981 81.8516908 43.2370412 84.3879119 51.3005539 84.5899459 58.2669167 82.0919937 65.8796367"></polygon>
                <path d="M66.3054627,29.2697179 L65.12932,36.8635444 L70.8251951,35.4857903 L66.3054627,29.2697179 Z M66.238796,29 L71,35.5488026 L65,37 L66.238796,29 Z" id="Fill-73" fill="#BDDCFA"></path>
                <path d="M71.3677819,36.1531138 L77.5081784,40.8102048 L77.886803,37.1025018 L71.3677819,36.1531138 Z M71,36 L78,37.0194535 L77.5923172,41 L71,36 Z" id="Fill-75" fill="#BDDCFA"></path>
                <path d="M57.6304023,34.1234336 L55.1788896,39.8414787 L65.6622873,36.6601921 L57.6304023,34.1234336 Z M57.5723379,34 L66,36.6620718 L55,40 L57.5723379,34 Z" id="Fill-77" fill="#BDDCFA"></path>
                <polygon id="Fill-79" fill="#BDDCFA" points="62.2633775 42 66 37.0582592 65.9178037 37 62.2200377 41.890275 55.0211362 40.4121789 55 40.5083169"></polygon>
                <polygon id="Fill-81" fill="#BDDCFA" points="69.9520239 45 72 36.0181324 71.8895214 36 69.9110361 44.6772835 66.1029406 37.1859423 66 37.224652"></polygon>
                <path d="M53.1342055,47.50378 L63.7296057,47.8930438 L55.1550004,40.1869197 L53.1342055,47.50378 Z M53,47.5959206 L55.0990264,40 L64,48 L53,47.5959206 Z" id="Fill-83" fill="#BDDCFA"></path>
                <path d="M43.1719064,36.5675233 L47.7983487,43.720576 L48.8833492,36.1061206 L43.1719064,36.5675233 Z M43,36.4848057 L49,36 L47.8608024,44 L43,36.4848057 Z" id="Fill-85" fill="#BDDCFA"></path>
                <path d="M48.1492488,36.8291223 L54.8087684,40.7691869 L51.6791615,32.2077318 L48.1492488,36.8291223 Z M48.0499595,36.8881079 L48,36.8584014 L51.7106486,32 L55,41 L48.0499595,36.8881079 Z" id="Fill-87" fill="#BDDCFA"></path>
                <polygon id="Fill-89" fill="#BDDCFA" points="46.9637343 45 47 44.9066592 34.1762683 39.912088 38.6692131 35.2341186 39.5012164 28.1534657 44.9210458 30.8609782 44.9659563 30.7714215 39.4177209 28 38.572645 35.1887096 34 39.9507698"></polygon>
                <polygon id="Fill-91" fill="#BDDCFA" points="51.551419 33 53 29.0342772 52.9028812 29 51.485594 32.8797105 45.0246034 31.3065787 45 31.4060038"></polygon>
                <polygon id="Fill-93" fill="#BDDCFA" points="85.0668551 60 87 55.5531209 85.1190149 52 85.0555511 52.0575191 86.9084376 55.5583882 85 59.9506979"></polygon>
                <polygon id="Fill-95" fill="#BDDCFA" points="72.0998934 63 72.6170868 53.5052499 79.3399759 51.2562837 76.7692326 41.2190483 80.9468208 43.8562227 81 43.7709092 76.6101122 41 79.2200621 51.1908836 72.5211558 53.4318844 72 62.9947596"></polygon>
                <polygon id="Fill-97" fill="#BDDCFA" points="80.4249618 62 84 51.5742113 80.1166851 50.7455392 81.5772538 43.0191938 81.478082 43 80 50.8216886 83.8685446 51.6470227 80.329799 61.9676626"></polygon>
                <polygon id="Fill-99" fill="#BDDCFA" points="57.2331092 35 67 29.4664006 66.9524043 29.3750136 57.4066569 34.7832014 59.5582328 28.0085716 57.8688965 25 53 28.3778272 53.0544545 28.464852 57.8362654 25.1474405 59.4491159 28.0203494"></polygon>
                <polygon id="Fill-101" fill="#BDDCFA" points="58 36 53.5717901 29 53.4813584 29.0601077 57.7157859 35.7535586 52.0432894 33.2392087 52 33.3397734"></polygon>
                <polygon id="Fill-103" fill="#BDDCFA" points="42.955689 37 46 30.0366673 45.9031386 30 42.9105604 36.8459971 39.0629599 34.1688735 39 34.2462823"></polygon>
                <polygon id="Fill-105" fill="#BDDCFA" points="54 47 49.251114 36 49.1582751 36.0348294 53.8016912 46.7912202 48.0482088 43.8547253 48 43.9375682"></polygon>
                <polygon id="Fill-107" fill="#BDDCFA" points="75.9168395 73 76 72.9399815 66.2942604 61.1950601 72.4529933 63.1082525 72.4865223 63.0141139 66 61"></polygon>
                <polygon id="Fill-109" fill="#BDDCFA" points="59.9391089 51 60 50.9251685 53.0615677 47 53 47.0737006"></polygon>
                <path d="M76,72.0001163 C76,72.5525061 76.4482678,73 77.000465,73 C77.5526622,73 78,72.5525061 78,72.0001163 C78,71.4474939 77.5526622,71 77.000465,71 C76.4482678,71 76,71.4474939 76,72.0001163" id="Fill-111" fill="#BDDCFA"></path>
                <path d="M76,72.4993809 C76,72.7758976 76.225474,73 76.5,73 C76.7778236,73 77,72.7758976 77,72.4993809 C77,72.2228642 76.7778236,72 76.5,72 C76.225474,72 76,72.2228642 76,72.4993809" id="Fill-113" fill="#BDDCFA"></path>
                <path d="M72,61.9997673 C72,62.5523499 72.4473378,63 72.999535,63 C73.5519647,63 74,62.5523499 74,61.9997673 C74,61.4469521 73.5519647,61 72.999535,61 C72.4473378,61 72,61.4469521 72,61.9997673" id="Fill-115" fill="#BDDCFA"></path>
                <path d="M72,62.499816 C72,62.7758557 72.2226318,63 72.5009215,63 C72.7773682,63 73,62.7758557 73,62.499816 C73,62.2230401 72.7773682,62 72.5009215,62 C72.2226318,62 72,62.2230401 72,62.499816" id="Fill-117" fill="#BDDCFA"></path>
                <path d="M62,47.9996513 C62,48.5517843 62.4470041,49 62.999651,49 C63.5522978,49 64,48.5517843 64,47.9996513 C64,47.4482157 63.5522978,47 62.999651,47 C62.4470041,47 62,47.4482157 62,47.9996513" id="Fill-119" fill="#BDDCFA"></path>
                <path d="M64,47.5 C64,47.7761748 64.2249691,48 64.499794,48 C64.776267,48 65,47.7761748 65,47.5 C65,47.2238252 64.776267,47 64.499794,47 C64.2249691,47 64,47.2238252 64,47.5" id="Fill-121" fill="#BDDCFA"></path>
                <path d="M53,47.0006127 C53,47.5526961 53.4474228,48 53.9997702,48 C54.552424,48 55,47.5526961 55,47.0006127 C55,46.4480699 54.552424,46 53.9997702,46 C53.4474228,46 53,46.4480699 53,47.0006127" id="Fill-123" fill="#BDDCFA"></path>
                <path d="M53,47.5002962 C53,47.7761106 53.2243931,48 53.4999013,48 C53.7758042,48 54,47.7761106 54,47.5002962 C54,47.2238894 53.7758042,47 53.4999013,47 C53.2243931,47 53,47.2238894 53,47.5002962" id="Fill-125" fill="#BDDCFA"></path>
                <path d="M48,35.999186 C48,36.5515758 48.4475459,37 49,37 C49.5524541,37 50,36.5515758 50,35.999186 C50,35.4474939 49.5524541,35 49,35 C48.4475459,35 48,35.4474939 48,35.999186" id="Fill-127" fill="#BDDCFA"></path>
                <path d="M48,36.5 C48,36.7749382 48.2253811,37 48.499794,37 C48.776267,37 49,36.7749382 49,36.5 C49,36.2238252 48.776267,36 48.499794,36 C48.2253811,36 48,36.2238252 48,36.5" id="Fill-129" fill="#BDDCFA"></path>
                <path d="M57,34.9998837 C57,35.5522735 57.4473378,36 58.0002325,36 C58.5526622,36 59,35.5522735 59,34.9998837 C59,34.4481917 58.5526622,34 58.0002325,34 C57.4473378,34 57,34.4481917 57,34.9998837" id="Fill-131" fill="#BDDCFA"></path>
                <polygon id="Fill-133" fill="#BDDCFA" points="81.8717913 67 82 66.967534 80.1273671 62 80 62.0331617"></polygon>
                <path d="M57,34.5012366 C57,34.7761748 57.2249691,35 57.5010301,35 C57.7770911,35 58,34.7761748 58,34.5012366 C58,34.2238252 57.7770911,34 57.5010301,34 C57.2249691,34 57,34.2238252 57,34.5012366" id="Fill-135" fill="#BDDCFA"></path>
                <path d="M62,41.9998837 C62,42.5522735 62.4481917,43 63.0001163,43 C63.5532039,43 64,42.5522735 64,41.9998837 C64,41.4474939 63.5532039,41 63.0001163,41 C62.4481917,41 62,41.4474939 62,41.9998837" id="Fill-137" fill="#BDDCFA"></path>
                <path d="M62,42.5012366 C62,42.7761748 62.2247839,43 62.5006175,43 C62.7764512,43 63,42.7761748 63,42.5012366 C63,42.2238252 62.7764512,42 62.5006175,42 C62.2247839,42 62,42.2238252 62,42.5012366" id="Fill-139" fill="#BDDCFA"></path>
                <path d="M76,56.999535 C76,57.5526622 76.4477265,58 77.0001163,58 C77.5525061,58 78,57.5526622 78,56.999535 C78,56.4480353 77.5525061,56 77.0001163,56 C76.4477265,56 76,56.4480353 76,56.999535" id="Fill-141" fill="#BDDCFA"></path>
                <path d="M78,56.4993825 C78,56.7752161 78.2238252,57 78.4991756,57 C78.7753504,57 79,56.7752161 79,56.4993825 C79,56.2235488 78.7753504,56 78.4991756,56 C78.2238252,56 78,56.2235488 78,56.4993825" id="Fill-143" fill="#BDDCFA"></path>
                <path d="M73,33 C73,33.5523256 73.4475183,34 74.0003487,34 C74.5520167,34 75,33.5523256 75,33 C75,32.4476744 74.5520167,32 74.0003487,32 C73.4475183,32 73,32.4476744 73,33" id="Fill-145" fill="#BDDCFA"></path>
                <path d="M74,32.500206 C74,32.776267 74.2225434,33 74.4991742,33 C74.7758051,33 75,32.776267 75,32.500206 C75,32.224145 74.7758051,32 74.4991742,32 C74.2225434,32 74,32.224145 74,32.500206" id="Fill-147" fill="#BDDCFA"></path>
                <path d="M65,60.4997009 C65,61.3283046 65.671008,62 66.5000997,62 C67.3283939,62 68,61.3283046 68,60.4997009 C68,59.6716954 67.3283939,59 66.5000997,59 C65.671008,59 65,59.6716954 65,60.4997009" id="Fill-149" fill="#BDDCFA"></path>
                <path d="M66,60.9996814 C66,61.5517681 66.4477755,62 66.9998405,62 C67.5522245,62 68,61.5517681 68,60.9996814 C68,60.4472762 67.5522245,60 66.9998405,60 C66.4477755,60 66,60.4472762 66,60.9996814" id="Fill-151" fill="#BDDCFA"></path>
                <path d="M50,31.4999003 C50,32.3284832 50.6718293,33 51.4998006,33 C52.3287689,33 53,32.3284832 53,31.4999003 C53,30.6715168 52.3287689,30 51.4998006,30 C50.6718293,30 50,30.6715168 50,31.4999003" id="Fill-153" fill="#BDDCFA"></path>
                <path d="M51,31.4998115 C51,31.776291 51.2236669,32 51.5000942,32 C51.7761447,32 52,31.776291 52,31.4998115 C52,31.223709 51.7761447,31 51.5000942,31 C51.2236669,31 51,31.223709 51,31.4998115" id="Fill-155" fill="#BDDCFA"></path>
                <path d="M80,61.9999174 C80,62.5519207 80.4480053,63 80.9999174,63 C81.5524903,63 82,62.5519207 82,61.9999174 C82,61.4474184 81.5524903,61 80.9999174,61 C80.4480053,61 80,61.4474184 80,61.9999174" id="Fill-157" fill="#BDDCFA"></path>
                <path d="M80,61.4997072 C80,61.7761077 80.2246533,62 80.5000977,62 C80.7767142,62 81,61.7761077 81,61.4997072 C81,61.2238923 80.7767142,61 80.5000977,61 C80.2246533,61 80,61.2238923 80,61.4997072" id="Fill-159" fill="#BDDCFA"></path>
                <path d="M79,51 C79,51.5528124 79.4474023,52 79.9995706,52 C80.5519536,52 81,51.5528124 81,51 C81,50.4478317 80.5519536,50 79.9995706,50 C79.4474023,50 79,50.4478317 79,51" id="Fill-161" fill="#BDDCFA"></path>
                <path d="M80,50.5001544 C80,50.775548 80.2230817,51 80.4990718,51 C80.7759901,51 81,50.775548 81,50.5001544 C81,50.2235258 80.7759901,50 80.4990718,50 C80.2230817,50 80,50.2235258 80,50.5001544" id="Fill-163" fill="#BDDCFA"></path>
                <path d="M86,55 C86,55.5513096 86.4478317,56 86.9993559,56 C87.5515243,56 88,55.5513096 88,55 C88,54.4478317 87.5515243,54 86.9993559,54 C86.4478317,54 86,54.4478317 86,55" id="Fill-165" fill="#BDDCFA"></path>
                <path d="M76,40.9996779 C76,41.5526683 76.4480464,42 77,42 C77.5521683,42 78,41.5526683 78,40.9996779 C78,40.4473317 77.5521683,40 77,40 C76.4480464,40 76,40.4473317 76,40.9996779" id="Fill-167" fill="#BDDCFA"></path>
                <path d="M77,40.4992384 C77,40.7764661 77.2231939,41 77.4996198,41 C77.7749049,41 78,40.7764661 78,40.4992384 C78,40.2235339 77.7749049,40 77.4996198,40 C77.2231939,40 77,40.2235339 77,40.4992384" id="Fill-169" fill="#BDDCFA"></path>
                <polygon id="Fill-171" fill="#BDDCFA" points="34.0237451 39 43 37.0843582 42.9762549 37 34 38.914913"></polygon>
                <path d="M67,44.5004307 C67,45.3284996 67.6711405,46 68.5001077,46 C69.3284289,46 70,45.3284996 70,44.5004307 C70,43.6715004 69.3284289,43 68.5001077,43 C67.6711405,43 67,43.6715004 67,44.5004307" id="Fill-173" fill="#BDDCFA"></path>
                <path d="M68,44.5 C68,44.7760918 68.223168,45 68.499815,45 C68.7755366,45 69,44.7760918 69,44.5 C69,44.2239082 68.7755366,44 68.499815,44 C68.223168,44 68,44.2239082 68,44.5" id="Fill-175" fill="#BDDCFA"></path>
                <path d="M64,36.4995693 C64,37.3284996 64.6713558,38 65.4998923,38 C66.3273523,38 67,37.3284996 67,36.4995693 C67,35.6715004 66.3273523,35 65.4998923,35 C64.6713558,35 64,35.6715004 64,36.4995693" id="Fill-177" fill="#BDDCFA"></path>
                <path d="M66,36.5 C66,36.7761953 66.2230417,37 66.499237,37 C66.7754323,37 67,36.7761953 67,36.5 C67,36.2238047 66.7754323,36 66.499237,36 C66.2230417,36 66,36.2238047 66,36.5" id="Fill-179" fill="#BDDCFA"></path>
                <path d="M42,37.5002154 C42,38.3284996 42.6715004,39 43.4995693,39 C44.328715,39 45,38.3284996 45,37.5002154 C45,36.6715004 44.328715,36 43.4995693,36 C42.6715004,36 42,36.6715004 42,37.5002154" id="Fill-181" fill="#BDDCFA"></path>
                <path d="M43,37.5 C43,37.7761953 43.2229867,38 43.4997452,38 C43.7765036,38 44,37.7761953 44,37.5 C44,37.2245677 43.7765036,37 43.4997452,37 C43.2229867,37 43,37.2245677 43,37.5" id="Fill-183" fill="#BDDCFA"></path>
                <path d="M46,43.9993559 C46,44.5513096 46.447213,45 46.9996778,45 C47.5523574,45 48,44.5513096 48,43.9993559 C48,43.4478317 47.5523574,43 46.9996778,43 C46.447213,43 46,43.4478317 46,43.9993559" id="Fill-185" fill="#BDDCFA"></path>
                <path d="M47,44.5 C47,44.7766362 47.2221377,45 47.4998098,45 C47.7755801,45 48,44.7766362 48,44.5 C48,44.2241248 47.7755801,44 47.4998098,44 C47.2221377,44 47,44.2241248 47,44.5" id="Fill-187" fill="#BDDCFA"></path>
                <polygon id="Fill-189" fill="#BDDCFA" points="76.2783537 72 82 66.2811331 81.721233 66 76 71.7188669"></polygon>
                <path d="M59,52.9996779 C59,53.5526683 59.4479759,54 59.9996779,54 C60.5520241,54 61,53.5526683 61,52.9996779 C61,52.4473317 60.5520241,52 59.9996779,52 C59.4479759,52 59,52.4473317 59,52.9996779" id="Fill-191" fill="#BDDCFA"></path>
                <path d="M59,52.5 C59,52.7755786 59.2232714,53 59.5001523,53 C59.7758148,53 60,52.7755786 60,52.5 C60,52.2244214 59.7758148,52 59.5001523,52 C59.2232714,52 59,52.2244214 59,52.5" id="Fill-193" fill="#BDDCFA"></path>
                <path d="M83,52 C83,52.5519536 83.4486904,53 84.0006441,53 C84.5528124,53 85,52.5519536 85,52 C85,51.4478317 84.5528124,51 84.0006441,51 C83.4486904,51 83,51.4478317 83,52" id="Fill-195" fill="#BDDCFA"></path>
                <path d="M85,51.5003808 C85,51.7764661 85.2228984,52 85.4998098,52 C85.7748193,52 86,51.7764661 86,51.5003808 C86,51.2235339 85.7748193,51 85.4998098,51 C85.2228984,51 85,51.2235339 85,51.5003808" id="Fill-197" fill="#BDDCFA"></path>
                <path d="M81,66.9995704 C81,67.5519759 81.4478317,68 82,68 C82.5521683,68 83,67.5519759 83,66.9995704 C83,66.4473797 82.5521683,66 82,66 C81.4478317,66 81,66.4473797 81,66.9995704" id="Fill-199" fill="#BDDCFA"></path>
                <path d="M81,66.4996192 C81,66.7768469 81.2226458,67 81.4990469,67 C81.7773542,67 82,66.7768469 82,66.4996192 C82,66.2239147 81.7773542,66 81.4990469,66 C81.2226458,66 81,66.2239147 81,66.4996192" id="Fill-201" fill="#BDDCFA"></path>
                <path d="M84,59 C84,59.5521683 84.4473317,60 84.9994631,60 C85.5520241,60 86,59.5521683 86,59 C86,58.4480464 85.5520241,58 84.9994631,58 C84.4473317,58 84,58.4480464 84,59" id="Fill-203" fill="#BDDCFA"></path>
                <path d="M85,59.4996192 C85,59.7768469 85.2238295,60 85.5001903,60 C85.7776932,60 86,59.7768469 86,59.4996192 C86,59.2239147 85.7776932,59 85.5001903,59 C85.2238295,59 85,59.2239147 85,59.4996192" id="Fill-205" fill="#BDDCFA"></path>
                <path d="M80,43.0003045 C80,43.5523752 80.4476067,44 80.9994673,44 C81.5513279,44 82,43.5523752 82,43.0003045 C82,42.4476248 81.5513279,42 80.9994673,42 C80.4476067,42 80,42.4476248 80,43.0003045" id="Fill-207" fill="#BDDCFA"></path>
                <path d="M82,43.5004049 C82,43.777058 82.2228525,44 82.5008104,44 C82.7771475,44 83,43.777058 83,43.5004049 C83,43.2251012 82.7771475,43 82.5008104,43 C82.2228525,43 82,43.2251012 82,43.5004049" id="Fill-209" fill="#BDDCFA"></path>
                <path d="M76,37 C76,37.5528124 76.4476426,38 77.0001074,38 C77.5530018,38 78,37.5528124 78,37 C78,36.4480464 77.5530018,36 77.0001074,36 C76.4476426,36 76,36.4480464 76,37" id="Fill-211" fill="#BDDCFA"></path>
                <path d="M78,37.5 C78,37.7770167 78.2238295,38 78.499429,38 C78.7776932,38 79,37.7770167 79,37.5 C79,37.2245053 78.7776932,37 78.499429,37 C78.2238295,37 78,37.2245053 78,37.5" id="Fill-213" fill="#BDDCFA"></path>
                <path d="M53,27.9996779 C53,28.5526683 53.4478317,29 54,29 C54.5530271,29 55,28.5526683 55,27.9996779 C55,27.4473317 54.5530271,27 54,27 C53.4478317,27 53,27.4473317 53,27.9996779" id="Fill-215" fill="#BDDCFA"></path>
                <path d="M53,28.5 C53,28.7766362 53.2226458,29 53.4990469,29 C53.7758292,29 54,28.7766362 54,28.5 C54,28.2241248 53.7758292,28 53.4990469,28 C53.2226458,28 53,28.2241248 53,28.5" id="Fill-217" fill="#BDDCFA"></path>
                <path d="M44,29.9993559 C44,30.5521683 44.4478317,31 45,31 C45.5519536,31 46,30.5521683 46,29.9993559 C46,29.4471876 45.5519536,29 45,29 C44.4478317,29 44,29.4471876 44,29.9993559" id="Fill-219" fill="#BDDCFA"></path>
                <path d="M46,30.5003808 C46,30.7764661 46.2232788,31 46.4998098,31 C46.7751997,31 47,30.7764661 47,30.5003808 C47,30.2235339 46.7751997,30 46.4998098,30 C46.2232788,30 46,30.2235339 46,30.5003808" id="Fill-221" fill="#BDDCFA"></path>
                <path d="M38,35 C38,35.5521683 38.4481426,36 39.0002147,36 C39.5525016,36 40,35.5521683 40,35 C40,34.4471876 39.5525016,34 39.0002147,34 C38.4481426,34 38,34.4471876 38,35" id="Fill-223" fill="#BDDCFA"></path>
                <path d="M39,34.4996192 C39,34.7764661 39.2231939,35 39.4996198,35 C39.7764259,35 40,34.7764661 40,34.4996192 C40,34.2235339 39.7764259,34 39.4996198,34 C39.2231939,34 39,34.2235339 39,34.4996192" id="Fill-225" fill="#BDDCFA"></path>
                <path d="M72,53.0001652 C72,53.5520317 72.4481163,54 73,54 C73.5530403,54 74,53.5520317 74,53.0001652 C74,52.4478031 73.5530403,52 73,52 C72.4481163,52 72,52.4478031 72,53.0001652" id="Fill-227" fill="#BDDCFA"></path>
                <path d="M73,53.4998537 C73,53.7758267 73.2242389,54 73.4991218,54 C73.7757611,54 74,53.7758267 74,53.4998537 C74,53.2241733 73.7757611,53 73.4991218,53 C73.2242389,53 73,53.2241733 73,53.4998537" id="Fill-229" fill="#BDDCFA"></path>
                <path d="M70,36 C70,36.5521683 70.4478317,37 71,37 C71.5528124,37 72,36.5521683 72,36 C72,35.4478317 71.5528124,35 71,35 C70.4478317,35 70,35.4478317 70,36" id="Fill-231" fill="#BDDCFA"></path>
                <path d="M71,35.4996192 C71,35.7764661 71.2238295,36 71.499429,36 C71.7761705,36 72,35.7764661 72,35.4996192 C72,35.2235339 71.7761705,35 71.499429,35 C71.2238295,35 71,35.2235339 71,35.4996192" id="Fill-233" fill="#BDDCFA"></path>
                <path d="M57,25.4993541 C57,26.3280465 57.6721464,27 58.5010768,27 C59.328715,27 60,26.3280465 60,25.4993541 C60,24.6713076 59.328715,24 58.5010768,24 C57.6721464,24 57,24.6713076 57,25.4993541" id="Fill-235" fill="#BDDCFA"></path>
                <path d="M57,25.5004072 C57,25.7762622 57.2233089,26 57.5,26 C57.7764874,26 58,25.7762622 58,25.5004072 C58,25.2243485 57.7764874,25 57.5,25 C57.2233089,25 57,25.2243485 57,25.5004072" id="Fill-237" fill="#BDDCFA"></path>
                <path d="M39,28.0000826 C39,28.5525816 39.4474554,29 40,29 C40.5525446,29 41,28.5525816 41,28.0000826 C41,27.4475836 40.5525446,27 40,27 C39.4474554,27 39,27.4475836 39,28.0000826" id="Fill-239" fill="#BDDCFA"></path>
                <path d="M39,27.5000903 C39,27.7763134 39.2240881,28 39.5005417,28 C39.7764536,28 40,27.7763134 40,27.5000903 C40,27.2244087 39.7764536,27 39.5005417,27 C39.2240881,27 39,27.2244087 39,27.5000903" id="Fill-241" fill="#BDDCFA"></path>
                <path d="M34,39 C34,39.5519536 34.4473317,40 34.9994631,40 C35.5520241,40 36,39.5519536 36,39 C36,38.4478317 35.5520241,38 34.9994631,38 C34.4473317,38 34,38.4478317 34,39" id="Fill-243" fill="#BDDCFA"></path>
                <path d="M34,39.5 C34,39.7754947 34.2248003,40 34.4998098,40 C34.7755801,40 35,39.7754947 35,39.5 C35,39.2229833 34.7755801,39 34.4998098,39 C34.2248003,39 34,39.2229833 34,39.5" id="Fill-245" fill="#BDDCFA"></path>
                <path d="M54,40 C54,40.5528124 54.4479759,41 55.0003221,41 C55.5526683,41 56,40.5528124 56,40 C56,39.4478317 55.5526683,39 55.0003221,39 C54.4479759,39 54,39.4478317 54,40" id="Fill-247" fill="#BDDCFA"></path>
                <path d="M55,40.4996192 C55,40.7753237 55.2244199,41 55.4998098,41 C55.7751997,41 56,40.7753237 56,40.4996192 C56,40.2223915 55.7751997,40 55.4998098,40 C55.2244199,40 55,40.2223915 55,40.4996192" id="Fill-249" fill="#BDDCFA"></path>
                <path d="M58,28.0003221 C58,28.5524536 58.4474023,29 58.9995706,29 C59.5521683,29 60,28.5524536 60,28.0003221 C60,27.4479759 59.5521683,27 58.9995706,27 C58.4474023,27 58,27.4479759 58,28.0003221" id="Fill-251" fill="#BDDCFA"></path>
                <path d="M60,27.5 C60,27.7770167 60.2221377,28 60.4998098,28 C60.7755801,28 61,27.7770167 61,27.5 C61,27.2233638 60.7755801,27 60.4998098,27 C60.2221377,27 60,27.2233638 60,27.5" id="Fill-253" fill="#BDDCFA"></path>
                <path d="M65,30.4994555 C65,31.3279129 65.6714825,32 66.5002178,32 C67.3278641,32 68,31.3279129 68,30.4994555 C68,29.6716515 67.3278641,29 66.5002178,29 C65.6714825,29 65,29.6716515 65,30.4994555" id="Fill-255" fill="#BDDCFA"></path>
                <path d="M66,29.5 C66,29.7761194 66.2232235,30 66.4994851,30 C66.7760041,30 67,29.7761194 67,29.5 C67,29.2238806 66.7760041,29 66.4994851,29 C66.2232235,29 66,29.2238806 66,29.5" id="Fill-257" fill="#BDDCFA"></path>
            </g>
        </g>
    </g>
</svg>