<svg id="图层_1" data-name="图层 1" xmlns="http://www.w3.org/2000/svg" xmlns:xlink="http://www.w3.org/1999/xlink" viewBox="0 0 625.72 487.59"><defs><style>.cls-1{opacity:0.5;}.cls-2{opacity:0.3;}.cls-3{fill:#c9cfe5;}.cls-4{fill:url(#未命名的渐变);}.cls-5{fill:#fff;}.cls-6{fill:url(#未命名的渐变_2);}.cls-7{fill:url(#未命名的渐变_3);}.cls-8{fill:url(#未命名的渐变_4);}.cls-9{fill:url(#未命名的渐变_5);}.cls-10{fill:url(#未命名的渐变_6);}.cls-11{fill:url(#未命名的渐变_7);}.cls-12{fill:url(#未命名的渐变_8);}.cls-13{fill:url(#未命名的渐变_9);}.cls-14{fill:url(#未命名的渐变_10);}.cls-15{fill:url(#未命名的渐变_11);}.cls-16{fill:url(#未命名的渐变_12);}.cls-17{fill:url(#未命名的渐变_13);}.cls-18{fill:url(#未命名的渐变_14);}.cls-19{fill:url(#未命名的渐变_15);}.cls-20{fill:#db3829;}.cls-21{fill:#ff6161;}.cls-22{fill:#52e574;}.cls-23{fill:url(#未命名的渐变_16);}.cls-24{fill:url(#未命名的渐变_17);}.cls-25{fill:#eaeff5;}.cls-26{fill:#dbdbdb;}.cls-27{fill:#3b3778;}.cls-28{fill:#6b6099;}.cls-29{fill:#cfc7ff;}.cls-30{fill:url(#未命名的渐变_18);}.cls-31{fill:url(#未命名的渐变_19);}.cls-32{fill:#d3d3d3;}.cls-33{fill:url(#未命名的渐变_20);}.cls-34{fill:url(#未命名的渐变_21);}.cls-35{fill:#efefef;}.cls-36{fill:#abb0b8;}.cls-37{fill:#c7d0db;}.cls-38{fill:#1fd450;}.cls-39{fill:#46566d;}.cls-40{fill:#f2f3f7;}.cls-41{fill:#c2d6ec;}.cls-42{fill:#3d4754;}.cls-43{fill:url(#未命名的渐变_18-2);}.cls-44{fill:#fab9fc;}.cls-45{fill:#ff4130;}.cls-46{fill:#4792ff;}.cls-47{fill:#7ab0ff;}.cls-48{fill:#2ec952;}.cls-49{fill:#fbbc05;}.cls-50{fill:#f9d466;}</style><linearGradient id="未命名的渐变" x1="-93.21" y1="548.29" x2="-92.21" y2="548.29" gradientTransform="matrix(53.19, 0, 0, -257.11, 5051.87, 141124.02)" gradientUnits="userSpaceOnUse"><stop offset="0" stop-color="#eaeff5"/><stop offset="0.99" stop-color="#dee1f0"/></linearGradient><linearGradient id="未命名的渐变_2" x1="-93.21" y1="548.29" x2="-92.21" y2="548.29" gradientTransform="matrix(53.18, 0, 0, -257.11, 4957.65, 141272.46)" gradientUnits="userSpaceOnUse"><stop offset="0" stop-color="#eaeff5"/></linearGradient><linearGradient id="未命名的渐变_3" x1="-93.21" y1="548.29" x2="-92.21" y2="548.29" gradientTransform="matrix(53.21, 0, 0, -257.11, 5145.75, 141128.52)" xlink:href="#未命名的渐变_2"/><linearGradient id="未命名的渐变_4" x1="-93.21" y1="548.29" x2="-92.21" y2="548.29" gradientTransform="matrix(53.19, 0, 0, -257.11, 5241.25, 141162.49)" xlink:href="#未命名的渐变_2"/><linearGradient id="未命名的渐变_5" x1="-93.21" y1="548.23" x2="-92.21" y2="548.23" gradientTransform="matrix(53.21, 0, 0, -206.81, 5312.41, 113521.26)" xlink:href="#未命名的渐变_2"/><linearGradient id="未命名的渐变_6" x1="-93.89" y1="548.08" x2="-92.89" y2="548.08" gradientTransform="matrix(85.78, 0, 0, -130.93, 8470.62, 71873.14)" xlink:href="#未命名的渐变_2"/><linearGradient id="未命名的渐变_7" x1="-90.1" y1="543.39" x2="-89.23" y2="543.89" gradientTransform="matrix(19.9, 0, 0, -11.24, 2245.94, 6158.6)" gradientUnits="userSpaceOnUse"><stop offset="0" stop-color="#dee1f0"/><stop offset="0" stop-color="#dfe2f0"/></linearGradient><linearGradient id="未命名的渐变_8" x1="-94.12" y1="548.25" x2="-93.12" y2="548.25" gradientTransform="matrix(108.33, 0, 0, -218.43, 10424.72, 119958.42)" xlink:href="#未命名的渐变_2"/><linearGradient id="未命名的渐变_9" x1="-91.09" y1="544.41" x2="-90.23" y2="544.91" gradientTransform="matrix(25.11, 0, 0, -14.19, 2561.03, 7824)" gradientUnits="userSpaceOnUse"><stop offset="0" stop-color="#dee1f0"/></linearGradient><linearGradient id="未命名的渐变_10" x1="-93.22" y1="547.92" x2="-92.22" y2="547.92" gradientTransform="matrix(53.22, 0, 0, -95.21, 5368.07, 52379.18)" xlink:href="#未命名的渐变_2"/><linearGradient id="未命名的渐变_11" x1="-86.63" y1="540.84" x2="-85.76" y2="541.34" gradientTransform="matrix(11.52, 0, 0, -7.39, 1428.25, 4160.13)" xlink:href="#未命名的渐变_7"/><linearGradient id="未命名的渐变_12" x1="-93.89" y1="548.24" x2="-92.89" y2="548.24" gradientTransform="matrix(85.82, 0, 0, -215.65, 8187.08, 118457.1)" xlink:href="#未命名的渐变_2"/><linearGradient id="未命名的渐变_13" x1="-90.1" y1="543.4" x2="-89.23" y2="543.9" gradientTransform="matrix(19.89, 0, 0, -11.27, 1958.21, 6242.59)" xlink:href="#未命名的渐变_7"/><linearGradient id="未命名的渐变_14" x1="-93.21" y1="548.21" x2="-92.21" y2="548.21" gradientTransform="matrix(53.2, 0, 0, -192.72, 5017.75, 105978.23)" xlink:href="#未命名的渐变_2"/><linearGradient id="未命名的渐变_15" x1="-90.1" y1="543.39" x2="-89.24" y2="543.89" gradientTransform="matrix(19.9, 0, 0, -11.24, 1871.53, 6342.39)" xlink:href="#未命名的渐变_7"/><linearGradient id="未命名的渐变_16" x1="-89.11" y1="551.52" x2="-88.11" y2="551.52" gradientTransform="matrix(30.52, 0, 0, -18.7, 2897.39, 10404)" xlink:href="#未命名的渐变_2"/><linearGradient id="未命名的渐变_17" x1="-94.14" y1="548.09" x2="-93.14" y2="548.09" gradientTransform="matrix(110.13, 0, 0, -133.47, 10367.35, 73562.89)" xlink:href="#未命名的渐变_2"/><linearGradient id="未命名的渐变_18" x1="-89.39" y1="549.58" x2="-88.03" y2="550.78" gradientTransform="matrix(28.22, 0, 0, -34.13, 2935.57, 18917.21)" gradientUnits="userSpaceOnUse"><stop offset="0.02" stop-color="#ffa230"/><stop offset="1" stop-color="#f65d1b"/></linearGradient><linearGradient id="未命名的渐变_19" x1="-88.47" y1="550.49" x2="-87.57" y2="550.06" gradientTransform="matrix(25.57, 0, 0, -32.69, 2686.9, 18124.1)" gradientUnits="userSpaceOnUse"><stop offset="0" stop-color="#f65d1b"/><stop offset="0" stop-color="#f7621c"/></linearGradient><linearGradient id="未命名的渐变_20" x1="-93.9" y1="548.18" x2="-93.55" y2="548.01" gradientTransform="matrix(185.73, 0, 0, -101.86, 17969.47, 56155.89)" gradientUnits="userSpaceOnUse"><stop offset="0" stop-color="#ff82a3"/><stop offset="1" stop-color="#f73e69"/></linearGradient><linearGradient id="未命名的渐变_21" x1="-94.38" y1="548.17" x2="-93.38" y2="548.17" gradientTransform="matrix(185.73, 0, 0, -101.81, 17969.55, 56121.4)" gradientUnits="userSpaceOnUse"><stop offset="0" stop-color="#f73e69"/></linearGradient><linearGradient id="未命名的渐变_18-2" x1="244.53" y1="280.53" x2="324.82" y2="280.53" gradientTransform="matrix(1, 0, 0, 1, 0, 0)" xlink:href="#未命名的渐变_18"/></defs><title>head</title><g id="pillar" class="cls-1"><g id="Group" class="cls-2"><path id="Shape" class="cls-3" d="M117.64,292.07l-22.47-13c-1.7-1-1.49-2.69.47-3.82L117,262.91a7.32,7.32,0,0,1,6.6-.28l22.48,13c1.69,1,1.47,2.7-.48,3.83l-21.33,12.34A7.37,7.37,0,0,1,117.64,292.07Z" transform="translate(0 -4.83)"/></g><path id="Shape-2" data-name="Shape" class="cls-4" d="M147.2,266.65a.74.74,0,0,0,0-.21V24.87H94V266.69a2,2,0,0,0,1.15,1.65l22.47,13a7.39,7.39,0,0,0,6.59-.27l21.35-12.34a2.89,2.89,0,0,0,1.61-2Z" transform="translate(0 -4.83)"/><path id="Shape-3" data-name="Shape" class="cls-5" d="M117.64,39.66l-22.47-13c-1.7-1-1.49-2.69.47-3.82L117,10.51a7.29,7.29,0,0,1,6.6-.27l22.48,13c1.69,1,1.47,2.69-.48,3.82L124.25,39.39A7.34,7.34,0,0,1,117.64,39.66Z" transform="translate(0 -4.83)"/></g><g id="pillar-2" class="cls-1"><g id="Group-2" data-name="Group" class="cls-2"><path id="Shape-4" data-name="Shape" class="cls-3" d="M23.77,440.45l-22.48-13c-1.65-1-1.47-2.69.48-3.82L23.12,411.3a7.33,7.33,0,0,1,6.59-.28l22.5,13c1.7,1,1.48,2.68-.47,3.82L30.39,440.18A7.36,7.36,0,0,1,23.77,440.45Z" transform="translate(0 -4.83)"/></g><path id="Shape-5" data-name="Shape" class="cls-6" d="M53.34,415V173.26H.16V415.08a2,2,0,0,0,1.13,1.65l22.48,13a7.44,7.44,0,0,0,6.6-.27l21.34-12.34a2.89,2.89,0,0,0,1.61-2Z" transform="translate(0 -4.83)"/><path id="Shape-6" data-name="Shape" class="cls-5" d="M23.77,188.05l-22.48-13c-1.65-1-1.47-2.69.48-3.82L23.12,158.9c1.95-1.13,4.95-1.26,6.59-.27l22.5,13c1.7,1,1.48,2.69-.47,3.82L30.39,187.78A7.36,7.36,0,0,1,23.77,188.05Z" transform="translate(0 -4.83)"/></g><g id="pillar-3" class="cls-1"><g id="Group-3" data-name="Group" class="cls-2"><path id="Shape-7" data-name="Shape" class="cls-3" d="M209.74,296.57l-22.48-13c-1.65-1-1.48-2.69.48-3.82l21.35-12.33a7.31,7.31,0,0,1,6.59-.29l22.49,13c1.65,1,1.47,2.69-.48,3.82l-21.35,12.33A7.35,7.35,0,0,1,209.74,296.57Z" transform="translate(0 -4.83)"/></g><path id="Shape-8" data-name="Shape" class="cls-7" d="M239.31,271.15V29.37H186.12V271.19a2,2,0,0,0,1.14,1.65l22.48,13c1.65,1,4.65.83,6.6-.27l21.34-12.34a2.84,2.84,0,0,0,1.65-2Z" transform="translate(0 -4.83)"/><path id="Shape-9" data-name="Shape" class="cls-5" d="M209.74,44.16l-22.48-13c-1.65-1-1.48-2.69.48-3.82L209.09,15a7.3,7.3,0,0,1,6.59-.27l22.48,13c1.65,1,1.48,2.69-.48,3.83l-21.34,12.3A7.29,7.29,0,0,1,209.74,44.16Z" transform="translate(0 -4.83)"/></g><g id="pillar-4" class="cls-1"><g id="Group-4" data-name="Group" class="cls-2"><path id="Shape-10" data-name="Shape" class="cls-3" d="M307,332.28l-22.47-13c-1.7-1-1.49-2.7.47-3.83l21.34-12.34a7.32,7.32,0,0,1,6.6-.27l22.47,13c1.7,1,1.48,2.69-.47,3.83L313.66,332A7.4,7.4,0,0,1,307,332.28Z" transform="translate(0 -4.83)"/></g><path id="Shape-11" data-name="Shape" class="cls-8" d="M336.57,306.87a.74.74,0,0,0,0-.21V65.08H283.39V306.9a2,2,0,0,0,1.15,1.65l22.47,13c1.65,1,4.65.83,6.6-.27L335,308.92a2.82,2.82,0,0,0,1.61-2Z" transform="translate(0 -4.83)"/><path id="Shape-12" data-name="Shape" class="cls-5" d="M307,79.88l-22.47-13c-1.7-1-1.49-2.69.47-3.82l21.34-12.34a7.32,7.32,0,0,1,6.6-.28l22.47,13c1.7,1,1.48,2.68-.47,3.81L313.6,79.65A7.45,7.45,0,0,1,307,79.88Z" transform="translate(0 -4.83)"/></g><g id="pillar-5" class="cls-1"><g id="Group-5" data-name="Group" class="cls-2"><path id="Shape-13" data-name="Shape" class="cls-3" d="M376.4,252.89l-22.48-13c-1.69-1-1.47-2.69.48-3.83l21.35-12.33a7.29,7.29,0,0,1,6.6-.28l22.47,13c1.7,1,1.49,2.7-.47,3.83L383,252.62A7.5,7.5,0,0,1,376.4,252.89Z" transform="translate(0 -4.83)"/></g><path id="Shape-14" data-name="Shape" class="cls-9" d="M406,227.47V36H352.79V227.5a2,2,0,0,0,1.13,1.65l22.48,13a7.38,7.38,0,0,0,6.6-.28l21.38-12.34a2.85,2.85,0,0,0,1.61-2Z" transform="translate(0 -4.83)"/><path id="Shape-15" data-name="Shape" class="cls-5" d="M376.4,50.79l-22.48-13c-1.69-1-1.47-2.7.48-3.83l21.35-12.32a7.35,7.35,0,0,1,6.6-.28l22.47,13c1.7,1,1.49,2.68-.47,3.81L383,50.56A7.52,7.52,0,0,1,376.4,50.79Z" transform="translate(0 -4.83)"/></g><g id="Group-6" data-name="Group" class="cls-2"><path id="Shape-16" data-name="Shape" class="cls-3" d="M455,195.34l-36.29-21c-2.73-1.57-2.39-4.33.76-6.16l34.44-19.9c3.16-1.83,7.93-2,10.66-.45l36.25,21c2.74,1.58,2.39,4.34-.76,6.16L465.6,194.9C462.47,196.73,457.7,196.92,455,195.34Z" transform="translate(0 -4.83)"/></g><path id="Shape-17" data-name="Shape" class="cls-10" d="M502.66,154.35V48.17H416.89V154.41a3.16,3.16,0,0,0,1.84,2.66L455,178c2.73,1.58,7.5,1.38,10.66-.44l34.38-19.91a4.61,4.61,0,0,0,2.59-3.21Z" transform="translate(0 -4.83)"/><path id="Shape-18" data-name="Shape" class="cls-5" d="M455,72l-36.29-21c-2.73-1.58-2.39-4.35.76-6.16L453.88,25c3.16-1.83,7.93-2,10.66-.44l36.28,21c2.74,1.58,2.4,4.34-.75,6.17l-34.44,19.9C462.47,73.41,457.7,73.61,455,72Z" transform="translate(0 -4.83)"/><g id="Group-7" data-name="Group" class="cls-1"><path id="Shape-19" data-name="Shape" class="cls-11" d="M455.67,52.69l14.19-8.2c1.05-.62,1-1.55-.14-2.1l-.13-.07a4.69,4.69,0,0,0-3.93.09l-14.2,8.21c-1,.6-1,1.55.14,2.1l.13.06A4.64,4.64,0,0,0,455.67,52.69Z" transform="translate(0 -4.83)"/></g><g id="g_pillar" data-name="g pillar"><g id="Group-8" data-name="Group" class="cls-2"><path id="Shape-20" data-name="Shape" class="cls-3" d="M276.09,336.87l-45.77-26.43c-3.46-2-3-5.48,1-7.79l43.47-25.13c4-2.3,10-2.55,13.47-.56L334,303.43c3.46,2,3,5.47-1,7.78L289.55,336.3C285.57,338.61,279.54,338.87,276.09,336.87Z" transform="translate(0 -4.83)"/></g><path id="Shape-21" data-name="Shape" class="cls-12" d="M336.31,285.1a2.94,2.94,0,0,0,0-.42V97.9H228V285.18a4,4,0,0,0,2.33,3.37L276.09,315c3.45,2,9.48,1.75,13.46-.56L333,289.28c2-1.16,3.12-2.62,3.3-4Z" transform="translate(0 -4.83)"/><path id="Shape-22" data-name="Shape" class="cls-5" d="M276.09,128,230.32,101.6c-3.46-2-3-5.47,1-7.78l43.47-25.14c4-2.3,10-2.55,13.47-.55L334,94.56c3.46,2,3,5.47-1,7.78l-43.47,25.13C285.57,129.78,279.54,130,276.09,128Z" transform="translate(0 -4.83)"/><g id="Group-9" data-name="Group" class="cls-1"><path id="Shape-23" data-name="Shape" class="cls-13" d="M277,103.61,294.9,93.24c1.32-.77,1.24-1.95-.18-2.65l-.17-.08a5.91,5.91,0,0,0-4.95.12L271.68,101c-1.33.76-1.25,2,.17,2.64l.17.08A5.91,5.91,0,0,0,277,103.61Z" transform="translate(0 -4.83)"/></g></g><g id="Group-10" data-name="Group" class="cls-2"><path id="Shape-24" data-name="Shape" class="cls-3" d="M430.56,268l-22.47-13c-1.65-1-1.48-2.69.48-3.83L430,238.85a7.29,7.29,0,0,1,6.6-.27l22.48,13c1.69,1,1.48,2.69-.48,3.82l-21.37,12.36A7.39,7.39,0,0,1,430.56,268Z" transform="translate(0 -4.83)"/></g><path id="Shape-25" data-name="Shape" class="cls-14" d="M460.13,242.6V162.71H407v79.92a2,2,0,0,0,1.14,1.65l22.47,13a7.38,7.38,0,0,0,6.6-.27l21.36-12.37a2.84,2.84,0,0,0,1.65-2Z" transform="translate(0 -4.83)"/><path id="Shape-26" data-name="Shape" class="cls-5" d="M430.56,177.51l-22.47-13c-1.65-1-1.48-2.68.48-3.81L430,148.36a7.32,7.32,0,0,1,6.6-.28l22.48,13c1.69,1,1.48,2.69-.48,3.82l-21.34,12.34A7.43,7.43,0,0,1,430.56,177.51Z" transform="translate(0 -4.83)"/><g id="Group-11" data-name="Group" class="cls-1"><path id="Shape-27" data-name="Shape" class="cls-15" d="M432.32,165l7.72-4.46c.57-.33.34-1.17-.51-1.89l-.1-.09a2.65,2.65,0,0,0-2.57-.69l-7.72,4.46c-.57.33-.33,1.17.52,1.89l.09.08A2.67,2.67,0,0,0,432.32,165Z" transform="translate(0 -4.83)"/></g><g id="Group-12" data-name="Group" class="cls-2"><path id="Shape-28" data-name="Shape" class="cls-3" d="M167.52,350.58l-36.29-21c-2.73-1.58-2.39-4.34.77-6.16l34.43-19.91c3.15-1.83,7.93-2,10.66-.44l36.25,20.95c2.74,1.59,2.39,4.34-.77,6.17l-34.43,19.9C175,352,170.25,352.15,167.52,350.58Z" transform="translate(0 -4.83)"/></g><path id="Shape-29" data-name="Shape" class="cls-16" d="M215.21,309.57V118.68H129.43v191a3.19,3.19,0,0,0,1.84,2.67l36.29,21c2.73,1.57,7.5,1.38,10.65-.45l34.44-19.9a4.66,4.66,0,0,0,2.6-3.21Z" transform="translate(0 -4.83)"/><path id="Shape-30" data-name="Shape" class="cls-5" d="M167.52,142.55l-36.29-21c-2.73-1.58-2.39-4.34.77-6.16l34.43-19.92c3.15-1.82,7.93-2,10.66-.43l36.25,21c2.74,1.58,2.39,4.34-.77,6.17l-34.43,19.9C175,143.93,170.25,144.12,167.52,142.55Z" transform="translate(0 -4.83)"/><g id="Group-13" data-name="Group" class="cls-1"><path id="Shape-31" data-name="Shape" class="cls-17" d="M168.22,123.23,182.41,115c1.05-.61,1-1.54-.14-2.1l-.13-.06a4.66,4.66,0,0,0-3.93.09L164,121.11c-1,.61-1,1.54.14,2.09l.13.07A4.68,4.68,0,0,0,168.22,123.23Z" transform="translate(0 -4.83)"/></g><g id="Group-14" data-name="Group" class="cls-2"><path id="Shape-32" data-name="Shape" class="cls-3" d="M82,435.11l-22.48-13c-1.7-1-1.48-2.69.47-3.82L81.35,406a7.27,7.27,0,0,1,6.59-.27l22.48,13c1.65,1,1.48,2.69-.48,3.82L88.6,434.84A7.3,7.3,0,0,1,82,435.11Z" transform="translate(0 -4.83)"/></g><path id="Shape-33" data-name="Shape" class="cls-18" d="M111.59,409.69a.67.67,0,0,0,0-.2V232.32H58.39V409.73a1.94,1.94,0,0,0,1.14,1.65l22.48,13a7.36,7.36,0,0,0,6.59-.28l21.34-12.34a2.84,2.84,0,0,0,1.65-2Z" transform="translate(0 -4.83)"/><path id="Shape-34" data-name="Shape" class="cls-5" d="M82,247.11l-22.48-13c-1.7-1-1.48-2.69.47-3.82L81.35,218a7.33,7.33,0,0,1,6.59-.27l22.5,13c1.64,1,1.47,2.69-.48,3.83L88.61,246.83A7.41,7.41,0,0,1,82,247.11Z" transform="translate(0 -4.83)"/><g id="Group-15" data-name="Group" class="cls-1"><path id="Shape-35" data-name="Shape" class="cls-19" d="M81.07,236.14l14.21-8.2c1-.61,1-1.54-.14-2.1l-.14-.06a4.66,4.66,0,0,0-3.93.09l-14.2,8.21c-1.05.6-1,1.54.14,2.09l.13.07A4.66,4.66,0,0,0,81.07,236.14Z" transform="translate(0 -4.83)"/></g><g id="Group-16" data-name="Group"><path id="Shape-36" data-name="Shape" class="cls-20" d="M188.75,61.39l-3.39-1.83c-2.89-1.52-6.82-1.21-11.14,1.29-8.89,5.14-16.1,17.58-16.1,27.8,0,5.18,1.86,8.78,4.84,10.41l3.24,1.79.08,0,.29.16c2.88,1.45,6.75,1.11,11-1.35,8.88-5.14,16.09-17.58,16.09-27.8C193.69,66.63,191.79,63,188.75,61.39Z" transform="translate(0 -4.83)"/><path id="Shape-37" data-name="Shape" class="cls-5" d="M166.25,100.59c-6.19-3.61-6.12-15.26.14-26s16.36-16.49,22.54-12.87,6.12,15.26-.14,26S172.43,104.21,166.25,100.59Z" transform="translate(0 -4.83)"/><path id="Shape-38" data-name="Shape" class="cls-21" d="M177.59,84.89c-1.78,1-3.24.21-3.24-1.85a7.15,7.15,0,0,1,3.24-5.59c1.79-1,3.24-.21,3.24,1.85A7.15,7.15,0,0,1,177.59,84.89Z" transform="translate(0 -4.83)"/><path id="Shape-39" data-name="Shape" class="cls-21" d="M177.6,62.76c-8.86,5.12-16,17.51-16,27.67s7.17,14.26,16,9.15,16-17.51,16-27.67S186.45,57.64,177.6,62.76Zm0,33.5c-7.26,4.2-13.14.83-13.14-7.5s5.88-18.49,13.14-22.68,13.09-.84,13.09,7.52S184.84,92.07,177.6,96.26Z" transform="translate(0 -4.83)"/><path id="Shape-40" data-name="Shape" class="cls-21" d="M177.59,70.16C172.3,73.23,168,80.63,168,86.68s4.28,8.52,9.57,5.47,9.57-10.46,9.57-16.52S182.88,67.11,177.59,70.16Zm0,19c-3.86,2.23-7,.45-7-4a15.43,15.43,0,0,1,7-12.07c3.86-2.23,7-.45,7,4a15.5,15.5,0,0,1-7,12.11Z" transform="translate(0 -4.83)"/><polygon id="Shape-41" data-name="Shape" class="cls-22" points="208.19 89.94 205.36 92.14 208.19 97.62 199.75 92.74 196.9 87.2 199.75 85.05 208.19 89.94"/><path id="Shape-42" data-name="Shape" class="cls-23" d="M207.91,97.55v1.8L177.83,82.21a.89.89,0,0,1-.44-.77v-.12a.68.68,0,0,1,.33-.58.67.67,0,0,1,.67,0Z" transform="translate(0 -4.83)"/></g><g id="Group-17" data-name="Group" class="cls-2"><path id="Shape-43" data-name="Shape" class="cls-3" d="M48.91,491.05,2.37,464.15c-3.51-2-3.07-5.57,1-7.91l44.2-25.56c4.05-2.34,10.18-2.59,13.69-.57L107.78,457c3.5,2,3.07,5.57-1,7.91L62.6,490.48C58.55,492.83,52.42,493.08,48.91,491.05Z" transform="translate(0 -4.83)"/></g><path id="Shape-44" data-name="Shape" class="cls-24" d="M110.14,442.55a3.08,3.08,0,0,0,0-.43V340.86H0V442.63c0,1.29.78,2.48,2.37,3.43L48.91,473c3.5,2,9.63,1.78,13.68-.57l44.21-25.55c2-1.18,3.17-2.68,3.3-4.13Z" transform="translate(0 -4.83)"/><path id="Shape-45" data-name="Shape" class="cls-5" d="M48.91,371.49,2.38,344.56c-3.51-2-3.07-5.58,1-7.91l44.2-25.56c4-2.34,10.18-2.6,13.69-.57l46.54,26.9c3.5,2,3.07,5.58-1,7.91L62.6,370.89C58.55,373.26,52.42,373.52,48.91,371.49Z" transform="translate(0 -4.83)"/><g id="Group-18" data-name="Group" class="cls-1"><path id="Shape-46" data-name="Shape" class="cls-25" d="M44,346.55l23.7-13.7c1.75-1,1.74-2.41,0-3.12l-.2-.09a8.21,8.21,0,0,0-6.35.55l-23.7,13.69c-1.75,1-1.74,2.41,0,3.12l.21.09A8.14,8.14,0,0,0,44,346.55Z" transform="translate(0 -4.83)"/></g><path id="Shape-47" data-name="Shape" class="cls-26" d="M170.47,419.3a4.36,4.36,0,0,0,3.71-.3L392.52,293.35c1.36-.82,1.36-1.87,0-2.42l-42.83-25a6.46,6.46,0,0,0-4.95.44L127.26,391.56a1.43,1.43,0,0,0,.21,2.57Z" transform="translate(0 -4.83)"/><path id="Shape-48" data-name="Shape" class="cls-26" d="M389.43,122.16l-3.13,5L384,130V284.27a4.88,4.88,0,0,1-2.23,3.82L171.39,408.92l4.2,3.5-4.25,4.85-6.67-4.13a1.6,1.6,0,0,1-.44-1.25V247.61A12.63,12.63,0,0,1,170,237.7L378.21,118.09c1.78-1,3.37-1,4.42-.19Z" transform="translate(0 -4.83)"/><path id="Shape-49" data-name="Shape" class="cls-27" d="M389.43,122.16l-3.13,5L384,130v13L170.78,265.47l-6.54-3.1V247.61A12.63,12.63,0,0,1,170,237.7l208.2-119.61c1.78-1,3.37-1,4.42-.19Z" transform="translate(0 -4.83)"/><path id="Shape-50" data-name="Shape" class="cls-5" d="M390.54,125.42V289.67a4.85,4.85,0,0,1-2.21,3.82L173,417.23c-1.22.7-2.21.13-2.21-1.27V251.67a12.63,12.63,0,0,1,5.78-9.91L384.76,122.14C388,120.31,390.54,121.77,390.54,125.42Z" transform="translate(0 -4.83)"/><path id="Shape-51" data-name="Shape" class="cls-28" d="M390.54,125.41V139L170.79,265.28V251.66a12.64,12.64,0,0,1,5.78-9.91L384.76,122.12C388,120.3,390.54,121.76,390.54,125.41Z" transform="translate(0 -4.83)"/><g id="Group-19" data-name="Group"><path id="Shape-52" data-name="Shape" class="cls-29" d="M182.64,249l.94-1.85-1.65-.82a1.9,1.9,0,0,0-1.86.19,5.88,5.88,0,0,0-2.67,4.59,1.79,1.79,0,0,0,.82,1.71l1.79.89,1.12-2A6.41,6.41,0,0,0,182.64,249Z" transform="translate(0 -4.83)"/><path id="Shape-53" data-name="Shape" class="cls-5" d="M179.91,253.72c-1-.61-1-2.55,0-4.33s2.74-2.73,3.77-2.12,1,2.55,0,4.33S180.94,254.33,179.91,253.72Z" transform="translate(0 -4.83)"/></g><g id="Group-20" data-name="Group"><path id="Shape-54" data-name="Shape" class="cls-29" d="M191.49,244.18l1-1.85-1.65-.83a1.9,1.9,0,0,0-1.87.2,5.84,5.84,0,0,0-2.67,4.57,1.83,1.83,0,0,0,.83,1.73l1.79.88,1.1-1.95A6.21,6.21,0,0,0,191.49,244.18Z" transform="translate(0 -4.83)"/><path id="Shape-55" data-name="Shape" class="cls-5" d="M188.77,248.87c-1-.61-1-2.55,0-4.33s2.74-2.73,3.77-2.12,1,2.55,0,4.33S189.8,249.48,188.77,248.87Z" transform="translate(0 -4.83)"/></g><g id="Group-21" data-name="Group"><path id="Shape-56" data-name="Shape" class="cls-29" d="M200,239.19l.94-1.86-1.65-.83a1.88,1.88,0,0,0-1.86.2,5.82,5.82,0,0,0-2.67,4.58,1.77,1.77,0,0,0,.82,1.71l1.79.89,1.12-2A6.4,6.4,0,0,0,200,239.19Z" transform="translate(0 -4.83)"/><path id="Shape-57" data-name="Shape" class="cls-5" d="M197.23,243.87c-1-.61-1-2.55,0-4.33s2.74-2.73,3.78-2.12,1,2.55-.05,4.33S198.26,244.48,197.23,243.87Z" transform="translate(0 -4.83)"/></g><path id="Shape-58" data-name="Shape" class="cls-30" d="M443.77,120.75l-2.69-1.43c-2.3-1.19-5.42-1-8.86,1-7.07,4-12.79,13.88-12.79,21.95,0,4.08,1.43,6.93,3.85,8.22l2.59,1.43.23.12c2.29,1.13,5.36.87,8.76-1.08,7.06-4,12.79-13.88,12.79-21.93C447.69,124.88,446.19,122,443.77,120.75Z" transform="translate(0 -4.83)"/><path id="Shape-59" data-name="Shape" class="cls-31" d="M425.77,151.89c-4.93-2.93-4.84-12.23.21-20.76s13.15-13.08,18.09-10.16,4.83,12.23-.21,20.76S430.7,154.81,425.77,151.89Z" transform="translate(0 -4.83)"/><path id="Shape-60" data-name="Shape" class="cls-32" d="M442.77,139.34l-1.43-.79h-.07l-1-.59c1.43-3.27,1.3-6.52-.53-7.66l-1.32-.76-.1-.08c-2.16-1.21-5.72.81-7.85,4.52s-2.16,7.71,0,9l1.43.86c1.93,1.11,4.95-.4,7.15-3.37l2.48,1.44c.37.21,1-.15,1.43-.79A1.32,1.32,0,0,0,442.77,139.34Zm-5.94-1.85c-1.16,2-2.86,3.24-4.29,3.16a5.46,5.46,0,0,1,.64-5.21c1.16-2,2.86-3.24,4.29-3.17C438.2,133.43,438,135.54,436.83,137.49Z" transform="translate(0 -4.83)"/><path id="Shape-61" data-name="Shape" class="cls-5" d="M442.77,139.34l-2.48-1.44c1.43-3.33,1.31-6.66-.63-7.75-2.16-1.23-5.72.79-7.85,4.5s-2.16,7.74,0,9c1.93,1.1,4.95-.4,7.15-3.37l2.48,1.44c.37.21,1-.15,1.43-.79A1.11,1.11,0,0,0,442.77,139.34Zm-9.59,2c-1.43-.8-1.43-3.42,0-5.83s3.71-3.74,5.11-2.87,1.43,3.41,0,5.83-3.63,3.67-5.07,2.87Z" transform="translate(0 -4.83)"/><g id="checklist"><g id="Group-22" data-name="Group"><path id="Shape-62" data-name="Shape" class="cls-26" d="M624.13,338.55l-73.62,40.36a7.49,7.49,0,0,1-6.45.26l-103-56.43c-1.65-.9-1.44-2.48.46-3.54l73.66-40.36a7.49,7.49,0,0,1,6.45-.26L624.6,335C626.25,335.89,626,337.54,624.13,338.55Z" transform="translate(0 -4.83)"/><path id="Shape-63" data-name="Shape" class="cls-33" d="M625.71,321.33h-4.87v.9l-99.2-54.36a7.38,7.38,0,0,0-6.45.25l-70.63,38.72V306H440v4.49a1.78,1.78,0,0,0,1.11,1.55L544,368.48a7.38,7.38,0,0,0,6.45-.25l73.65-40.38c1.06-.58,1.59-1.31,1.58-2Z" transform="translate(0 -4.83)"/><path id="Shape-64" data-name="Shape" class="cls-34" d="M624.13,323.34l-73.62,40.38a7.52,7.52,0,0,1-6.45.25l-103-56.43c-1.65-.91-1.44-2.48.46-3.53l73.66-40.38a7.52,7.52,0,0,1,6.45-.25L624.6,319.81C626.25,320.71,626,322.29,624.13,323.34Z" transform="translate(0 -4.83)"/><path id="Shape-65" data-name="Shape" class="cls-35" d="M616.27,322.67,549.2,359.43a8.38,8.38,0,0,1-7.2.29l-96.41-52.85c-1.85-1-1.65-2.79.51-3.95l67.06-36.76a8.38,8.38,0,0,1,7.2-.29l96.42,52.85C618.62,319.71,618.39,321.47,616.27,322.67Z" transform="translate(0 -4.83)"/><path id="Shape-66" data-name="Shape" class="cls-5" d="M612.67,320.67l-67,36.76a8.41,8.41,0,0,1-7.21.29l-93-51c-1.85-1-1.65-2.78.52-3.95L513,266a8.44,8.44,0,0,1,7.21-.29l93,51C615,317.72,614.84,319.51,612.67,320.67Z" transform="translate(0 -4.83)"/><g id="Shape-67" data-name="Shape"><path class="cls-36" d="M510.92,271.18v-.07a1.41,1.41,0,0,0-.83-1.08l-7.42-4a4.69,4.69,0,0,0-4.07,0l-12.71,7h-.05a15.76,15.76,0,0,0-13.69,0c-1.87,1-2.8,2.38-2.81,3.72v2.22a3.59,3.59,0,0,0,1.16,2.49l-11,6a1.31,1.31,0,0,0-.82,1.16v2.15a1.35,1.35,0,0,0,.82,1.16l7.43,4.05a4.69,4.69,0,0,0,4.07,0l39.06-21.4a1.36,1.36,0,0,0,.83-1.15Zm-28.54,7.3a7.72,7.72,0,0,1-6.64,0h-.05a3.14,3.14,0,0,1-.93-.73,3.54,3.54,0,0,1,.91-.71,7.76,7.76,0,0,1,6.69,0,3.21,3.21,0,0,1,.89.7,3.12,3.12,0,0,1-.91.74Z" transform="translate(0 -4.83)"/><path class="cls-37" d="M498.55,266l-12.71,7h0a15.76,15.76,0,0,0-13.69,0c-3.78,2.09-3.74,5.42,0,7.5h0l-12.71,7c-1.12.62-1.11,1.65,0,2.24l7.43,4a4.62,4.62,0,0,0,4.07,0L510,272.29c1.13-.61,1.13-1.61,0-2.22L502.62,266A4.72,4.72,0,0,0,498.55,266Zm-22.92,12.51c-1.85-1-1.86-2.66,0-3.66a7.72,7.72,0,0,1,6.7,0c1.81,1,1.8,2.64,0,3.64a7.79,7.79,0,0,1-6.64,0Z" transform="translate(0 -4.83)"/></g></g><g id="Group-23" data-name="Group"><path id="Shape-68" data-name="Shape" class="cls-27" d="M471.21,307.81a.41.41,0,0,1,0-.75l8.19-4.74a1.44,1.44,0,0,1,1.28,0l8.25,4.77a.39.39,0,0,1,0,.73l-8.19,4.74a1.36,1.36,0,0,1-1.27,0l-8.25-4.75Zm8.83-4.37-6.92,4,7,4,6.92-4Z" transform="translate(0 -4.83)"/><path id="Shape-69" data-name="Shape" class="cls-38" d="M476.05,308.31a.63.63,0,0,1-.22-.21c-.15-.28.11-.57.59-.66a13.35,13.35,0,0,1,3.22-.12,5.42,5.42,0,0,1-.23-6.46,1.18,1.18,0,0,1,1.16-.3c.47.1.71.41.53.67-2.42,3.74,1.14,6.74,1.18,6.78.26.2.21.48-.11.66a1.36,1.36,0,0,1-1.15.05,8.69,8.69,0,0,0-4-.28A1.47,1.47,0,0,1,476.05,308.31Z" transform="translate(0 -4.83)"/></g><g id="Group-24" data-name="Group"><path id="Shape-70" data-name="Shape" class="cls-27" d="M487.07,317a.39.39,0,0,1,0-.73l8.19-4.74a1.38,1.38,0,0,1,1.28,0l8.25,4.76c.35.21.35.54,0,.74l-8.19,4.74a1.44,1.44,0,0,1-1.28,0Zm8.83-4.36-6.91,4,7,4,6.91-4Z" transform="translate(0 -4.83)"/><path id="Shape-71" data-name="Shape" class="cls-38" d="M492,317.49a.58.58,0,0,1-.22-.22c-.15-.27.1-.57.58-.65a12.94,12.94,0,0,1,3.23-.13,5.4,5.4,0,0,1-.24-6.45,1.18,1.18,0,0,1,1.17-.31c.46.11.7.41.53.68-2.42,3.73,1.14,6.74,1.17,6.76.26.22.22.5-.09.67a1.41,1.41,0,0,1-1.17.05,8.68,8.68,0,0,0-4.05-.28A1.43,1.43,0,0,1,492,317.49Z" transform="translate(0 -4.83)"/></g><g id="Group-25" data-name="Group"><path id="Shape-72" data-name="Shape" class="cls-27" d="M503.7,326.59c-.35-.21-.35-.54,0-.74l8.19-4.74a1.32,1.32,0,0,1,.64-.16,1.41,1.41,0,0,1,.64.16l8.25,4.77a.39.39,0,0,1,0,.73l-8.19,4.74a1.44,1.44,0,0,1-1.28,0Zm8.83-4.37-6.92,4,7,4,6.92-4Z" transform="translate(0 -4.83)"/><path id="Shape-73" data-name="Shape" class="cls-38" d="M508.54,327.09a.47.47,0,0,1-.21-.21c-.16-.27.1-.57.58-.65a12.84,12.84,0,0,1,3.22-.13,5.4,5.4,0,0,1-.23-6.45,1.19,1.19,0,0,1,1.16-.31c.46.11.7.41.53.68-2.41,3.71,1.15,6.74,1.18,6.76.25.22.21.5-.11.67a1.36,1.36,0,0,1-1.15.05,8.82,8.82,0,0,0-4.05-.28A1.34,1.34,0,0,1,508.54,327.09Z" transform="translate(0 -4.83)"/></g><g id="Group-26" data-name="Group"><path id="Shape-74" data-name="Shape" class="cls-27" d="M520.33,336.2c-.36-.21-.36-.54,0-.74l8.19-4.74a1.44,1.44,0,0,1,1.28,0l8.24,4.77c.36.21.36.54,0,.73L529.89,341a1.38,1.38,0,0,1-1.28,0l-8.25-4.76Zm8.82-4.37-6.91,4,7,4,6.91-4Z" transform="translate(0 -4.83)"/><path id="Shape-75" data-name="Shape" class="cls-38" d="M525.17,336.71a.53.53,0,0,1-.21-.21c-.16-.27.09-.56.57-.65a13.44,13.44,0,0,1,3.23-.13,5.39,5.39,0,0,1-.23-6.45,1.18,1.18,0,0,1,1.16-.31c.46.1.7.41.53.68-2.41,3.71,1.14,6.74,1.18,6.77.25.21.2.49-.11.66a1.38,1.38,0,0,1-1.16.05,8.77,8.77,0,0,0-4-.28A1.39,1.39,0,0,1,525.17,336.71Z" transform="translate(0 -4.83)"/></g><g id="Group-27" data-name="Group"><path id="Shape-76" data-name="Shape" class="cls-27" d="M535.93,345.22a.4.4,0,0,1,0-.75l8.18-4.73a1.44,1.44,0,0,1,1.28,0l8.25,4.77a.39.39,0,0,1,0,.73L545.45,350a1.44,1.44,0,0,1-1.28,0l-8.24-4.75Zm8.8-4.38-6.91,4,7,4,6.91-4Z" transform="translate(0 -4.83)"/><path id="Shape-77" data-name="Shape" class="cls-38" d="M540.77,345.72a.66.66,0,0,1-.23-.21c-.14-.27.11-.56.59-.66a13.35,13.35,0,0,1,3.22-.12,5.42,5.42,0,0,1-.23-6.46,1.17,1.17,0,0,1,1.17-.29c.46.09.7.4.52.66-2.42,3.74,1.15,6.74,1.18,6.78.26.2.22.48-.1.66a1.38,1.38,0,0,1-1.16.05,8.69,8.69,0,0,0-4.05-.28A1.43,1.43,0,0,1,540.77,345.72Z" transform="translate(0 -4.83)"/></g><g id="Group-28" data-name="Group" class="cls-2"><path id="Shape-78" data-name="Shape" class="cls-39" d="M514.74,286.53l-22.68,13.11a1.57,1.57,0,0,1-1.37.06l-1.69-1c-.35-.2-.3-.55.1-.78l22.64-13.13a1.48,1.48,0,0,1,1.36,0l1.65,1C515.18,286,515.14,286.33,514.74,286.53Z" transform="translate(0 -4.83)"/></g><g id="Group-29" data-name="Group" class="cls-2"><path id="Shape-79" data-name="Shape" class="cls-39" d="M526.59,279.73l-7.88,4.55a1.55,1.55,0,0,1-1.36.06l-1.7-1c-.34-.2-.3-.55.1-.78l7.88-4.56A1.54,1.54,0,0,1,525,278l1.69,1C527,279.12,527,279.46,526.59,279.73Z" transform="translate(0 -4.83)"/></g><g id="Group-30" data-name="Group" class="cls-2"><path id="Shape-80" data-name="Shape" class="cls-39" d="M520.21,300.27l-13.53,7.82a1.49,1.49,0,0,1-1.36.06l-1.69-1c-.36-.21-.31-.56.09-.83l13.54-7.82a1.46,1.46,0,0,1,1.36,0l1.65,1C520.67,299.68,520.62,300,520.21,300.27Z" transform="translate(0 -4.83)"/></g><g id="Group-31" data-name="Group" class="cls-2"><path id="Shape-81" data-name="Shape" class="cls-39" d="M532.14,293.37l-7.88,4.53a1.54,1.54,0,0,1-1.37.05l-1.65-1c-.34-.2-.3-.55.1-.78l7.88-4.56a1.52,1.52,0,0,1,1.36-.06l1.69,1C532.58,292.78,532.53,293.14,532.14,293.37Z" transform="translate(0 -4.83)"/></g><g id="Group-32" data-name="Group" class="cls-2"><path id="Shape-82" data-name="Shape" class="cls-39" d="M542.37,307.18l-18.64,10.73a1.43,1.43,0,0,1-1.36.06l-1.65-1c-.35-.21-.3-.55.1-.83l18.63-10.73a1.51,1.51,0,0,1,1.37-.06l1.7,1C542.82,306.59,542.78,307,542.37,307.18Z" transform="translate(0 -4.83)"/></g><g id="Group-33" data-name="Group" class="cls-2"><path id="Shape-83" data-name="Shape" class="cls-39" d="M548,304,546,305.08a1.55,1.55,0,0,1-1.36.06l-1.7-1c-.35-.2-.31-.56.1-.79l1.93-1.11a1.51,1.51,0,0,1,1.37-.06l1.65,1C548.4,303.38,548.36,303.74,548,304Z" transform="translate(0 -4.83)"/></g><g id="Group-34" data-name="Group" class="cls-2"><path id="Shape-84" data-name="Shape" class="cls-39" d="M550.46,321.48l-10.31,6a1.49,1.49,0,0,1-1.36.06l-1.65-1c-.36-.21-.31-.56.1-.83l10.3-5.95a1.57,1.57,0,0,1,1.37-.06l1.65,1C550.9,320.9,550.86,321.25,550.46,321.48Z" transform="translate(0 -4.83)"/></g><g id="Group-35" data-name="Group" class="cls-2"><path id="Shape-85" data-name="Shape" class="cls-39" d="M558.47,316.89l-4.68,2.73a1.46,1.46,0,0,1-1.36.05l-1.69-1c-.36-.21-.31-.55.1-.83l4.67-2.72a1.52,1.52,0,0,1,1.36-.06l1.65,1C558.91,316.26,558.87,316.62,558.47,316.89Z" transform="translate(0 -4.83)"/></g><g id="Group-36" data-name="Group" class="cls-2"><path id="Shape-86" data-name="Shape" class="cls-39" d="M574.52,307.57l-13.19,7.6a1.49,1.49,0,0,1-1.36.06l-1.65-1c-.36-.2-.31-.56.1-.79l13.14-7.6a1.52,1.52,0,0,1,1.36-.06l1.7,1C575,307,574.93,307.34,574.52,307.57Z" transform="translate(0 -4.83)"/></g><g id="Group-37" data-name="Group" class="cls-2"><path id="Shape-87" data-name="Shape" class="cls-39" d="M575.51,326l-19,10.95a1.46,1.46,0,0,1-1.36.05l-1.7-1c-.34-.21-.3-.56.1-.83l19-10.95a1.55,1.55,0,0,1,1.36-.06l1.65,1C576,325.39,575.91,325.74,575.51,326Z" transform="translate(0 -4.83)"/></g><g id="Group-38" data-name="Group" class="cls-2"><path id="Shape-88" data-name="Shape" class="cls-39" d="M585.49,320.19l-6.43,3.72a1.49,1.49,0,0,1-1.36.06L576,323c-.36-.2-.31-.56.1-.82l6.43-3.72a1.55,1.55,0,0,1,1.36-.06l1.65,1C586,319.62,585.9,320,585.49,320.19Z" transform="translate(0 -4.83)"/></g></g><g id="content"><path id="Shape-89" data-name="Shape" class="cls-26" d="M522.13,399.18l-76.2,44.07c-3,1.71-7.43,1.9-10,.41l-103.1-59.59c-2.56-1.48-2.24-4.07.72-5.79l76.23-44c3-1.71,7.42-1.9,10-.42l103.1,59.6C525.42,394.88,525.1,397.47,522.13,399.18Z" transform="translate(0 -4.83)"/><path id="Shape-90" data-name="Shape" class="cls-40" d="M522.13,389.57l-76.2,44.06c-3,1.7-7.43,1.89-10,.41l-103.1-59.6c-2.56-1.47-2.24-4.06.72-5.78l76.21-44.06c2.95-1.7,7.42-1.89,10-.41l103.09,59.6C525.42,385.25,525.1,387.83,522.13,389.57Z" transform="translate(0 -4.83)"/><g id="Group-39" data-name="Group"><g id="Shape-91" data-name="Shape"><path class="cls-41" d="M414.46,364.73l-12.37,7.14A3.36,3.36,0,0,1,399,372l-.11-.06c-.82-.45-.68-1.24.23-1.77L411.51,363a3.39,3.39,0,0,1,3.07-.13l.1.06C415.47,363.41,415.37,364.2,414.46,364.73Z" transform="translate(0 -4.83)"/><path class="cls-41" d="M433.69,353.61l-12.37,7.13a3.42,3.42,0,0,1-3.07.14l-.1-.06c-.79-.46-.69-1.26.22-1.79l12.37-7.13a3.41,3.41,0,0,1,3.08-.13l.1.06C434.71,352.29,434.61,353.08,433.69,353.61Z" transform="translate(0 -4.83)"/><path class="cls-41" d="M382.4,383.32l-3.09,1.79a3.44,3.44,0,0,1-3.08.13l-.1-.06c-.82-.45-.69-1.25.23-1.78l3.09-1.79a3.41,3.41,0,0,1,3.08-.12l.09.06C383.42,382,383.32,382.79,382.4,383.32Z" transform="translate(0 -4.83)"/><path class="cls-41" d="M395.73,375.62l-6.8,3.93a3.36,3.36,0,0,1-3.07.12l-.1-.06c-.83-.45-.69-1.24.22-1.77l6.8-3.93a3.42,3.42,0,0,1,3.07-.13l.1.06C396.74,374.3,396.64,375.09,395.73,375.62Z" transform="translate(0 -4.83)"/></g><g id="Shape-92" data-name="Shape"><path class="cls-41" d="M380.79,361.08l-4,2.29a3.41,3.41,0,0,1-3.08.13l-.1-.06c-.82-.45-.68-1.25.22-1.77l4-2.3a3.44,3.44,0,0,1,3.08-.12l.1.06C381.8,359.76,381.7,360.55,380.79,361.08Z" transform="translate(0 -4.83)"/><path class="cls-41" d="M420.56,338.09l-17.69,10.23a3.39,3.39,0,0,1-3.07.13l-.1-.05c-.83-.47-.69-1.26.22-1.79l17.7-10.23a3.44,3.44,0,0,1,3.08-.12l.09.06C421.57,336.77,421.47,337.54,420.56,338.09Z" transform="translate(0 -4.83)"/><path class="cls-41" d="M395.93,352.33l-8.17,4.72a3.39,3.39,0,0,1-3.07.13l-.1-.05c-.83-.47-.7-1.26.21-1.79l8.18-4.71a3.42,3.42,0,0,1,3.07-.14l.1.06C396.93,351,396.84,351.81,395.93,352.33Z" transform="translate(0 -4.83)"/></g><g id="Shape-93" data-name="Shape"><path class="cls-41" d="M425,342.42l-25.39,14.67a3.43,3.43,0,0,1-3.07.13l-.1-.06c-.79-.45-.69-1.25.22-1.78L422,340.71a3.44,3.44,0,0,1,3.08-.13l.09.06C426,341.1,425.87,341.9,425,342.42Z" transform="translate(0 -4.83)"/><path class="cls-41" d="M392.57,361.14l-9.81,5.67a3.43,3.43,0,0,1-3.07.14l-.11-.06c-.82-.46-.68-1.26.22-1.79l9.82-5.66a3.39,3.39,0,0,1,3.07-.13l.1.05C393.59,359.84,393.49,360.66,392.57,361.14Z" transform="translate(0 -4.83)"/></g><g id="Shape-94" data-name="Shape"><path class="cls-41" d="M392,385.44l-6.29,3.64a3.41,3.41,0,0,1-3.08.12l-.1-.06c-.82-.45-.69-1.24.23-1.77l6.29-3.64a3.41,3.41,0,0,1,3.08-.13l.09.06C393,384.09,392.92,384.88,392,385.44Z" transform="translate(0 -4.83)"/><path class="cls-41" d="M444.56,355l-24.45,14.14a3.44,3.44,0,0,1-3.08.12l-.09-.06c-.79-.45-.69-1.25.22-1.77l24.48-14.14a3.36,3.36,0,0,1,3.07-.12l.1.05C445.57,353.71,445.47,354.5,444.56,355Z" transform="translate(0 -4.83)"/><path class="cls-41" d="M412,373.87l-11.85,6.85a3.41,3.41,0,0,1-3.08.13l-.1-.05c-.82-.46-.69-1.26.22-1.78l11.86-6.85a3.39,3.39,0,0,1,3.07-.14l.1.06C413,372.53,412.92,373.32,412,373.87Z" transform="translate(0 -4.83)"/></g><g id="Shape-95" data-name="Shape"><path class="cls-41" d="M449.19,360.06l-34.6,20a3.36,3.36,0,0,1-3.07.12l-.1-.05c-.83-.46-.7-1.25.21-1.78l34.64-20a3.41,3.41,0,0,1,3.08-.13l.1.06C450.2,358.74,450.1,359.53,449.19,360.06Z" transform="translate(0 -4.83)"/><path class="cls-41" d="M406.39,384.8l-14,8.11a3.39,3.39,0,0,1-3.07.13l-.1-.06c-.83-.45-.69-1.25.22-1.78l14-8.11a3.44,3.44,0,0,1,3.08-.12l.1,0C407.39,383.48,407.29,384.27,406.39,384.8Z" transform="translate(0 -4.83)"/></g><g id="Shape-96" data-name="Shape"><path class="cls-41" d="M405.11,362.37,390,371.09a3.41,3.41,0,0,1-3.08.12l-.1,0c-.82-.46-.69-1.25.23-1.78l15.07-8.72a3.39,3.39,0,0,1,3.07-.13l.1.06C406.12,361.05,406,361.85,405.11,362.37Z" transform="translate(0 -4.83)"/><path class="cls-41" d="M433.51,346l-22,12.72a3.39,3.39,0,0,1-3.07.12l-.1-.05c-.78-.46-.69-1.26.22-1.78l22-12.72a3.44,3.44,0,0,1,3.08-.12l.1.06C434.52,344.63,434.42,345.43,433.51,346Z" transform="translate(0 -4.83)"/></g><g id="Shape-97" data-name="Shape"><path class="cls-41" d="M436.05,410.87l-6.3,3.64a3.39,3.39,0,0,1-3.07.14l-.1-.06c-.83-.46-.69-1.26.22-1.79l6.3-3.64a3.42,3.42,0,0,1,3.07-.12l.11.06C437.06,409.55,437,410.35,436.05,410.87Z" transform="translate(0 -4.83)"/><path class="cls-41" d="M465.17,394l-12.37,7.15a3.48,3.48,0,0,1-3.08.12l-.1-.06c-.82-.45-.69-1.25.22-1.77l12.37-7.15a3.42,3.42,0,0,1,3.07-.12l.11.06C466.17,392.72,466.07,393.52,465.17,394Z" transform="translate(0 -4.83)"/><path class="cls-41" d="M484.41,383,472,390.1a3.39,3.39,0,0,1-3.07.13l-.11-.06c-.78-.46-.68-1.25.23-1.78l12.37-7.13a3.39,3.39,0,0,1,3.07-.13l.1.05C485.42,381.6,485.35,382.4,484.41,383Z" transform="translate(0 -4.83)"/><path class="cls-41" d="M445.55,405.39l-2.16,1.25a3.42,3.42,0,0,1-3.07.12l-.11-.06c-.78-.45-.68-1.24.22-1.77l2.16-1.25a3.36,3.36,0,0,1,3.07-.12l.1.05C446.59,404.07,446.45,404.86,445.55,405.39Z" transform="translate(0 -4.83)"/></g><g id="Shape-98" data-name="Shape"><path class="cls-41" d="M416.07,399.32,409.78,403a3.41,3.41,0,0,1-3.08.13l-.1-.06c-.82-.46-.69-1.25.22-1.78l6.3-3.64a3.42,3.42,0,0,1,3.07-.12l.1.05C417.08,398,417,398.79,416.07,399.32Z" transform="translate(0 -4.83)"/><path class="cls-41" d="M468.62,368.92l-24.45,14.14a3.44,3.44,0,0,1-3.08.12l-.1-.06c-.82-.45-.68-1.24.23-1.77l24.45-14.08a3.41,3.41,0,0,1,3.08-.13l.1.06C469.63,367.61,469.53,368.41,468.62,368.92Z" transform="translate(0 -4.83)"/><path class="cls-41" d="M436.07,387.76l-11.85,6.85a3.48,3.48,0,0,1-3.08.13l-.1-.06c-.82-.46-.69-1.26.22-1.78l11.86-6.85a3.39,3.39,0,0,1,3.07-.13l.1.05C437.08,386.44,437,387.23,436.07,387.76Z" transform="translate(0 -4.83)"/></g><g id="Shape-99" data-name="Shape"><path class="cls-41" d="M473.25,374l-34.64,20a3.38,3.38,0,0,1-3.08.12l-.1-.06c-.82-.45-.69-1.24.22-1.77l34.64-20a3.41,3.41,0,0,1,3.08-.13l.1.06C474.26,372.64,474.16,373.44,473.25,374Z" transform="translate(0 -4.83)"/><path class="cls-41" d="M430.44,398.71l-14,8.11a3.39,3.39,0,0,1-3.07.13l-.1-.06c-.83-.45-.69-1.25.22-1.77l14-8.12a3.44,3.44,0,0,1,3.08-.13l.1.06C431.45,397.39,431.35,398.19,430.44,398.71Z" transform="translate(0 -4.83)"/></g><g id="Shape-100" data-name="Shape"><path class="cls-41" d="M442.72,414.73l-6.3,3.63a3.45,3.45,0,0,1-3.08.14l-.1-.06c-.82-.46-.68-1.26.22-1.78l6.3-3.64a3.39,3.39,0,0,1,3.07-.13l.1.06C443.72,413.41,443.62,414.2,442.72,414.73Z" transform="translate(0 -4.83)"/><path class="cls-41" d="M495.25,384.34l-24.46,14.14a3.39,3.39,0,0,1-3.07.13l-.1-.06c-.79-.46-.69-1.25.22-1.78l24.45-14.13a3.45,3.45,0,0,1,3.08-.14l.1.06C496.29,383,496.19,383.79,495.25,384.34Z" transform="translate(0 -4.83)"/><path class="cls-41" d="M462.72,403.16,450.87,410a3.45,3.45,0,0,1-3.08.14l-.1-.06c-.82-.46-.69-1.26.22-1.79l11.86-6.85a3.42,3.42,0,0,1,3.07-.12l.1.05C463.73,401.84,463.63,402.64,462.72,403.16Z" transform="translate(0 -4.83)"/></g><g id="Shape-101" data-name="Shape"><path class="cls-41" d="M499.9,389.38l-34.6,20a3.48,3.48,0,0,1-3.08.12l-.1-.06c-.82-.45-.69-1.25.23-1.77l34.6-20a3.37,3.37,0,0,1,3.06-.13l.11.06C500.91,388.05,500.81,388.85,499.9,389.38Z" transform="translate(0 -4.83)"/><path class="cls-41" d="M457.09,414.12l-14,8.11a3.36,3.36,0,0,1-3.07.12l-.1-.06c-.83-.45-.7-1.24.22-1.77l14-8.11a3.41,3.41,0,0,1,3.08-.13l.1.06C458.13,412.8,458,413.59,457.09,414.12Z" transform="translate(0 -4.83)"/></g><g id="Shape-102" data-name="Shape"><path class="cls-41" d="M466.23,385.68,458,390.45a3.39,3.39,0,0,1-3.07.13l-.1-.06c-.83-.45-.69-1.25.22-1.77l8.25-4.78a3.45,3.45,0,0,1,3.08-.14l.09.06C467.2,384.35,467.14,385.15,466.23,385.68Z" transform="translate(0 -4.83)"/><path class="cls-41" d="M484.26,375.25l-9.9,5.71a3.36,3.36,0,0,1-3.07.12l-.1-.05c-.83-.46-.69-1.25.22-1.78l9.9-5.71a3.44,3.44,0,0,1,3.08-.13l.09.06C485.27,373.92,485.17,374.7,484.26,375.25Z" transform="translate(0 -4.83)"/><path class="cls-41" d="M451,394.56,423.12,410.7a3.39,3.39,0,0,1-3.07.13l-.1-.06c-.83-.46-.69-1.25.22-1.78l27.91-16.12a3.39,3.39,0,0,1,3.07-.13l.1.05C452.05,393.24,452,394,451,394.56Z" transform="translate(0 -4.83)"/></g><path id="Shape-103" data-name="Shape" class="cls-42" d="M383.29,372.35l-17.41-4a5.16,5.16,0,0,0-3.6.42c-.94.54-1.23,1.36-.74,2.08l7,10.07a3.39,3.39,0,0,0,3.3.82c1.3-.3,1.93-1.15,1.41-1.9l-1.84-2.64,5.48-3.16,4.57,1.05a3.91,3.91,0,0,0,2.73-.32,1.64,1.64,0,0,0,.56-.49C385.23,373.5,384.6,372.65,383.29,372.35ZM370,375.22l-2.31-3.3,5.77,1.33Z" transform="translate(0 -4.83)"/></g></g><path id="Shape-104" data-name="Shape" class="cls-29" d="M230.08,253.55l99.63-54.38a7.11,7.11,0,0,1,6.9-.54l4.81,2.33c2.43,1.14,4,4,4,8.29v78.62c0,7.41-4.76,16-10.65,19.28l-99.63,54.37a7.2,7.2,0,0,1-6.78.62l-5-2.41c-2.41-1.14-4-4.05-4-8.27V272.82C219.44,265.38,224.21,256.76,230.08,253.55Z" transform="translate(0 -4.83)"/><path id="Shape-105" data-name="Shape" class="cls-40" d="M235.13,361.49l99.63-54.38c5.89-3.22,10.65-11.83,10.65-19.27V209.25c0-7.42-4.76-10.83-10.65-7.61L235.13,256c-5.87,3.22-10.63,11.82-10.63,19.28v78.62C224.5,361.29,229.26,364.7,235.13,361.49Z" transform="translate(0 -4.83)"/><polygon id="Shape-106" data-name="Shape" class="cls-43" points="324.82 253.1 324.82 259.14 309.98 270.3 295.23 264.34 279.16 287.4 259.33 284.92 244.53 307.96 244.53 298.48 256.5 278.42 276.83 280.53 293.14 256.63 310.01 263.65 324.82 253.1"/><polygon class="cls-44" points="36.55 324.41 50.04 284.94 32.01 294.64 32.25 289.27 56.98 275.19 44.54 315.34 65.14 305.18 64.99 309.23 36.55 324.41"/><polygon class="cls-45" points="45.73 312.71 64.26 303.59 68.19 305.05 47.42 316.51 45.73 312.71"/><polygon class="cls-21" points="40 325.44 52.98 287.51 35.64 296.67 33.85 291.38 61.71 276.22 47.7 316 68.19 305.05 67.4 311.01 40 325.44"/><polygon class="cls-45" points="47.42 290.45 35.73 324.45 39.99 325.46 53.03 287.31 47.42 290.45"/><polygon class="cls-45" points="61.71 276.22 56.98 275.19 31.51 289.37 30.76 296.29 35.64 296.67 36.45 289.89 61.71 276.22"/><path class="cls-46" d="M90.22,201.4c-5.66,9.74-13.47,13-15.45,7.17l3-9L74,202.62a16.15,16.15,0,0,1,5.36-12.3c3.15-2.74,6.5-3.62,8.9-2.51l8.62-7.26-4-1.7c-2.26-1-5.13-.89-8.41.23-9,3.1-16.57,13.87-18.68,24.08-2.25,11,1.76,18.2,12.22,19.1,6.89.58,22.12-19.48,22.12-19.48l-3.78-1.85S92.23,201.41,90.22,201.4Z" transform="translate(0 -4.83)"/><path class="cls-47" d="M78.56,210.51l0,0-.08-.22c0-.05,0-.08,0-.13h0a18.91,18.91,0,0,1-1-5.77c0-4.29,2.39-8.92,6.21-12.24,3.57-3.09,6.21-4.54,9.73-3.85l4-7.53c-2.31-1.12-5.21-1-8.63.12C79.12,184,72.11,194.77,70,205c-2.22,10.92,2,18.38,9.83,17.11s17-9.77,20.23-19.32c-2.07,0-4.15-.12-6.12-.12C88.44,212.21,80.74,215.81,78.56,210.51Z" transform="translate(0 -4.83)"/><path class="cls-48" d="M464,24.32c-4.74,8.17-11.3,10.9-13,6l2.54-7.55-3.22,2.56A13.51,13.51,0,0,1,454.89,15c2.64-2.3,5.45-3,7.46-2.11l7.24-6.08L466.23,5.4c-1.9-.83-4.3-.75-7.05.19-7.58,2.6-13.91,11.64-15.67,20.2-1.89,9.21,1.47,15.27,10.25,16,5.77.48,18.55-16.35,18.55-16.35l-3.16-1.55S465.73,24.32,464,24.32Z" transform="translate(0 -4.83)"/><path class="cls-22" d="M454.26,32h0s0-.07-.06-.18,0-.07-.05-.11h0a15.87,15.87,0,0,1-.87-4.83c0-3.61,2-7.49,5.21-10.28,3-2.59,5.21-3.81,8.16-3.22L470,7c-1.93-.94-4.37-.8-7.23.11-8,2.57-13.92,11.64-15.67,20.21-1.87,9.16,1.65,15.42,8.24,14.35s14.3-8.19,17-16.21c-1.73,0-3.48-.1-5.13-.1C462.55,33.38,456.08,36.4,454.26,32Z" transform="translate(0 -4.83)"/><path id="Shape-107" data-name="Shape" class="cls-49" d="M281.93,81.77c-1.68,1-3.27,5.59-3.27,5.59l-3.3-1.8V48.76l6.57-3.8,3.26,1.95S281.93,65.29,281.93,81.77Z" transform="translate(0 -4.83)"/><path class="cls-50" d="M296,35.48,264.91,51.64V58l13.69-7.22c0,17.83.06,18.73.06,36.6,2.21-1.28,4.25-2.44,6.52-3.74,0-18,0-19,0-36.33l9.94-5.23Z" transform="translate(0 -4.83)"/><polygon class="cls-49" points="291.66 29.04 262.04 43.62 262.04 50.58 264.91 53.14 264.91 46.81 296 30.65 291.66 29.04"/></svg>