<svg xmlns="http://www.w3.org/2000/svg" width="143" height="46" viewBox="0 0 143 46">
    <defs>
        <linearGradient id="a" x1="97.175%" x2="2.13%" y1="50%" y2="7.631%">
            <stop offset="0%" stop-color="#081F42"/>
            <stop offset="100%" stop-color="#00478C"/>
        </linearGradient>
    </defs>
    <g fill="none" fill-rule="evenodd">
        <path fill="url(#a)" d="M0 0h1932v107.39L576.424 837.7l-590.97-280.817z" transform="translate(-347 -28)"/>
        <g fill="#FFF" fill-rule="nonzero">
            <path d="M56 16.185v-1.966h4.305v1.966H56zm0 7.315V21.53h4.305V23.5H56zm0 8.207v-1.96h4.305v1.96H56zm5.478-8.69v-2.042c1.291-.26 2.76-.587 4.404-.978l-.55-.396a18 18 0 0 1-1.867-1.385c-.286-.26-.666-.652-1.134-1.168h2.807c.6.497 1.239.946 1.91 1.342.59.32 1.202.594 1.834.82a13.269 13.269 0 0 0 3.094-1.662c.682-.543 1.024-.934 1.024-1.233 0-.299-.198-.331-.6-.331H61.62v-1.972h9.513c1.005-.032 2.011 0 3.012.098.974.239 1.459.788 1.459 1.63 0 1.368-1.166 2.805-3.496 4.312.187.05 1.46.358 3.82.923V23c-1.618-.391-3.838-.996-6.66-1.814-1.806.51-4.403 1.115-7.79 1.814v.016zm0 7.544v-2.064h6.27v-2.243h-5.99v-2.037h5.99v-1.564h1.998v1.564h6.006v2.037h-6.006v2.243H76v2.064h-6.254V32h-1.998v-1.44h-6.27zM79 19.815V17.97c.496.013.99-.055 1.463-.2.216-.13.554-.758 1.074-1.877a5.04 5.04 0 0 1 .826-1.401 1.985 1.985 0 0 1 1.446-.487h3.69c.475-.022.939.146 1.284.465.375.423.67.909.87 1.433.466 1.082.815 1.72 1.047 1.856.476.16.977.23 1.48.21v1.846c-1.32 0-2.189-.163-2.615-.455a3.06 3.06 0 0 1-.815-1.044 54.159 54.159 0 0 1-.753-1.493 2.997 2.997 0 0 0-.377-.595 1.127 1.127 0 0 0-.77-.222h-2.648a.874.874 0 0 0-.742.298c-.287.469-.545.955-.77 1.455a4.256 4.256 0 0 1-1.108 1.569c-.421.303-1.286.465-2.582.487zm5.579 7.795V25.91h4.094c.753 0 1.108-.319 1.108-.963V22.72c0-.482-.266-.72-.804-.72H82.79a1.286 1.286 0 0 0-.892.222 1.108 1.108 0 0 0-.282.828v5.588c0 .995.432 1.493 1.29 1.493h9.014v1.801h-9.457a2.923 2.923 0 0 1-2.138-.838 2.463 2.463 0 0 1-.753-1.84V22.38a2.353 2.353 0 0 1 .653-1.726 2.334 2.334 0 0 1 1.718-.573h7.512c.65-.03 1.282.203 1.75.643.35.351.538.826.521 1.315v3.587c-.01.464-.21.906-.554 1.228a2.9 2.9 0 0 1-2.15.757H84.58zm8.73 4.387v-1.98h2.455c.33.017.651-.103.886-.33.201-.2.311-.471.305-.752v-14.93h2.044v15.25a2.624 2.624 0 0 1-.814 1.969 2.972 2.972 0 0 1-2.139.773H93.31zm0-3.127V14.805h2.006V28.87H93.31zM100 32v-2.009a8.551 8.551 0 0 0 3.205-.764 9.096 9.096 0 0 0 4.157-3.374 11.772 11.772 0 0 0 1.416-3.538H100v-2.03h8.981v-4.26h-8.601V14h19.273v2.025h-8.612v4.26h8.937v2.03h-8.739c.156.94.477 1.845.947 2.674a9.457 9.457 0 0 0 3.662 3.775 10.639 10.639 0 0 0 3.96 1.194H120V32a15.196 15.196 0 0 1-3.376-.66 12.992 12.992 0 0 1-3.392-1.932 8.867 8.867 0 0 1-2.202-2.372 16.73 16.73 0 0 1-.953-1.755c-.435.929-.97 1.807-1.597 2.62a12.068 12.068 0 0 1-2.676 2.3 10.235 10.235 0 0 1-3.678 1.53c-.507.093-1.223.181-2.126.269zM123 32v-1.975a.765.765 0 0 0 .656-.253c.225-.363.327-.787.292-1.21V18.304a2.754 2.754 0 0 1 .794-2.153c.241-.24.535-.424.86-.538a9.542 9.542 0 0 1 2.464-.22h6.064L133.617 14h2.046l.518 1.394H140V14h2.012v1.4H143v1.98h-6.064l2.8 7.415a3.26 3.26 0 0 0 .734-.78c.23-.512.372-1.058.419-1.615h2.1a7.663 7.663 0 0 1-.728 2.615 5.63 5.63 0 0 1-1.736 1.824c.29.91.743 1.76 1.34 2.513.31.3.687.527 1.102.662v1.975a4.261 4.261 0 0 1-2.271-.92 4.912 4.912 0 0 1-1.136-1.356 16.83 16.83 0 0 1-.854-1.937l-4.058 2.066v-2.281l3.346-1.722-3.12-8.449h-7.563a1.389 1.389 0 0 0-1.031.328c-.248.305-.37.689-.342 1.077v.957h5.133a1.969 1.969 0 0 1 1.444.506c.366.349.566.83.551 1.33v7.635c.042.558-.14 1.11-.507 1.54a1.99 1.99 0 0 1-1.477.537h-2.3v-2.012h1.517a.769.769 0 0 0 .551-.15.842.842 0 0 0 .204-.62v-5.951a.91.91 0 0 0-.204-.684.949.949 0 0 0-.617-.156h-4.311v6.538c0 1.54-.43 2.621-1.285 3.23A2.881 2.881 0 0 1 123 32zM31.335 13.26A3.695 3.695 0 0 0 31 13c.2.18.31.3.31.3l.025-.04z"/>
            <path d="M31.335 13.26A3.695 3.695 0 0 0 31 13c.2.18.31.3.31.3l.025-.04zM15.681 19.354a40.237 40.237 0 0 0 5.7 11.575c.519-3.246 2-15.32-2.907-19.927C17.22 9.8 12.5 6.06 8.717 13.54 4.54 21.852 19.91 30.242 21.381 31v-.082s-5.865-7.309-5.7-11.564zM23.888 31.594c-.083-.28-.332-.504-.657-.594l.042.035L22 32h.033A16.897 16.897 0 0 0 24 31.878c-.041-.098-.079-.182-.112-.284z"/>
            <path d="M24 0C10.75.015.012 10.78 0 24.063c0 12.712 10.123 21.934 24 21.934.5.032.976-.217 1.236-.646.26-.43.26-.968 0-1.398A1.344 1.344 0 0 0 24 43.306c-12.351 0-21.316-8.094-21.316-19.26C2.684 12.247 12.228 2.68 24 2.68c11.772 0 21.316 9.566 21.316 21.367 0 8.122-5.265 12.43-10.48 13.096-3.464.44-7.927-.737-9.447-5.409-.88.08-1.763.103-2.646.072h-.039l-.076.071c1.443 5.503 6.477 8.711 12.549 7.935C41.352 39.025 48 33.76 48 24.047 47.979 10.77 37.244.015 24 0z"/>
            <path d="M33.855 25.878C29.365 22.141 22.626 31.49 22 32.371h.085c.658 0 5.556-.05 8.575-2.66-.074.112-1.963 2.89-8.575 2.66h-.08c1.805.685 8.937 3.109 12.27.314.853-.696 3.634-3.434-.42-6.807zM30.504 9.933c-7.054-7.002-11.168.647-11.504 1.3.076.06.152.137.244.219l.092.099.114.126c.271.285.52.591.744.915l.076.105c.087.126.173.263.266.405l.038.06c.124.204.244.423.369.653v.05c.868 1.677 1.66 4.205 1.747 7.874.673-3.022 1.959-7.408 4.01-9.103a38.72 38.72 0 0 0-3.994 9.645v.313c0 .68-.043 1.404-.097 2.16v.214a49.6 49.6 0 0 1-.163 1.645c0 .242-.07.5-.109.746-.06.428-.12.855-.195 1.305-.13.735-.277 1.497-.45 2.287.03.019.063.035.097.049 0 0 14.88-14.959 8.715-21.067z"/>
        </g>
    </g>
</svg>
