
<svg width="85px" height="101px" viewBox="0 0 85 101" version="1.1" xmlns="http://www.w3.org/2000/svg" xmlns:xlink="http://www.w3.org/1999/xlink">
    <!-- Generator: Sketch 51.2 (57519) - http://www.bohemiancoding.com/sketch -->
    <desc>Created with Sketch.</desc>
    <defs></defs>
    <g id="Page-2" stroke="none" stroke-width="1" fill="none" fill-rule="evenodd">
        <g id="首页" transform="translate(-481.000000, -1545.000000)">
            <g id="4" transform="translate(480.000000, 1545.000000)">
                <path d="M71.88,100.34 C71.7420983,100.356168 71.6031077,100.320529 71.49,100.24 L58.58,95.11 L43.49,100.27 C43.2711932,100.371478 43.0188068,100.371478 42.8,100.27 L28.3,95.11 L14.01,100.27 C13.7527847,100.370407 13.4672153,100.370407 13.21,100.27 L1.4,95.01 C1.13391082,94.7929089 0.985688341,94.4631139 1,94.12 L1,1.99 C0.978688822,1.71880961 1.0771806,1.45188411 1.26953236,1.25953236 C1.46188411,1.0671806 1.72880961,0.968688822 2,0.99 L84.5,0.99 C84.7711904,0.968688822 85.0381159,1.0671806 85.2304676,1.25953236 C85.4228194,1.45188411 85.5213112,1.71880961 85.5,1.99 L85.5,94.12 C85.5299279,94.5166628 85.2870069,94.883103 84.91,95.01 L72.28,100.27 C72.1588553,100.339115 72.0174166,100.363867 71.88,100.34 Z M28.36,92.21 C28.4669036,92.1969401 28.5738673,92.2338241 28.65,92.31 L42.84,97.65 L58.33,92.58 C58.5525035,92.4794622 58.8074965,92.4794622 59.03,92.58 L71.61,97.44 L82.73,93.07 L82.73,3.83 L3.81,3.83 L3.87,93.52 L13.53,97.52 L27.96,92.34 C28.0815714,92.2704449 28.2199993,92.2358379 28.36,92.24 L28.36,92.21 Z" id="Shape" fill="#009FE8" fill-rule="nonzero"></path>
                <path d="M40.15,23.06 L70.02,23.06" id="Shape" stroke="#009FE8" stroke-width="3" stroke-linecap="round"></path>
                <path d="M33,18.93 C33.5522847,18.3777152 33.5522847,17.4822848 32.9999999,16.9300001 C32.4477152,16.3777153 31.5522848,16.3777153 31,16.93 L22,25.93 L17.57,21.5 C17.0177152,20.9477153 16.1222848,20.9477153 15.57,21.5 C15.0177153,22.0522848 15.0177153,22.9477152 15.57,23.5 L20.98,28.91 C21.5013167,29.427107 22.3322296,29.4575593 22.89,28.98 C22.9895012,28.9151322 23.0773921,28.8340021 23.15,28.74 L33,18.93 Z" id="Shape" fill="#009FE8" fill-rule="nonzero"></path>
                <path d="M40.15,36.11 L70.02,36.11" id="Shape" stroke="#009FE8" stroke-width="3" stroke-linecap="round"></path>
                <path d="M14.58,36.06 L33.98,36.06" id="Shape" stroke="#009FE8" stroke-width="3" stroke-linecap="round"></path>
                <path d="M14.22,49.16 L70.02,49.16" id="Shape" stroke="#009FE8" stroke-width="3" stroke-linecap="round"></path>
                <path d="M14.22,62.21 L70.02,62.21" id="Shape" stroke="#009FE8" stroke-width="3" stroke-linecap="round"></path>
                <path d="M14.22,75.26 L70.02,75.26" id="Shape" stroke="#009FE8" stroke-width="3" stroke-linecap="round"></path>
            </g>
        </g>
    </g>
</svg>