
<svg width="99px" height="80px" viewBox="0 0 99 80" version="1.1" xmlns="http://www.w3.org/2000/svg" xmlns:xlink="http://www.w3.org/1999/xlink">
    <!-- Generator: Sketch 51.2 (57519) - http://www.bohemiancoding.com/sketch -->
    <desc>Created with Sketch.</desc>
    <defs></defs>
    <g id="Page-2" stroke="none" stroke-width="1" fill="none" fill-rule="evenodd">
        <g id="首页" transform="translate(-1002.000000, -1315.000000)" fill="#009FE8" fill-rule="nonzero">
            <g id="未标题-4" transform="translate(1002.000000, 1315.000000)">
                <path d="M46.1217641,79.9999365 C44.7067997,80.0006925 43.3493436,79.4400518 42.3473489,78.4410715 L1.55904857,37.6644445 C0.555360317,36.6656218 -0.00615913658,35.3062693 5.09674302e-05,33.8903502 C-0.00615913658,32.4744311 0.555360317,31.1150786 1.55904857,30.116256 L30.0887046,1.56441254 C31.0877642,0.562874317 32.4443195,-1.45742133e-15 33.8590172,0 C35.2737149,1.45742133e-15 36.6302702,0.562874317 37.6293298,1.56441254 L78.4422459,42.3738577 C80.5192514,44.4581512 80.5192514,47.8295482 78.4422459,49.9138417 L49.9125898,78.4410715 C48.9076019,79.4456238 47.5427672,80.0068717 46.1217641,79.9999365 Z M33.8138883,2.45870878 C33.0565583,2.45428427 32.3281378,2.74916629 31.7871915,3.27916405 L3.29856167,31.8228029 C2.76650758,32.3657238 2.47143907,33.0974314 2.47803662,33.857532 C2.47090929,34.6153132 2.76621884,35.3446658 3.29856167,35.8840565 L44.1114777,76.7017063 C44.6527492,77.2508934 45.3916661,77.5601016 46.1627904,77.5601016 C46.9339146,77.5601016 47.6728315,77.2508934 48.214103,76.7017063 L76.7027328,48.1744765 C77.2519666,47.633251 77.5612011,46.894397 77.5612011,46.1233383 C77.5612011,45.3522797 77.2519666,44.6134256 76.7027328,44.0722001 L35.8898167,3.30377771 C35.3503562,2.76351643 34.6184255,2.45955493 33.8549146,2.45870878 L33.8138883,2.45870878 Z" id="Shape"></path>
                <path d="M75.8984356,52 L78.536666,45.1528311 L55,21.9834477 L71.5926443,5.66123326 C73.8577578,3.44625558 77.5160009,3.44625558 79.7811143,5.66123326 L97.3112431,22.9056528 C99.562919,25.133849 99.562919,28.7324694 97.3112431,30.9606656 L75.8984356,52 Z M58.476159,21.9834477 L80.7185987,43.8225706 L95.5358301,29.2141887 C96.8170137,27.9418916 96.8170137,25.8917824 95.5358301,24.6194853 L78.0057014,7.4077102 C76.7123246,6.14740762 74.6282488,6.14740762 73.334872,7.4077102 L58.476159,21.9834477 Z" id="Shape"></path>
                <path d="M54.7823482,72 C54.4603071,71.9988339 54.151713,71.8707335 53.9235123,71.6434891 L31.358816,49.0698645 C31.1292216,48.8430475 31,48.5337408 31,48.2109973 C31,47.8882537 31.1292216,47.578947 31.358816,47.35213 C31.8351294,46.8826233 32.6001742,46.8826233 33.0764877,47.35213 L55.641184,69.917652 C55.8707784,70.144469 56,70.4537757 56,70.7765193 C56,71.0992628 55.8707784,71.4085695 55.641184,71.6353865 C55.4143063,71.8656043 55.1055491,71.9966853 54.7823482,72 Z" id="Shape"></path>
                <path d="M70.7855534,55.9999978 C70.4631181,56.0006101 70.1538332,55.8723162 69.9266139,55.6437026 L47.3510915,33.0837397 C46.8767123,32.6007431 46.8839682,31.8249018 47.3672979,31.3508495 C47.8506276,30.8767973 48.6270041,30.8840482 49.1013833,31.3670448 L71.6444928,53.9270077 C71.9916669,54.2743741 72.0954493,54.7964361 71.9075017,55.2500345 C71.719554,55.703633 71.276837,55.999566 70.7855534,55.9999978 Z" id="Shape"></path>
                <path d="M62.7762019,64.9999978 C62.4503857,65.0006168 62.1378578,64.8709057 61.908256,64.6397667 L31.3909498,34.1265562 C31.0623534,33.8204079 30.9270913,33.3593368 31.0382271,32.9242212 C31.1493629,32.4891057 31.4891713,32.1493429 31.9243453,32.038222 C32.3595192,31.9271011 32.8206523,32.062345 33.1268416,32.3908973 L63.6441478,62.9041078 C64.1186174,63.3854091 64.1186174,64.1584654 63.6441478,64.6397667 C63.4125415,64.867902 63.1013059,64.9970768 62.7762019,64.9999978 Z" id="Shape"></path>
            </g>
        </g>
    </g>
</svg>