<?xml version="1.0" encoding="UTF-8"?>
<svg width="70px" height="78px" viewBox="0 0 70 78" version="1.1" xmlns="http://www.w3.org/2000/svg" xmlns:xlink="http://www.w3.org/1999/xlink">
    <!-- Generator: Sketch 50 (54983) - http://www.bohemiancoding.com/sketch -->
    <title>产品</title>
    <desc>Created with Sketch.</desc>
    <defs></defs>
    <g id="Page-1" stroke="none" stroke-width="1" fill="none" fill-rule="evenodd">
        <g id="官网-关于我们" transform="translate(-1053.000000, -920.000000)" fill-rule="nonzero" stroke="#3485FB" stroke-width="2.5">
            <g id="产品" transform="translate(1055.000000, 920.000000)">
                <path d="M39.4088581,74.7475095 L39.4460161,74.7463456 C40.1469742,74.7348197 40.8356955,74.5657322 41.4434621,74.2603423 L62.9445365,63.0697767 C65.1125615,62.0052208 66.75,59.7209561 66.75,57.9119811 L66.7505519,27.6235378 C66.7330204,27.0337822 66.4755407,26.47403 66.0333727,26.0687094 C65.587096,25.6596225 64.9901773,25.4423858 64.3244018,25.4684687 C63.6296396,25.467637 62.9457115,25.6355501 62.3296912,25.9590541 L40.8294507,37.1492099 C38.6639822,38.2145092 37.0279812,40.4996903 37.0279812,42.3121656 L37.0275347,72.5900929 C37.043355,73.1818261 37.3012983,73.7438439 37.7454511,74.1499571 C38.1937546,74.5598656 38.7936695,74.7759413 39.4088581,74.7475095 Z M32.9286882,31.7708412 L32.9834032,31.7711594 C34.3862981,31.8100349 35.7769031,31.5064627 37.021128,30.8926024 L61.2112002,18.7025437 C62.509787,18.0508185 63.1662631,17.1520927 63.1392023,16.2320499 C63.1105186,15.2568309 62.4660938,14.386198 61.2225302,13.7744253 L37.2788303,2.05926546 C36.0969895,1.50375672 34.7990715,1.22706948 33.4639943,1.2517027 C32.0448561,1.25013736 30.6430379,1.55647648 29.3973141,2.13005119 L5.18532988,14.3165439 C3.89134842,14.9754522 3.22411649,15.8828214 3.25080871,16.7903334 C3.27949237,17.7655523 3.9239172,18.6361852 5.16658231,19.2475187 L29.1175099,30.9423632 C30.3039423,31.5081668 31.6095163,31.7920454 32.9286882,31.7708412 Z" id="Shape" fill="#BDDCFA"></path>
                <path d="M27.4249615,76 C26.566331,75.9808868 25.722796,75.7641097 24.956431,75.365621 L24.9146702,75.3226931 L4.31728894,64.1423592 C1.85803865,62.8736012 0.00200069482,60.1643735 0.00200069482,57.8367272 L0.00200069482,27.6393322 C-0.029232397,26.6999774 0.306286894,25.7867945 0.933820186,25.1031991 C1.56135348,24.4196037 2.42877723,24.022376 3.34286901,24 L3.58879404,24 C4.43938625,24.0239067 5.27435932,24.2405193 6.03412405,24.634379 L6.07124481,24.6773069 L26.6732661,35.8576408 C29.1417966,37.1263988 30.9978346,39.8356265 30.9978346,42.1680426 L30.9978346,72.3606678 C31.0303358,73.2995682 30.6958717,74.2127749 30.0690726,74.8965202 C29.4422735,75.5802654 28.5753009,75.9776486 27.6616063,76 L27.4249615,76 Z" id="Shape" fill="#81B3FF"></path>
            </g>
        </g>
    </g>
</svg>