<?xml version="1.0" encoding="UTF-8"?>
<svg width="78px" height="70px" viewBox="0 0 78 70" version="1.1" xmlns="http://www.w3.org/2000/svg" xmlns:xlink="http://www.w3.org/1999/xlink">
    <!-- Generator: Sketch 50 (54983) - http://www.bohemiancoding.com/sketch -->
    <title>策划 copy</title>
    <desc>Created with Sketch.</desc>
    <defs></defs>
    <g id="Page-1" stroke="none" stroke-width="1" fill="none" fill-rule="evenodd">
        <g id="官网-关于我们" transform="translate(-1048.000000, -1295.000000)">
            <g id="策划-copy" transform="translate(1048.000000, 1295.000000)">
                <path d="M62,5.97644928 C62,9.9146127 62,12.8682353 62,14.837317 C62,17.2045877 50.5612907,24.2054955 44.0245862,31.252687 C36.665282,39.1867195 34.1102495,47.2991854 34.1102495,51.2169093 C34.1102495,52.6157436 38.4793129,52.6157436 47.2174397,51.2169093 C57.0724799,40.380052 62,37.0028562 62,41.085322 C62,45.1677879 62,52.4805308 62,63.0235507 C62,65.7747585 59.7639344,68 56.9993443,68 L5.00065574,68 C2.23606557,68 0,65.7747585 0,63.0235507 L0,5.97644928 C0,3.22524155 2.23606557,1 5.00065574,1 L56.9993443,1 C59.7232787,1 62,3.22524155 62,5.97644928 Z" id="Shape" fill="#BDDCFA" fill-rule="nonzero"></path>
                <path d="M13.7408907,52 L24.5506073,52 C25.5222672,52 26.291498,51.235503 26.291498,50.2698225 C26.291498,49.304142 25.5222672,48.539645 24.5506073,48.539645 L13.7408907,48.539645 C12.7692308,48.539645 12,49.304142 12,50.2698225 C12,51.235503 12.7692308,52 13.7408907,52 Z M24.5506073,33.652071 L13.7408907,33.652071 C12.7692308,33.652071 12,34.416568 12,35.3822485 C12,36.347929 12.7692308,37.112426 13.7408907,37.112426 L24.5506073,37.112426 C25.5222672,37.112426 26.291498,36.347929 26.291498,35.3822485 C26.291498,34.939645 26.291498,33.652071 24.5506073,33.652071 Z M40.2591093,21.460355 C41.2307692,21.460355 42,20.695858 42,19.7301775 C42,18.764497 41.2307692,18 40.2591093,18 L13.7408907,18 C12.7692308,18 12,18.764497 12,19.7301775 C12.0404858,20.695858 12.7692308,21.460355 13.7408907,21.460355 L40.2591093,21.460355 Z" id="Shape" fill="#3485FB" fill-rule="nonzero"></path>
                <path d="M56.0062893,0 L7.03144654,0 C3.27044025,0 0,3.5059761 0,7.52988048 L0,62.4701195 C0,66.5338645 3.22955975,70 7.03144654,70 L56.0062893,70 C59.8081761,70 63.0377358,66.5338645 63.0377358,62.4701195 L63.0377358,38.1673307 L76.8553459,25.059761 C77.6320755,24.3426295 78,23.5458167 78,22.7091633 C78,21.8326693 77.591195,20.9163347 76.8553459,20.1992032 L67.0031447,10.9163347 C66.2672956,10.1992032 65.6132075,9.96015936 64.4685535,9.96015936 L63.0377358,9.96015936 L63.0377358,7.52988048 C63.0377358,3.42629482 59.8490566,0 56.0062893,0 Z M59.1949686,62.6693227 L59.1540881,62.8685259 C59.1132075,66.2549801 57.4371069,66.9322709 56.0062893,66.9322709 L7.03144654,66.9322709 C5.06918239,66.9322709 3.47484277,64.9003984 3.47484277,62.4302789 L3.47484277,7.49003984 C3.47484277,5.05976096 5.11006289,2.98804781 7.03144654,2.98804781 L56.0062893,2.98804781 C57.9685535,2.98804781 59.5628931,5.01992032 59.5628931,7.49003984 L59.5628931,12.9083665 L37.7735849,33.5059761 L36.2201258,34.9800797 C35.7295597,35.4581673 35.4433962,35.936255 35.1981132,36.5338645 L31.3144654,49.0836653 C31.0283019,50.438247 31.3962264,51.6334661 32.336478,52.5896414 C33.0314465,53.2669323 33.6855346,53.5059761 34.8301887,53.5059761 C35.1163522,53.5059761 35.2389937,53.5059761 35.9748428,53.3067729 L49.1383648,49.8406375 C49.9968553,49.4422311 50.2830189,49.2031873 50.7735849,48.7649402 L59.1949686,41.1155378 L59.1949686,62.6693227 Z M64.1415094,13.5458167 L73.6666667,22.8685259 L50.7735849,44.9003984 L41.2893082,35.5378486 L64.1415094,13.5458167 Z M38.3050314,38.2071713 L47.9119497,47.0517928 L34.9119497,50.3585657 L38.3050314,38.2071713 Z" id="Shape" fill="#3485FB" fill-rule="nonzero"></path>
                <polygon id="Path-4" fill="#81B3FF" points="37.4024704 38 34 52 48 48.257252"></polygon>
                <polygon id="Path-11" fill="#81B3FF" points="41 35.9564622 51.2078214 45 75 23.4464978 65.1260169 14"></polygon>
            </g>
        </g>
    </g>
</svg>