<?xml version="1.0" encoding="UTF-8"?>
<svg width="89px" height="78px" viewBox="0 0 89 78" version="1.1" xmlns="http://www.w3.org/2000/svg" xmlns:xlink="http://www.w3.org/1999/xlink">
    <!-- Generator: Sketch 50 (54983) - http://www.bohemiancoding.com/sketch -->
    <title>icon_海外人才认证</title>
    <desc>Created with Sketch.</desc>
    <defs></defs>
    <g id="Page-1" stroke="none" stroke-width="1" fill="none" fill-rule="evenodd">
        <g id="官网-关于我们" transform="translate(-1341.000000, -1289.000000)" fill-rule="nonzero">
            <g id="icon_海外人才认证" transform="translate(1341.000000, 1289.000000)">
                <polygon id="Shape" fill="#3485FB" points="80.6129032 57 84 57 84 78 63 78 63 74.6587112 80.6129032 74.6587112"></polygon>
                <polygon id="Shape" fill="#BDDCFA" points="12 7 77 7 77 72 12 72"></polygon>
                <path d="M57.5830274,25.7097819 C50.3603973,18.0967394 38.6475923,18.0967394 31.4169726,25.7097819 C24.1943425,33.3228244 24.1943425,45.6687541 31.4169726,53.2902181 C38.6396027,60.9032606 50.3524077,60.9032606 57.5830274,53.2902181 C64.8056575,45.6687541 64.8056575,33.3228244 57.5830274,25.7097819 Z" id="Path" fill="#81B3FF"></path>
                <path d="M44.493182,59.115662 C55.044688,59.115662 63.6001936,50.3771758 63.6001936,39.6 C63.6001936,28.8228241 55.044688,20.0843379 44.493182,20.0843379 C33.9416759,20.0843379 25.3861703,28.8228241 25.3861703,39.6 C25.3861703,50.3771758 33.9416759,59.115662 44.493182,59.115662 Z M61.4047852,37.9982131 L52.6203905,37.9982131 C52.2248627,31.5078561 50.1920343,25.9302054 47.0646058,22.4545455 C50.4679839,23.0722357 53.7241888,24.6948249 56.354908,27.3315326 C59.3259651,30.3185719 61.0092574,34.1076866 61.4047852,37.9982131 Z M44.3441724,56.8869778 C41.18746,54.5488771 38.5568662,48.0121443 38.2491364,40.4605762 L50.4292816,40.4605762 C50.1314784,48.0121443 47.5008848,54.5488771 44.3441724,56.8869778 Z M38.3598112,37.6937484 C38.8223703,30.8678008 41.1450076,25.3241845 44.3435547,22.6806094 C47.5322601,25.3340486 49.8548974,30.8678008 50.3272981,37.6937484 L38.3598112,37.6937484 Z M33.4651258,27.1149974 C35.7850877,24.7897545 38.5840701,23.2458686 41.5333333,22.4645117 C38.4995371,26.0229805 36.5458849,31.5866182 36.1607901,38.0069243 L28.2992188,38.0069243 C28.7124913,34.0248283 30.4313295,30.1556995 33.4651258,27.1149974 Z M27.2750723,40.1818182 L35.8168198,40.1818182 C36.042955,46.6619495 37.7595277,52.6372693 40.4114781,56.7272727 C37.6772965,55.7794634 35.0972983,54.2341221 32.9181762,52.0500396 C29.6083776,48.7327069 27.727343,44.5190761 27.2750723,40.1818182 Z M56.1892395,51.1308824 C53.7995713,53.5259902 50.916797,55.0847111 47.8728148,55.8735761 C50.4805877,52.0908264 52.1780108,46.3881888 52.3961154,40.1818182 L61.4047852,40.1818182 C60.9780587,44.1736645 59.2521872,48.0609625 56.1892395,51.1308824 Z M80.9604493,3.48447621 L62.578125,3.48447621 L62.578125,0 L84.4370118,0 L84.4370118,21.899933 L80.9604493,21.899933 L80.9604493,3.48447621 Z M8.69140625,3.48447621 L8.69140625,21.899933 L5.21484375,21.899933 L5.21484375,0 L27.0737305,0 L27.0737305,3.48447621 L8.69140625,3.48447621 Z M8.69140625,74.5155238 L27.0737305,74.5155238 L27.0737305,78 L5.21484375,78 L5.21484375,56.100067 L8.69140625,56.100067 L8.69140625,74.5155238 Z M0,37.632343 L16.6875,37.632343 L16.6875,41.1168193 L0,41.1168193 L0,37.632343 Z M72.3125,37.632343 L89,37.632343 L89,41.1168193 L72.3125,41.1168193 L72.3125,37.632343 Z" id="Shape" fill="#3485FB"></path>
            </g>
        </g>
    </g>
</svg>