<?xml version="1.0" encoding="UTF-8"?>
<svg width="77px" height="62px" viewBox="0 0 77 62" version="1.1" xmlns="http://www.w3.org/2000/svg" xmlns:xlink="http://www.w3.org/1999/xlink">
    <!-- Generator: Sketch 50 (54983) - http://www.bohemiancoding.com/sketch -->
    <title>技术保障</title>
    <desc>Created with Sketch.</desc>
    <defs></defs>
    <g id="Page-1" stroke="none" stroke-width="1" fill="none" fill-rule="evenodd">
        <g id="官网-关于我们" transform="translate(-1349.000000, -927.000000)" fill-rule="nonzero">
            <g id="技术保障" transform="translate(1348.000000, 926.000000)">
                <path d="M75.8141361,61 L3.19309997,61 C3.08496399,61 3,60.9166122 3,60.8104823 L3,3.18951771 C3,3.08338779 3.08496399,3 3.19309997,3 L75.8064121,3 C75.9145481,3 75.9995121,3.08338779 75.9995121,3.18951771 L75.9995121,60.8104823 C76.0072361,60.9166122 75.9222721,61 75.8141361,61 Z" id="Shape" stroke="#3485FB" stroke-width="3" fill="#BDDCFA"></path>
                <path d="M11,12 C11,13.1020408 11.8979592,14 13,14 C14.1020408,14 15,13.1020408 15,12 C15,10.8979592 14.1020408,10 13,10 C11.8979592,10 11,10.8911565 11,12 Z" id="Shape" fill="#2389ED"></path>
                <path d="M13.0049153,14 C11.3533588,14 10,12.8789809 10,11.4968153 C10,10.1146497 11.3457127,9 13.0049153,9 C14.664118,9 16.0021846,10.1210191 16.0021846,11.4968153 C16.0021846,12.8726115 14.6564719,14 13.0049153,14 Z M13.0049153,10.2547771 C12.1791371,10.2547771 11.5062807,10.8152866 11.5062807,11.4968153 C11.5062807,12.1847134 12.1791371,12.7452229 13.0049153,12.7452229 C13.8306936,12.7452229 14.4959039,12.1847134 14.4959039,11.4968153 C14.4959039,10.8152866 13.8306936,10.2547771 13.0049153,10.2547771 Z M19.5040961,11.5031847 C19.5040961,12.5350318 20.5133807,13.3757962 21.7520481,13.3757962 C22.9907155,13.3757962 24,12.5350318 24,11.5031847 C24,10.4713376 22.9907155,9.63057325 21.7520481,9.63057325 C20.5057346,9.63057325 19.5040961,10.4649682 19.5040961,11.5031847 Z" id="Shape" fill="#2389ED"></path>
                <path d="M21.5,14 C20.122449,14 19,12.8789809 19,11.4968153 C19,10.1146497 20.1160714,9 21.5,9 C22.8839286,9 24,10.1210191 24,11.4968153 C24,12.8726115 22.877551,14 21.5,14 Z M21.5,10.2547771 C20.8112245,10.2547771 20.25,10.8152866 20.25,11.4968153 C20.25,12.1847134 20.8112245,12.7452229 21.5,12.7452229 C22.1887755,12.7452229 22.7436224,12.1847134 22.7436224,11.4968153 C22.7436224,10.8152866 22.182398,10.2547771 21.5,10.2547771 Z" id="Shape" fill="#2389ED"></path>
                <path d="M28,12 C28,13.1020408 28.8979592,14 30,14 C31.1020408,14 32,13.1020408 32,12 C32,10.8979592 31.1020408,10 30,10 C28.8911565,10 28,10.8911565 28,12 Z" id="Shape" fill="#2389ED"></path>
                <path d="M29.4968153,14 C28.1210191,14 27,12.8789809 27,11.4968153 C27,10.1146497 28.1210191,9 29.4968153,9 C30.8726115,9 32,10.1210191 32,11.4968153 C32,12.8726115 30.8726115,14 29.4968153,14 Z M29.4968153,10.2547771 C28.8089172,10.2547771 28.2547771,10.8152866 28.2547771,11.4968153 C28.2547771,12.1847134 28.8152866,12.7452229 29.4968153,12.7452229 C30.1847134,12.7452229 30.7452229,12.1847134 30.7452229,11.4968153 C30.7388535,10.8152866 30.1783439,10.2547771 29.4968153,10.2547771 Z" id="Shape" fill="#2389ED"></path>
                <path d="M72.1099585,63 L6.89774266,63 C3.09395392,63 0,60.0067536 0,56.3193128 L0,6.6806872 C0,2.99324645 3.09395392,0 6.89774266,0 L72.1022429,0 C75.9060317,0 78.9999856,2.99324645 78.9999856,6.67322275 L78.9999856,56.3193128 C79.0077012,60.0067536 75.9137473,63 72.1099585,63 Z M6.89774266,5.88199052 C6.44252251,5.88199052 6.07217391,6.24028436 6.07217391,6.6806872 L6.07217391,56.3267773 C6.07217391,56.7671801 6.44252251,57.1254739 6.89774266,57.1254739 L72.1022429,57.1254739 C72.5574631,57.1254739 72.9278117,56.7671801 72.9278117,56.3267773 L72.9278117,6.6806872 C72.9278117,6.24028436 72.5574631,5.88199052 72.1022429,5.88199052 L6.89774266,5.88199052 Z" id="Shape"></path>
                <path d="M33,30 L33,33.6875403 L24.9854015,36.995481 C25.5766423,37.3389283 32.3978102,40.0232408 33,40.3395739 L33,44 L21,38.4144609 L21,35.6126533 L33,30 Z" id="Shape" fill="#2389ED"></path>
                <path d="M22.4272925,38.0462232 L31.8814651,42.6063201 L31.8814651,41.0053393 C31.2189369,40.7175226 30.0200763,40.2138432 29.0105095,39.7821181 C26.2867823,38.6398453 24.9722422,38.073206 24.6357199,37.875332 C24.3412629,37.6954465 24.1730018,37.3986355 24.1940344,37.0838359 C24.2255834,36.7690363 24.4359098,36.4992081 24.7619157,36.3552997 L31.8814651,33.2972466 L31.8814651,31.6962658 L22.4272925,36.2743512 L22.4272925,38.0462232 Z M42.0086824,27.8107394 L45.6683621,27.8107394 L39.6530264,46.6267606 L35.9933467,46.6267606 L42.0086824,27.8107394 Z" id="Shape" fill="#2389ED"></path>
                <polygon id="Shape" fill="#2389ED" points="61 35.6180645 61 38.4180645 49 44 49 40.3419355 56.9817518 37 49 33.6851613 49 30 61 35.6180645"></polygon>
            </g>
        </g>
    </g>
</svg>