<?xml version="1.0" encoding="UTF-8"?>
<svg width="80px" height="78px" viewBox="0 0 80 78" version="1.1" xmlns="http://www.w3.org/2000/svg" xmlns:xlink="http://www.w3.org/1999/xlink">
    <!-- Generator: Sketch 50 (54983) - http://www.bohemiancoding.com/sketch -->
    <title>课程</title>
    <desc>Created with Sketch.</desc>
    <defs></defs>
    <g id="Page-1" stroke="none" stroke-width="1" fill="none" fill-rule="evenodd">
        <g id="官网-关于我们" transform="translate(-750.000000, -1298.000000)" fill-rule="nonzero" stroke="#3485FB">
            <g id="课程" transform="translate(752.000000, 1300.000000)">
                <path d="M67.1462948,-1.13686838e-13 C70.6587203,-1.13686838e-13 73.5216462,2.87620374 73.5216462,6.40491936 L73.5216462,52.6216498 C73.5216462,56.1503655 70.6587203,59.0265692 67.1462948,59.0265692 L8.85370516,59.0265692 C5.34127966,59.0265692 2.47835376,56.1503655 2.47835376,52.6216498 L2.47835376,6.40491936 C2.47835376,2.87620374 5.34127966,-1.13686838e-13 8.85370516,-1.13686838e-13 L67.1462948,-1.13686838e-13 Z M74.6326324,74 L1.36736759,74 C0.615315417,74 0,73.3818308 0,72.6262908 C0,71.8707507 0.615315417,71.2525815 1.36736759,71.2525815 L74.6326324,71.2525815 C75.3846846,71.2525815 76,71.8707507 76,72.6262908 C76,73.3904165 75.3846846,74 74.6326324,74 Z" id="Shape" stroke-width="3" fill="#BDDCFA"></path>
                <path d="M33.6266945,21 C33.9019812,21 34.177268,21.0751391 34.4275287,21.2254174 L47.1908238,28.5974026 C47.9249218,29.0231911 48,29.7244898 48,30 C48,30.283859 47.9249218,30.9851577 47.1908238,31.4025974 L34.4275287,38.7745826 C34.168926,38.9248609 33.9019812,39 33.6266945,39 C32.8425443,39 32,38.3738404 32,37.3719852 L32,22.6280148 C32,21.6178108 32.8425443,21 33.6266945,21 Z" id="Shape" stroke-width="2" fill="#81B3FF"></path>
            </g>
        </g>
    </g>
</svg>