<?xml version="1.0" encoding="UTF-8"?>
<svg width="75px" height="71px" viewBox="0 0 75 71" version="1.1" xmlns="http://www.w3.org/2000/svg" xmlns:xlink="http://www.w3.org/1999/xlink">
    <!-- Generator: Sketch 50 (54983) - http://www.bohemiancoding.com/sketch -->
    <title>运营中心</title>
    <desc>Created with Sketch.</desc>
    <defs></defs>
    <g id="Page-1" stroke="none" stroke-width="1" fill="none" fill-rule="evenodd">
        <g id="官网-关于我们" transform="translate(-466.000000, -1293.000000)">
            <g id="运营中心" transform="translate(466.000000, 1293.000000)">
                <path d="M66,0 L9.00000004,0 C4.05000001,0 0,4.09689653 0,9.10421452 L0,54.6252869 C0,59.6326049 4.05000001,63.7295015 9.00000004,63.7295014 L34.5,63.7295014 L34.5,67.0677133 L24,67.0677133 C22.35,67.0677133 20.9878404,67.7669386 20.9878404,69.4360446 C20.9878404,71.1051506 22.35,70.9986354 24,70.9986354 L51,70.9986354 C52.65,70.9986354 53.9878404,71.1051506 53.9878404,69.4360446 C53.9878404,67.7669386 52.65,67.0677133 51,67.0677133 L40.5,67.0677133 L40.5,63.7295014 L66,63.7295014 C70.95,63.7295014 75,59.6326048 75,54.6252869 L75,9.10421452 C75,4.09689653 70.95,-2.94808166e-15 66,0 Z" id="Shape" fill="#3485FB" fill-rule="nonzero"></path>
                <path d="M11,3 L64.2747501,3 C68.6930281,3 72.2747501,6.581722 72.2747501,11 L72.2747501,53 C72.2747501,57.418278 68.6930281,61 64.2747501,61 L11,61 C6.581722,61 3,57.418278 3,53 L3,11 C3,6.581722 6.581722,3 11,3 Z" id="Rectangle-2" fill="#BDDCFA"></path>
                <path d="M56.9285714,18 C55.2392857,18 53.8571428,19.3285714 53.8571428,20.952381 L53.8571428,46.047619 C53.8571428,47.6714286 55.2392857,49 56.9285714,49 C58.6178572,49 60,47.6714286 60,46.047619 L60,20.952381 C60,19.3285714 58.6178572,18 56.9285714,18 Z M44.6428572,32.7619048 C42.9535714,32.7619048 41.5714286,34.0904762 41.5714286,35.7142857 L41.5714286,46.047619 C41.5714286,47.6714286 42.9535714,49 44.6428572,49 C46.3321429,49 47.7142858,47.6714286 47.7142858,46.047619 L47.7142858,35.7142857 C47.7142858,34.0904761 46.3321429,32.7619047 44.6428572,32.7619048 Z M32.3571428,23.9047619 C30.6678571,23.9047619 29.2857142,25.2333333 29.2857142,26.8571429 L29.2857142,46.047619 C29.2857142,47.6714286 30.6678571,49 32.3571428,49 C34.0464286,49 35.4285714,47.6714286 35.4285714,46.047619 L35.4285714,26.8571429 C35.4285714,25.2333333 34.0464286,23.9047619 32.3571428,23.9047619 Z M20.0714286,35.7142857 C18.3821428,35.7142857 17,37.0428571 17,38.6666667 L17,46.047619 C17,47.6714286 18.3821428,49 20.0714286,49 C21.7607143,49 23.1428572,47.6714286 23.1428572,46.047619 L23.1428572,38.6666667 C23.1428572,37.0428571 21.7607143,35.7142857 20.0714286,35.7142857 Z" id="Shape" stroke="#3485FB" stroke-width="2" fill="#81B3FF" fill-rule="nonzero"></path>
            </g>
        </g>
    </g>
</svg>