<?xml version="1.0" encoding="UTF-8"?>
<svg width="77px" height="72px" viewBox="0 0 77 72" version="1.1" xmlns="http://www.w3.org/2000/svg" xmlns:xlink="http://www.w3.org/1999/xlink">
    <!-- Generator: Sketch 50 (54983) - http://www.bohemiancoding.com/sketch -->
    <title>医药箱 (1)</title>
    <desc>Created with Sketch.</desc>
    <defs></defs>
    <g id="Page-1" stroke="none" stroke-width="1" fill="none" fill-rule="evenodd">
        <g id="官网-关于我们" transform="translate(-458.000000, -921.000000)">
            <g id="医药箱-(1)" transform="translate(460.000000, 921.000000)">
                <polygon id="Shape" fill="#FFFFFF" fill-rule="nonzero" points="16 1 56 1 56 25 16 25"></polygon>
                <path d="M53.4140625,28 L20.6015625,28 C17.507905,28 15,25.4566125 15,22.319185 L15,5.64119973 C15.0214136,2.52542299 17.5135658,0.00861568214 20.5859375,0 L53.3984375,0 C56.492095,0 59,2.54338743 59,5.68081486 L59,22.319185 C59.000012,25.4504346 56.5016163,27.9912657 53.4140625,28 Z M20.5859375,3.96151669 C19.6496423,3.96151669 18.890625,4.73127268 18.890625,5.68081486 L18.890625,22.319185 C18.890625,23.2687273 19.6496422,24.0384833 20.5859375,24.0384833 L53.3984375,24.0384833 C54.3347327,24.0384833 55.09375,23.2687273 55.09375,22.319185 L55.09375,5.64119973 C55.0726989,4.71328865 54.3292339,3.96982557 53.4140625,3.96151669 L20.5859375,3.96151669 Z" id="Shape" fill="#3485FB" fill-rule="nonzero"></path>
                <path d="M63.3650793,70 L9.63492066,70 C4.32539685,70 0,66.0579129 0,61.2170299 L0,23.7829702 C0,18.9420871 4.32539685,15 9.63492066,15 L63.3650793,15 C68.6746031,15 73,18.9420871 73,23.7829702 L73,61.2564507 C73,66.0973338 68.6428571,70 63.3650793,70 Z" id="Shape" stroke="#3485FB" stroke-width="3" fill="#BDDCFA" fill-rule="nonzero"></path>
                <path d="M25,39.1313672 C24.4477153,39.1313672 24,39.5790825 24,40.1313672 L24,46.3021323 C24,46.8544171 24.4477153,47.3021323 25,47.3021323 L34.4166243,47.3021323 L34.4166243,56 C34.4166243,56.5522847 34.8643395,57 35.4166243,57 L41.5771919,57 C42.1294766,57 42.5771919,56.5522847 42.5771919,56 L42.5771919,47.3021323 L52,47.3021323 C52.5522847,47.3021323 53,46.8544171 53,46.3021323 L53,40.1313672 C53,39.5790825 52.5522847,39.1313672 52,39.1313672 L42.5771919,39.1313672 L42.5771919,31 C42.5771919,30.4477153 42.1294766,30 41.5771919,30 L35.4166243,30 C34.8643395,30 34.4166243,30.4477153 34.4166243,31 L34.4166243,39.1313672 L25,39.1313672 Z" id="Rectangle-32" stroke="#3485FB" stroke-width="2" fill="#81B3FF"></path>
            </g>
        </g>
    </g>
</svg>