<?xml version="1.0" encoding="UTF-8"?>
<svg width="75px" height="60px" viewBox="0 0 75 60" version="1.1" xmlns="http://www.w3.org/2000/svg" xmlns:xlink="http://www.w3.org/1999/xlink">
    <!-- Generator: Sketch 50 (54983) - http://www.bohemiancoding.com/sketch -->
    <title>未标题-3</title>
    <desc>Created with Sketch.</desc>
    <defs></defs>
    <g id="Page-1" stroke="none" stroke-width="1" fill="none" fill-rule="evenodd">
        <g id="官网-中国队列共享平台" transform="translate(-1268.000000, -1225.000000)" fill-rule="nonzero">
            <g id="未标题-3" transform="translate(1268.000000, 1225.000000)">
                <g id="XMLID_418_" transform="translate(25.656076, 39.205069)">
                    <rect id="XMLID_14_" fill="#F7F8F9" x="0.775648822" y="0.764976959" width="16.1096294" height="14.4389401"></rect>
                    <path d="M17.4819311,15.8413978 L0.178995882,15.8413978 L0.178995882,0.12749616 L17.4819311,0.12749616 L17.4819311,15.8413978 Z M1.37230176,14.5664363 L16.2886253,14.5664363 L16.2886253,1.40245776 L1.37230176,1.40245776 L1.37230176,14.5664363 Z" id="XMLID_21_" fill="#465A79"></path>
                </g>
                <g id="XMLID_417_" fill="#465A79">
                    <path d="M65.3334969,46.5042243 L3.63958293,46.5042243 C1.67062823,46.5042243 0.059665294,44.7830261 0.059665294,42.6793395 L0.059665294,4.07987711 C0.059665294,1.97619048 1.67062823,0.25499232 3.63958293,0.25499232 L65.3334969,0.25499232 C67.3024516,0.25499232 68.9134145,1.97619048 68.9134145,4.07987711 L68.9134145,42.6793395 C68.9134145,44.7830261 67.3024516,46.5042243 65.3334969,46.5042243 Z" id="Shape"></path>
                </g>
                <g id="XMLID_416_" transform="translate(1.193306, 38.567588)" fill="#F3F3F3">
                    <path d="M0,0 L0,2.80491551 C0,5.16359447 0.835314115,6.62980031 3.25175852,6.69354839 L63.215379,6.69354839 C65.7511539,6.69354839 66.5566354,5.25921659 66.5566354,2.80491551 L66.5566354,0 L0,0 Z" id="Shape"></path>
                </g>
                <g id="XMLID_415_" transform="translate(33.114238, 40.480031)" fill="#465A79">
                    <ellipse id="Oval" cx="1.37230176" cy="1.593702" rx="1.34246911" ry="1.4343318"></ellipse>
                </g>
                <g id="XMLID_414_" transform="translate(15.214650, 51.635945)">
                    <g id="XMLID_3_" transform="translate(0.596653, 0.318740)" fill="#F7F8F9">
                        <path d="M35.918507,3.82488479 C37.5593025,3.82488479 37.7084658,3.18740399 36.2168334,2.42242704 L34.6953684,1.62557604 C33.2335687,0.860599078 30.6679611,0.22311828 29.0271655,0.22311828 L8.05481469,0.286866359 C6.4140191,0.286866359 3.87824411,0.924347158 2.38661176,1.72119816 L1.07397529,2.42242704 C-0.387824411,3.18740399 -0.268493823,3.82488479 1.37230176,3.82488479 L35.918507,3.82488479 Z" id="Shape"></path>
                    </g>
                    <g id="XMLID_2_" fill="#465A79">
                        <path d="M36.5151599,4.78110599 L2.02861999,4.78110599 C1.61096294,4.78110599 0.328159117,4.78110599 0.119330588,3.88863287 C-0.0894979409,2.99615975 1.07397529,2.35867896 1.43196706,2.16743472 L2.74460352,1.46620584 C4.29590117,0.637480799 6.95100675,0.0318740399 8.65146762,0 L29.6238185,0 C29.6238185,0 29.6238185,0 29.6536511,0 C31.3839446,0 34.0092176,0.605606759 35.5605152,1.4343318 L37.0819802,2.19930876 C37.4698046,2.390553 38.6034452,2.99615975 38.4244493,3.88863287 C38.2156208,4.78110599 36.932817,4.78110599 36.5151599,4.78110599 Z M1.64079558,3.50614439 C1.73029352,3.50614439 1.87945676,3.50614439 2.02861999,3.50614439 L36.5151599,3.50614439 C36.6643231,3.50614439 36.7836537,3.50614439 36.8731517,3.50614439 C36.7836537,3.44239631 36.6941558,3.37864823 36.5449926,3.31490015 L35.0235276,2.51804916 C33.6512258,1.78494624 31.1751161,1.17933948 29.6238185,1.17933948 L8.65146762,1.24308756 C7.10016998,1.24308756 4.65389293,1.88056836 3.25175852,2.61367127 L1.93912205,3.31490015 C1.84962411,3.37864823 1.73029352,3.44239631 1.64079558,3.50614439 Z" id="XMLID_18_"></path>
                    </g>
                </g>
                <g id="XMLID_413_" transform="translate(4.773224, 55.142089)" fill="#465A79">
                    <path d="M59.068641,1.2749616 L0.59665294,1.2749616 C0.268493823,1.2749616 0,0.988095238 0,0.637480799 C0,0.286866359 0.268493823,0 0.59665294,0 L59.068641,0 C59.3968001,0 59.665294,0.286866359 59.665294,0.637480799 C59.665294,0.988095238 59.3968001,1.2749616 59.068641,1.2749616 Z" id="XMLID_17_"></path>
                </g>
                <g id="XMLID_412_" transform="translate(14.916323, 58.010753)" fill="#465A79">
                    <path d="M38.7824411,1.2749616 L0.59665294,1.2749616 C0.268493823,1.2749616 0,0.988095238 0,0.637480799 C0,0.286866359 0.268493823,0 0.59665294,0 L38.7824411,0 C39.1106002,0 39.379094,0.286866359 39.379094,0.637480799 C39.379094,0.988095238 39.1106002,1.2749616 38.7824411,1.2749616 Z" id="XMLID_16_"></path>
                </g>
                <g id="XMLID_411_" transform="translate(1.789959, 2.231183)" fill="#F3F3F3">
                    <path d="M63.0662157,34.7108295 L2.50594235,34.7108295 C1.19330588,34.7108295 0.119330588,33.5633641 0.119330588,32.1609063 L0.119330588,2.67741935 C0.119330588,1.2749616 1.19330588,0.12749616 2.50594235,0.12749616 L63.0662157,0.12749616 C64.3788522,0.12749616 65.4528275,1.2749616 65.4528275,2.67741935 L65.4528275,32.1609063 C65.4528275,33.5633641 64.3788522,34.7108295 63.0662157,34.7108295 Z" id="Shape"></path>
                </g>
                <g id="XMLID_410_" transform="translate(1.789959, 2.231183)" fill="#38A0DE">
                    <path d="M65.3334969,4.14362519 L65.3334969,2.67741935 C65.3334969,1.2749616 64.4086848,0 63.1557137,0 L2.11811794,0 C0.865146762,0 0,1.2749616 0,2.67741935 L0,4.14362519 L65.3334969,4.14362519 Z" id="Shape"></path>
                </g>
                <g id="XMLID_409_" transform="translate(3.579918, 3.506144)" fill="#DEE2E6">
                    <ellipse id="Oval" cx="0.745816175" cy="0.892473118" rx="1" ry="1"></ellipse>
                </g>
                <g id="XMLID_408_" transform="translate(5.668203, 3.506144)" fill="#DEE2E6">
                    <ellipse id="Oval" cx="0.924812056" cy="0.892473118" rx="1" ry="1"></ellipse>
                </g>
                <g id="XMLID_407_" transform="translate(6.563182, 11.155914)" fill="#43BFF5">
                    <polygon id="XMLID_15_" points="14.0511767 20.8774962 10.4712591 3.60176651 3.52025234 16.2557604 0 16.2557604 0 14.9807988 2.83410146 14.9807988 10.9784141 0.1593702 14.4390011 16.733871 18.2277473 7.33102919 25.0594235 7.33102919 25.0594235 8.60599078 19.0033961 8.60599078"></polygon>
                </g>
                <g id="XMLID_406_" transform="translate(35.202523, 14.343318)">
                    <path d="M0.59665294,0.637480799 L25.0594235,0.637480799" id="XMLID_12_" fill="#F7F8F9"></path>
                    <path d="M25.0594235,1.2749616 L0.59665294,1.2749616 C0.268493823,1.2749616 0,0.988095238 0,0.637480799 C0,0.286866359 0.268493823,0 0.59665294,0 L25.0594235,0 C25.3875826,0 25.6560764,0.286866359 25.6560764,0.637480799 C25.6560764,0.988095238 25.3875826,1.2749616 25.0594235,1.2749616 Z" id="XMLID_13_" fill="#465A79"></path>
                </g>
                <g id="XMLID_405_" transform="translate(35.202523, 20.718126)">
                    <path d="M0.59665294,0.637480799 L25.0594235,0.637480799" id="XMLID_10_" fill="#F7F8F9"></path>
                    <path d="M25.0594235,1.2749616 L0.59665294,1.2749616 C0.268493823,1.2749616 0,0.988095238 0,0.637480799 C0,0.286866359 0.268493823,0 0.59665294,0 L25.0594235,0 C25.3875826,0 25.6560764,0.286866359 25.6560764,0.637480799 C25.6560764,0.988095238 25.3875826,1.2749616 25.0594235,1.2749616 Z" id="XMLID_11_" fill="#465A79"></path>
                </g>
                <g id="XMLID_404_" transform="translate(35.202523, 27.411674)">
                    <path d="M0.59665294,0.637480799 L15.21465,0.637480799" id="XMLID_8_" fill="#F7F8F9"></path>
                    <path d="M15.21465,1.2749616 L0.59665294,1.2749616 C0.268493823,1.2749616 0,0.988095238 0,0.637480799 C0,0.286866359 0.268493823,0 0.59665294,0 L15.21465,0 C15.5428091,0 15.8113029,0.286866359 15.8113029,0.637480799 C15.8113029,0.988095238 15.5428091,1.2749616 15.21465,1.2749616 Z" id="XMLID_9_" fill="#465A79"></path>
                </g>
                <g id="XMLID_403_" transform="translate(59.366967, 31.555300)">
                    <ellipse id="XMLID_1_" fill="#38A0DE" cx="7.81615351" cy="8.41474654" rx="7.18966792" ry="7.68164363"></ellipse>
                    <path d="M7.81615351,16.733871 C3.52025234,16.733871 0.029832647,13.0046083 0.029832647,8.41474654 C0.029832647,3.82488479 3.52025234,0.0956221198 7.81615351,0.0956221198 C12.1120547,0.0956221198 15.6024744,3.82488479 15.6024744,8.41474654 C15.6024744,13.0046083 12.1120547,16.733871 7.81615351,16.733871 Z M7.81615351,1.37058372 C4.17657058,1.37058372 1.22313853,4.52611367 1.22313853,8.41474654 C1.22313853,12.3033794 4.17657058,15.4589094 7.81615351,15.4589094 C11.4557364,15.4589094 14.4091685,12.3033794 14.4091685,8.41474654 C14.4091685,4.52611367 11.4557364,1.37058372 7.81615351,1.37058372 Z" id="XMLID_5_" fill="#465A79"></path>
                </g>
                <g id="XMLID_401_" transform="translate(62.051906, 36.336406)" fill="#F7F8F9">
                    <path d="M3.72908087,7.80913978 L0.417657058,5.00422427 C0.238661176,4.84485407 0.178995882,4.52611367 0.357991764,4.33486943 C0.507154999,4.14362519 0.805481469,4.07987711 0.98447735,4.27112135 L3.63958293,6.53417819 L8.74096557,0.318740399 C8.8901288,0.12749616 9.18845527,0.0956221198 9.36745115,0.286866359 C9.54644703,0.446236559 9.57627968,0.764976959 9.3972838,0.956221198 L3.72908087,7.80913978 Z" id="XMLID_4_"></path>
                </g>
                <g id="XMLID_400_" transform="translate(26.849382, 46.217358)" fill="#DEE2E6">
                    <rect id="Rectangle-path" x="0.178995882" y="0.286866359" width="14.9163235" height="2.93241167"></rect>
                </g>
            </g>
        </g>
    </g>
</svg>