<?xml version="1.0" encoding="UTF-8"?>
<svg width="46px" height="27px" viewBox="0 0 46 27" version="1.1" xmlns="http://www.w3.org/2000/svg" xmlns:xlink="http://www.w3.org/1999/xlink">
    <!-- Generator: Sketch 50 (54983) - http://www.bohemiancoding.com/sketch -->
    <title>箭头</title>
    <desc>Created with Sketch.</desc>
    <defs></defs>
    <g id="Page-1" stroke="none" stroke-width="1" fill="none" fill-rule="evenodd">
        <g id="官网-医咖会" transform="translate(-624.000000, -562.000000)" fill="#2469a0" fill-rule="nonzero">
            <g id="箭头" transform="translate(624.000000, 562.000000)">
                <path d="M0,12 C0,13.1045695 0.8954305,14 2,14 C3.1045695,14 4,13.1045695 4,12 C4,10.8954305 3.1045695,10 2,10 C0.8954305,10 6.60969987e-16,10.8954305 0,12 Z" id="Shape"></path>
                <path d="M9,12 C9,13.1045695 9.8954305,14 11,14 C12.1045695,14 13,13.1045695 13,12 C13,10.8954305 12.1045695,10 11,10 C9.8954305,10 9,10.8954305 9,12 Z" id="Shape"></path>
                <path d="M17,12 C17,13.1045695 17.8954305,14 19,14 C20.1045695,14 21,13.1045695 21,12 C21,10.8954305 20.1045695,10 19,10 C17.8954305,10 17,10.8954305 17,12 Z" id="Shape"></path>
                <path d="M25,12 C25,13.1045695 25.8954305,14 27,14 C28.1045695,14 29,13.1045695 29,12 C29,10.8954305 28.1045695,10 27,10 C25.8954305,10 25,10.8954305 25,12 Z" id="Shape"></path>
                <path d="M45.7064726,12.6826148 C44.9069968,11.9189218 32.7063002,0.468721644 32.7063002,0.468721644 C32.7063002,0.468721644 31.1421083,-0.585902055 30,0.468721644 C32.1718813,2.72454782 32.6264776,2.92942605 32.1764207,2.92942605 L43.4926925,13.3135419 L31.7218244,24.569106 C31.004911,24.0769311 29.6608161,25.3614633 30.6440224,26.6238946 C31.4732924,27.6889087 32.7658885,26.1537442 32.7658885,26.1537442 L45.7064726,14.0021933 C45.7064726,14.0021933 46.3669092,13.3112329 45.7064726,12.6826148 Z" id="Shape"></path>
            </g>
        </g>
    </g>
</svg>