<?xml version="1.0" encoding="UTF-8"?>
<svg width="70px" height="80px" viewBox="0 0 70 80" version="1.1" xmlns="http://www.w3.org/2000/svg" xmlns:xlink="http://www.w3.org/1999/xlink">
    <!-- Generator: Sketch 50 (54983) - http://www.bohemiancoding.com/sketch -->
    <title>未标题-3</title>
    <desc>Created with Sketch.</desc>
    <defs></defs>
    <g id="Page-1" stroke="none" stroke-width="1" fill="none" fill-rule="evenodd">
        <g id="官网-中国队列共享平台" transform="translate(-915.000000, -1215.000000)" fill-rule="nonzero">
            <g id="未标题-3" transform="translate(915.000000, 1215.000000)">
                <g id="XMLID_80_" transform="translate(3.373775, 3.995952)">
                    <g id="XMLID_29_" transform="translate(0.306707, 0.307381)" fill="#DEE2E6">
                        <polygon id="Shape" points="0.0920120331 53.5150129 0 17.8895678 30.7626897 0.030738089 61.6480622 17.7973535 61.7400742 53.4227987 30.9773845 71.2816284"></polygon>
                    </g>
                    <g id="XMLID_16_" fill="#465A79">
                        <g id="XMLID_28_" transform="translate(0.000000, 53.484275)">
                            <polygon id="XMLID_399_" points="0.613413554 0.61476178 0.245365421 0.430333246 0.245365421 0.030738089 0.552072198 0.030738089 0.552072198 0.245904712 0.766766942 0.368857068"></polygon>
                        </g>
                        <g id="XMLID_27_" transform="translate(0.000000, 19.364996)">
                            <path d="M0.245365421,33.2278742 L0.245365421,32.6131124 L0.552072198,32.6131124 L0.552072198,33.2278742 L0.245365421,33.2278742 Z M0.245365421,31.6602317 L0.245365421,31.0454699 L0.552072198,31.0454699 L0.552072198,31.6602317 L0.245365421,31.6602317 Z M0.245365421,30.1233272 L0.245365421,29.5085654 L0.552072198,29.5085654 L0.552072198,30.1233272 L0.245365421,30.1233272 Z M0.245365421,28.5864228 L0.245365421,27.971661 L0.552072198,27.971661 L0.552072198,28.5864228 L0.245365421,28.5864228 Z M0.245365421,27.0187802 L0.245365421,26.4040184 L0.552072198,26.4040184 L0.552072198,27.0187802 L0.245365421,27.0187802 Z M0.245365421,25.4818758 L0.245365421,24.867114 L0.552072198,24.867114 L0.552072198,25.4818758 L0.245365421,25.4818758 Z M0.214694744,23.9142332 L0.214694744,23.2994715 L0.521401521,23.2994715 L0.521401521,23.9142332 L0.214694744,23.9142332 Z M0.214694744,22.3773288 L0.214694744,21.762567 L0.521401521,21.762567 L0.521401521,22.3773288 L0.214694744,22.3773288 Z M0.214694744,20.8404243 L0.214694744,20.2256626 L0.521401521,20.2256626 L0.521401521,20.8404243 L0.214694744,20.8404243 Z M0.214694744,19.2727818 L0.214694744,18.65802 L0.521401521,18.65802 L0.521401521,19.2727818 L0.214694744,19.2727818 Z M0.214694744,17.7358773 L0.214694744,17.1211156 L0.521401521,17.1211156 L0.521401521,17.7358773 L0.214694744,17.7358773 Z M0.214694744,16.1682348 L0.214694744,15.553473 L0.521401521,15.553473 L0.521401521,16.1682348 L0.214694744,16.1682348 Z M0.184024066,14.6313304 L0.184024066,14.0165686 L0.490730843,14.0165686 L0.490730843,14.6313304 L0.184024066,14.6313304 Z M0.184024066,13.0636878 L0.184024066,12.448926 L0.490730843,12.448926 L0.490730843,13.0636878 L0.184024066,13.0636878 Z M0.184024066,11.5267834 L0.184024066,10.9120216 L0.490730843,10.9120216 L0.490730843,11.5267834 L0.184024066,11.5267834 Z M0.184024066,9.98987892 L0.184024066,9.37511714 L0.490730843,9.37511714 L0.490730843,9.98987892 L0.184024066,9.98987892 Z M0.184024066,8.42223638 L0.184024066,7.8074746 L0.490730843,7.8074746 L0.490730843,8.42223638 L0.184024066,8.42223638 Z M0.184024066,6.88533193 L0.184024066,6.27057015 L0.490730843,6.27057015 L0.490730843,6.88533193 L0.184024066,6.88533193 Z M0.184024066,5.3176894 L0.184024066,4.70292762 L0.490730843,4.70292762 L0.490730843,5.3176894 L0.184024066,5.3176894 Z M0.153353388,3.78078495 L0.153353388,3.16602317 L0.460060165,3.16602317 L0.460060165,3.78078495 L0.153353388,3.78078495 Z M0.153353388,2.2438805 L0.153353388,1.62911872 L0.460060165,1.62911872 L0.460060165,2.2438805 L0.153353388,2.2438805 Z M0.153353388,0.676237958 L0.153353388,0.061476178 L0.460060165,0.061476178 L0.460060165,0.676237958 L0.153353388,0.676237958 Z" id="XMLID_376_"></path>
                        </g>
                        <g id="XMLID_26_" transform="translate(0.000000, 17.828092)">
                            <polygon id="XMLID_375_" points="0.153353388 0.676237958 0.153353388 0.276642801 0.490730843 0.061476178 0.644084231 0.338118979 0.460060165 0.461071335 0.460060165 0.676237958"></polygon>
                        </g>
                        <g id="XMLID_25_" transform="translate(1.226827, 0.614762)">
                            <path d="M0.214694744,17.0903775 L0.0613413554,16.8137347 L0.582742876,16.5063538 L0.736096264,16.7829966 L0.214694744,17.0903775 Z M1.56420456,16.3219253 L1.41085117,16.0452825 L1.93225269,15.7379016 L2.08560608,16.0145444 L1.56420456,16.3219253 Z M2.91371438,15.5227349 L2.76036099,15.2460921 L3.28176251,14.9387112 L3.4351159,15.2153541 L2.91371438,15.5227349 Z M4.23255352,14.7542827 L4.07920013,14.4776399 L4.60060165,14.170259 L4.75395504,14.4469018 L4.23255352,14.7542827 Z M5.58206334,13.9858305 L5.42870995,13.7091877 L5.95011147,13.4018068 L6.10346486,13.6784496 L5.58206334,13.9858305 Z M6.90090248,13.1866402 L6.74754909,12.9099974 L7.26895061,12.6026165 L7.422304,12.8792593 L6.90090248,13.1866402 Z M8.2504123,12.418188 L8.09705891,12.1415452 L8.61846043,11.8341643 L8.77181382,12.1108071 L8.2504123,12.418188 Z M9.59992212,11.6497357 L9.44656873,11.3730929 L9.96797025,11.065712 L10.1213236,11.3423548 L9.59992212,11.6497357 Z M10.9187613,10.8812835 L10.7654079,10.6046407 L11.2868094,10.2972598 L11.4401628,10.5739026 L10.9187613,10.8812835 Z M12.2682711,10.0820932 L12.1149177,9.80545039 L12.6363192,9.4980695 L12.7896726,9.7747123 L12.2682711,10.0820932 Z M13.6177809,9.31364096 L13.4644275,9.03699816 L13.985829,8.72961727 L14.1391824,9.00626007 L13.6177809,9.31364096 Z M14.93662,8.54518874 L14.7832666,8.26854594 L15.3046682,7.96116505 L15.4580216,8.23780785 L14.93662,8.54518874 Z M16.2861299,7.77673651 L16.1327765,7.50009371 L16.654178,7.19271282 L16.8075314,7.46935562 L16.2861299,7.77673651 Z M17.604969,6.9775462 L17.4516156,6.7009034 L17.9730171,6.39352251 L18.1263705,6.67016531 L17.604969,6.9775462 Z M18.9544788,6.20909398 L18.8011254,5.93245118 L19.3225269,5.62507029 L19.4758803,5.90171309 L18.9544788,6.20909398 Z M20.3039886,5.44064175 L20.1506352,5.16399895 L20.6720368,4.85661806 L20.8253901,5.13326086 L20.3039886,5.44064175 Z M21.6228278,4.67218953 L21.4694744,4.39554673 L21.9908759,4.08816584 L22.1442293,4.36480864 L21.6228278,4.67218953 Z M22.9723376,3.87299921 L22.8189842,3.59635641 L23.3403857,3.28897552 L23.4937391,3.56561832 L22.9723376,3.87299921 Z M24.3218474,3.10454699 L24.168494,2.82790419 L24.6898955,2.5205233 L24.8432489,2.7971661 L24.3218474,3.10454699 Z M25.6406865,2.33609476 L25.4873332,2.05945196 L26.0087347,1.75207107 L26.1620881,2.02871387 L25.6406865,2.33609476 Z M26.9901964,1.53690445 L26.836843,1.26026165 L27.3582445,0.952880759 L27.5115979,1.22952356 L26.9901964,1.53690445 Z M28.3397062,0.768452225 L28.1863528,0.491809424 L28.7077543,0.184428534 L28.8611077,0.461071335 L28.3397062,0.768452225 Z" id="XMLID_352_"></path>
                        </g>
                        <g id="XMLID_24_" transform="translate(30.670678, 0.000000)">
                            <polygon id="XMLID_351_" points="0.214694744 0.61476178 0.0613413554 0.338118979 0.39871881 0.153690445 0.736096264 0.338118979 0.582742876 0.61476178 0.39871881 0.491809424"></polygon>
                        </g>
                        <g id="XMLID_23_" transform="translate(31.897505, 0.614762)">
                            <path d="M28.9224491,16.9981632 L28.3703769,16.6907823 L28.5237302,16.4141395 L29.0758024,16.7215204 L28.9224491,16.9981632 Z M27.5729392,16.229711 L27.020867,15.9223301 L27.1742204,15.6456873 L27.7262926,15.9530682 L27.5729392,16.229711 Z M26.2234294,15.4612588 L25.6713572,15.1538779 L25.8247106,14.8772351 L26.3767828,15.184616 L26.2234294,15.4612588 Z M24.8739196,14.6928065 L24.3218474,14.3854256 L24.4752008,14.1087828 L25.027273,14.4161637 L24.8739196,14.6928065 Z M23.5244098,13.9243543 L22.9723376,13.6169734 L23.125691,13.3403306 L23.6777632,13.6477115 L23.5244098,13.9243543 Z M22.2055706,13.125164 L21.6534984,12.8177831 L21.8068518,12.5411403 L22.358924,12.8485212 L22.2055706,13.125164 Z M20.8560608,12.3567118 L20.3039886,12.0493309 L20.457342,11.7726881 L21.0094142,12.080069 L20.8560608,12.3567118 Z M19.506551,11.5882595 L18.9544788,11.2808787 L19.1078322,11.0042359 L19.6599044,11.3116167 L19.506551,11.5882595 Z M18.1570412,10.8198073 L17.604969,10.5124264 L17.7583224,10.2357836 L18.3103946,10.5431645 L18.1570412,10.8198073 Z M16.8382021,10.0513551 L16.2861299,9.74397421 L16.4394832,9.46733141 L16.9915554,9.7747123 L16.8382021,10.0513551 Z M15.4886922,9.28290288 L14.93662,8.97552199 L15.0899734,8.69887918 L15.6420456,9.00626007 L15.4886922,9.28290288 Z M14.1391824,8.51445065 L13.5871102,8.20706976 L13.7404636,7.93042696 L14.2925358,8.23780785 L14.1391824,8.51445065 Z M12.7896726,7.71526034 L12.2376004,7.40787945 L12.3909538,7.13123665 L12.943026,7.43861754 L12.7896726,7.71526034 Z M11.4401628,6.94680811 L10.8880906,6.63942722 L11.041444,6.36278442 L11.5935162,6.67016531 L11.4401628,6.94680811 Z M10.1213236,6.17835589 L9.56925144,5.870975 L9.72260483,5.5943322 L10.274677,5.90171309 L10.1213236,6.17835589 Z M8.77181382,5.40990366 L8.21974162,5.10252277 L8.37309501,4.82587997 L8.92516721,5.13326086 L8.77181382,5.40990366 Z M7.422304,4.64145144 L6.8702318,4.33407055 L7.02358519,4.05742775 L7.57565739,4.36480864 L7.422304,4.64145144 Z M6.07279418,3.87299921 L5.52072198,3.56561832 L5.67407537,3.28897552 L6.22614757,3.59635641 L6.07279418,3.87299921 Z M4.75395504,3.0738089 L4.20188284,2.76642801 L4.35523623,2.48978521 L4.90730843,2.7971661 L4.75395504,3.0738089 Z M3.40444522,2.30535667 L2.85237302,1.99797578 L3.00572641,1.72133298 L3.55779861,2.02871387 L3.40444522,2.30535667 Z M2.05493541,1.53690445 L1.50286321,1.22952356 L1.6562166,0.952880759 L2.20828879,1.26026165 L2.05493541,1.53690445 Z M0.705425587,0.768452225 L0.153353388,0.461071335 L0.306706777,0.184428534 L0.858778975,0.491809424 L0.705425587,0.768452225 Z" id="XMLID_328_"></path>
                        </g>
                        <g id="XMLID_22_" transform="translate(61.341355, 17.828092)">
                            <polygon id="XMLID_327_" points="0.460060165 0.584023691 0.460060165 0.368857068 0.276036099 0.245904712 0.429389488 0 0.766766942 0.184428534 0.766766942 0.584023691"></polygon>
                        </g>
                        <g id="XMLID_21_" transform="translate(61.648062, 19.057615)">
                            <path d="M0.245365421,33.4430408 L0.245365421,32.828279 L0.552072198,32.828279 L0.552072198,33.4430408 L0.245365421,33.4430408 Z M0.245365421,31.9061364 L0.245365421,31.2913746 L0.552072198,31.2913746 L0.552072198,31.9061364 L0.245365421,31.9061364 Z M0.245365421,30.3384938 L0.245365421,29.7237321 L0.552072198,29.7237321 L0.552072198,30.3384938 L0.245365421,30.3384938 Z M0.245365421,28.8015894 L0.245365421,28.1868276 L0.552072198,28.1868276 L0.552072198,28.8015894 L0.245365421,28.8015894 Z M0.245365421,27.2339468 L0.245365421,26.6191851 L0.552072198,26.6191851 L0.552072198,27.2339468 L0.245365421,27.2339468 Z M0.214694744,25.6970424 L0.214694744,25.0822806 L0.521401521,25.0822806 L0.521401521,25.6970424 L0.214694744,25.6970424 Z M0.214694744,24.1601379 L0.214694744,23.5453762 L0.521401521,23.5453762 L0.521401521,24.1601379 L0.214694744,24.1601379 Z M0.214694744,22.5924954 L0.214694744,21.9777336 L0.521401521,21.9777336 L0.521401521,22.5924954 L0.214694744,22.5924954 Z M0.214694744,21.055591 L0.214694744,20.4408292 L0.521401521,20.4408292 L0.521401521,21.055591 L0.214694744,21.055591 Z M0.214694744,19.4879484 L0.214694744,18.8731866 L0.521401521,18.8731866 L0.521401521,19.4879484 L0.214694744,19.4879484 Z M0.214694744,17.951044 L0.214694744,17.3362822 L0.521401521,17.3362822 L0.521401521,17.951044 L0.214694744,17.951044 Z M0.214694744,16.3834014 L0.214694744,15.7686397 L0.521401521,15.7686397 L0.521401521,16.3834014 L0.214694744,16.3834014 Z M0.184024066,14.846497 L0.184024066,14.2317352 L0.490730843,14.2317352 L0.490730843,14.846497 L0.184024066,14.846497 Z M0.184024066,13.3095925 L0.184024066,12.6948308 L0.490730843,12.6948308 L0.490730843,13.3095925 L0.184024066,13.3095925 Z M0.184024066,11.74195 L0.184024066,11.1271882 L0.490730843,11.1271882 L0.490730843,11.74195 L0.184024066,11.74195 Z M0.184024066,10.2050455 L0.184024066,9.59028377 L0.490730843,9.59028377 L0.490730843,10.2050455 L0.184024066,10.2050455 Z M0.184024066,8.63740301 L0.184024066,8.02264123 L0.490730843,8.02264123 L0.490730843,8.63740301 L0.184024066,8.63740301 Z M0.184024066,7.10049856 L0.184024066,6.48573678 L0.490730843,6.48573678 L0.490730843,7.10049856 L0.184024066,7.10049856 Z M0.184024066,5.56359411 L0.184024066,4.94883233 L0.490730843,4.94883233 L0.490730843,5.56359411 L0.184024066,5.56359411 Z M0.153353388,3.99595157 L0.153353388,3.38118979 L0.460060165,3.38118979 L0.460060165,3.99595157 L0.153353388,3.99595157 Z M0.153353388,2.45904712 L0.153353388,1.84428534 L0.460060165,1.84428534 L0.460060165,2.45904712 L0.153353388,2.45904712 Z M0.153353388,0.891404581 L0.153353388,0.276642801 L0.460060165,0.276642801 L0.460060165,0.891404581 L0.153353388,0.891404581 Z" id="XMLID_304_"></path>
                        </g>
                        <g id="XMLID_20_" transform="translate(61.648062, 53.176894)">
                            <polygon id="XMLID_303_" points="0.214694744 0.860666492 0.0613413554 0.584023691 0.245365421 0.461071335 0.245365421 0.245904712 0.552072198 0.245904712 0.552072198 0.645499869"></polygon>
                        </g>
                        <g id="XMLID_19_" transform="translate(32.204212, 54.099037)">
                            <path d="M0.214694744,17.0289013 L0.0613413554,16.7522585 L0.582742876,16.4448776 L0.736096264,16.7215204 L0.214694744,17.0289013 Z M1.56420456,16.229711 L1.41085117,15.9530682 L1.93225269,15.6456873 L2.08560608,15.9223301 L1.56420456,16.229711 Z M2.91371438,15.4612588 L2.76036099,15.184616 L3.28176251,14.8772351 L3.4351159,15.1538779 L2.91371438,15.4612588 Z M4.23255352,14.6928065 L4.07920013,14.4161637 L4.60060165,14.1087828 L4.75395504,14.3854256 L4.23255352,14.6928065 Z M5.58206334,13.8936162 L5.42870995,13.6169734 L5.95011147,13.3095925 L6.10346486,13.5862353 L5.58206334,13.8936162 Z M6.93157316,13.125164 L6.77821977,12.8485212 L7.29962129,12.5411403 L7.45297468,12.8177831 L6.93157316,13.125164 Z M8.2504123,12.3567118 L8.09705891,12.080069 L8.61846043,11.7726881 L8.77181382,12.0493309 L8.2504123,12.3567118 Z M9.59992212,11.5882595 L9.44656873,11.3116167 L9.96797025,11.0042359 L10.1213236,11.2808787 L9.59992212,11.5882595 Z M10.9187613,10.7890692 L10.7654079,10.5124264 L11.2868094,10.2050455 L11.4401628,10.4816883 L10.9187613,10.7890692 Z M12.2682711,10.020617 L12.1149177,9.74397421 L12.6363192,9.43659332 L12.7896726,9.71323612 L12.2682711,10.020617 Z M13.6177809,9.25216479 L13.4644275,8.97552199 L13.985829,8.6681411 L14.1391824,8.9447839 L13.6177809,9.25216479 Z M14.93662,8.48371256 L14.7832666,8.20706976 L15.3046682,7.89968887 L15.4580216,8.17633167 L14.93662,8.48371256 Z M16.2861299,7.68452225 L16.1327765,7.40787945 L16.654178,7.10049856 L16.8075314,7.37714136 L16.2861299,7.68452225 Z M17.6356397,6.91607002 L17.4822863,6.63942722 L18.0036878,6.33204633 L18.1570412,6.60868913 L17.6356397,6.91607002 Z M18.9544788,6.1476178 L18.8011254,5.870975 L19.3225269,5.56359411 L19.4758803,5.84023691 L18.9544788,6.1476178 Z M20.3039886,5.37916557 L20.1506352,5.10252277 L20.6720368,4.79514188 L20.8253901,5.07178468 L20.3039886,5.37916557 Z M21.6228278,4.57997526 L21.4694744,4.30333246 L21.9908759,3.99595157 L22.1442293,4.27259437 L21.6228278,4.57997526 Z M22.9723376,3.81152303 L22.8189842,3.53488023 L23.3403857,3.22749934 L23.4937391,3.50414214 L22.9723376,3.81152303 Z M24.3218474,3.04307081 L24.168494,2.76642801 L24.6898955,2.45904712 L24.8432489,2.73568992 L24.3218474,3.04307081 Z M25.6406865,2.2438805 L25.4873332,1.9672377 L26.0087347,1.65985681 L26.1620881,1.93649961 L25.6406865,2.2438805 Z M26.9901964,1.47542827 L26.836843,1.19878547 L27.3582445,0.891404581 L27.5115979,1.16804738 L26.9901964,1.47542827 Z M28.3397062,0.706976047 L28.1863528,0.430333246 L28.7077543,0.122952356 L28.8611077,0.399595157 L28.3397062,0.706976047 Z" id="XMLID_280_"></path>
                        </g>
                        <g id="XMLID_18_" transform="translate(30.670678, 71.312366)">
                            <polygon id="XMLID_279_" points="0.613413554 0.461071335 0.276036099 0.276642801 0.429389488 0 0.613413554 0.122952356 0.79743762 0 0.950791008 0.276642801"></polygon>
                        </g>
                        <g id="XMLID_17_" transform="translate(1.226827, 54.099037)">
                            <path d="M28.9224491,17.0289013 L28.3703769,16.7215204 L28.5237302,16.4448776 L29.0758024,16.7522585 L28.9224491,17.0289013 Z M27.5729392,16.2604491 L27.020867,15.9530682 L27.1742204,15.6764254 L27.7262926,15.9838063 L27.5729392,16.2604491 Z M26.2234294,15.4612588 L25.6713572,15.1538779 L25.8247106,14.8772351 L26.3767828,15.184616 L26.2234294,15.4612588 Z M24.8739196,14.6928065 L24.3218474,14.3854256 L24.4752008,14.1087828 L25.027273,14.4161637 L24.8739196,14.6928065 Z M23.5550805,13.9243543 L23.0030083,13.6169734 L23.1563617,13.3403306 L23.7084339,13.6477115 L23.5550805,13.9243543 Z M22.2055706,13.1559021 L21.6534984,12.8485212 L21.8068518,12.5718784 L22.358924,12.8792593 L22.2055706,13.1559021 Z M20.8560608,12.3874499 L20.3039886,12.080069 L20.457342,11.8034262 L21.0094142,12.1108071 L20.8560608,12.3874499 Z M19.506551,11.6189976 L18.9544788,11.3116167 L19.1078322,11.0349739 L19.6599044,11.3423548 L19.506551,11.6189976 Z M18.1570412,10.8505454 L17.604969,10.5431645 L17.7583224,10.2665217 L18.3103946,10.5739026 L18.1570412,10.8505454 Z M16.8382021,10.0513551 L16.2861299,9.74397421 L16.4394832,9.46733141 L16.9915554,9.7747123 L16.8382021,10.0513551 Z M15.4886922,9.28290288 L14.93662,8.97552199 L15.0899734,8.69887918 L15.6420456,9.00626007 L15.4886922,9.28290288 Z M14.1391824,8.51445065 L13.5871102,8.20706976 L13.7404636,7.93042696 L14.2925358,8.23780785 L14.1391824,8.51445065 Z M12.7896726,7.74599843 L12.2376004,7.43861754 L12.3909538,7.16197473 L12.943026,7.46935562 L12.7896726,7.74599843 Z M11.4708335,6.9775462 L10.9187613,6.67016531 L11.0721146,6.39352251 L11.6241868,6.7009034 L11.4708335,6.9775462 Z M10.1213236,6.20909398 L9.56925144,5.90171309 L9.72260483,5.62507029 L10.274677,5.93245118 L10.1213236,6.20909398 Z M8.77181382,5.40990366 L8.21974162,5.10252277 L8.37309501,4.82587997 L8.92516721,5.13326086 L8.77181382,5.40990366 Z M7.422304,4.64145144 L6.8702318,4.33407055 L7.02358519,4.05742775 L7.57565739,4.36480864 L7.422304,4.64145144 Z M6.07279418,3.87299921 L5.52072198,3.56561832 L5.67407537,3.28897552 L6.22614757,3.59635641 L6.07279418,3.87299921 Z M4.75395504,3.10454699 L4.20188284,2.7971661 L4.35523623,2.5205233 L4.90730843,2.82790419 L4.75395504,3.10454699 Z M3.40444522,2.33609476 L2.85237302,2.02871387 L3.00572641,1.75207107 L3.55779861,2.05945196 L3.40444522,2.33609476 Z M2.05493541,1.56764254 L1.50286321,1.26026165 L1.6562166,0.983618848 L2.20828879,1.29099974 L2.05493541,1.56764254 Z M0.705425587,0.799190314 L0.153353388,0.491809424 L0.306706777,0.215166623 L0.858778975,0.522547513 L0.705425587,0.799190314 Z" id="XMLID_256_"></path>
                        </g>
                    </g>
                </g>
                <g id="XMLID_83_" transform="translate(3.373775, 3.995952)">
                    <g id="XMLID_15_" transform="translate(0.306707, 0.307381)" fill="#DEE2E6">
                        <polygon id="Shape" points="0.0920120331 53.5150129 0 17.8895678 30.7626897 0.030738089 61.6480622 17.7973535 61.7400742 53.4227987 30.9773845 71.2816284"></polygon>
                    </g>
                    <g id="XMLID_2_" fill="#465A79">
                        <g id="XMLID_14_" transform="translate(0.000000, 53.484275)">
                            <polygon id="XMLID_255_" points="0.613413554 0.61476178 0.245365421 0.430333246 0.245365421 0.030738089 0.552072198 0.030738089 0.552072198 0.245904712 0.766766942 0.368857068"></polygon>
                        </g>
                        <g id="XMLID_13_" transform="translate(0.000000, 19.364996)">
                            <path d="M0.245365421,33.2278742 L0.245365421,32.6131124 L0.552072198,32.6131124 L0.552072198,33.2278742 L0.245365421,33.2278742 Z M0.245365421,31.6602317 L0.245365421,31.0454699 L0.552072198,31.0454699 L0.552072198,31.6602317 L0.245365421,31.6602317 Z M0.245365421,30.1233272 L0.245365421,29.5085654 L0.552072198,29.5085654 L0.552072198,30.1233272 L0.245365421,30.1233272 Z M0.245365421,28.5864228 L0.245365421,27.971661 L0.552072198,27.971661 L0.552072198,28.5864228 L0.245365421,28.5864228 Z M0.245365421,27.0187802 L0.245365421,26.4040184 L0.552072198,26.4040184 L0.552072198,27.0187802 L0.245365421,27.0187802 Z M0.245365421,25.4818758 L0.245365421,24.867114 L0.552072198,24.867114 L0.552072198,25.4818758 L0.245365421,25.4818758 Z M0.214694744,23.9142332 L0.214694744,23.2994715 L0.521401521,23.2994715 L0.521401521,23.9142332 L0.214694744,23.9142332 Z M0.214694744,22.3773288 L0.214694744,21.762567 L0.521401521,21.762567 L0.521401521,22.3773288 L0.214694744,22.3773288 Z M0.214694744,20.8404243 L0.214694744,20.2256626 L0.521401521,20.2256626 L0.521401521,20.8404243 L0.214694744,20.8404243 Z M0.214694744,19.2727818 L0.214694744,18.65802 L0.521401521,18.65802 L0.521401521,19.2727818 L0.214694744,19.2727818 Z M0.214694744,17.7358773 L0.214694744,17.1211156 L0.521401521,17.1211156 L0.521401521,17.7358773 L0.214694744,17.7358773 Z M0.214694744,16.1682348 L0.214694744,15.553473 L0.521401521,15.553473 L0.521401521,16.1682348 L0.214694744,16.1682348 Z M0.184024066,14.6313304 L0.184024066,14.0165686 L0.490730843,14.0165686 L0.490730843,14.6313304 L0.184024066,14.6313304 Z M0.184024066,13.0636878 L0.184024066,12.448926 L0.490730843,12.448926 L0.490730843,13.0636878 L0.184024066,13.0636878 Z M0.184024066,11.5267834 L0.184024066,10.9120216 L0.490730843,10.9120216 L0.490730843,11.5267834 L0.184024066,11.5267834 Z M0.184024066,9.98987892 L0.184024066,9.37511714 L0.490730843,9.37511714 L0.490730843,9.98987892 L0.184024066,9.98987892 Z M0.184024066,8.42223638 L0.184024066,7.8074746 L0.490730843,7.8074746 L0.490730843,8.42223638 L0.184024066,8.42223638 Z M0.184024066,6.88533193 L0.184024066,6.27057015 L0.490730843,6.27057015 L0.490730843,6.88533193 L0.184024066,6.88533193 Z M0.184024066,5.3176894 L0.184024066,4.70292762 L0.490730843,4.70292762 L0.490730843,5.3176894 L0.184024066,5.3176894 Z M0.153353388,3.78078495 L0.153353388,3.16602317 L0.460060165,3.16602317 L0.460060165,3.78078495 L0.153353388,3.78078495 Z M0.153353388,2.2438805 L0.153353388,1.62911872 L0.460060165,1.62911872 L0.460060165,2.2438805 L0.153353388,2.2438805 Z M0.153353388,0.676237958 L0.153353388,0.061476178 L0.460060165,0.061476178 L0.460060165,0.676237958 L0.153353388,0.676237958 Z" id="XMLID_232_"></path>
                        </g>
                        <g id="XMLID_12_" transform="translate(0.000000, 17.828092)">
                            <polygon id="XMLID_231_" points="0.153353388 0.676237958 0.153353388 0.276642801 0.490730843 0.061476178 0.644084231 0.338118979 0.460060165 0.461071335 0.460060165 0.676237958"></polygon>
                        </g>
                        <g id="XMLID_11_" transform="translate(1.226827, 0.614762)">
                            <path d="M0.214694744,17.0903775 L0.0613413554,16.8137347 L0.582742876,16.5063538 L0.736096264,16.7829966 L0.214694744,17.0903775 Z M1.56420456,16.3219253 L1.41085117,16.0452825 L1.93225269,15.7379016 L2.08560608,16.0145444 L1.56420456,16.3219253 Z M2.91371438,15.5227349 L2.76036099,15.2460921 L3.28176251,14.9387112 L3.4351159,15.2153541 L2.91371438,15.5227349 Z M4.23255352,14.7542827 L4.07920013,14.4776399 L4.60060165,14.170259 L4.75395504,14.4469018 L4.23255352,14.7542827 Z M5.58206334,13.9858305 L5.42870995,13.7091877 L5.95011147,13.4018068 L6.10346486,13.6784496 L5.58206334,13.9858305 Z M6.90090248,13.1866402 L6.74754909,12.9099974 L7.26895061,12.6026165 L7.422304,12.8792593 L6.90090248,13.1866402 Z M8.2504123,12.418188 L8.09705891,12.1415452 L8.61846043,11.8341643 L8.77181382,12.1108071 L8.2504123,12.418188 Z M9.59992212,11.6497357 L9.44656873,11.3730929 L9.96797025,11.065712 L10.1213236,11.3423548 L9.59992212,11.6497357 Z M10.9187613,10.8812835 L10.7654079,10.6046407 L11.2868094,10.2972598 L11.4401628,10.5739026 L10.9187613,10.8812835 Z M12.2682711,10.0820932 L12.1149177,9.80545039 L12.6363192,9.4980695 L12.7896726,9.7747123 L12.2682711,10.0820932 Z M13.6177809,9.31364096 L13.4644275,9.03699816 L13.985829,8.72961727 L14.1391824,9.00626007 L13.6177809,9.31364096 Z M14.93662,8.54518874 L14.7832666,8.26854594 L15.3046682,7.96116505 L15.4580216,8.23780785 L14.93662,8.54518874 Z M16.2861299,7.77673651 L16.1327765,7.50009371 L16.654178,7.19271282 L16.8075314,7.46935562 L16.2861299,7.77673651 Z M17.604969,6.9775462 L17.4516156,6.7009034 L17.9730171,6.39352251 L18.1263705,6.67016531 L17.604969,6.9775462 Z M18.9544788,6.20909398 L18.8011254,5.93245118 L19.3225269,5.62507029 L19.4758803,5.90171309 L18.9544788,6.20909398 Z M20.3039886,5.44064175 L20.1506352,5.16399895 L20.6720368,4.85661806 L20.8253901,5.13326086 L20.3039886,5.44064175 Z M21.6228278,4.67218953 L21.4694744,4.39554673 L21.9908759,4.08816584 L22.1442293,4.36480864 L21.6228278,4.67218953 Z M22.9723376,3.87299921 L22.8189842,3.59635641 L23.3403857,3.28897552 L23.4937391,3.56561832 L22.9723376,3.87299921 Z M24.3218474,3.10454699 L24.168494,2.82790419 L24.6898955,2.5205233 L24.8432489,2.7971661 L24.3218474,3.10454699 Z M25.6406865,2.33609476 L25.4873332,2.05945196 L26.0087347,1.75207107 L26.1620881,2.02871387 L25.6406865,2.33609476 Z M26.9901964,1.53690445 L26.836843,1.26026165 L27.3582445,0.952880759 L27.5115979,1.22952356 L26.9901964,1.53690445 Z M28.3397062,0.768452225 L28.1863528,0.491809424 L28.7077543,0.184428534 L28.8611077,0.461071335 L28.3397062,0.768452225 Z" id="XMLID_208_"></path>
                        </g>
                        <g id="XMLID_10_" transform="translate(30.670678, 0.000000)">
                            <polygon id="XMLID_207_" points="0.214694744 0.61476178 0.0613413554 0.338118979 0.39871881 0.153690445 0.736096264 0.338118979 0.582742876 0.61476178 0.39871881 0.491809424"></polygon>
                        </g>
                        <g id="XMLID_9_" transform="translate(31.897505, 0.614762)">
                            <path d="M28.9224491,16.9981632 L28.3703769,16.6907823 L28.5237302,16.4141395 L29.0758024,16.7215204 L28.9224491,16.9981632 Z M27.5729392,16.229711 L27.020867,15.9223301 L27.1742204,15.6456873 L27.7262926,15.9530682 L27.5729392,16.229711 Z M26.2234294,15.4612588 L25.6713572,15.1538779 L25.8247106,14.8772351 L26.3767828,15.184616 L26.2234294,15.4612588 Z M24.8739196,14.6928065 L24.3218474,14.3854256 L24.4752008,14.1087828 L25.027273,14.4161637 L24.8739196,14.6928065 Z M23.5244098,13.9243543 L22.9723376,13.6169734 L23.125691,13.3403306 L23.6777632,13.6477115 L23.5244098,13.9243543 Z M22.2055706,13.125164 L21.6534984,12.8177831 L21.8068518,12.5411403 L22.358924,12.8485212 L22.2055706,13.125164 Z M20.8560608,12.3567118 L20.3039886,12.0493309 L20.457342,11.7726881 L21.0094142,12.080069 L20.8560608,12.3567118 Z M19.506551,11.5882595 L18.9544788,11.2808787 L19.1078322,11.0042359 L19.6599044,11.3116167 L19.506551,11.5882595 Z M18.1570412,10.8198073 L17.604969,10.5124264 L17.7583224,10.2357836 L18.3103946,10.5431645 L18.1570412,10.8198073 Z M16.8382021,10.0513551 L16.2861299,9.74397421 L16.4394832,9.46733141 L16.9915554,9.7747123 L16.8382021,10.0513551 Z M15.4886922,9.28290288 L14.93662,8.97552199 L15.0899734,8.69887918 L15.6420456,9.00626007 L15.4886922,9.28290288 Z M14.1391824,8.51445065 L13.5871102,8.20706976 L13.7404636,7.93042696 L14.2925358,8.23780785 L14.1391824,8.51445065 Z M12.7896726,7.71526034 L12.2376004,7.40787945 L12.3909538,7.13123665 L12.943026,7.43861754 L12.7896726,7.71526034 Z M11.4401628,6.94680811 L10.8880906,6.63942722 L11.041444,6.36278442 L11.5935162,6.67016531 L11.4401628,6.94680811 Z M10.1213236,6.17835589 L9.56925144,5.870975 L9.72260483,5.5943322 L10.274677,5.90171309 L10.1213236,6.17835589 Z M8.77181382,5.40990366 L8.21974162,5.10252277 L8.37309501,4.82587997 L8.92516721,5.13326086 L8.77181382,5.40990366 Z M7.422304,4.64145144 L6.8702318,4.33407055 L7.02358519,4.05742775 L7.57565739,4.36480864 L7.422304,4.64145144 Z M6.07279418,3.87299921 L5.52072198,3.56561832 L5.67407537,3.28897552 L6.22614757,3.59635641 L6.07279418,3.87299921 Z M4.75395504,3.0738089 L4.20188284,2.76642801 L4.35523623,2.48978521 L4.90730843,2.7971661 L4.75395504,3.0738089 Z M3.40444522,2.30535667 L2.85237302,1.99797578 L3.00572641,1.72133298 L3.55779861,2.02871387 L3.40444522,2.30535667 Z M2.05493541,1.53690445 L1.50286321,1.22952356 L1.6562166,0.952880759 L2.20828879,1.26026165 L2.05493541,1.53690445 Z M0.705425587,0.768452225 L0.153353388,0.461071335 L0.306706777,0.184428534 L0.858778975,0.491809424 L0.705425587,0.768452225 Z" id="XMLID_184_"></path>
                        </g>
                        <g id="XMLID_8_" transform="translate(61.341355, 17.828092)">
                            <polygon id="XMLID_183_" points="0.460060165 0.584023691 0.460060165 0.368857068 0.276036099 0.245904712 0.429389488 0 0.766766942 0.184428534 0.766766942 0.584023691"></polygon>
                        </g>
                        <g id="XMLID_7_" transform="translate(61.648062, 19.057615)">
                            <path d="M0.245365421,33.4430408 L0.245365421,32.828279 L0.552072198,32.828279 L0.552072198,33.4430408 L0.245365421,33.4430408 Z M0.245365421,31.9061364 L0.245365421,31.2913746 L0.552072198,31.2913746 L0.552072198,31.9061364 L0.245365421,31.9061364 Z M0.245365421,30.3384938 L0.245365421,29.7237321 L0.552072198,29.7237321 L0.552072198,30.3384938 L0.245365421,30.3384938 Z M0.245365421,28.8015894 L0.245365421,28.1868276 L0.552072198,28.1868276 L0.552072198,28.8015894 L0.245365421,28.8015894 Z M0.245365421,27.2339468 L0.245365421,26.6191851 L0.552072198,26.6191851 L0.552072198,27.2339468 L0.245365421,27.2339468 Z M0.214694744,25.6970424 L0.214694744,25.0822806 L0.521401521,25.0822806 L0.521401521,25.6970424 L0.214694744,25.6970424 Z M0.214694744,24.1601379 L0.214694744,23.5453762 L0.521401521,23.5453762 L0.521401521,24.1601379 L0.214694744,24.1601379 Z M0.214694744,22.5924954 L0.214694744,21.9777336 L0.521401521,21.9777336 L0.521401521,22.5924954 L0.214694744,22.5924954 Z M0.214694744,21.055591 L0.214694744,20.4408292 L0.521401521,20.4408292 L0.521401521,21.055591 L0.214694744,21.055591 Z M0.214694744,19.4879484 L0.214694744,18.8731866 L0.521401521,18.8731866 L0.521401521,19.4879484 L0.214694744,19.4879484 Z M0.214694744,17.951044 L0.214694744,17.3362822 L0.521401521,17.3362822 L0.521401521,17.951044 L0.214694744,17.951044 Z M0.214694744,16.3834014 L0.214694744,15.7686397 L0.521401521,15.7686397 L0.521401521,16.3834014 L0.214694744,16.3834014 Z M0.184024066,14.846497 L0.184024066,14.2317352 L0.490730843,14.2317352 L0.490730843,14.846497 L0.184024066,14.846497 Z M0.184024066,13.3095925 L0.184024066,12.6948308 L0.490730843,12.6948308 L0.490730843,13.3095925 L0.184024066,13.3095925 Z M0.184024066,11.74195 L0.184024066,11.1271882 L0.490730843,11.1271882 L0.490730843,11.74195 L0.184024066,11.74195 Z M0.184024066,10.2050455 L0.184024066,9.59028377 L0.490730843,9.59028377 L0.490730843,10.2050455 L0.184024066,10.2050455 Z M0.184024066,8.63740301 L0.184024066,8.02264123 L0.490730843,8.02264123 L0.490730843,8.63740301 L0.184024066,8.63740301 Z M0.184024066,7.10049856 L0.184024066,6.48573678 L0.490730843,6.48573678 L0.490730843,7.10049856 L0.184024066,7.10049856 Z M0.184024066,5.56359411 L0.184024066,4.94883233 L0.490730843,4.94883233 L0.490730843,5.56359411 L0.184024066,5.56359411 Z M0.153353388,3.99595157 L0.153353388,3.38118979 L0.460060165,3.38118979 L0.460060165,3.99595157 L0.153353388,3.99595157 Z M0.153353388,2.45904712 L0.153353388,1.84428534 L0.460060165,1.84428534 L0.460060165,2.45904712 L0.153353388,2.45904712 Z M0.153353388,0.891404581 L0.153353388,0.276642801 L0.460060165,0.276642801 L0.460060165,0.891404581 L0.153353388,0.891404581 Z" id="XMLID_158_"></path>
                        </g>
                        <g id="XMLID_6_" transform="translate(61.648062, 53.176894)">
                            <polygon id="XMLID_156_" points="0.214694744 0.860666492 0.0613413554 0.584023691 0.245365421 0.461071335 0.245365421 0.245904712 0.552072198 0.245904712 0.552072198 0.645499869"></polygon>
                        </g>
                        <g id="XMLID_5_" transform="translate(32.204212, 54.099037)">
                            <path d="M0.214694744,17.0289013 L0.0613413554,16.7522585 L0.582742876,16.4448776 L0.736096264,16.7215204 L0.214694744,17.0289013 Z M1.56420456,16.229711 L1.41085117,15.9530682 L1.93225269,15.6456873 L2.08560608,15.9223301 L1.56420456,16.229711 Z M2.91371438,15.4612588 L2.76036099,15.184616 L3.28176251,14.8772351 L3.4351159,15.1538779 L2.91371438,15.4612588 Z M4.23255352,14.6928065 L4.07920013,14.4161637 L4.60060165,14.1087828 L4.75395504,14.3854256 L4.23255352,14.6928065 Z M5.58206334,13.8936162 L5.42870995,13.6169734 L5.95011147,13.3095925 L6.10346486,13.5862353 L5.58206334,13.8936162 Z M6.93157316,13.125164 L6.77821977,12.8485212 L7.29962129,12.5411403 L7.45297468,12.8177831 L6.93157316,13.125164 Z M8.2504123,12.3567118 L8.09705891,12.080069 L8.61846043,11.7726881 L8.77181382,12.0493309 L8.2504123,12.3567118 Z M9.59992212,11.5882595 L9.44656873,11.3116167 L9.96797025,11.0042359 L10.1213236,11.2808787 L9.59992212,11.5882595 Z M10.9187613,10.7890692 L10.7654079,10.5124264 L11.2868094,10.2050455 L11.4401628,10.4816883 L10.9187613,10.7890692 Z M12.2682711,10.020617 L12.1149177,9.74397421 L12.6363192,9.43659332 L12.7896726,9.71323612 L12.2682711,10.020617 Z M13.6177809,9.25216479 L13.4644275,8.97552199 L13.985829,8.6681411 L14.1391824,8.9447839 L13.6177809,9.25216479 Z M14.93662,8.48371256 L14.7832666,8.20706976 L15.3046682,7.89968887 L15.4580216,8.17633167 L14.93662,8.48371256 Z M16.2861299,7.68452225 L16.1327765,7.40787945 L16.654178,7.10049856 L16.8075314,7.37714136 L16.2861299,7.68452225 Z M17.6356397,6.91607002 L17.4822863,6.63942722 L18.0036878,6.33204633 L18.1570412,6.60868913 L17.6356397,6.91607002 Z M18.9544788,6.1476178 L18.8011254,5.870975 L19.3225269,5.56359411 L19.4758803,5.84023691 L18.9544788,6.1476178 Z M20.3039886,5.37916557 L20.1506352,5.10252277 L20.6720368,4.79514188 L20.8253901,5.07178468 L20.3039886,5.37916557 Z M21.6228278,4.57997526 L21.4694744,4.30333246 L21.9908759,3.99595157 L22.1442293,4.27259437 L21.6228278,4.57997526 Z M22.9723376,3.81152303 L22.8189842,3.53488023 L23.3403857,3.22749934 L23.4937391,3.50414214 L22.9723376,3.81152303 Z M24.3218474,3.04307081 L24.168494,2.76642801 L24.6898955,2.45904712 L24.8432489,2.73568992 L24.3218474,3.04307081 Z M25.6406865,2.2438805 L25.4873332,1.9672377 L26.0087347,1.65985681 L26.1620881,1.93649961 L25.6406865,2.2438805 Z M26.9901964,1.47542827 L26.836843,1.19878547 L27.3582445,0.891404581 L27.5115979,1.16804738 L26.9901964,1.47542827 Z M28.3397062,0.706976047 L28.1863528,0.430333246 L28.7077543,0.122952356 L28.8611077,0.399595157 L28.3397062,0.706976047 Z" id="XMLID_132_"></path>
                        </g>
                        <g id="XMLID_4_" transform="translate(30.670678, 71.312366)">
                            <polygon id="XMLID_131_" points="0.613413554 0.461071335 0.276036099 0.276642801 0.429389488 0 0.613413554 0.122952356 0.79743762 0 0.950791008 0.276642801"></polygon>
                        </g>
                        <g id="XMLID_3_" transform="translate(1.226827, 54.099037)">
                            <path d="M28.9224491,17.0289013 L28.3703769,16.7215204 L28.5237302,16.4448776 L29.0758024,16.7522585 L28.9224491,17.0289013 Z M27.5729392,16.2604491 L27.020867,15.9530682 L27.1742204,15.6764254 L27.7262926,15.9838063 L27.5729392,16.2604491 Z M26.2234294,15.4612588 L25.6713572,15.1538779 L25.8247106,14.8772351 L26.3767828,15.184616 L26.2234294,15.4612588 Z M24.8739196,14.6928065 L24.3218474,14.3854256 L24.4752008,14.1087828 L25.027273,14.4161637 L24.8739196,14.6928065 Z M23.5550805,13.9243543 L23.0030083,13.6169734 L23.1563617,13.3403306 L23.7084339,13.6477115 L23.5550805,13.9243543 Z M22.2055706,13.1559021 L21.6534984,12.8485212 L21.8068518,12.5718784 L22.358924,12.8792593 L22.2055706,13.1559021 Z M20.8560608,12.3874499 L20.3039886,12.080069 L20.457342,11.8034262 L21.0094142,12.1108071 L20.8560608,12.3874499 Z M19.506551,11.6189976 L18.9544788,11.3116167 L19.1078322,11.0349739 L19.6599044,11.3423548 L19.506551,11.6189976 Z M18.1570412,10.8505454 L17.604969,10.5431645 L17.7583224,10.2665217 L18.3103946,10.5739026 L18.1570412,10.8505454 Z M16.8382021,10.0513551 L16.2861299,9.74397421 L16.4394832,9.46733141 L16.9915554,9.7747123 L16.8382021,10.0513551 Z M15.4886922,9.28290288 L14.93662,8.97552199 L15.0899734,8.69887918 L15.6420456,9.00626007 L15.4886922,9.28290288 Z M14.1391824,8.51445065 L13.5871102,8.20706976 L13.7404636,7.93042696 L14.2925358,8.23780785 L14.1391824,8.51445065 Z M12.7896726,7.74599843 L12.2376004,7.43861754 L12.3909538,7.16197473 L12.943026,7.46935562 L12.7896726,7.74599843 Z M11.4708335,6.9775462 L10.9187613,6.67016531 L11.0721146,6.39352251 L11.6241868,6.7009034 L11.4708335,6.9775462 Z M10.1213236,6.20909398 L9.56925144,5.90171309 L9.72260483,5.62507029 L10.274677,5.93245118 L10.1213236,6.20909398 Z M8.77181382,5.40990366 L8.21974162,5.10252277 L8.37309501,4.82587997 L8.92516721,5.13326086 L8.77181382,5.40990366 Z M7.422304,4.64145144 L6.8702318,4.33407055 L7.02358519,4.05742775 L7.57565739,4.36480864 L7.422304,4.64145144 Z M6.07279418,3.87299921 L5.52072198,3.56561832 L5.67407537,3.28897552 L6.22614757,3.59635641 L6.07279418,3.87299921 Z M4.75395504,3.10454699 L4.20188284,2.7971661 L4.35523623,2.5205233 L4.90730843,2.82790419 L4.75395504,3.10454699 Z M3.40444522,2.33609476 L2.85237302,2.02871387 L3.00572641,1.75207107 L3.55779861,2.05945196 L3.40444522,2.33609476 Z M2.05493541,1.56764254 L1.50286321,1.26026165 L1.6562166,0.983618848 L2.20828879,1.29099974 L2.05493541,1.56764254 Z M0.705425587,0.799190314 L0.153353388,0.491809424 L0.306706777,0.215166623 L0.858778975,0.522547513 L0.705425587,0.799190314 Z" id="XMLID_105_"></path>
                        </g>
                    </g>
                </g>
                <g id="XMLID_84_" transform="translate(6.747549, 8.914046)" fill="#F7F8F9">
                    <path d="M2.97505574,48.5354425 C1.50286321,47.7055141 0.306706777,45.6153241 0.306706777,43.9247292 L0.245365421,18.2276868 C0.245365421,16.5370919 1.44152185,14.4469018 2.8830437,13.6169734 L25.0886143,0.737714136 C26.5608069,-0.122952356 28.9531197,-0.122952356 30.3946416,0.737714136 L52.6615536,13.5554972 C54.1337461,14.3854256 55.3299025,16.4756157 55.3299025,18.1662106 L55.3912439,43.863253 C55.3912439,45.5538479 54.1950875,47.6440379 52.7535656,48.4739663 L30.547995,61.3532256 C29.0758024,62.2138921 26.6834896,62.2138921 25.2419677,61.3532256 L2.97505574,48.5354425 Z" id="Shape"></path>
                </g>
                <g id="XMLID_94_" transform="translate(2.146947, 21.209281)" fill="#465A79">
                    <rect id="XMLID_104_" transform="translate(32.175472, 18.846486) rotate(29.782547) translate(-32.175472, -18.846486) " x="-4.52128414" y="18.2317361" width="73.3935115" height="1.22949977"></rect>
                </g>
                <g id="XMLID_101_" transform="translate(1.143211, 20.287139)" fill="#465A79">
                    <rect id="XMLID_103_" transform="translate(33.202259, 19.548135) rotate(59.886267) translate(-33.202259, -19.548135) " x="32.5888672" y="-17.751191" width="1.22678287" height="74.5986522"></rect>
                </g>
                <g id="XMLID_100_" transform="translate(34.044452, 2.766428)" fill="#465A79">
                    <rect id="XMLID_102_" transform="translate(0.775331, 37.113420) rotate(89.779859) translate(-0.775331, -37.113420) " x="-36.1371016" y="36.498654" width="73.8248661" height="1.22953264"></rect>
                </g>
                <g id="XMLID_82_" transform="translate(11.348151, 16.598568)">
                    <ellipse id="XMLID_55_" fill="#FFFFFF" cx="23.3403857" cy="23.2379953" rx="22.4816067" ry="22.5310192"></ellipse>
                    <path d="M23.3403857,46.3837763 C10.6120545,46.3837763 0.245365421,35.9943022 0.245365421,23.2379953 C0.245365421,10.4816883 10.6120545,0.092214267 23.3403857,0.092214267 C36.068717,0.092214267 46.435406,10.4816883 46.435406,23.2379953 C46.4047353,35.9943022 36.068717,46.3837763 23.3403857,46.3837763 Z M23.3403857,1.32173783 C11.2868094,1.32173783 1.47219253,11.1579263 1.47219253,23.2379953 C1.47219253,35.3180643 11.2868094,45.1542527 23.3403857,45.1542527 C35.3939621,45.1542527 45.2085789,35.3180643 45.2085789,23.2379953 C45.1779082,11.1579263 35.3939621,1.32173783 23.3403857,1.32173783 Z" id="XMLID_90_" fill="#465A79"></path>
                </g>
                <g id="XMLID_98_" transform="translate(13.495098, 18.750234)">
                    <path d="M41.5587683,21.086329 C41.5587683,32.3672077 32.4189063,41.5271582 21.1627676,41.5271582 C9.90662889,41.5271582 0.766766942,32.3672077 0.766766942,21.086329 C0.766766942,9.80545039 9.90662889,0.645499869 21.1627676,0.645499869 C32.4189063,0.645499869 41.5587683,9.80545039 41.5587683,21.086329 Z" id="XMLID_78_" fill="#38A0DE"></path>
                    <path d="M21.1934383,42.14192 C9.59992212,42.14192 0.184024066,32.7053267 0.184024066,21.086329 C0.184024066,9.46733141 9.59992212,0.030738089 21.1934383,0.030738089 C32.7869544,0.030738089 42.2028525,9.46733141 42.2028525,21.086329 C42.1721818,32.7053267 32.7562838,42.14192 21.1934383,42.14192 Z M21.1934383,1.26026165 C10.3053477,1.26026165 1.41085117,10.1435694 1.41085117,21.086329 C1.41085117,31.9983506 10.274677,40.9123964 21.1934383,40.9123964 C32.1121995,40.9123964 40.9760254,32.0290887 40.9760254,21.086329 C40.9453547,10.1743075 32.0815289,1.26026165 21.1934383,1.26026165 Z" id="XMLID_81_" fill="#465A79"></path>
                </g>
                <g id="XMLID_121_" transform="translate(32.817625, 75.000937)">
                    <path d="M3.9871881,2.33609476 C3.9871881,3.3504517 3.1590798,4.14964201 2.17761812,4.14964201 C1.19615643,4.14964201 0.368048132,3.31971361 0.368048132,2.33609476 C0.368048132,1.35247592 1.19615643,0.522547513 2.17761812,0.522547513 C3.1590798,0.522547513 3.9871881,1.32173783 3.9871881,2.33609476 Z" id="XMLID_73_" fill="#38A0DE"></path>
                    <path d="M2.17761812,4.48776099 C1.01213236,4.48776099 0.0613413554,3.53488023 0.0613413554,2.36683285 C0.0613413554,1.19878547 1.01213236,0.245904712 2.17761812,0.245904712 C3.34310387,0.245904712 4.29389488,1.19878547 4.29389488,2.36683285 C4.29389488,3.53488023 3.34310387,4.48776099 2.17761812,4.48776099 Z M2.17761812,0.829928403 C1.34950982,0.829928403 0.674754909,1.50616636 0.674754909,2.33609476 C0.674754909,3.16602317 1.34950982,3.84226112 2.17761812,3.84226112 C3.00572641,3.84226112 3.68048132,3.16602317 3.68048132,2.33609476 C3.68048132,1.50616636 3.00572641,0.829928403 2.17761812,0.829928403 Z" id="XMLID_75_" fill="#465A79"></path>
                </g>
                <g id="XMLID_123_" transform="translate(65.021837, 56.558084)">
                    <path d="M3.9871881,2.33609476 C3.9871881,3.3504517 3.1590798,4.14964201 2.17761812,4.14964201 C1.16548575,4.14964201 0.368048132,3.31971361 0.368048132,2.33609476 C0.368048132,1.32173783 1.19615643,0.522547513 2.17761812,0.522547513 C3.1590798,0.522547513 3.9871881,1.32173783 3.9871881,2.33609476 Z" id="XMLID_68_" fill="#38A0DE"></path>
                    <path d="M2.17761812,4.48776099 C1.01213236,4.48776099 0.0613413554,3.53488023 0.0613413554,2.36683285 C0.0613413554,1.19878547 1.01213236,0.245904712 2.17761812,0.245904712 C3.34310387,0.245904712 4.29389488,1.19878547 4.29389488,2.36683285 C4.29389488,3.53488023 3.34310387,4.48776099 2.17761812,4.48776099 Z M2.17761812,0.829928403 C1.34950982,0.829928403 0.674754909,1.50616636 0.674754909,2.33609476 C0.674754909,3.16602317 1.34950982,3.84226112 2.17761812,3.84226112 C3.00572641,3.84226112 3.68048132,3.16602317 3.68048132,2.33609476 C3.68048132,1.50616636 3.00572641,0.829928403 2.17761812,0.829928403 Z" id="XMLID_70_" fill="#465A79"></path>
                </g>
                <g id="XMLID_155_" transform="translate(64.408423, 18.750234)">
                    <path d="M3.9871881,2.33609476 C3.9871881,3.3504517 3.1590798,4.14964201 2.17761812,4.14964201 C1.16548575,4.14964201 0.368048132,3.31971361 0.368048132,2.33609476 C0.368048132,1.35247592 1.19615643,0.522547513 2.17761812,0.522547513 C3.1590798,0.522547513 3.9871881,1.32173783 3.9871881,2.33609476 Z" id="XMLID_63_" fill="#38A0DE"></path>
                    <path d="M2.17761812,4.48776099 C1.01213236,4.48776099 0.0613413554,3.53488023 0.0613413554,2.36683285 C0.0613413554,1.19878547 1.01213236,0.245904712 2.17761812,0.245904712 C3.34310387,0.245904712 4.29389488,1.19878547 4.29389488,2.36683285 C4.29389488,3.53488023 3.34310387,4.48776099 2.17761812,4.48776099 Z M2.17761812,0.829928403 C1.34950982,0.829928403 0.674754909,1.50616636 0.674754909,2.33609476 C0.674754909,3.16602317 1.34950982,3.84226112 2.17761812,3.84226112 C3.00572641,3.84226112 3.68048132,3.16602317 3.68048132,2.33609476 C3.68048132,1.50616636 3.00572641,0.829928403 2.17761812,0.829928403 Z" id="XMLID_65_" fill="#465A79"></path>
                </g>
                <g id="XMLID_157_" transform="translate(32.204212, 0.000000)">
                    <path d="M3.9871881,2.33609476 C3.9871881,3.3504517 3.1590798,4.14964201 2.17761812,4.14964201 C1.19615643,4.14964201 0.368048132,3.31971361 0.368048132,2.33609476 C0.368048132,1.35247592 1.19615643,0.522547513 2.17761812,0.522547513 C3.1590798,0.522547513 3.9871881,1.32173783 3.9871881,2.33609476 Z" id="XMLID_58_" fill="#38A0DE"></path>
                    <path d="M2.17761812,4.48776099 C1.01213236,4.48776099 0.0613413554,3.53488023 0.0613413554,2.36683285 C0.0613413554,1.19878547 1.01213236,0.245904712 2.17761812,0.245904712 C3.34310387,0.245904712 4.29389488,1.19878547 4.29389488,2.36683285 C4.29389488,3.53488023 3.34310387,4.48776099 2.17761812,4.48776099 Z M2.17761812,0.829928403 C1.34950982,0.829928403 0.674754909,1.50616636 0.674754909,2.33609476 C0.674754909,3.16602317 1.34950982,3.84226112 2.17761812,3.84226112 C3.00572641,3.84226112 3.68048132,3.16602317 3.68048132,2.33609476 C3.68048132,1.50616636 3.00572641,0.829928403 2.17761812,0.829928403 Z" id="XMLID_60_" fill="#465A79"></path>
                </g>
                <g id="XMLID_159_" transform="translate(0.000000, 19.364996)">
                    <path d="M3.9871881,2.33609476 C3.9871881,3.3504517 3.1590798,4.14964201 2.17761812,4.14964201 C1.19615643,4.14964201 0.368048132,3.31971361 0.368048132,2.33609476 C0.368048132,1.35247592 1.19615643,0.522547513 2.17761812,0.522547513 C3.1590798,0.522547513 3.9871881,1.32173783 3.9871881,2.33609476 Z" id="XMLID_52_" fill="#38A0DE"></path>
                    <path d="M2.17761812,4.48776099 C1.01213236,4.48776099 0.0613413554,3.53488023 0.0613413554,2.36683285 C0.0613413554,1.19878547 1.01213236,0.245904712 2.17761812,0.245904712 C3.34310387,0.245904712 4.29389488,1.19878547 4.29389488,2.36683285 C4.29389488,3.53488023 3.34310387,4.48776099 2.17761812,4.48776099 Z M2.17761812,0.829928403 C1.34950982,0.829928403 0.674754909,1.50616636 0.674754909,2.33609476 C0.674754909,3.16602317 1.34950982,3.84226112 2.17761812,3.84226112 C3.00572641,3.84226112 3.68048132,3.16602317 3.68048132,2.33609476 C3.68048132,1.50616636 3.00572641,0.829928403 2.17761812,0.829928403 Z" id="XMLID_54_" fill="#465A79"></path>
                </g>
                <g id="XMLID_161_" transform="translate(0.000000, 56.558084)">
                    <path d="M3.9871881,2.33609476 C3.9871881,3.3504517 3.1590798,4.14964201 2.17761812,4.14964201 C1.19615643,4.14964201 0.368048132,3.31971361 0.368048132,2.33609476 C0.368048132,1.32173783 1.19615643,0.522547513 2.17761812,0.522547513 C3.1590798,0.522547513 3.9871881,1.32173783 3.9871881,2.33609476 Z" id="XMLID_41_" fill="#38A0DE"></path>
                    <path d="M2.17761812,4.48776099 C1.01213236,4.48776099 0.0613413554,3.53488023 0.0613413554,2.36683285 C0.0613413554,1.19878547 1.01213236,0.245904712 2.17761812,0.245904712 C3.34310387,0.245904712 4.29389488,1.19878547 4.29389488,2.36683285 C4.29389488,3.53488023 3.34310387,4.48776099 2.17761812,4.48776099 Z M2.17761812,0.829928403 C1.34950982,0.829928403 0.674754909,1.50616636 0.674754909,2.33609476 C0.674754909,3.16602317 1.34950982,3.84226112 2.17761812,3.84226112 C3.00572641,3.84226112 3.68048132,3.16602317 3.68048132,2.33609476 C3.68048132,1.50616636 3.00572641,0.829928403 2.17761812,0.829928403 Z" id="XMLID_49_" fill="#465A79"></path>
                </g>
                <g id="XMLID_86_" transform="translate(23.309715, 22.438805)" fill="#F7F8F9">
                    <path d="M24.9659316,33.1049218 L24.076482,32.9204933 C25.9167226,23.145781 22.4816067,14.8157589 13.8631463,8.11485549 C7.36096264,3.0738089 0.245365421,0.92214267 0.184024066,0.891404581 L0.460060165,0 C0.521401521,0.030738089 7.79035213,2.21314241 14.4152185,7.34640327 C23.1870323,14.2009971 26.836843,23.1150429 24.9659316,33.1049218 Z" id="XMLID_47_"></path>
                </g>
                <g id="XMLID_87_" transform="translate(15.028632, 32.582374)" fill="#F7F8F9">
                    <path d="M21.7455105,15.7379016 C19.5372217,15.7379016 17.4209449,15.4305207 15.3660095,14.7850208 C4.75395504,11.5267834 0.0306706777,0.706976047 0,0.584023691 L0.858778975,0.215166623 C0.889449653,0.30738089 5.45938063,10.7583311 15.6727163,13.8936162 C22.7576428,16.0760205 30.8853724,14.2932114 39.8105396,8.57592683 L40.3012705,9.34437905 C33.6764041,13.6169734 27.4502565,15.7379016 21.7455105,15.7379016 Z" id="XMLID_46_"></path>
                </g>
                <g id="XMLID_92_" transform="translate(17.482286, 19.979758)" fill="#F7F8F9">
                    <path d="M0.184024066,30.4307081 L0.122682711,29.5085654 C7.48364536,28.8938037 13.035038,26.2195899 16.6848487,21.5166623 C23.3403857,12.9714736 21.3467917,0.491809424 21.316121,0.368857068 L22.2362413,0.215166623 C22.266912,0.338118979 24.3218474,13.2173783 17.4209449,22.0699479 C13.5871102,27.0187802 7.79035213,29.8159463 0.184024066,30.4307081 Z" id="XMLID_45_"></path>
                </g>
                <g id="XMLID_85_" transform="translate(13.495098, 18.750234)" fill="#465A79">
                    <path d="M21.1934383,42.14192 C9.59992212,42.14192 0.184024066,32.7053267 0.184024066,21.086329 C0.184024066,9.46733141 9.59992212,0.030738089 21.1934383,0.030738089 C32.7869544,0.030738089 42.2028525,9.46733141 42.2028525,21.086329 C42.1721818,32.7053267 32.7562838,42.14192 21.1934383,42.14192 Z M21.1934383,1.26026165 C10.3053477,1.26026165 1.41085117,10.1435694 1.41085117,21.086329 C1.41085117,31.9983506 10.274677,40.9123964 21.1934383,40.9123964 C32.1121995,40.9123964 40.9760254,32.0290887 40.9760254,21.086329 C40.9453547,10.1743075 32.0815289,1.26026165 21.1934383,1.26026165 Z" id="XMLID_42_"></path>
                </g>
                <g id="XMLID_93_" transform="translate(36.191400, 29.201185)">
                    <ellipse id="XMLID_37_" fill="#38A0DE" cx="2.85237302" cy="2.61273756" rx="2.14694744" ry="2.15166623"></ellipse>
                    <path d="M2.85237302,5.22547513 C1.41085117,5.22547513 0.245365421,4.05742775 0.245365421,2.61273756 C0.245365421,1.16804738 1.41085117,0 2.85237302,0 C4.29389488,0 5.45938063,1.16804738 5.45938063,2.61273756 C5.45938063,4.05742775 4.29389488,5.22547513 2.85237302,5.22547513 Z M2.85237302,0.92214267 C1.93225269,0.92214267 1.16548575,1.69059489 1.16548575,2.61273756 C1.16548575,3.53488023 1.93225269,4.30333246 2.85237302,4.30333246 C3.77249336,4.30333246 4.5392603,3.53488023 4.5392603,2.61273756 C4.5392603,1.69059489 3.80316403,0.92214267 2.85237302,0.92214267 Z" id="XMLID_38_" fill="#FFFFFF"></path>
                </g>
                <g id="XMLID_95_" transform="translate(26.683490, 43.648086)">
                    <ellipse id="XMLID_33_" fill="#38A0DE" cx="2.85237302" cy="2.61273756" rx="2.14694744" ry="2.15166623"></ellipse>
                    <path d="M2.85237302,5.22547513 C1.41085117,5.22547513 0.245365421,4.05742775 0.245365421,2.61273756 C0.245365421,1.16804738 1.41085117,0 2.85237302,0 C4.29389488,0 5.45938063,1.16804738 5.45938063,2.61273756 C5.45938063,4.05742775 4.29389488,5.22547513 2.85237302,5.22547513 Z M2.85237302,0.92214267 C1.93225269,0.92214267 1.16548575,1.69059489 1.16548575,2.61273756 C1.16548575,3.53488023 1.93225269,4.30333246 2.85237302,4.30333246 C3.77249336,4.30333246 4.5392603,3.53488023 4.5392603,2.61273756 C4.5392603,1.69059489 3.80316403,0.92214267 2.85237302,0.92214267 Z" id="XMLID_34_" fill="#FFFFFF"></path>
                </g>
                <g id="XMLID_96_" transform="translate(45.085896, 42.725944)">
                    <ellipse id="XMLID_1_" fill="#38A0DE" cx="2.23895947" cy="2.30535667" rx="1.74822863" ry="1.75207107"></ellipse>
                    <path d="M2.23895947,4.51849908 C1.01213236,4.51849908 0.0306706777,3.53488023 0.0306706777,2.30535667 C0.0306706777,1.07583311 1.01213236,0.092214267 2.23895947,0.092214267 C3.46578658,0.092214267 4.44724826,1.07583311 4.44724826,2.30535667 C4.44724826,3.53488023 3.46578658,4.51849908 2.23895947,4.51849908 Z M2.23895947,1.04509503 C1.53353388,1.04509503 0.950791008,1.62911872 0.950791008,2.33609476 C0.950791008,3.04307081 1.53353388,3.6270945 2.23895947,3.6270945 C2.94438506,3.6270945 3.52712793,3.04307081 3.52712793,2.33609476 C3.52712793,1.62911872 2.94438506,1.04509503 2.23895947,1.04509503 Z" id="XMLID_30_" fill="#FFFFFF"></path>
                </g>
            </g>
        </g>
    </g>
</svg>