<?xml version="1.0" encoding="UTF-8"?>
<svg width="113px" height="59px" viewBox="0 0 113 59" version="1.1" xmlns="http://www.w3.org/2000/svg" xmlns:xlink="http://www.w3.org/1999/xlink">
    <!-- Generator: Sketch 50 (54983) - http://www.bohemiancoding.com/sketch -->
    <title>未标题-2</title>
    <desc>Created with Sketch.</desc>
    <defs></defs>
    <g id="Page-1" stroke="none" stroke-width="1" fill="none" fill-rule="evenodd">
        <g id="官网-中国队列共享平台" transform="translate(-539.000000, -1225.000000)" fill-rule="nonzero">
            <g id="未标题-2" transform="translate(539.000000, 1225.000000)">
                <g id="XMLID_75_" transform="translate(10.885071, 14.508714)">
                    <path d="M30.7014815,10.072396 C32.51566,12.8067307 28.8314822,15.4015584 28.8314822,15.4015584 C28.69193,18.6660192 26.0683488,19.9773838 26.0683488,19.9773838 L26.3474532,22.9628308 C26.3474532,22.9628308 31.6783468,26.5063053 36.98133,27.3433465 C40.4980451,27.901374 40.7492391,29.4917523 40.8887913,30.8031169 C41.0562539,32.4213966 41.3632687,37.3599398 41.3632687,37.3599398 L40.5259556,37.3878411 L0.586119192,37.3878411 C0.586119192,37.3878411 1.00477576,30.9705251 1.06059663,30.5520045 C1.11641751,30.1334839 1.61880539,27.901374 5.13552054,27.3154451 C8.70805657,26.7295163 15.6019347,22.7396198 15.6019347,22.7396198 L15.8810391,19.9773838 C13.2574579,19.5030604 13.1179057,15.4015584 13.1179057,15.4015584 C10.2710411,14.7040241 11.0246229,10.6304235 11.0246229,10.6304235 L12.2247717,2.84594015 L16.0764121,0.725435724 L22.8028276,2.53902503 L27.3801394,4.46421984 L30.7014815,10.072396 Z" id="XMLID_118_" fill="#F7F8F9"></path>
                    <path d="M0.586119192,37.9458686 L0,37.9458686 L0.0279104377,37.3599398 C0.0837313132,36.2717862 0.446567004,30.886821 0.530298317,30.4683004 C0.641940068,29.7428647 1.33970101,27.3712479 5.07969967,26.785319 C8.14984782,26.2830943 13.8435771,23.130239 15.0995468,22.4327047 L15.2949199,20.4238058 C13.201637,19.6704687 12.7271596,16.9082326 12.6155179,15.8479804 C10.3547724,14.9830378 10.2152202,12.0533936 10.4943246,10.5746207 L11.7223838,2.51112366 L15.9926808,0.13950687 L22.9982007,2.0368003 L27.7708855,4.04569923 L31.1480485,9.82128364 C32.711033,12.2208018 30.7573024,14.6482213 29.3338701,15.7363749 C29.1105865,18.4149068 27.352229,19.8099755 26.6265576,20.3122003 L26.8498411,22.6838171 C27.9104377,23.35345 32.51566,26.1156861 37.0371509,26.8411218 C40.7492391,27.4270506 41.251627,29.1848372 41.4190896,30.7752155 C41.5865522,32.3934952 41.893567,37.1367288 41.893567,37.3599398 L41.9214775,37.9458686 L40.5259556,38.0016714 L0.586119192,38.0016714 L0.586119192,37.9458686 Z M1.17223838,36.8298137 L40.4980451,36.8298137 L40.7213286,36.8298137 C40.6375973,35.4905477 40.4143138,32.1423828 40.2747616,30.886821 C40.1631199,29.7428647 40.0235677,28.4315001 36.8417778,27.9292754 C31.4829738,27.0643328 26.207901,23.6045624 25.9846175,23.4650555 L25.761334,23.3255487 L25.4264088,19.69837 L25.761334,19.5309618 C25.8450653,19.475159 28.1058108,18.3033013 28.2174525,15.4294598 L28.2174525,15.1504461 L28.440736,14.9830378 C28.5802882,14.8993337 31.6504364,12.6672238 30.1711832,10.4072125 L30.1432727,10.3793111 L26.9335724,4.9385432 L22.5516337,3.09705251 L16.0764121,1.36716733 L12.6713387,3.26446076 L11.4991003,10.7699304 C11.4991003,10.8257331 10.8850707,14.3413062 13.1737266,14.8993337 L13.5923832,15.0109392 L13.5923832,15.4294598 C13.5923832,15.4573612 13.7319354,19.0845398 15.9089495,19.475159 L16.4113374,19.5588632 L16.0485017,23.130239 L15.7973078,23.2697459 C15.5182034,23.4371542 8.79178788,27.3154451 5.16343098,27.901374 C2.1491037,28.3756973 1.61880539,30.1334839 1.53507407,30.66361 C1.56298451,30.9426238 1.33970101,34.3744928 1.17223838,36.8298137 Z" id="XMLID_119_" fill="#465A79"></path>
                </g>
                <g id="XMLID_72_" transform="translate(23.165663, 11.997591)" fill="#DEE2E6">
                    <g id="XMLID_74_">
                        <path d="M0.36283569,0 L0.195373064,0 L0.167462626,0.083704122 C0.223283502,0.027901374 0.307014815,0.027901374 0.36283569,0 Z" id="Shape"></path>
                    </g>
                    <g id="XMLID_73_" transform="translate(0.279104, 5.022247)">
                        <path d="M15.1553677,4.32471297 C15.1553677,4.32471297 4.8843266,2.34371542 2.28865589,0.027901374 C2.28865589,0.027901374 2.17701414,0.55802748 1.56298451,0.920745342 C0.697760943,1.45087145 0.279104377,1.2834632 0.279104377,1.2834632 C0.279104377,1.2834632 0.418656566,3.59927724 0.167462626,5.41286655 L0.697760943,7.22645586 L2.1491037,3.431869 C2.1491037,3.431869 2.34447677,2.0368003 4.07492391,3.431869 C5.80537105,4.8269377 14.4576067,6.55682289 15.4344721,6.27780915 C16.4113374,5.99879541 16.6625313,6.58472426 16.9974566,7.33806136 C17.3323818,8.09139846 17.918501,8.00769433 17.918501,8.00769433 L16.132233,4.9385432 C15.8531286,4.7153322 15.5461138,4.52002259 15.1553677,4.32471297 Z" id="Shape"></path>
                    </g>
                </g>
                <g id="XMLID_53_" transform="translate(20.374620, 7.533371)">
                    <g id="XMLID_17_" transform="translate(0.558209, 0.558027)" fill="#F7F8F9">
                        <path d="M1.78626801,17.0477395 C1.67462626,17.0477395 1.59089495,17.0477395 1.4792532,17.0198381 L1.14432795,16.936134 L1.06059663,16.6013175 C1.00477576,16.3502052 -0.446567004,10.4630152 0.641940068,6.08249953 C0.97686532,4.7153322 1.56298451,3.29236213 3.43298384,3.26446076 C3.96328216,2.39951816 5.6937293,0.195309618 9.5453697,0.195309618 C11.0525333,0.195309618 12.75507,0.55802748 14.5692485,1.25556183 C15.1274572,1.5066742 19.9001421,3.57137587 20.9886492,5.32916243 C21.7143206,6.50102014 21.7701414,9.5422699 21.7143206,11.2721551 C21.7143206,11.7185771 21.5747684,15.7084736 20.9607387,16.489712 C20.7932761,16.712923 20.5699926,16.7408244 20.4583509,16.7408244 C20.0117839,16.7408244 19.8722317,16.3502052 19.7605899,16.0711914 C19.5652168,15.5689667 19.1744707,14.5366158 17.6952175,13.8111801 C16.7462626,13.6158705 8.34522088,11.9417881 5.16343098,9.79338227 C5.02387879,9.96079051 4.82850573,10.1561001 4.54940135,10.3235084 C4.15865522,10.5467194 3.82372997,10.6862262 3.57253603,10.742029 C3.6283569,12.2208018 3.60044647,15.6247694 2.62358115,16.6850216 C2.34447677,16.9919368 2.00955152,17.0477395 1.78626801,17.0477395 Z" id="Shape"></path>
                    </g>
                    <g id="XMLID_13_" fill="#465A79">
                        <g id="XMLID_14_">
                            <path d="M10.1035785,1.31136458 C11.415369,1.31136458 13.0341744,1.59037832 14.9320842,2.34371542 C14.9320842,2.34371542 20.0396943,4.52002259 21.1002909,6.19410503 C22.188798,7.95189159 21.7143206,15.9595859 21.1002909,16.712923 C21.0723805,16.7408244 21.04447,16.7687258 21.04447,16.7687258 C20.8211865,16.7687258 20.7932761,14.9551365 18.4767098,13.8669829 C18.4767098,13.8669829 8.20566869,11.8859853 5.60999798,9.57017128 C5.60999798,9.57017128 5.49835623,10.1002974 4.8843266,10.4630152 C4.35402829,10.7978317 3.99119259,10.8536345 3.76790909,10.8536345 C3.65626734,10.8536345 3.60044647,10.8257331 3.60044647,10.8257331 C3.60044647,10.8257331 3.93537172,17.1314436 2.37238721,17.1314436 C2.31656633,17.1314436 2.26074546,17.1314436 2.20492458,17.1035423 C2.20492458,17.1035423 0.725671381,11.1605496 1.78626801,6.83583663 C2.20492458,5.16175419 2.81895421,4.43631846 4.13074478,4.43631846 C4.2144761,4.43631846 4.27029697,4.43631846 4.35402829,4.43631846 C4.29820741,4.38051572 5.72163973,1.31136458 10.1035785,1.31136458 Z M10.1035785,0.195309618 C6.33566936,0.195309618 4.4377596,2.20420855 3.68417778,3.29236213 C1.64671583,3.48767175 0.97686532,5.21755694 0.669850505,6.52892151 C-0.446567004,11.0489441 1.0326862,17.0756409 1.08850707,17.3267532 L1.2559697,17.9684848 L1.89790977,18.1358931 C2.03746195,18.1637945 2.20492458,18.1916958 2.34447677,18.1916958 C2.81895421,18.1916958 3.26552121,17.9963862 3.60044647,17.6336684 C4.63313266,16.5455148 4.74477441,13.6158705 4.71686398,11.7185771 C4.94014748,11.634873 5.19134142,11.5232675 5.41462492,11.3837606 C5.58208755,11.3000565 5.6937293,11.188451 5.83328148,11.0768455 C9.26626533,13.0857444 16.6625313,14.62032 18.0859636,14.8993337 C19.3140229,15.5131639 19.6210377,16.3502052 19.8164108,16.8245285 C19.9280525,17.1314436 20.2071569,17.8568794 21.04447,17.8568794 C21.4073057,17.8568794 21.742231,17.6894711 21.9934249,17.382556 C22.6911859,16.5176134 22.8307381,13.2252513 22.8865589,11.8301826 C22.9423798,9.6538754 22.8586485,6.80793525 22.0771562,5.5802748 C20.9049179,3.71088274 16.3276061,1.67408244 15.4065616,1.31136458 L15.3786512,1.31136458 L15.3507407,1.31136458 C13.452831,0.55802748 11.666563,0.195309618 10.1035785,0.195309618 Z" id="Shape"></path>
                        </g>
                    </g>
                </g>
                <g id="XMLID_52_" transform="translate(28.189542, 41.015020)" fill="#DEE2E6">
                    <polygon id="Shape" points="2.81895421 0.83704122 0.167462626 7.78448334 3.60044647 10.4072125 7.08925118 7.78448334 4.60522222 0.809139846 3.65626734 0.251112366"></polygon>
                </g>
                <g id="XMLID_51_" transform="translate(24.002976, 37.945869)" fill="#DEE2E6">
                    <polygon id="Shape" points="1.95373064 0.13950687 7.87074344 3.57137587 14.0389502 0.585928854 15.2670094 1.11605496 13.0620849 5.74768304 7.87074344 4.04569923 2.90268552 5.74768304 0.139552189 1.00444946"></polygon>
                </g>
                <g id="XMLID_50_" transform="translate(23.444768, 37.108827)">
                    <polygon id="XMLID_113_" fill="#FFFFFF" points="2.5119394 0.641731602 8.42895219 3.5434745 14.3738754 0.920745342 15.8252182 1.56247694 13.3132788 5.71978167 8.42895219 4.04569923 3.87955084 5.71978167 0.837313132 1.59037832"></polygon>
                    <path d="M13.5086519,6.2220064 L8.45686263,4.49212121 L3.73999866,6.2220064 L0.223283502,1.45087145 L2.5119394,0.167408244 L8.45686263,3.06915114 L14.3738754,0.474323358 L16.4392478,1.36716733 L13.5086519,6.2220064 Z M1.45134276,1.72988519 L4.01910303,5.21755694 L7.98238519,3.76668549 L2.5119394,1.11605496 L1.45134276,1.72988519 Z M8.93134007,3.76668549 L13.1458162,5.18965556 L15.2111886,1.72988519 L14.3738754,1.36716733 L8.93134007,3.76668549 Z" id="XMLID_114_" fill="#465A79"></path>
                </g>
                <g id="XMLID_49_" transform="translate(28.747751, 40.456992)">
                    <polygon id="XMLID_109_" fill="#38A0DE" points="2.53984983 1.56247694 0.61402963 8.06349708 3.09805859 10.6304235 5.58208755 8.28670807 3.76790909 1.56247694 3.09805859 0.809139846"></polygon>
                    <path d="M3.09805859,11.2163523 L0.139552189,8.17510258 L2.17701414,1.36716733 L3.07014815,0.111605496 L4.13074478,1.33926595 L6.05656499,8.3704122 L3.09805859,11.2163523 Z M1.08850707,7.95189159 L3.12596903,10.0444946 L5.13552054,8.1472012 L3.4050734,1.75778656 L3.15387946,1.47877282 L2.9585064,1.75778656 L1.08850707,7.95189159 Z" id="XMLID_110_" fill="#465A79"></path>
                </g>
                <g id="XMLID_91_" transform="translate(53.867145, 14.508714)">
                    <path d="M30.7014815,10.072396 C32.51566,12.8067307 28.8314822,15.4015584 28.8314822,15.4015584 C28.69193,18.6660192 26.0683488,19.9773838 26.0683488,19.9773838 L26.3474532,22.9628308 C26.3474532,22.9628308 31.6783468,26.5063053 36.98133,27.3433465 C40.4980451,27.901374 40.7492391,29.4917523 40.8887913,30.8031169 C41.0562539,32.4213966 41.3632687,37.3599398 41.3632687,37.3599398 L40.5259556,37.3878411 L0.586119192,37.3878411 C0.586119192,37.3878411 1.00477576,30.9705251 1.06059663,30.5520045 C1.11641751,30.1334839 1.61880539,27.901374 5.13552054,27.3154451 C8.70805657,26.7295163 15.6019347,22.7396198 15.6019347,22.7396198 L15.8810391,19.9773838 C13.2574579,19.5030604 13.1179057,15.4015584 13.1179057,15.4015584 C10.2710411,14.7040241 11.0246229,10.6304235 11.0246229,10.6304235 L12.2247717,2.84594015 L16.0764121,0.725435724 L22.8028276,2.53902503 L27.3801394,4.46421984 L30.7014815,10.072396 Z" id="XMLID_105_" fill="#F7F8F9"></path>
                    <path d="M0.586119192,37.9458686 L0,37.9458686 L0.0279104377,37.3599398 C0.0837313132,36.2717862 0.446567004,30.886821 0.530298317,30.4683004 C0.641940068,29.7428647 1.33970101,27.3712479 5.07969967,26.785319 C8.14984782,26.2830943 13.8435771,23.130239 15.0995468,22.4327047 L15.2949199,20.4238058 C13.201637,19.6704687 12.7271596,16.9082326 12.6155179,15.8479804 C10.3547724,14.9830378 10.2152202,12.0533936 10.4943246,10.5746207 L11.7223838,2.51112366 L15.9926808,0.13950687 L22.9982007,2.0368003 L27.7708855,4.04569923 L31.1480485,9.82128364 C32.711033,12.2208018 30.7573024,14.6482213 29.3338701,15.7363749 C29.1105865,18.4149068 27.352229,19.8099755 26.6265576,20.3122003 L26.8498411,22.6838171 C27.9104377,23.35345 32.51566,26.1156861 37.0371509,26.8411218 C40.7492391,27.4270506 41.251627,29.1848372 41.4190896,30.7752155 C41.5865522,32.3934952 41.893567,37.1367288 41.893567,37.3599398 L41.9214775,37.9458686 L40.5259556,38.0016714 L0.586119192,38.0016714 L0.586119192,37.9458686 Z M1.17223838,36.8298137 L40.4980451,36.8298137 L40.7213286,36.8298137 C40.6375973,35.4905477 40.4143138,32.1423828 40.2747616,30.886821 C40.1631199,29.7428647 40.0235677,28.4315001 36.8417778,27.9292754 C31.4829738,27.0643328 26.207901,23.6045624 25.9846175,23.4650555 L25.761334,23.3255487 L25.4264088,19.69837 L25.761334,19.5309618 C25.8450653,19.475159 28.1058108,18.3033013 28.2174525,15.4294598 L28.2174525,15.1504461 L28.440736,14.9830378 C28.5802882,14.8993337 31.6504364,12.6672238 30.1711832,10.4072125 L30.1432727,10.3793111 L26.9335724,4.9385432 L22.5516337,3.09705251 L16.0764121,1.36716733 L12.6713387,3.26446076 L11.4991003,10.7699304 C11.4991003,10.8257331 10.8850707,14.3413062 13.1737266,14.8993337 L13.5923832,15.0109392 L13.5923832,15.4294598 C13.5923832,15.4573612 13.7319354,19.0845398 15.9089495,19.475159 L16.4113374,19.5588632 L16.0485017,23.130239 L15.7973078,23.2697459 C15.5182034,23.4371542 8.79178788,27.3154451 5.16343098,27.901374 C2.1491037,28.3756973 1.61880539,30.1334839 1.53507407,30.66361 C1.56298451,30.9426238 1.33970101,34.3744928 1.17223838,36.8298137 Z" id="XMLID_106_" fill="#465A79"></path>
                </g>
                <g id="XMLID_88_" transform="translate(66.147737, 11.997591)" fill="#DEE2E6">
                    <g id="XMLID_90_">
                        <path d="M0.36283569,0 L0.195373064,0 L0.167462626,0.083704122 C0.223283502,0.027901374 0.307014815,0.027901374 0.36283569,0 Z" id="Shape"></path>
                    </g>
                    <g id="XMLID_89_" transform="translate(0.279104, 5.022247)">
                        <path d="M15.1553677,4.32471297 C15.1553677,4.32471297 4.8843266,2.34371542 2.28865589,0.027901374 C2.28865589,0.027901374 2.17701414,0.55802748 1.56298451,0.920745342 C0.697760943,1.45087145 0.279104377,1.2834632 0.279104377,1.2834632 C0.279104377,1.2834632 0.418656566,3.59927724 0.167462626,5.41286655 L0.697760943,7.22645586 L2.1491037,3.431869 C2.1491037,3.431869 2.34447677,2.0368003 4.07492391,3.431869 C5.80537105,4.8269377 14.4576067,6.55682289 15.4344721,6.27780915 C16.4113374,5.99879541 16.6625313,6.58472426 16.9974566,7.33806136 C17.3323818,8.09139846 17.918501,8.00769433 17.918501,8.00769433 L16.132233,4.9385432 C15.8531286,4.7153322 15.5461138,4.52002259 15.1553677,4.32471297 Z" id="Shape"></path>
                    </g>
                </g>
                <g id="XMLID_76_" transform="translate(63.356694, 7.533371)">
                    <g id="XMLID_12_" transform="translate(0.558209, 0.558027)" fill="#F7F8F9">
                        <path d="M1.78626801,17.0477395 C1.67462626,17.0477395 1.59089495,17.0477395 1.4792532,17.0198381 L1.14432795,16.936134 L1.06059663,16.6013175 C1.00477576,16.3502052 -0.446567004,10.4630152 0.641940068,6.08249953 C0.97686532,4.7153322 1.56298451,3.29236213 3.43298384,3.26446076 C3.96328216,2.39951816 5.6937293,0.195309618 9.5453697,0.195309618 C11.0525333,0.195309618 12.75507,0.55802748 14.5692485,1.25556183 C15.1274572,1.5066742 19.9001421,3.57137587 20.9886492,5.32916243 C21.7143206,6.50102014 21.7701414,9.5422699 21.7143206,11.2721551 C21.7143206,11.7185771 21.5747684,15.7084736 20.9607387,16.489712 C20.7932761,16.712923 20.5699926,16.7408244 20.4583509,16.7408244 C20.0117839,16.7408244 19.8722317,16.3502052 19.7605899,16.0711914 C19.5652168,15.5689667 19.1744707,14.5366158 17.6952175,13.8111801 C16.7462626,13.6158705 8.34522088,11.9417881 5.16343098,9.79338227 C5.02387879,9.96079051 4.82850573,10.1561001 4.54940135,10.3235084 C4.15865522,10.5467194 3.82372997,10.6862262 3.57253603,10.742029 C3.6283569,12.2208018 3.60044647,15.6247694 2.62358115,16.6850216 C2.34447677,16.9919368 2.00955152,17.0477395 1.78626801,17.0477395 Z" id="Shape"></path>
                    </g>
                    <g id="XMLID_8_" fill="#465A79">
                        <g id="XMLID_9_">
                            <path d="M10.1035785,1.31136458 C11.415369,1.31136458 13.0341744,1.59037832 14.9320842,2.34371542 C14.9320842,2.34371542 20.0396943,4.52002259 21.1002909,6.19410503 C22.188798,7.95189159 21.7143206,15.9595859 21.1002909,16.712923 C21.0723805,16.7408244 21.04447,16.7687258 21.04447,16.7687258 C20.8211865,16.7687258 20.7932761,14.9551365 18.4767098,13.8669829 C18.4767098,13.8669829 8.20566869,11.8859853 5.60999798,9.57017128 C5.60999798,9.57017128 5.49835623,10.1002974 4.8843266,10.4630152 C4.35402829,10.7978317 3.99119259,10.8536345 3.76790909,10.8536345 C3.65626734,10.8536345 3.60044647,10.8257331 3.60044647,10.8257331 C3.60044647,10.8257331 3.93537172,17.1314436 2.37238721,17.1314436 C2.31656633,17.1314436 2.26074546,17.1314436 2.20492458,17.1035423 C2.20492458,17.1035423 0.725671381,11.1605496 1.78626801,6.83583663 C2.20492458,5.16175419 2.81895421,4.43631846 4.13074478,4.43631846 C4.2144761,4.43631846 4.27029697,4.43631846 4.35402829,4.43631846 C4.29820741,4.38051572 5.72163973,1.31136458 10.1035785,1.31136458 Z M10.1035785,0.195309618 C6.33566936,0.195309618 4.4377596,2.20420855 3.68417778,3.29236213 C1.64671583,3.48767175 0.97686532,5.21755694 0.669850505,6.52892151 C-0.446567004,11.0489441 1.0326862,17.0756409 1.08850707,17.3267532 L1.2559697,17.9684848 L1.89790977,18.1358931 C2.03746195,18.1637945 2.20492458,18.1916958 2.34447677,18.1916958 C2.81895421,18.1916958 3.26552121,17.9963862 3.60044647,17.6336684 C4.63313266,16.5455148 4.74477441,13.6158705 4.71686398,11.7185771 C4.94014748,11.634873 5.19134142,11.5232675 5.41462492,11.3837606 C5.58208755,11.3000565 5.6937293,11.188451 5.83328148,11.0768455 C9.26626533,13.0857444 16.6625313,14.62032 18.0859636,14.8993337 C19.3140229,15.5131639 19.6210377,16.3502052 19.8164108,16.8245285 C19.9280525,17.1314436 20.2071569,17.8568794 21.04447,17.8568794 C21.4073057,17.8568794 21.742231,17.6894711 21.9934249,17.382556 C22.6911859,16.5176134 22.8307381,13.2252513 22.8865589,11.8301826 C22.9423798,9.6538754 22.8586485,6.80793525 22.0771562,5.5802748 C20.9049179,3.71088274 16.3276061,1.67408244 15.4065616,1.31136458 L15.3786512,1.31136458 L15.3507407,1.31136458 C13.452831,0.55802748 11.666563,0.195309618 10.1035785,0.195309618 Z" id="Shape"></path>
                        </g>
                    </g>
                </g>
                <g id="XMLID_71_" transform="translate(71.171616, 41.015020)" fill="#DEE2E6">
                    <polygon id="Shape" points="2.81895421 0.83704122 0.167462626 7.78448334 3.60044647 10.4072125 7.08925118 7.78448334 4.60522222 0.809139846 3.65626734 0.251112366"></polygon>
                </g>
                <g id="XMLID_65_" transform="translate(66.985051, 37.945869)" fill="#DEE2E6">
                    <polygon id="Shape" points="1.95373064 0.13950687 7.87074344 3.57137587 14.0389502 0.585928854 15.2670094 1.11605496 13.0620849 5.74768304 7.87074344 4.04569923 2.90268552 5.74768304 0.139552189 1.00444946"></polygon>
                </g>
                <g id="XMLID_60_" transform="translate(66.426842, 37.108827)">
                    <polygon id="XMLID_100_" fill="#FFFFFF" points="2.5119394 0.641731602 8.42895219 3.5434745 14.3738754 0.920745342 15.8252182 1.56247694 13.3132788 5.71978167 8.42895219 4.04569923 3.87955084 5.71978167 0.837313132 1.59037832"></polygon>
                    <path d="M13.5086519,6.2220064 L8.45686263,4.49212121 L3.73999866,6.2220064 L0.223283502,1.45087145 L2.5119394,0.167408244 L8.45686263,3.06915114 L14.3738754,0.474323358 L16.4392478,1.36716733 L13.5086519,6.2220064 Z M1.45134276,1.72988519 L4.01910303,5.21755694 L7.98238519,3.76668549 L2.5119394,1.11605496 L1.45134276,1.72988519 Z M8.93134007,3.76668549 L13.1458162,5.18965556 L15.2111886,1.72988519 L14.3738754,1.36716733 L8.93134007,3.76668549 Z" id="XMLID_101_" fill="#465A79"></path>
                </g>
                <g id="XMLID_56_" transform="translate(71.729825, 40.456992)">
                    <polygon id="XMLID_96_" fill="#38A0DE" points="2.53984983 1.56247694 0.61402963 8.06349708 3.09805859 10.6304235 5.58208755 8.28670807 3.76790909 1.56247694 3.09805859 0.809139846"></polygon>
                    <path d="M3.09805859,11.2163523 L0.139552189,8.17510258 L2.17701414,1.36716733 L3.07014815,0.111605496 L4.13074478,1.33926595 L6.05656499,8.3704122 L3.09805859,11.2163523 Z M1.08850707,7.95189159 L3.12596903,10.0444946 L5.13552054,8.1472012 L3.4050734,1.75778656 L3.15387946,1.47877282 L2.9585064,1.75778656 L1.08850707,7.95189159 Z" id="XMLID_97_" fill="#465A79"></path>
                </g>
                <g id="XMLID_63_" transform="translate(26.235811, 8.928440)">
                    <path d="M40.107299,12.7788293 C42.4796862,16.3502052 37.6511805,19.7541728 37.6511805,19.7541728 C37.4837179,23.9951816 34.0228236,25.7250668 34.0228236,25.7250668 L34.3856593,29.6312592 C34.3856593,29.6312592 41.3632687,34.2628873 48.2850573,35.3789422 C52.8902795,36.1322793 53.2252047,38.196981 53.3926674,39.8989648 C53.6159509,42.0194692 54.0346074,48.7716017 54.0346074,48.7716017 L52.9461004,49.1343196 L0.753581819,49.1343196 C0.753581819,49.1343196 1.28388014,40.4290909 1.39552189,39.8710634 C1.4792532,39.3409373 2.12119327,36.2438848 6.72641549,35.4905477 C11.415369,34.7372106 20.40253,29.4359496 20.40253,29.4359496 L20.7653657,25.7808696 C17.3323818,25.139138 17.1649192,19.7820742 17.1649192,19.7820742 C13.452831,18.8892302 14.4296963,13.5321664 14.4296963,13.5321664 L15.9926808,3.37606625 L21.0165596,0.585928854 L29.8083475,2.95754564 L35.8090916,5.4686693 L40.107299,12.7788293 Z" id="XMLID_92_" fill="#F7F8F9"></path>
                    <path d="M53.0298317,49.6644457 L0.139552189,49.6644457 L0.167462626,49.0785168 C0.223283502,48.1856729 0.725671381,40.3174854 0.809402694,39.7594579 C0.97686532,38.8108112 1.84208889,35.6858573 6.61477374,34.9325202 C10.7176081,34.2628873 18.365068,29.9381743 19.8443212,29.1011331 L20.1234256,26.1993902 C17.276561,25.2786448 16.6904418,21.484058 16.5788,20.2005948 C13.6202936,19.1682439 13.4807414,15.3736571 13.8156667,13.4484623 L15.4344721,3.04124976 L20.9049179,-4.26325641e-14 L29.9758101,2.45532091 L36.1440169,5.05014869 L40.5259556,12.5277169 C41.6144627,14.2017994 41.5028209,16.0711914 40.1910303,17.9684848 C39.4653589,19.0008357 38.5722249,19.7541728 38.1535684,20.0889893 C37.9023744,23.6603651 35.4741664,25.5018558 34.5810323,26.0877847 L34.8880472,29.3522454 C36.1161064,30.1334839 42.2843132,33.9001694 48.3408781,34.8488161 C53.4763987,35.6858573 53.7555031,38.2806851 53.9229657,39.8431621 C54.1462492,41.9636665 54.5369953,48.4646866 54.5649058,48.7437004 L54.5928162,49.162221 L53.0298317,49.6644457 Z M1.33970101,48.5483907 L52.8623691,48.5483907 L53.4484882,48.3530811 C53.3647569,46.8185056 53.0298317,41.7125541 52.8344586,39.9268662 C52.666996,38.4480934 52.4995334,36.6066027 48.201326,35.9090683 C41.251627,34.7930134 34.3856593,30.2729908 34.0786445,30.0776812 L33.855361,29.9381743 L33.4367044,25.3902503 L33.7716296,25.2228421 C33.9111818,25.1670393 36.9255091,23.576661 37.0929717,19.7262714 L37.0929717,19.4472577 L37.3162552,19.2798494 C37.4837179,19.1403426 41.6702835,16.1548955 39.6049111,13.0857444 L39.5770007,13.057843 L35.3625246,5.88718991 L29.5571536,3.45977037 L21.0165596,1.17185771 L16.4392478,3.71088274 L14.9041737,13.6158705 C14.9041737,13.6716733 14.0668606,18.4707096 17.2207401,19.2240467 L17.6393966,19.3356522 L17.6673071,19.7541728 C17.6673071,19.8099755 17.8626801,24.6648146 20.8211865,25.2228421 L21.3235744,25.3065462 L20.8770074,29.770766 L20.6258135,29.9102729 C20.2629778,30.1334839 11.4991003,35.2673367 6.75432593,36.0485752 C2.7352229,36.6903068 2.00955152,39.2014305 1.86999933,39.9547676 C1.86999933,40.3174854 1.56298451,45.0886204 1.33970101,48.5483907 Z" id="XMLID_93_" fill="#465A79"></path>
                </g>
                <g id="XMLID_62_" transform="translate(42.423865, 5.022247)" fill="#DEE2E6">
                    <g id="XMLID_69_">
                        <path d="M0.307014815,0.223210992 L0.0837313132,0.223210992 L0.0279104377,0.334816488 C0.139552189,0.27901374 0.223283502,0.251112366 0.307014815,0.223210992 Z" id="Shape"></path>
                    </g>
                    <g id="XMLID_78_" transform="translate(0.279104, 6.696330)">
                        <path d="M19.7326795,5.77558442 C19.7326795,5.77558442 6.30775893,3.18075663 2.90268552,0.13950687 C2.90268552,0.13950687 2.7352229,0.809139846 1.95373064,1.2834632 C0.837313132,1.95309618 0.279104377,1.75778656 0.279104377,1.75778656 C0.279104377,1.75778656 0.446567004,4.77113495 0.111641751,7.17065312 L0.809402694,9.5422699 L2.70731246,4.57582533 C2.70731246,4.57582533 2.98641684,2.76223602 5.24716229,4.57582533 C7.50790775,6.38941464 18.811635,8.64942594 20.0955152,8.28670807 C21.3514849,7.92399021 21.6864101,8.67732731 22.1329771,9.68177677 C22.5795441,10.6862262 23.3331259,10.5467194 23.3331259,10.5467194 L20.9886492,6.55682289 C20.6537239,6.27780915 20.2350674,5.99879541 19.7326795,5.77558442 Z" id="Shape"></path>
                    </g>
                </g>
                <g id="XMLID_64_" transform="translate(39.074613, 0.000000)">
                    <g id="XMLID_7_" transform="translate(0.558209, 0.279014)" fill="#F7F8F9">
                        <path d="M2.03746195,21.9862827 C1.9258202,21.9862827 1.81417845,21.9583813 1.67462626,21.93048 L1.33970101,21.8467758 L1.2559697,21.5119593 C1.17223838,21.1771429 -0.697760943,13.5321664 0.697760943,7.84028609 C1.11641751,6.08249953 1.89790977,4.29681159 4.27029697,4.26891022 C4.8843266,3.23655938 7.06134074,0.251112366 12.1410404,0.251112366 C14.0947711,0.251112366 16.2996956,0.725435724 18.6441724,1.61827969 C18.9511872,1.75778656 25.5101401,4.57582533 26.9614828,6.863738 C28.4965569,9.29115754 27.9104377,20.0052851 26.9335724,21.260847 C26.7381993,21.484058 26.5428263,21.5398607 26.4032741,21.5398607 C26.4032741,21.5398607 26.4032741,21.5398607 26.4032741,21.5398607 C25.9567071,21.5398607 25.7892445,21.1492415 25.6496923,20.7865236 C25.3984983,20.1168906 24.8682,18.6939206 22.8307381,17.7173725 C21.7143206,17.4941615 10.3826828,15.2341502 6.3635798,12.4161114 C6.16820674,12.6672238 5.9170128,12.9462375 5.49835623,13.1973499 C4.91223704,13.5321664 4.46567004,13.6995746 4.13074478,13.7553774 C4.15865522,14.397109 4.15865522,15.4852626 4.10283435,16.6571203 C3.99119259,19.2240467 3.60044647,20.814425 2.93059596,21.5398607 C2.76313333,21.8188745 2.40029764,21.9862827 2.03746195,21.9862827 Z" id="Shape"></path>
                    </g>
                    <g id="XMLID_3_" fill="#465A79">
                        <g id="XMLID_4_">
                            <path d="M12.7271596,1.11605496 C14.4576067,1.11605496 16.5508896,1.47877282 19.0349185,2.45532091 C19.0349185,2.45532091 25.7055131,5.30126106 27.101035,7.47756823 C28.5523778,9.7654809 27.8825273,20.2284961 27.101035,21.2329456 C27.0731246,21.260847 27.0452142,21.2887484 27.0173037,21.2887484 C26.7381993,21.2887484 26.6823785,18.9171316 23.6401408,17.4941615 C23.6401408,17.4941615 10.2152202,14.8993337 6.81014681,11.8580839 C6.81014681,11.8580839 6.64268418,12.5277169 5.86119192,13.0020403 C5.16343098,13.4205609 4.68895354,13.504265 4.40984916,13.504265 C4.24238653,13.504265 4.18656566,13.4763636 4.18656566,13.4763636 C4.18656566,13.4763636 4.63313266,21.707269 2.59567071,21.707269 C2.53984983,21.707269 2.45611852,21.707269 2.37238721,21.6793676 C2.37238721,21.6793676 0.446567004,13.8948842 1.81417845,8.2588067 C2.34447677,6.05459816 3.1817899,5.10595144 4.8843266,5.10595144 C4.96805792,5.10595144 5.07969967,5.10595144 5.19134142,5.10595144 C5.19134142,5.13385281 7.03343031,1.11605496 12.7271596,1.11605496 Z M12.7271596,0 C7.75910169,0 5.38671448,2.73433465 4.52149091,4.01779785 C1.98164108,4.1852061 1.14432795,6.2220064 0.725671381,8.00769433 C-0.697760943,13.8390815 1.20014882,21.6235648 1.28388014,21.9583813 L1.45134276,22.6001129 L2.09328283,22.7675212 C2.26074546,22.8233239 2.42820808,22.8233239 2.59567071,22.8233239 C2.9585064,22.8233239 3.51671515,22.7117184 3.99119259,22.2094937 C5.30298317,20.814425 5.38671448,16.7408244 5.33089361,14.4808131 C5.66581886,14.3692076 6.05656499,14.2017994 6.41940068,13.9785884 C6.69850505,13.8111801 6.89387812,13.6437719 7.08925118,13.4484623 C11.415369,16.1548955 21.491037,18.1916958 23.2773051,18.5544137 C25.0356626,19.4193563 25.4822296,20.6191154 25.7334236,21.2887484 C25.8729758,21.6514662 26.1520802,22.4048033 26.9893933,22.4048033 C27.2126768,22.4048033 27.6034229,22.3490006 27.9383482,21.93048 C28.8035717,20.8702277 28.9710344,16.266501 29.0268552,14.8714323 C29.1664074,9.79338227 28.5523778,7.72868059 28.0220795,6.89163938 C26.5149158,4.49212121 20.1792465,1.72988519 19.4535751,1.42297007 L19.4256647,1.42297007 L19.3977542,1.42297007 C17.025367,0.474323358 14.7646216,0 12.7271596,0 Z" id="Shape"></path>
                        </g>
                    </g>
                </g>
                <g id="XMLID_61_" transform="translate(48.843266, 43.247130)" fill="#DEE2E6">
                    <polygon id="Shape" points="3.68417778 1.03235084 0.223283502 10.1002974 4.68895354 13.504265 9.26626533 10.1002974 6.00074411 1.00444946 4.77268485 0.251112366"></polygon>
                </g>
                <g id="XMLID_59_" transform="translate(43.540283, 39.340937)" fill="#DEE2E6">
                    <polygon id="Shape" points="2.37238721 0 10.1314889 4.49212121 18.1976054 0.613830228 19.7605899 1.2834632 16.9137253 7.36596273 10.1314889 5.10595144 3.60044647 7.36596273 0 1.14395633"></polygon>
                </g>
                <g id="XMLID_58_" transform="translate(42.982074, 38.224882)">
                    <polygon id="XMLID_83_" fill="#FFFFFF" points="2.93059596 0.69753435 10.6896976 4.46421984 18.4208889 1.06025221 20.3187987 1.86939206 17.0532775 7.31015998 10.6896976 5.13385281 4.71686398 7.31015998 0.725671381 1.92519481"></polygon>
                    <path d="M17.2486505,7.81238472 L10.6896976,5.5802748 L4.57731179,7.81238472 L0.111641751,1.78568794 L2.93059596,0.223210992 L10.7176081,3.98989648 L18.4487993,0.585928854 L20.9607387,1.67408244 L17.2486505,7.81238472 Z M1.33970101,2.06470168 L4.85641616,6.83583663 L10.4105933,4.8269377 L2.93059596,1.19975908 L1.33970101,2.06470168 Z M10.968802,4.79903633 L16.8858148,6.80793525 L19.7326795,2.06470168 L18.4487993,1.5066742 L10.968802,4.79903633 Z" id="XMLID_84_" fill="#465A79"></path>
                </g>
                <g id="XMLID_57_" transform="translate(49.680579, 42.689102)">
                    <polygon id="XMLID_48_" fill="#38A0DE" points="3.20970034 1.81358931 0.697760943 10.3235084 3.93537172 13.6437719 7.20089293 10.5746207 4.80059529 1.81358931 3.93537172 0.809139846"></polygon>
                    <path d="M3.93537172,14.2576021 L0.223283502,10.4351139 L2.84686465,1.61827969 L3.93537172,0.13950687 L5.19134142,1.61827969 L7.67537037,10.7141276 L3.93537172,14.2576021 Z M1.14432795,10.1840015 L3.93537172,13.057843 L6.69850505,10.4351139 L4.38193872,2.00889893 L3.93537172,1.47877282 L3.57253603,1.98099755 L1.14432795,10.1840015 Z" id="XMLID_55_" fill="#465A79"></path>
                </g>
                <g id="XMLID_40_" transform="translate(87.638774, 0.000000)">
                    <ellipse id="XMLID_43_" fill="#F7F8F9" cx="12.5038761" cy="12.3324073" rx="11.9456673" ry="11.9417881"></ellipse>
                    <path d="M12.5038761,24.692716 C5.6937293,24.692716 0.167462626,19.1403426 0.167462626,12.3603087 C0.167462626,5.5802748 5.6937293,0 12.5038761,0 C19.3140229,0 24.8402896,5.55237342 24.8402896,12.3324073 C24.8402896,19.1124412 19.2861125,24.692716 12.5038761,24.692716 Z M12.5038761,0.83704122 C6.16820674,0.83704122 1.00477576,5.99879541 1.00477576,12.3324073 C1.00477576,18.6660192 6.16820674,23.8277734 12.5038761,23.8277734 C18.8395455,23.8277734 24.0029764,18.6939206 24.0029764,12.3324073 C24.0029764,5.97089403 18.8395455,0.83704122 12.5038761,0.83704122 Z" id="XMLID_44_" fill="#465A79"></path>
                </g>
                <g id="XMLID_47_" transform="translate(89.871609, 2.232110)">
                    <ellipse id="XMLID_38_" fill="#38A0DE" cx="10.2710411" cy="10.1002974" rx="9.85238452" ry="9.84918502"></ellipse>
                    <path d="M10.2710411,20.2284961 C4.68895354,20.2284961 0.139552189,15.6805722 0.139552189,10.1002974 C0.139552189,4.52002259 4.68895354,0 10.2710411,0 C15.8531286,0 20.40253,4.54792396 20.40253,10.1281988 C20.40253,15.7084736 15.8252182,20.2284961 10.2710411,20.2284961 Z M10.2710411,0.55802748 C4.99596835,0.55802748 0.697760943,4.85483907 0.697760943,10.1281988 C0.697760943,15.4015584 4.99596835,19.69837 10.2710411,19.69837 C15.5461138,19.69837 19.8443212,15.4015584 19.8443212,10.1281988 C19.8443212,4.85483907 15.5182034,0.55802748 10.2710411,0.55802748 Z" id="XMLID_39_" fill="#465A79"></path>
                </g>
                <g id="XMLID_70_" transform="translate(0.000000, 20.926030)">
                    <ellipse id="XMLID_34_" fill="#F7F8F9" cx="8.70805657" cy="8.76103143" rx="8.14984782" ry="8.1472012"></ellipse>
                    <path d="M8.70805657,17.3267532 C3.99119259,17.3267532 0.139552189,13.4763636 0.139552189,8.76103143 C0.139552189,4.04569923 3.99119259,0.195309618 8.70805657,0.195309618 C13.4249205,0.195309618 17.276561,4.04569923 17.276561,8.76103143 C17.276561,13.4763636 13.4249205,17.3267532 8.70805657,17.3267532 Z M8.70805657,1.03235084 C4.4377596,1.03235084 0.97686532,4.49212121 0.97686532,8.76103143 C0.97686532,13.0299417 4.4377596,16.489712 8.70805657,16.489712 C12.9783535,16.489712 16.4392478,13.0299417 16.4392478,8.76103143 C16.4392478,4.49212121 12.9783535,1.03235084 8.70805657,1.03235084 Z" id="XMLID_35_" fill="#465A79"></path>
                </g>
                <g id="XMLID_68_" transform="translate(1.674626, 22.600113)">
                    <ellipse id="XMLID_30_" fill="#38A0DE" cx="7.03343031" cy="7.08694899" rx="6.72641549" ry="6.72423113"></ellipse>
                    <path d="M7.03343031,14.0901939 C3.1817899,14.0901939 0.0279104377,10.9373386 0.0279104377,7.08694899 C0.0279104377,3.23655938 3.1817899,0.083704122 7.03343031,0.083704122 C10.8850707,0.083704122 14.0389502,3.23655938 14.0389502,7.08694899 C14.0389502,10.96524 10.8850707,14.0901939 7.03343031,14.0901939 Z M7.03343031,0.641731602 C3.48880472,0.641731602 0.586119192,3.5434745 0.586119192,7.08694899 C0.586119192,10.6304235 3.48880472,13.5321664 7.03343031,13.5321664 C10.5780559,13.5321664 13.4807414,10.6304235 13.4807414,7.08694899 C13.4807414,3.5434745 10.5780559,0.641731602 7.03343031,0.641731602 Z" id="XMLID_31_" fill="#465A79"></path>
                </g>
                <g id="XMLID_67_" transform="translate(3.070148, 24.553209)">
                    <polyline id="XMLID_28_" fill="#38A0DE" points="0.279104377 6.69632976 1.75835758 6.69632976 3.34925253 1.06025221 6.61477374 9.79338227 7.47999731 4.1852061 10.1593993 4.0736006"></polyline>
                    <path d="M6.72641549,10.8815359 L3.37716296,1.95309618 L1.98164108,6.9753435 L0.279104377,6.9753435 C0.111641751,6.9753435 0,6.863738 0,6.69632976 C0,6.52892151 0.111641751,6.41731602 0.279104377,6.41731602 L1.56298451,6.41731602 L3.29343165,0.167408244 L6.50313199,8.70522868 L7.22880337,3.90619236 L10.1314889,3.79458686 C10.2989515,3.79458686 10.4105933,3.90619236 10.4105933,4.0736006 C10.4105933,4.24100885 10.2989515,4.35261434 10.1314889,4.35261434 L7.67537037,4.43631846 L6.72641549,10.8815359 Z" id="XMLID_29_" fill="#FAFBFC"></path>
                </g>
                <g id="XMLID_77_" transform="translate(95.453697, 7.254357)">
                    <polygon id="XMLID_24_" fill="#FAFBFC" points="0.279104377 0.55802748 0.279104377 11.1605496 9.48954883 11.1605496 9.48954883 2.98544702 7.36835556 0.55802748"></polygon>
                    <path d="M10.0477576,11.4395633 L0,11.4395633 L0,0 L7.53581819,0 L10.0477576,2.84594015 L10.0477576,11.4395633 Z M0.837313132,10.6025221 L9.21044445,10.6025221 L9.21044445,3.15285526 L7.1729825,0.83704122 L0.837313132,0.83704122 L0.837313132,10.6025221 Z" id="XMLID_25_" fill="#465A79"></path>
                </g>
                <g id="XMLID_79_" transform="translate(102.431306, 6.975343)">
                    <polygon id="XMLID_2_" fill="#FAFBFC" points="0.390746128 0.530126106 2.76313333 3.26446076 0.279104377 3.26446076"></polygon>
                    <path d="M2.76313333,3.62717862 C2.76313333,3.62717862 2.76313333,3.62717862 2.76313333,3.62717862 L0.307014815,3.57137587 C0.223283502,3.57137587 0.167462626,3.51557312 0.111641751,3.45977037 C0.0558208755,3.40396763 0.0279104377,3.3202635 0.0279104377,3.23655938 L0.111641751,0.502224732 C0.111641751,0.390619236 0.195373064,0.27901374 0.307014815,0.251112366 C0.418656566,0.223210992 0.530298317,0.251112366 0.61402963,0.334816488 L2.98641684,3.06915114 C3.07014815,3.15285526 3.07014815,3.3202635 3.04223771,3.40396763 C2.9585064,3.51557312 2.87477509,3.62717862 2.76313333,3.62717862 Z M0.586119192,2.98544702 L2.1491037,2.98544702 L0.641940068,1.25556183 L0.586119192,2.98544702 Z" id="XMLID_21_" fill="#465A79"></path>
                </g>
                <g id="XMLID_54_" transform="translate(97.407428, 10.602522)" fill="#465A79">
                    <path d="M5.30298317,0.83704122 L0.558208755,0.83704122 C0.334925253,0.83704122 0.139552189,0.641731602 0.139552189,0.41852061 C0.139552189,0.195309618 0.334925253,0 0.558208755,0 L5.30298317,0 C5.52626667,0 5.72163973,0.195309618 5.72163973,0.41852061 C5.72163973,0.641731602 5.52626667,0.83704122 5.30298317,0.83704122 Z" id="XMLID_20_"></path>
                </g>
                <g id="XMLID_66_" transform="translate(97.407428, 14.787728)" fill="#465A79">
                    <path d="M2.79104377,0.83704122 L0.558208755,0.83704122 C0.334925253,0.83704122 0.139552189,0.641731602 0.139552189,0.41852061 C0.139552189,0.195309618 0.334925253,0 0.558208755,0 L2.79104377,0 C3.01432727,0 3.20970034,0.195309618 3.20970034,0.41852061 C3.20970034,0.641731602 3.01432727,0.83704122 2.79104377,0.83704122 Z" id="XMLID_19_"></path>
                </g>
                <g id="XMLID_81_" transform="translate(97.407428, 12.834632)" fill="#465A79">
                    <path d="M5.30298317,0.83704122 L0.558208755,0.83704122 C0.334925253,0.83704122 0.139552189,0.641731602 0.139552189,0.41852061 C0.139552189,0.195309618 0.334925253,0 0.558208755,0 L5.30298317,0 C5.52626667,0 5.72163973,0.195309618 5.72163973,0.41852061 C5.72163973,0.641731602 5.52626667,0.83704122 5.30298317,0.83704122 Z" id="XMLID_18_"></path>
                </g>
            </g>
        </g>
    </g>
</svg>