<?xml version="1.0" encoding="UTF-8"?>
<svg width="14px" height="8px" viewBox="0 0 14 8" version="1.1" xmlns="http://www.w3.org/2000/svg" xmlns:xlink="http://www.w3.org/1999/xlink">
    <!-- Generator: Sketch 50 (54983) - http://www.bohemiancoding.com/sketch -->
    <title>箭头 copy</title>
    <desc>Created with Sketch.</desc>
    <defs></defs>
    <g id="Symbols" stroke="none" stroke-width="1" fill="none" fill-rule="evenodd">
        <g id="导航2" transform="translate(-1037.000000, -16.000000)" fill="#FFFFFF" fill-rule="nonzero">
            <g id="Group-6" transform="translate(961.000000, 8.000000)">
                <g id="箭头-copy" transform="translate(83.000000, 12.062500) rotate(-270.000000) translate(-83.000000, -12.062500) translate(79.500000, 5.500000)">
                    <path d="M6.57276327,6.69565217 C6.46209171,6.69565217 6.35793024,6.65788149 6.27329905,6.57604501 L0.127772517,0.708998784 C-0.0414898665,0.551620935 -0.0414898665,0.287226148 0.121262425,0.123553184 C0.284014717,-0.0401197789 0.557438567,-0.0401197789 0.72670095,0.11725807 L6.87222748,5.98430429 C7.04148987,6.14168214 7.04148987,6.40607693 6.87873757,6.56974989 C6.79410638,6.65158638 6.68343482,6.69565217 6.57276327,6.69565217 Z" id="Shape"></path>
                    <path d="M0.427236733,12.7826087 C0.316565175,12.7826087 0.205893617,12.7381668 0.121262425,12.655632 C-0.0414898665,12.4905623 -0.0414898665,12.23026 0.127772517,12.0651903 L6.27329905,6.20521525 C6.44256143,6.04649437 6.70947519,6.04649437 6.87873757,6.21156409 C7.04148987,6.37663381 7.04148987,6.63693606 6.87222748,6.80200578 L0.72670095,12.6619808 C0.642069758,12.7381668 0.5313982,12.7826087 0.427236733,12.7826087 Z" id="Shape"></path>
                </g>
            </g>
        </g>
    </g>
</svg>