<?xml version="1.0" encoding="UTF-8"?>
<svg width="92px" height="30px" viewBox="0 0 92 30" version="1.1" xmlns="http://www.w3.org/2000/svg" xmlns:xlink="http://www.w3.org/1999/xlink">
    <!-- Generator: Sketch 50 (54983) - http://www.bohemiancoding.com/sketch -->
    <title>head</title>
    <desc>Created with Sketch.</desc>
    <defs></defs>
    <g id="Symbols" stroke="none" stroke-width="1" fill="none" fill-rule="evenodd">
        <g id="底部信息" transform="translate(-601.000000, -210.000000)" fill="#FFFFFF">
            <g id="Group-3">
                <g id="head" transform="translate(601.000000, 210.000000)">
                    <g id="XMLID_11_" transform="translate(30.000000, 0.000000)">
                        <g id="XMLID_12_">
                            <path d="M42.7126592,7.99117263 C43.9991011,7.61462523 45.1694382,7.18694176 46.1865169,6.72206843 C47.2082397,6.25719509 48.1277903,5.73188822 48.9219476,5.16474276 C49.7161049,4.59759729 50.4220225,3.97466702 51.0211236,3.31454688 C51.578427,2.70556281 52.0846442,2.04544268 52.5304869,1.35743014 C52.795206,1.82230347 53.152809,2.33831288 53.5986517,2.90080961 C54.0955805,3.53303735 54.7086142,4.18386002 55.419176,4.83933142 C56.1297378,5.49480282 56.9564045,6.13632803 57.8666667,6.74531209 C58.781573,7.35429616 59.8079401,7.89354923 60.9225468,8.35377384 L61.0154307,8.3909637 L61.9814232,6.42454949 L61.8606742,6.38271089 C60.783221,6.02010969 59.7893633,5.63426482 58.9023221,5.23447376 C58.0199251,4.83468269 57.1979026,4.37910682 56.4641199,3.88634108 C55.7303371,3.39357535 55.0476404,2.83572735 54.4392509,2.24068948 C53.8308614,1.64100287 53.2596255,0.952990337 52.7441199,0.190598067 L52.7116105,0.144110734 L50.6356554,0.144110734 L50.6031461,0.204544268 C50.2734082,0.841420737 49.8786517,1.46899974 49.4281648,2.07333508 C48.9776779,2.67302168 48.4250187,3.26341081 47.7841199,3.83055628 C47.143221,4.39770175 46.3676404,4.96019849 45.4852434,5.49945156 C44.5982022,6.04335336 43.5532584,6.58260643 42.3689888,7.10326456 L42.2714607,7.14510316 L42.6058427,8.0283625 L42.7126592,7.99117263 Z" id="XMLID_13_"></path>
                            <rect id="XMLID_14_" x="46.2933333" y="7.18694176" width="11.30397" height="1"></rect>
                            <path d="M38.8811985,2.39874641 C38.5932584,2.05009141 38.2124345,1.87343954 37.7526592,1.87343954 L36.8470412,1.87343954 C36.5776779,1.87343954 36.3501124,1.91527814 36.1597004,1.99430661 C36.0528839,2.04079394 35.9553558,2.09193001 35.8717603,2.14771481 L35.8717603,1.87343954 L34.2834457,1.87343954 L34.2834457,18.3950379 L37.6133333,18.3950379 C38.082397,18.3950379 38.4910861,18.2230347 38.8254682,17.8883259 C39.1598502,17.5489684 39.3316854,17.1398799 39.3316854,16.6657091 L39.3316854,3.63995822 C39.3177528,3.15648995 39.1644944,2.74275268 38.8811985,2.39874641 Z M37.6829963,17.1119875 C37.6829963,17.2328545 37.6458427,17.3258292 37.5761798,17.4002089 C37.5018727,17.4745887 37.4089888,17.5117785 37.2928839,17.5117785 L35.8717603,17.5117785 L35.8717603,3.37033168 C35.9460674,3.24016715 36.0621723,3.10535388 36.2107865,2.96589188 C36.3594007,2.83107861 36.5544569,2.76134761 36.8098876,2.76134761 L37.2743071,2.76134761 C37.390412,2.76134761 37.4879401,2.79853748 37.5668914,2.88221468 C37.6458427,2.96124315 37.6876404,3.05886655 37.6876404,3.17973361 L37.6876404,17.1119875 L37.6829963,17.1119875 Z" id="XMLID_15_"></path>
                            <path d="M12.4603745,12.5794725 C12.8922846,12.9513711 13.3659925,13.3604597 13.8675655,13.8020893 C14.3691386,14.243719 14.8614232,14.6853487 15.3351311,15.1176809 C15.8181273,15.5546618 16.2314607,15.9451554 16.5565543,16.2798642 L16.644794,16.3728389 L17.8755056,14.6946461 L17.7779775,14.6295639 C17.3785768,14.3645861 16.9048689,14.0531209 16.3800749,13.6998172 C15.8413483,13.337216 15.2840449,12.9746148 14.7313858,12.6166623 C14.1926592,12.2726561 13.663221,11.9332985 13.1523596,11.6125359 C12.6600749,11.3057195 12.25603,11.0639854 11.9588015,10.9012797 L11.8705618,10.8547924 L11.3597004,11.6032384 L11.4293633,11.6683207 C11.6708614,11.8914599 12.0145318,12.1982763 12.4603745,12.5794725 Z" id="XMLID_18_"></path>
                            <path d="M2.69363296,1.49689214 C2.51715356,1.56662314 2.35460674,1.63635414 2.2106367,1.71538261 C2.13632959,1.75257247 2.06666667,1.79905981 2.00164794,1.84089841 L2.00164794,1.28769914 L0.0139325843,1.28769914 L0.0139325843,16.7261426 C0.0139325843,17.2003134 0.181123596,17.6186994 0.506217228,17.9766519 L0.510861423,17.9813006 C0.854531835,18.3253069 1.27250936,18.5019587 1.75550562,18.5019587 L18.0148315,18.5019587 L18.0148315,17.6140507 L2.87940075,17.6140507 C2.63790262,17.6140507 2.44284644,17.5303735 2.27101124,17.3630191 L2.26636704,17.3583703 C2.08988764,17.2049621 2.00164794,17.0050666 2.00164794,16.754035 L2.00164794,2.95659441 C2.08524345,2.86826848 2.18277154,2.78459128 2.29423221,2.71486028 C2.42891386,2.62653434 2.58217228,2.52891094 2.7493633,2.42663881 C3.10696629,2.24533821 3.50636704,2.15701228 3.94292135,2.15701228 L18.0101873,2.15701228 L18.0101873,1.28769914 L3.98007491,1.28769914 C3.45992509,1.28769914 3.02801498,1.35743014 2.69363296,1.49689214 Z" id="XMLID_19_"></path>
                            <path d="M7.58861423,12.779368 C7.25423221,13.128023 6.9105618,13.4301907 6.5529588,13.6812223 C6.19535581,13.9462001 5.83310861,14.1925829 5.47550562,14.4064247 C5.06217228,14.662105 4.63490637,14.8945417 4.19835206,15.0990859 C3.76179775,15.3036302 3.29737828,15.4895795 2.82367041,15.6522852 L2.71685393,15.6894751 L3.07445693,16.6424654 L3.17198502,16.614573 C4.19370787,16.3310003 5.21543071,15.9405067 6.20928839,15.4523897 C6.65048689,15.219953 7.0870412,14.9689214 7.50501873,14.6992949 C7.73722846,14.5644816 7.96014981,14.4157221 8.17378277,14.2576652 C8.38277154,14.104257 8.60104869,13.9415513 8.84254682,13.7602507 C9.26052434,13.4348394 9.68314607,13.0350483 10.1011236,12.5748237 C10.3054682,12.3563333 10.491236,12.1424915 10.658427,11.942596 C10.8302622,11.7380517 10.992809,11.4916688 11.1414232,11.2173936 L11.1414232,11.2127448 C11.1878652,11.1244189 11.2157303,11.0407417 11.2389513,10.9617132 C11.2575281,10.8919822 11.2807491,10.8222512 11.30397,10.7618177 C11.3225468,10.7153304 11.3411236,10.6641943 11.350412,10.6084095 L17.2438951,10.6084095 L17.2438951,9.72050144 L11.3922097,9.72050144 L11.3922097,5.95037869 L16.8816479,5.95037869 L16.8816479,5.06247062 L7.24029963,5.06247062 L7.57003745,4.63013842 C7.63505618,4.54181249 7.69543071,4.44883782 7.75116105,4.36516062 C7.80689139,4.28148342 7.85797753,4.19780622 7.89977528,4.11412902 L8.20164794,3.55628101 L6.20928839,2.89616088 L6.17213483,2.98913555 C5.88419476,3.69109428 5.53588015,4.33261948 5.1364794,4.89046749 C4.94606742,5.16009402 4.76029963,5.42042309 4.58382022,5.65750849 C4.40734082,5.89459389 4.23086142,6.11308436 4.05902622,6.29438496 C3.84539326,6.52217289 3.63640449,6.73136589 3.44134831,6.91731523 C3.24164794,7.10326456 3.04194757,7.27991643 2.84224719,7.43797336 L2.76794007,7.4984069 L3.22771536,8.27009663 L3.31595506,8.23290677 C4.00329588,7.93538783 4.61632959,7.5681379 5.13183521,7.14510316 C5.6705618,6.73601463 6.12104869,6.33622356 6.47865169,5.95502742 L9.31625468,5.95502742 L9.31625468,9.72515017 L3.12089888,9.72515017 L3.12089888,10.599112 L9.08404494,10.599112 C8.93078652,10.9803082 8.73108614,11.3522068 8.48958801,11.7008618 C8.21093633,12.1099504 7.90441948,12.4725516 7.58861423,12.779368 Z" id="XMLID_20_"></path>
                            <path d="M32.7229963,2.83107861 C32.407191,2.49172108 31.9752809,2.31971794 31.4365543,2.31971794 L29.7182022,2.31971794 L29.7182022,0.00929746671 L27.8883895,0.00929746671 L27.8883895,2.31971794 L26.3372285,2.31971794 L26.3372285,3.20762601 L27.8883895,3.20762601 L27.8883895,6.05729956 C27.9162547,8.0144163 27.8465918,9.69260904 27.6886891,11.0453904 C27.5307865,12.3981719 27.2985768,13.5696527 27.0106367,14.5319405 C26.7180524,15.4895795 26.3697378,16.3077566 25.9656929,16.9539305 C25.5616479,17.6094019 25.1250936,18.2276835 24.6746067,18.7855315 L24.6188764,18.8552625 L25.2086891,19.5525725 L25.2922846,19.4874902 C26.1050187,18.8506137 26.7830712,18.0882215 27.3171536,17.2328545 C27.851236,16.3774876 28.2831461,15.4663359 28.6035955,14.5179943 C28.9240449,13.5743014 29.1701873,12.5980674 29.3327341,11.6264821 C29.4952809,10.6548968 29.6020974,9.70190651 29.6578277,8.80005224 C29.7089139,7.89354923 29.736779,7.04747976 29.7274906,6.28973623 C29.7228464,5.53199269 29.7182022,4.88117002 29.7182022,4.35586315 L29.7182022,3.20762601 L31.0743071,3.20762601 C31.190412,3.20762601 31.2786517,3.24481588 31.3436704,3.32384435 C31.4133333,3.40287281 31.4458427,3.50514495 31.4458427,3.62601202 L31.4458427,15.0665448 C31.4458427,15.6708801 31.357603,16.2054845 31.1811236,16.6564116 C31.0046442,17.1119875 30.8002996,17.4931836 30.5820225,17.7953513 C30.3358801,18.148655 30.0525843,18.4647689 29.736779,18.7250979 L29.6531835,18.7948289 L30.2197753,19.473544 L30.2940824,19.4363541 C31.0557303,19.0644555 31.6455431,18.6042309 32.0449438,18.0649778 C32.4397004,17.5303735 32.7276404,17.0097153 32.9041199,16.5169496 C33.1084644,15.9405067 33.2106367,15.3315226 33.2106367,14.6992949 L33.1920599,4.02580308 C33.1967041,3.57022721 33.0388015,3.16578741 32.7229963,2.83107861 Z" id="XMLID_21_"></path>
                            <path d="M42.471161,11.4312353 L49.0008989,11.4312353 C48.573633,12.291251 48.1277903,13.0629407 47.6773034,13.7277096 C47.1989513,14.4389658 46.7345318,15.0711935 46.2933333,15.6150953 C45.856779,16.1543484 45.4434457,16.6378167 45.0626217,17.0469052 C44.6817978,17.4559937 44.3567041,17.8325411 44.1012734,18.1533037 C43.9758801,18.3020632 43.9619476,18.4601201 44.068764,18.6042309 C44.1337828,18.6972055 44.2638202,18.8041264 44.5006742,18.7808827 C45.5270412,18.6879081 46.3165543,18.6181771 46.97603,18.5577435 C47.7191011,18.4880125 48.4250187,18.4229303 49.0705618,18.3531993 C49.6743071,18.2927657 50.3012734,18.2230347 50.98397,18.148655 C51.6016479,18.078924 52.2564794,17.9952468 52.9298876,17.8929747 C53.6032959,17.7907025 54.3370787,17.6698355 55.108015,17.5257247 C55.8557303,17.3862627 56.7195506,17.2189083 57.6762547,17.0190128 C57.968839,17.3165317 58.2753558,17.6372943 58.5865169,17.9766519 C58.9208989,18.3439018 59.2645693,18.7204492 59.5989513,19.1016453 L59.6825468,19.19462 L61.2058427,17.4792374 L61.1222472,17.4048577 C60.5835206,16.9306869 59.9844195,16.4518673 59.3435206,15.9823453 C58.7955056,15.5779055 58.1592509,15.1316271 57.4486891,14.6528075 C56.7381273,14.173988 55.9764794,13.7137634 55.1869663,13.2814312 L55.1033708,13.2349439 L54.5414232,13.9554975 L54.6157303,14.0252285 C54.7922097,14.1879342 55.0011985,14.3878297 55.2380524,14.6109689 C55.4331086,14.7969183 55.6746067,15.0247062 55.9718352,15.3175764 C56.2319101,15.5732567 56.5012734,15.8428833 56.7659925,16.1078611 C56.3898127,16.1543484 55.9161049,16.2101332 55.3495131,16.2705667 C54.6343071,16.3449465 53.8308614,16.4286237 52.9577528,16.5123009 C52.0707116,16.6006268 51.0582772,16.6889527 49.9529588,16.7772787 C48.9637453,16.8563071 47.9048689,16.9213894 46.8041948,16.9725255 C47.4265169,16.4472186 47.9931086,15.917263 48.4807491,15.4012536 C49.0380524,14.8155132 49.5303371,14.2576652 49.9436704,13.7463045 C50.3616479,13.2302951 50.7099625,12.7607731 50.9746816,12.3516845 C51.220824,11.9751371 51.4205243,11.663672 51.5691386,11.4172891 L61.4334082,11.4172891 L61.4334082,10.529381 L42.4665169,10.529381 L42.4665169,11.4312353 L42.471161,11.4312353 Z" id="XMLID_22_"></path>
                            <path d="M26.0957303,14.5179943 L26.0957303,3.78406895 C26.0957303,3.30060068 25.9517603,2.88686341 25.6684644,2.54750588 C25.3805243,2.20814834 24.9997004,2.03149648 24.5399251,2.03149648 L23.7968539,2.03149648 C23.5135581,2.03149648 23.2720599,2.07333508 23.0770037,2.16166101 C22.9608989,2.21279708 22.8587266,2.27323061 22.7565543,2.33831288 L22.7565543,2.03149648 L21.1496629,2.03149648 L21.1496629,16.2240794 L24.3959551,16.2240794 C24.8650187,16.2240794 25.2737079,16.056725 25.5988015,15.7266649 C25.9285393,15.4012536 26.0957303,14.9921651 26.0957303,14.5179943 Z M24.4702622,14.9456777 C24.4702622,15.0665448 24.4331086,15.1595195 24.3495131,15.2431967 C24.2705618,15.3222251 24.1730337,15.3640637 24.0569288,15.3640637 L22.7565543,15.3640637 L22.7565543,3.55628101 C22.844794,3.41217028 22.9655431,3.26805955 23.1234457,3.11930008 C23.2767041,2.97518935 23.4903371,2.90545835 23.7550562,2.90545835 L24.0569288,2.90545835 C24.1730337,2.90545835 24.2705618,2.94729695 24.3495131,3.03097415 C24.4331086,3.11930008 24.4702622,3.22157221 24.4702622,3.33779055 L24.4702622,14.9456777 Z" id="XMLID_23_"></path>
                        </g>
                        <g id="XMLID_26_" transform="translate(0.603745, 24.684774)" fill-rule="nonzero">
                            <polygon id="XMLID_27_" points="0.0417977528 4.67197702 0.0417977528 0.158056934 0.928838951 0.158056934 2.17812734 3.64925568 3.46456929 0.158056934 4.25872659 0.158056934 4.25872659 4.67197702 3.65962547 4.67197702 3.65962547 0.999477671 2.41498127 4.36980935 1.79730337 4.36980935 0.589812734 0.990180204 0.589812734 4.67197702"></polygon>
                            <polygon id="XMLID_29_" points="6.03745318 4.67197702 6.03745318 0.158056934 8.55460674 0.158056934 8.55460674 0.636876469 6.67370787 0.636876469 6.67370787 2.08728128 8.24808989 2.08728128 8.24808989 2.55680334 6.67370787 2.55680334 6.67370787 4.19315748 8.68464419 4.19315748 8.68464419 4.67197702"></polygon>
                            <path d="M10.0453933,4.67197702 L10.0453933,0.158056934 L11.5454682,0.158056934 C11.9913109,0.158056934 12.3535581,0.209193001 12.6275655,0.306816401 C12.901573,0.404439802 13.1430712,0.576442936 13.3427715,0.813528337 C13.663221,1.19007574 13.8211236,1.68749021 13.8211236,2.30577174 C13.8211236,3.05421781 13.6214232,3.63530948 13.2266667,4.04904675 C12.8319101,4.46278402 12.2746067,4.66732829 11.5547566,4.66732829 L10.0453933,4.66732829 L10.0453933,4.67197702 Z M10.6862921,4.19315748 L11.5036704,4.19315748 C12.088839,4.19315748 12.5021723,4.03510055 12.7483146,3.71898668 C13.0083895,3.38427788 13.1430712,2.93335075 13.1430712,2.36620528 C13.1430712,1.83624967 13.0130337,1.41786367 12.757603,1.115696 C12.5997004,0.929746671 12.4139326,0.80423087 12.1956554,0.73449987 C11.9773783,0.664768869 11.6522846,0.632227736 11.2157303,0.632227736 L10.6862921,0.632227736 L10.6862921,4.19315748 Z" id="XMLID_31_"></path>
                            <polygon id="XMLID_36_" points="15.3397753 4.67197702 15.3397753 0.158056934 15.9806742 0.158056934 15.9806742 4.67197702"></polygon>
                            <polygon id="XMLID_42_" points="17.7640449 4.67197702 17.7640449 0.158056934 20.2811985 0.158056934 20.2811985 0.636876469 18.4002996 0.636876469 18.4002996 2.08728128 19.9746816 2.08728128 19.9746816 2.55680334 18.4002996 2.55680334 18.4002996 4.19315748 20.411236 4.19315748 20.411236 4.67197702"></polygon>
                            <path d="M23.6993258,4.78354662 C22.9980524,4.78354662 22.4593258,4.57900235 22.0738577,4.16526508 C21.6930337,3.75152782 21.5026217,3.17043615 21.5026217,2.41734134 C21.5026217,1.66424654 21.6976779,1.08315487 22.0877903,0.664768869 C22.4779026,0.251031601 23.0259176,0.0418386002 23.7318352,0.0418386002 C24.1358801,0.0418386002 24.609588,0.106920867 25.1529588,0.241734134 L25.1529588,0.841420737 C24.5352809,0.627579003 24.061573,0.520658136 23.7225468,0.520658136 C23.2349064,0.520658136 22.8540824,0.688012536 22.5847191,1.0180726 C22.3153558,1.34813267 22.1806742,1.81765474 22.1806742,2.42199008 C22.1806742,2.99843301 22.3246442,3.44936015 22.6079401,3.78406895 C22.8958801,4.11877775 23.2859925,4.28148342 23.7829213,4.28148342 C24.2101873,4.28148342 24.6653184,4.15131888 25.1529588,3.88634108 L25.1529588,4.43489162 C24.7117603,4.66732829 24.228764,4.78354662 23.6993258,4.78354662 Z" id="XMLID_47_"></path>
                            <path d="M28.5246442,4.78354662 C27.8976779,4.78354662 27.3961049,4.56505615 27.0152809,4.13272395 C26.6344569,3.70039175 26.4440449,3.12394881 26.4440449,2.41269261 C26.4440449,1.69678767 26.6344569,1.12034474 27.0199251,0.69266127 C27.4053933,0.264977801 27.9116105,0.0464873335 28.5525094,0.0464873335 C29.188764,0.0464873335 29.6996255,0.260329068 30.0850936,0.688012536 C30.4705618,1.115696 30.6609738,1.68749021 30.6609738,2.40339514 C30.6609738,3.13324628 30.4705618,3.70968922 30.0850936,4.14202142 C29.6996255,4.56970489 29.1794757,4.78354662 28.5246442,4.78354662 Z M28.5339326,4.30472708 C28.9937079,4.30472708 29.3513109,4.13737268 29.6020974,3.80731262 C29.8528839,3.47260381 29.9782772,3.00773048 29.9782772,2.39874641 C29.9782772,1.81300601 29.8528839,1.35278141 29.5974532,1.02272134 C29.3466667,0.69266127 28.9937079,0.525306869 28.5478652,0.525306869 C28.0973783,0.525306869 27.7490637,0.69266127 27.4982772,1.02272134 C27.2474906,1.35743014 27.1220974,1.81765474 27.1220974,2.40804388 C27.1220974,2.99843301 27.2474906,3.46330635 27.4982772,3.79801515 C27.7490637,4.13737268 28.0927341,4.30472708 28.5339326,4.30472708 Z" id="XMLID_53_"></path>
                            <path d="M40.7667416,4.55110995 C40.2187266,4.70916689 39.7450187,4.78354662 39.3363296,4.78354662 C38.6211236,4.78354662 38.0684644,4.57900235 37.6876404,4.16991382 C37.3068165,3.76082528 37.1117603,3.17508488 37.1117603,2.41269261 C37.1117603,1.66424654 37.3068165,1.08315487 37.6922846,0.669417603 C38.082397,0.255680334 38.6257678,0.0464873335 39.3270412,0.0464873335 C39.7868165,0.0464873335 40.2651685,0.116218334 40.7574532,0.251031601 L40.7574532,0.841420737 C40.1351311,0.632227736 39.6614232,0.525306869 39.3270412,0.525306869 C38.8394007,0.525306869 38.463221,0.69266127 38.1938577,1.02272134 C37.9244944,1.35278141 37.7898127,1.82230347 37.7898127,2.42199008 C37.7898127,3.01702795 37.9337828,3.48190128 38.2217228,3.81196135 C38.5096629,4.14202142 38.9137079,4.30937582 39.4338577,4.30937582 C39.6474906,4.30937582 39.8797004,4.27218595 40.1258427,4.19780622 L40.1258427,2.72880648 L40.7620974,2.72880648 L40.7620974,4.55110995 L40.7667416,4.55110995 Z" id="XMLID_76_"></path>
                            <path d="M42.5083146,4.67197702 L42.5083146,0.158056934 L43.8737079,0.158056934 C44.305618,0.158056934 44.6353558,0.255680334 44.8675655,0.446278402 C45.0997753,0.636876469 45.211236,0.915800471 45.211236,1.27840167 C45.211236,1.87808827 44.9093633,2.30577174 44.3009738,2.55680334 L45.8056929,4.67197702 L45.020824,4.67197702 L43.7390262,2.76134761 L43.1445693,2.76134761 L43.1445693,4.67197702 L42.5083146,4.67197702 Z M43.1445693,2.28252808 L43.3535581,2.28252808 C44.1570037,2.28252808 44.5610487,1.96641421 44.5610487,1.33418647 C44.5610487,0.869313137 44.2220225,0.636876469 43.5486142,0.636876469 L43.1445693,0.636876469 L43.1445693,2.28252808 Z" id="XMLID_79_"></path>
                            <path d="M48.8940824,4.78354662 C48.2671161,4.78354662 47.7655431,4.56505615 47.3847191,4.13272395 C47.0038951,3.70039175 46.8134831,3.12394881 46.8134831,2.41269261 C46.8134831,1.69678767 47.0038951,1.12034474 47.3893633,0.69266127 C47.7701873,0.264977801 48.2810487,0.0464873335 48.9219476,0.0464873335 C49.5582022,0.0464873335 50.0690637,0.260329068 50.4545318,0.688012536 C50.84,1.115696 51.030412,1.68749021 51.030412,2.40339514 C51.030412,3.13324628 50.84,3.70968922 50.4545318,4.14202142 C50.0690637,4.56970489 49.5489139,4.78354662 48.8940824,4.78354662 Z M48.9033708,4.30472708 C49.3631461,4.30472708 49.7207491,4.13737268 49.9715356,3.80731262 C50.2223221,3.47260381 50.3477154,3.00773048 50.3477154,2.39874641 C50.3477154,1.81300601 50.2223221,1.35278141 49.9668914,1.02272134 C49.7161049,0.69266127 49.3631461,0.525306869 48.9173034,0.525306869 C48.4668165,0.525306869 48.1185019,0.69266127 47.8677154,1.02272134 C47.6169288,1.35743014 47.4915356,1.81765474 47.4915356,2.40804388 C47.4915356,2.99843301 47.6169288,3.46330635 47.8677154,3.79801515 C48.1185019,4.13737268 48.4621723,4.30472708 48.9033708,4.30472708 Z" id="XMLID_85_"></path>
                            <path d="M52.5119101,0.158056934 L53.152809,0.158056934 L53.152809,3.00773048 C53.152809,3.46330635 53.2364045,3.78871768 53.4035955,3.99791068 C53.5707865,4.20245495 53.8401498,4.30937582 54.202397,4.30937582 C54.56,4.30937582 54.8154307,4.21175242 54.9640449,4.01650562 C55.1126592,3.82125882 55.1869663,3.49119875 55.1869663,3.03097415 L55.1869663,0.162705667 L55.7489139,0.162705667 L55.7489139,3.02167668 C55.7489139,3.63530948 55.6235206,4.08623662 55.3680899,4.36516062 C55.1173034,4.64408462 54.7132584,4.78819535 54.1605993,4.78819535 C53.5986517,4.78819535 53.1806742,4.64408462 52.9159551,4.35121442 C52.6465918,4.05834422 52.5119101,3.61206582 52.5119101,3.00308175 L52.5119101,0.158056934 Z" id="XMLID_89_"></path>
                            <path d="M57.4951311,4.67197702 L57.4951311,0.158056934 L58.7211985,0.158056934 C59.2645693,0.158056934 59.6546816,0.251031601 59.8915356,0.432332202 C60.1283895,0.618281536 60.2491386,0.920449204 60.2491386,1.33883521 C60.2491386,1.81765474 60.0865918,2.19420214 59.7614981,2.46847741 C59.4364045,2.74275268 58.9859176,2.87756595 58.4100375,2.87756595 L58.1267416,2.87756595 L58.1267416,4.67197702 L57.4951311,4.67197702 Z M58.1313858,2.39409768 L58.3914607,2.39409768 C58.7722846,2.39409768 59.0648689,2.30577174 59.2738577,2.13376861 C59.4828464,1.95711674 59.5850187,1.71073387 59.5850187,1.39462001 C59.5850187,1.12499347 59.5060674,0.929746671 59.3435206,0.813528337 C59.1809738,0.697310003 58.9116105,0.641525203 58.5307865,0.641525203 L58.13603,0.641525203 L58.13603,2.39409768 L58.1313858,2.39409768 Z" id="XMLID_91_"></path>
                        </g>
                    </g>
                    <path d="M13.7818497,8.87668608 C14.4647888,9.17798782 15.2833471,8.90816537 15.6078643,8.27408261 L16.8671847,5.81869831 C17.1917019,5.18461556 16.9010895,4.42461566 16.2181503,4.12331392 C15.5352112,3.82201218 14.7166529,4.09183463 14.3921357,4.72591739 L13.1328153,7.18130169 C12.8082981,7.81538444 13.0989105,8.57538434 13.7818497,8.87668608 Z" id="XMLID_216_" fill-rule="nonzero"></path>
                    <path d="M17.5773415,17.7117664 C17.0855555,17.2605281 16.3339581,17.2700278 15.870009,17.7307659 C14.1348395,19.4549713 11.7640598,20.3336985 9.36080366,20.1342037 C8.16381508,20.0344563 7.03177937,19.6544661 5.99717297,19.0607315 C6.14563667,18.7614892 6.29410036,18.462247 6.45184305,18.1677546 C7.21271951,16.7427915 6.66525961,14.9615876 5.24557549,14.2348564 L2.52219449,12.8478924 C4.96720605,8.64425121 8.13597814,5.01534518 11.9681974,2.02767254 C11.0542177,0.821203781 9.33296672,0.650208209 8.21020999,1.65718213 C7.6117157,2.19391824 7.09209275,2.66415606 6.99002396,2.76865335 C4.72595254,4.97259628 2.66137921,7.46628171 0.972604629,10.159462 C0.262762564,11.2899327 -0.368208159,12.6958963 0.253483583,14.0163621 C0.773106532,15.1135837 1.87266581,15.5410726 2.86087731,16.0730588 C2.9629461,16.1300574 4.15993468,16.6620436 4.15529519,16.7427915 L4.0996213,16.8520387 C2.75880852,19.3647236 1.75203905,22.0246547 1.0839524,24.7843333 C0.722072135,26.2757946 1.5803779,27.7577563 3.0650149,28 C3.41297669,25.7390585 4.05786589,23.5446154 4.91617165,21.43567 C6.2291475,22.1576513 7.66738959,22.5993898 9.15202658,22.7228866 C12.2790433,22.9841299 15.368944,21.8394095 17.6330154,19.5879678 C17.8789084,19.3457241 18.0088142,19.0179826 17.9995352,18.6617418 C17.9995352,18.3007512 17.8417925,17.9540101 17.5773415,17.7117664 Z" id="XMLID_215_" fill-rule="nonzero"></path>
                </g>
            </g>
        </g>
    </g>
</svg>